G04 #@! TF.GenerationSoftware,KiCad,Pcbnew,9.0.0*
G04 #@! TF.CreationDate,2025-03-02T20:38:03-08:00*
G04 #@! TF.ProjectId,SuperPower-uC-KiCad,53757065-7250-46f7-9765-722d75432d4b,rev?*
G04 #@! TF.SameCoordinates,Original*
G04 #@! TF.FileFunction,Copper,L2,Bot*
G04 #@! TF.FilePolarity,Positive*
%FSLAX46Y46*%
G04 Gerber Fmt 4.6, Leading zero omitted, Abs format (unit mm)*
G04 Created by KiCad (PCBNEW 9.0.0) date 2025-03-02 20:38:03*
%MOMM*%
%LPD*%
G01*
G04 APERTURE LIST*
G04 Aperture macros list*
%AMRoundRect*
0 Rectangle with rounded corners*
0 $1 Rounding radius*
0 $2 $3 $4 $5 $6 $7 $8 $9 X,Y pos of 4 corners*
0 Add a 4 corners polygon primitive as box body*
4,1,4,$2,$3,$4,$5,$6,$7,$8,$9,$2,$3,0*
0 Add four circle primitives for the rounded corners*
1,1,$1+$1,$2,$3*
1,1,$1+$1,$4,$5*
1,1,$1+$1,$6,$7*
1,1,$1+$1,$8,$9*
0 Add four rect primitives between the rounded corners*
20,1,$1+$1,$2,$3,$4,$5,0*
20,1,$1+$1,$4,$5,$6,$7,0*
20,1,$1+$1,$6,$7,$8,$9,0*
20,1,$1+$1,$8,$9,$2,$3,0*%
G04 Aperture macros list end*
G04 #@! TA.AperFunction,ComponentPad*
%ADD10O,1.700000X1.700000*%
G04 #@! TD*
G04 #@! TA.AperFunction,ComponentPad*
%ADD11R,1.700000X1.700000*%
G04 #@! TD*
G04 #@! TA.AperFunction,SMDPad,CuDef*
%ADD12R,1.500000X1.500000*%
G04 #@! TD*
G04 #@! TA.AperFunction,ComponentPad*
%ADD13O,1.900000X1.200000*%
G04 #@! TD*
G04 #@! TA.AperFunction,ComponentPad*
%ADD14C,1.450000*%
G04 #@! TD*
G04 #@! TA.AperFunction,SMDPad,CuDef*
%ADD15R,1.500000X1.000000*%
G04 #@! TD*
G04 #@! TA.AperFunction,SMDPad,CuDef*
%ADD16R,1.000000X1.500000*%
G04 #@! TD*
G04 #@! TA.AperFunction,ComponentPad*
%ADD17O,2.000000X1.700000*%
G04 #@! TD*
G04 #@! TA.AperFunction,ComponentPad*
%ADD18RoundRect,0.250000X0.750000X-0.600000X0.750000X0.600000X-0.750000X0.600000X-0.750000X-0.600000X0*%
G04 #@! TD*
G04 #@! TA.AperFunction,ViaPad*
%ADD19C,0.800000*%
G04 #@! TD*
G04 #@! TA.AperFunction,ViaPad*
%ADD20C,0.600000*%
G04 #@! TD*
G04 #@! TA.AperFunction,Conductor*
%ADD21C,0.600000*%
G04 #@! TD*
G04 #@! TA.AperFunction,Conductor*
%ADD22C,1.000000*%
G04 #@! TD*
G04 #@! TA.AperFunction,Conductor*
%ADD23C,0.508000*%
G04 #@! TD*
G04 #@! TA.AperFunction,Conductor*
%ADD24C,0.500000*%
G04 #@! TD*
G04 #@! TA.AperFunction,Conductor*
%ADD25C,0.400000*%
G04 #@! TD*
G04 #@! TA.AperFunction,Conductor*
%ADD26C,0.250000*%
G04 #@! TD*
G04 APERTURE END LIST*
D10*
X130683000Y-121920000D03*
X133223000Y-121920000D03*
X135763000Y-121920000D03*
X138303000Y-121920000D03*
X140843000Y-121920000D03*
X143383000Y-121920000D03*
X145923000Y-121920000D03*
X148463000Y-121920000D03*
X151003000Y-121920000D03*
X153543000Y-121920000D03*
X156083000Y-121920000D03*
X158623000Y-121920000D03*
X161163000Y-121920000D03*
X163703000Y-121920000D03*
X166243000Y-121920000D03*
X168783000Y-121920000D03*
X171323000Y-121920000D03*
X173863000Y-121920000D03*
X176403000Y-121920000D03*
X178943000Y-121920000D03*
D11*
X181483000Y-121920000D03*
D10*
X130683000Y-96520000D03*
X133223000Y-96520000D03*
X135763000Y-96520000D03*
X138303000Y-96520000D03*
X140843000Y-96520000D03*
X143383000Y-96520000D03*
X145923000Y-96520000D03*
X148463000Y-96520000D03*
X151003000Y-96520000D03*
X153543000Y-96520000D03*
X156083000Y-96520000D03*
X158623000Y-96520000D03*
X161163000Y-96520000D03*
X163703000Y-96520000D03*
X166243000Y-96520000D03*
X168783000Y-96520000D03*
X171323000Y-96520000D03*
X173863000Y-96520000D03*
X176403000Y-96520000D03*
X178943000Y-96520000D03*
D11*
X181483000Y-96520000D03*
D12*
X132606000Y-113546000D03*
X124333000Y-122047000D03*
X153035000Y-116967000D03*
X149987000Y-105283000D03*
X112903000Y-104838500D03*
X110363000Y-104838500D03*
X128016000Y-120904000D03*
X117475000Y-98679000D03*
D13*
X103537500Y-113085000D03*
X103537500Y-106085000D03*
D14*
X106237500Y-112085000D03*
X106237500Y-107085000D03*
D15*
X139573000Y-111917000D03*
X139573000Y-110617000D03*
D16*
X152400000Y-111887000D03*
X153700000Y-111887000D03*
X105507000Y-104838500D03*
X106807000Y-104838500D03*
X108107000Y-104838500D03*
D17*
X109093000Y-98034000D03*
D18*
X109093000Y-100534000D03*
D17*
X109093000Y-117846000D03*
D18*
X109093000Y-120346000D03*
D19*
X150090847Y-111910153D03*
X122096370Y-119594348D03*
X124968000Y-118872000D03*
X152299297Y-112138701D03*
X141732000Y-114808008D03*
X138430000Y-115570008D03*
X129413008Y-118364000D03*
D20*
X112395000Y-119761000D03*
X141732000Y-100004474D03*
X141099500Y-101729500D03*
X134990000Y-106415054D03*
X129476500Y-105346500D03*
X135699473Y-99881990D03*
D19*
X142656000Y-111221000D03*
D20*
X124881001Y-113546000D03*
X177800000Y-116268500D03*
D19*
X173101000Y-110871000D03*
X167767000Y-105537000D03*
X173101000Y-105537000D03*
X149987000Y-115443000D03*
D20*
X139509500Y-101600000D03*
D19*
X129575741Y-104432426D03*
X128506836Y-103403009D03*
X154813000Y-105791000D03*
X130053358Y-98297986D03*
X179324000Y-98425000D03*
X141798020Y-108077000D03*
X155194000Y-112141000D03*
X144145000Y-116586000D03*
X133858000Y-117094000D03*
X130175000Y-116646954D03*
D20*
X120777000Y-121285000D03*
X125594000Y-117856000D03*
X123377500Y-117922500D03*
D19*
X111125000Y-96138994D03*
X123634500Y-98615500D03*
D20*
X146939014Y-118237000D03*
D19*
X143603511Y-101448086D03*
D20*
X146047500Y-101729500D03*
D19*
X177863500Y-102235000D03*
D20*
X135001000Y-111656490D03*
D19*
X161988500Y-103441500D03*
D20*
X150431500Y-99949000D03*
D19*
X128548160Y-109830535D03*
D20*
X137642600Y-120497592D03*
X137033000Y-102489000D03*
X165862000Y-112776000D03*
D19*
X140909010Y-117541044D03*
D20*
X121006000Y-118671000D03*
X117031000Y-121221000D03*
X117031000Y-121871000D03*
X111381000Y-100246000D03*
D19*
X111292010Y-113896000D03*
X107442000Y-111075000D03*
X117282153Y-112964153D03*
X106934000Y-105918004D03*
D20*
X125222000Y-103123998D03*
D19*
X117081000Y-109446000D03*
D20*
X128968500Y-120967500D03*
X116205000Y-98679000D03*
X111950500Y-110049010D03*
X111181000Y-107596000D03*
X139181335Y-109894159D03*
D19*
X158115000Y-103251000D03*
X159262653Y-102103347D03*
X146050000Y-119888000D03*
D20*
X143281000Y-112746000D03*
X139890500Y-112915944D03*
X151815800Y-116281200D03*
X153670000Y-111506000D03*
D19*
X107569000Y-108077000D03*
X109881000Y-103346000D03*
D20*
X149987000Y-106552992D03*
D19*
X105537000Y-103505000D03*
D20*
X139573000Y-105283000D03*
X131381506Y-102552500D03*
X132229179Y-101735988D03*
X171577000Y-116335510D03*
X151764992Y-109219998D03*
X172847000Y-116335510D03*
X137787718Y-112110656D03*
X111185406Y-115713594D03*
X174117000Y-116395500D03*
X114663677Y-116018010D03*
X137786146Y-112860666D03*
X154051000Y-109279990D03*
X141986000Y-104902000D03*
X175387000Y-116395500D03*
X160020000Y-120842989D03*
X160528000Y-117983000D03*
X124730688Y-109837136D03*
X125983996Y-110718004D03*
X125984000Y-113074000D03*
X134733967Y-115316044D03*
X143764000Y-108585000D03*
X133742766Y-114663990D03*
X144571475Y-110471975D03*
X132823907Y-104031093D03*
X134098342Y-102185158D03*
X137794994Y-113665000D03*
X112339010Y-103701990D03*
X110871000Y-106045000D03*
X140271500Y-114554000D03*
X140271490Y-116649500D03*
X128651000Y-98552000D03*
X129056596Y-101100650D03*
X127810487Y-98679000D03*
X128016000Y-101584990D03*
X124460000Y-120904000D03*
X130256000Y-107271000D03*
X130534333Y-109778079D03*
X131006000Y-106871000D03*
X131355500Y-109798691D03*
X131318000Y-101346000D03*
X127952500Y-108825508D03*
X137477500Y-98145990D03*
X136506000Y-109171000D03*
X136206000Y-107446000D03*
D21*
X122056718Y-119634000D02*
X122096370Y-119594348D01*
D22*
X112338016Y-119704016D02*
X121986702Y-119704016D01*
X121986702Y-119704016D02*
X122056718Y-119634000D01*
X150194694Y-112014000D02*
X150090847Y-111910153D01*
X152174596Y-112014000D02*
X150194694Y-112014000D01*
X152299297Y-112138701D02*
X152174596Y-112014000D01*
X129159000Y-118364000D02*
X129413008Y-118364000D01*
X124968000Y-118872000D02*
X128651000Y-118872000D01*
X128651000Y-118872000D02*
X129159000Y-118364000D01*
D21*
X112268000Y-119634000D02*
X112395000Y-119761000D01*
D23*
X133832822Y-105346500D02*
X134493000Y-105346500D01*
X134493000Y-105346500D02*
X134990000Y-105843500D01*
X134990000Y-105843500D02*
X134990000Y-106415054D01*
D22*
X135255000Y-118364000D02*
X129413008Y-118364000D01*
X138048992Y-115570008D02*
X135255000Y-118364000D01*
X138430000Y-115570008D02*
X138048992Y-115570008D01*
D24*
X129476500Y-105346500D02*
X133832822Y-105346500D01*
D23*
X141099500Y-100840500D02*
X140462000Y-100203000D01*
X141099500Y-101729500D02*
X141099500Y-100840500D01*
D24*
X140462000Y-100203000D02*
X141668500Y-100203000D01*
D23*
X141732000Y-100004474D02*
X141732000Y-100139500D01*
D24*
X136123737Y-99881990D02*
X135699473Y-99881990D01*
X140462000Y-100203000D02*
X140140990Y-99881990D01*
X140140990Y-99881990D02*
X136123737Y-99881990D01*
X141732000Y-114808008D02*
X141732000Y-112145000D01*
X141732000Y-112145000D02*
X142656000Y-111221000D01*
D21*
X124831000Y-113596001D02*
X124881001Y-113546000D01*
X124831000Y-118735000D02*
X124831000Y-113596001D01*
X124968000Y-118872000D02*
X124831000Y-118735000D01*
D22*
X111810000Y-120346000D02*
X112395000Y-119761000D01*
X109093000Y-120346000D02*
X111810000Y-120346000D01*
D23*
X135699473Y-100306254D02*
X135699473Y-99881990D01*
X135699473Y-104456527D02*
X135699473Y-100306254D01*
X134796000Y-105360000D02*
X135699473Y-104456527D01*
X133477000Y-105360000D02*
X134796000Y-105360000D01*
D21*
X106807000Y-105791004D02*
X106934000Y-105918004D01*
X106807000Y-104838500D02*
X106807000Y-105791004D01*
D24*
X117282153Y-112964153D02*
X117282153Y-109647153D01*
X117282153Y-109647153D02*
X117081000Y-109446000D01*
D25*
X128841500Y-102235000D02*
X126110998Y-102235000D01*
X143383000Y-96647000D02*
X141234000Y-98796000D01*
X132280500Y-98796000D02*
X128841500Y-102235000D01*
X141234000Y-98796000D02*
X132280500Y-98796000D01*
X126110998Y-102235000D02*
X125222000Y-103123998D01*
D26*
X128905000Y-120904000D02*
X128968500Y-120967500D01*
X128016000Y-120904000D02*
X128905000Y-120904000D01*
D23*
X116205000Y-98679000D02*
X117475000Y-98679000D01*
D24*
X111869023Y-108286987D02*
X111869023Y-109967533D01*
X111869023Y-109967533D02*
X111950500Y-110049010D01*
D23*
X111869023Y-108284023D02*
X111181000Y-107596000D01*
X111869023Y-108286987D02*
X111869023Y-108284023D01*
X139065000Y-110729000D02*
X139065000Y-110010494D01*
X139065000Y-110010494D02*
X139181335Y-109894159D01*
X158115000Y-103251000D02*
X159131000Y-102235000D01*
X159131000Y-102235000D02*
X159262653Y-102103347D01*
D25*
X143281000Y-117119000D02*
X143281000Y-112746000D01*
X146050000Y-119888000D02*
X143281000Y-117119000D01*
X139573000Y-111917000D02*
X139573000Y-112598444D01*
X139573000Y-112598444D02*
X139890500Y-112915944D01*
D26*
X152349200Y-116281200D02*
X153035000Y-116967000D01*
X151815800Y-116281200D02*
X152349200Y-116281200D01*
D23*
X108107000Y-104554315D02*
X109315315Y-103346000D01*
X109315315Y-103346000D02*
X109881000Y-103346000D01*
X108107000Y-104775000D02*
X108107000Y-104554315D01*
D24*
X107950000Y-104932000D02*
X108107000Y-104775000D01*
X107950000Y-107696000D02*
X107950000Y-104932000D01*
X107569000Y-108077000D02*
X107950000Y-107696000D01*
D26*
X149987000Y-105302010D02*
X149987000Y-106552992D01*
D23*
X105507000Y-103535000D02*
X105537000Y-103505000D01*
X105507000Y-104775000D02*
X105507000Y-103535000D01*
D21*
X109093000Y-100534000D02*
X108508000Y-100534000D01*
D26*
X131412667Y-102552500D02*
X131381506Y-102552500D01*
X132229179Y-101735988D02*
X131412667Y-102552500D01*
X164626404Y-110426500D02*
X170535414Y-116335510D01*
X170535414Y-116335510D02*
X171152736Y-116335510D01*
X151701500Y-110426500D02*
X164626404Y-110426500D01*
X146812000Y-105537000D02*
X151701500Y-110426500D01*
X139827000Y-105537000D02*
X146812000Y-105537000D01*
X171152736Y-116335510D02*
X171577000Y-116335510D01*
X139573000Y-105283000D02*
X139827000Y-105537000D01*
X111485405Y-115413595D02*
X111185406Y-115713594D01*
X121634000Y-112046000D02*
X118266405Y-115413595D01*
X118266405Y-115413595D02*
X111485405Y-115413595D01*
X133959998Y-112046000D02*
X121634000Y-112046000D01*
X134168590Y-112254592D02*
X133959998Y-112046000D01*
X137643782Y-112254592D02*
X134168590Y-112254592D01*
X137787718Y-112110656D02*
X137643782Y-112254592D01*
X172233890Y-115722400D02*
X172847000Y-116335510D01*
X170713400Y-115722400D02*
X172233890Y-115722400D01*
X164846000Y-109855000D02*
X170713400Y-115722400D01*
X154349994Y-109855000D02*
X164846000Y-109855000D01*
X154333304Y-109856880D02*
X154349994Y-109855000D01*
X153117452Y-109712428D02*
X153133304Y-109706881D01*
X153103232Y-109721363D02*
X153117452Y-109712428D01*
X153091356Y-109733239D02*
X153103232Y-109721363D01*
X153082421Y-109747459D02*
X153091356Y-109733239D01*
X154282421Y-109897458D02*
X154291356Y-109883238D01*
X153074994Y-109930000D02*
X153074994Y-109780000D01*
X154276874Y-109913310D02*
X154282421Y-109897458D01*
X153073113Y-109946689D02*
X153074994Y-109930000D01*
X154273113Y-109946689D02*
X154276874Y-109913310D01*
X153067566Y-109962541D02*
X153073113Y-109946689D01*
X153058631Y-109976761D02*
X153067566Y-109962541D01*
X153046755Y-109988637D02*
X153058631Y-109976761D01*
X153032535Y-109997572D02*
X153046755Y-109988637D01*
X152549994Y-110005000D02*
X152999994Y-110005000D01*
X154199994Y-110005000D02*
X154216683Y-110003119D01*
X153076874Y-109763311D02*
X153082421Y-109747459D01*
X154291356Y-109883238D02*
X154303232Y-109871362D01*
X151764992Y-109219998D02*
X152399994Y-109855000D01*
X153074994Y-109780000D02*
X153076874Y-109763311D01*
X154267566Y-109962541D02*
X154273113Y-109946689D01*
X152399994Y-109855000D02*
X152416683Y-109856880D01*
X153016683Y-110003119D02*
X153032535Y-109997572D01*
X152416683Y-109856880D02*
X152432535Y-109862427D01*
X153749994Y-110005000D02*
X154199994Y-110005000D01*
X152999994Y-110005000D02*
X153016683Y-110003119D01*
X152432535Y-109862427D02*
X152446755Y-109871362D01*
X153733304Y-110003119D02*
X153749994Y-110005000D01*
X152533304Y-110003119D02*
X152549994Y-110005000D01*
X152446755Y-109871362D02*
X152458631Y-109883238D01*
X153717452Y-109997572D02*
X153733304Y-110003119D01*
X152491356Y-109976761D02*
X152503232Y-109988637D01*
X152517452Y-109997572D02*
X152533304Y-110003119D01*
X152458631Y-109883238D02*
X152467566Y-109897458D01*
X153703232Y-109988637D02*
X153717452Y-109997572D01*
X152476874Y-109946689D02*
X152482421Y-109962541D01*
X152503232Y-109988637D02*
X152517452Y-109997572D01*
X152467566Y-109897458D02*
X152473113Y-109913310D01*
X153691356Y-109976761D02*
X153703232Y-109988637D01*
X152473113Y-109913310D02*
X152476874Y-109946689D01*
X152482421Y-109962541D02*
X152491356Y-109976761D01*
X153133304Y-109706881D02*
X153149994Y-109705000D01*
X153149994Y-109705000D02*
X153599994Y-109705000D01*
X153599994Y-109705000D02*
X153616683Y-109706881D01*
X153616683Y-109706881D02*
X153632535Y-109712428D01*
X153632535Y-109712428D02*
X153646755Y-109721363D01*
X153646755Y-109721363D02*
X153658631Y-109733239D01*
X153658631Y-109733239D02*
X153667566Y-109747459D01*
X153667566Y-109747459D02*
X153673113Y-109763311D01*
X153673113Y-109763311D02*
X153674994Y-109780000D01*
X153674994Y-109780000D02*
X153674994Y-109930000D01*
X153674994Y-109930000D02*
X153676874Y-109946689D01*
X153676874Y-109946689D02*
X153682421Y-109962541D01*
X153682421Y-109962541D02*
X153691356Y-109976761D01*
X154216683Y-110003119D02*
X154232535Y-109997572D01*
X154232535Y-109997572D02*
X154246755Y-109988637D01*
X154246755Y-109988637D02*
X154258631Y-109976761D01*
X154258631Y-109976761D02*
X154267566Y-109962541D01*
X154303232Y-109871362D02*
X154317452Y-109862427D01*
X154317452Y-109862427D02*
X154333304Y-109856880D01*
X170942000Y-115189000D02*
X165032990Y-109279990D01*
X172910500Y-115189000D02*
X170942000Y-115189000D01*
X165032990Y-109279990D02*
X154051000Y-109279990D01*
X174117000Y-116395500D02*
X172910500Y-115189000D01*
X133528000Y-112446000D02*
X133942666Y-112860666D01*
X133942666Y-112860666D02*
X137786146Y-112860666D01*
X122059500Y-112446000D02*
X133528000Y-112446000D01*
X118487490Y-116018010D02*
X122059500Y-112446000D01*
X114663677Y-116018010D02*
X118487490Y-116018010D01*
X146849996Y-104902000D02*
X141986000Y-104902000D01*
X150532996Y-108585000D02*
X146849996Y-104902000D01*
X154305000Y-108585000D02*
X150532996Y-108585000D01*
X165227000Y-108712000D02*
X154432000Y-108712000D01*
X154432000Y-108712000D02*
X154305000Y-108585000D01*
X171196000Y-114681000D02*
X165227000Y-108712000D01*
X173672500Y-114681000D02*
X171196000Y-114681000D01*
X175387000Y-116395500D02*
X173672500Y-114681000D01*
X160020000Y-120842989D02*
X160020000Y-118491000D01*
X160020000Y-118491000D02*
X160528000Y-117983000D01*
X124730688Y-109837136D02*
X125611556Y-110718004D01*
X125611556Y-110718004D02*
X125983996Y-110718004D01*
X128226044Y-115316044D02*
X133351044Y-115316044D01*
X125984000Y-113074000D02*
X128226044Y-115316044D01*
X133351044Y-115316044D02*
X134733967Y-115316044D01*
X133713990Y-114663990D02*
X133742766Y-114663990D01*
X133096000Y-114046000D02*
X133713990Y-114663990D01*
X143764000Y-108585000D02*
X144571475Y-109392475D01*
X144571475Y-109392475D02*
X144571475Y-110471975D01*
X132823907Y-103459593D02*
X134098342Y-102185158D01*
X133985000Y-102298500D02*
X134098342Y-102185158D01*
X132823907Y-104031093D02*
X132823907Y-103459593D01*
X134741756Y-113665000D02*
X137794994Y-113665000D01*
X133742766Y-114663990D02*
X134741756Y-113665000D01*
X113411000Y-104775000D02*
X113411000Y-104773980D01*
X112339010Y-104211010D02*
X112903000Y-104775000D01*
X112339010Y-103701990D02*
X112339010Y-104211010D01*
X110871000Y-105283000D02*
X110363000Y-104775000D01*
X110871000Y-106045000D02*
X110871000Y-105283000D01*
X140271500Y-114554000D02*
X140271500Y-116649490D01*
X140271500Y-116649490D02*
X140271490Y-116649500D01*
X128651000Y-100695054D02*
X129056596Y-101100650D01*
X128651000Y-98552000D02*
X128651000Y-100695054D01*
X127810487Y-98679000D02*
X127810487Y-101379477D01*
X127810487Y-101379477D02*
X128016000Y-101584990D01*
X124460000Y-121920000D02*
X124333000Y-122047000D01*
X124460000Y-120904000D02*
X124460000Y-121920000D01*
X130256000Y-109499746D02*
X130534333Y-109778079D01*
X130256000Y-107271000D02*
X130256000Y-109499746D01*
X131006000Y-106871000D02*
X131006000Y-109449191D01*
X131006000Y-109449191D02*
X131355500Y-109798691D01*
X127952500Y-104945264D02*
X127952500Y-108825508D01*
X131318000Y-101579764D02*
X127952500Y-104945264D01*
X131318000Y-101346000D02*
X131318000Y-101579764D01*
X133223000Y-96647000D02*
X134721990Y-98145990D01*
X134721990Y-98145990D02*
X137477500Y-98145990D01*
X136506000Y-109171000D02*
X136206000Y-108871000D01*
X136206000Y-108871000D02*
X136206000Y-107446000D01*
G04 #@! TA.AperFunction,Conductor*
G36*
X179567524Y-95045446D02*
G01*
X179619842Y-95067136D01*
X179641500Y-95119446D01*
X179641500Y-95584852D01*
X179619826Y-95637178D01*
X179567500Y-95658852D01*
X179526388Y-95646381D01*
X179440598Y-95589059D01*
X179249420Y-95509870D01*
X179249413Y-95509868D01*
X179072557Y-95474690D01*
X179046465Y-95469500D01*
X178839535Y-95469500D01*
X178813443Y-95474690D01*
X178636586Y-95509868D01*
X178636579Y-95509870D01*
X178445401Y-95589059D01*
X178273345Y-95704022D01*
X178273344Y-95704024D01*
X178127024Y-95850344D01*
X178127022Y-95850345D01*
X178012059Y-96022401D01*
X177932870Y-96213579D01*
X177932868Y-96213586D01*
X177892500Y-96416535D01*
X177892500Y-96623464D01*
X177932868Y-96826413D01*
X177932870Y-96826420D01*
X178012059Y-97017598D01*
X178126810Y-97189337D01*
X178127023Y-97189655D01*
X178273345Y-97335977D01*
X178445402Y-97450941D01*
X178636580Y-97530130D01*
X178839535Y-97570500D01*
X178839536Y-97570500D01*
X179046464Y-97570500D01*
X179046465Y-97570500D01*
X179249420Y-97530130D01*
X179440598Y-97450941D01*
X179526388Y-97393617D01*
X179581937Y-97382569D01*
X179629029Y-97414035D01*
X179641500Y-97455147D01*
X179641500Y-120984852D01*
X179619826Y-121037178D01*
X179567500Y-121058852D01*
X179526388Y-121046381D01*
X179440598Y-120989059D01*
X179249420Y-120909870D01*
X179249413Y-120909868D01*
X179072557Y-120874690D01*
X179046465Y-120869500D01*
X178839535Y-120869500D01*
X178813443Y-120874690D01*
X178636586Y-120909868D01*
X178636579Y-120909870D01*
X178445401Y-120989059D01*
X178273345Y-121104022D01*
X178273344Y-121104024D01*
X178127024Y-121250344D01*
X178127022Y-121250345D01*
X178012059Y-121422401D01*
X177932870Y-121613579D01*
X177932868Y-121613586D01*
X177892500Y-121816535D01*
X177892500Y-122023464D01*
X177932868Y-122226413D01*
X177932870Y-122226420D01*
X178012059Y-122417598D01*
X178126810Y-122589337D01*
X178127023Y-122589655D01*
X178273345Y-122735977D01*
X178445402Y-122850941D01*
X178636580Y-122930130D01*
X178839535Y-122970500D01*
X178839536Y-122970500D01*
X179046464Y-122970500D01*
X179046465Y-122970500D01*
X179249420Y-122930130D01*
X179440598Y-122850941D01*
X179526388Y-122793617D01*
X179581937Y-122782569D01*
X179629029Y-122814035D01*
X179641500Y-122855147D01*
X179641500Y-123321500D01*
X179619826Y-123373826D01*
X179567500Y-123395500D01*
X102130500Y-123395500D01*
X102078174Y-123373826D01*
X102056500Y-123321500D01*
X102056500Y-119691734D01*
X107892500Y-119691734D01*
X107892500Y-121000266D01*
X107895354Y-121030699D01*
X107895354Y-121030701D01*
X107895355Y-121030704D01*
X107940206Y-121158881D01*
X107940207Y-121158883D01*
X108020846Y-121268146D01*
X108020853Y-121268153D01*
X108130116Y-121348792D01*
X108130118Y-121348793D01*
X108258295Y-121393644D01*
X108258301Y-121393646D01*
X108288734Y-121396500D01*
X108288741Y-121396500D01*
X109897258Y-121396500D01*
X109897266Y-121396500D01*
X109927699Y-121393646D01*
X110055882Y-121348793D01*
X110152817Y-121277252D01*
X123382500Y-121277252D01*
X123382500Y-122816748D01*
X123389301Y-122850940D01*
X123394133Y-122875232D01*
X123423608Y-122919343D01*
X123438448Y-122941552D01*
X123474001Y-122965308D01*
X123504767Y-122985866D01*
X123504768Y-122985866D01*
X123504769Y-122985867D01*
X123563252Y-122997500D01*
X123563254Y-122997500D01*
X125102746Y-122997500D01*
X125102748Y-122997500D01*
X125161231Y-122985867D01*
X125227552Y-122941552D01*
X125271867Y-122875231D01*
X125283500Y-122816748D01*
X125283500Y-121277252D01*
X125271867Y-121218769D01*
X125227552Y-121152448D01*
X125205343Y-121137608D01*
X125161232Y-121108133D01*
X125161233Y-121108133D01*
X125131989Y-121102316D01*
X125102748Y-121096500D01*
X125102746Y-121096500D01*
X125023014Y-121096500D01*
X124970688Y-121074826D01*
X124949014Y-121022500D01*
X124951536Y-121003347D01*
X124953191Y-120997169D01*
X124960500Y-120969892D01*
X124960500Y-120838108D01*
X124960500Y-120838106D01*
X124960499Y-120838105D01*
X124944151Y-120777094D01*
X124926392Y-120710814D01*
X124860500Y-120596686D01*
X124767314Y-120503500D01*
X124763171Y-120501108D01*
X124653190Y-120437610D01*
X124653181Y-120437606D01*
X124525894Y-120403500D01*
X124525892Y-120403500D01*
X124394108Y-120403500D01*
X124394106Y-120403500D01*
X124266818Y-120437606D01*
X124266809Y-120437610D01*
X124152685Y-120503500D01*
X124059500Y-120596685D01*
X123993610Y-120710809D01*
X123993606Y-120710818D01*
X123959500Y-120838105D01*
X123959500Y-120969894D01*
X123968464Y-121003347D01*
X123961072Y-121059500D01*
X123916139Y-121093978D01*
X123896986Y-121096500D01*
X123563252Y-121096500D01*
X123534010Y-121102316D01*
X123504767Y-121108133D01*
X123438449Y-121152447D01*
X123438447Y-121152449D01*
X123394133Y-121218767D01*
X123389216Y-121243488D01*
X123382500Y-121277252D01*
X110152817Y-121277252D01*
X110165150Y-121268150D01*
X110245793Y-121158882D01*
X110264853Y-121104412D01*
X110267776Y-121096060D01*
X110305515Y-121053828D01*
X110337623Y-121046500D01*
X111878992Y-121046500D01*
X111878994Y-121046500D01*
X112014328Y-121019580D01*
X112141811Y-120966775D01*
X112256543Y-120890114D01*
X112720467Y-120426190D01*
X112772793Y-120404516D01*
X122055694Y-120404516D01*
X122055696Y-120404516D01*
X122191030Y-120377596D01*
X122318513Y-120324791D01*
X122433245Y-120248130D01*
X122547122Y-120134253D01*
X127065500Y-120134253D01*
X127065500Y-121673746D01*
X127077133Y-121732232D01*
X127103564Y-121771787D01*
X127121448Y-121798552D01*
X127148361Y-121816535D01*
X127187767Y-121842866D01*
X127187768Y-121842866D01*
X127187769Y-121842867D01*
X127246252Y-121854500D01*
X127246254Y-121854500D01*
X128785746Y-121854500D01*
X128785748Y-121854500D01*
X128844231Y-121842867D01*
X128883639Y-121816535D01*
X129632500Y-121816535D01*
X129632500Y-122023464D01*
X129672868Y-122226413D01*
X129672870Y-122226420D01*
X129752059Y-122417598D01*
X129866810Y-122589337D01*
X129867023Y-122589655D01*
X130013345Y-122735977D01*
X130185402Y-122850941D01*
X130376580Y-122930130D01*
X130579535Y-122970500D01*
X130579536Y-122970500D01*
X130786464Y-122970500D01*
X130786465Y-122970500D01*
X130989420Y-122930130D01*
X131180598Y-122850941D01*
X131352655Y-122735977D01*
X131498977Y-122589655D01*
X131613941Y-122417598D01*
X131693130Y-122226420D01*
X131733500Y-122023465D01*
X131733500Y-121816535D01*
X132172500Y-121816535D01*
X132172500Y-122023464D01*
X132212868Y-122226413D01*
X132212870Y-122226420D01*
X132292059Y-122417598D01*
X132406810Y-122589337D01*
X132407023Y-122589655D01*
X132553345Y-122735977D01*
X132725402Y-122850941D01*
X132916580Y-122930130D01*
X133119535Y-122970500D01*
X133119536Y-122970500D01*
X133326464Y-122970500D01*
X133326465Y-122970500D01*
X133529420Y-122930130D01*
X133720598Y-122850941D01*
X133892655Y-122735977D01*
X134038977Y-122589655D01*
X134153941Y-122417598D01*
X134233130Y-122226420D01*
X134273500Y-122023465D01*
X134273500Y-121816535D01*
X134712500Y-121816535D01*
X134712500Y-122023464D01*
X134752868Y-122226413D01*
X134752870Y-122226420D01*
X134832059Y-122417598D01*
X134946810Y-122589337D01*
X134947023Y-122589655D01*
X135093345Y-122735977D01*
X135265402Y-122850941D01*
X135456580Y-122930130D01*
X135659535Y-122970500D01*
X135659536Y-122970500D01*
X135866464Y-122970500D01*
X135866465Y-122970500D01*
X136069420Y-122930130D01*
X136260598Y-122850941D01*
X136432655Y-122735977D01*
X136578977Y-122589655D01*
X136693941Y-122417598D01*
X136773130Y-122226420D01*
X136813500Y-122023465D01*
X136813500Y-121816535D01*
X137252500Y-121816535D01*
X137252500Y-122023464D01*
X137292868Y-122226413D01*
X137292870Y-122226420D01*
X137372059Y-122417598D01*
X137486810Y-122589337D01*
X137487023Y-122589655D01*
X137633345Y-122735977D01*
X137805402Y-122850941D01*
X137996580Y-122930130D01*
X138199535Y-122970500D01*
X138199536Y-122970500D01*
X138406464Y-122970500D01*
X138406465Y-122970500D01*
X138609420Y-122930130D01*
X138800598Y-122850941D01*
X138972655Y-122735977D01*
X139118977Y-122589655D01*
X139233941Y-122417598D01*
X139313130Y-122226420D01*
X139353500Y-122023465D01*
X139353500Y-121816535D01*
X139792500Y-121816535D01*
X139792500Y-122023464D01*
X139832868Y-122226413D01*
X139832870Y-122226420D01*
X139912059Y-122417598D01*
X140026810Y-122589337D01*
X140027023Y-122589655D01*
X140173345Y-122735977D01*
X140345402Y-122850941D01*
X140536580Y-122930130D01*
X140739535Y-122970500D01*
X140739536Y-122970500D01*
X140946464Y-122970500D01*
X140946465Y-122970500D01*
X141149420Y-122930130D01*
X141340598Y-122850941D01*
X141512655Y-122735977D01*
X141658977Y-122589655D01*
X141773941Y-122417598D01*
X141853130Y-122226420D01*
X141893500Y-122023465D01*
X141893500Y-121816535D01*
X142332500Y-121816535D01*
X142332500Y-122023464D01*
X142372868Y-122226413D01*
X142372870Y-122226420D01*
X142452059Y-122417598D01*
X142566810Y-122589337D01*
X142567023Y-122589655D01*
X142713345Y-122735977D01*
X142885402Y-122850941D01*
X143076580Y-122930130D01*
X143279535Y-122970500D01*
X143279536Y-122970500D01*
X143486464Y-122970500D01*
X143486465Y-122970500D01*
X143689420Y-122930130D01*
X143880598Y-122850941D01*
X144052655Y-122735977D01*
X144198977Y-122589655D01*
X144313941Y-122417598D01*
X144393130Y-122226420D01*
X144433500Y-122023465D01*
X144433500Y-121816535D01*
X144428818Y-121792999D01*
X144877690Y-121792999D01*
X144877691Y-121793000D01*
X145439392Y-121793000D01*
X145423000Y-121854174D01*
X145423000Y-121985826D01*
X145439392Y-122047000D01*
X144877690Y-122047000D01*
X144913348Y-122226267D01*
X144913350Y-122226274D01*
X144992500Y-122417358D01*
X145107410Y-122589335D01*
X145253664Y-122735589D01*
X145425641Y-122850499D01*
X145616725Y-122929649D01*
X145616732Y-122929651D01*
X145796000Y-122965308D01*
X145796000Y-122403608D01*
X145857174Y-122420000D01*
X145988826Y-122420000D01*
X146050000Y-122403608D01*
X146050000Y-122965308D01*
X146229267Y-122929651D01*
X146229274Y-122929649D01*
X146420358Y-122850499D01*
X146592335Y-122735589D01*
X146592337Y-122735588D01*
X146738588Y-122589337D01*
X146738589Y-122589335D01*
X146853499Y-122417358D01*
X146932649Y-122226274D01*
X146932651Y-122226267D01*
X146968309Y-122047000D01*
X146406608Y-122047000D01*
X146423000Y-121985826D01*
X146423000Y-121854174D01*
X146412914Y-121816535D01*
X147412500Y-121816535D01*
X147412500Y-122023464D01*
X147452868Y-122226413D01*
X147452870Y-122226420D01*
X147532059Y-122417598D01*
X147646810Y-122589337D01*
X147647023Y-122589655D01*
X147793345Y-122735977D01*
X147965402Y-122850941D01*
X148156580Y-122930130D01*
X148359535Y-122970500D01*
X148359536Y-122970500D01*
X148566464Y-122970500D01*
X148566465Y-122970500D01*
X148769420Y-122930130D01*
X148960598Y-122850941D01*
X149132655Y-122735977D01*
X149278977Y-122589655D01*
X149393941Y-122417598D01*
X149473130Y-122226420D01*
X149513500Y-122023465D01*
X149513500Y-121816535D01*
X149952500Y-121816535D01*
X149952500Y-122023464D01*
X149992868Y-122226413D01*
X149992870Y-122226420D01*
X150072059Y-122417598D01*
X150186810Y-122589337D01*
X150187023Y-122589655D01*
X150333345Y-122735977D01*
X150505402Y-122850941D01*
X150696580Y-122930130D01*
X150899535Y-122970500D01*
X150899536Y-122970500D01*
X151106464Y-122970500D01*
X151106465Y-122970500D01*
X151309420Y-122930130D01*
X151500598Y-122850941D01*
X151672655Y-122735977D01*
X151818977Y-122589655D01*
X151933941Y-122417598D01*
X152013130Y-122226420D01*
X152053500Y-122023465D01*
X152053500Y-121816535D01*
X152492500Y-121816535D01*
X152492500Y-122023464D01*
X152532868Y-122226413D01*
X152532870Y-122226420D01*
X152612059Y-122417598D01*
X152726810Y-122589337D01*
X152727023Y-122589655D01*
X152873345Y-122735977D01*
X153045402Y-122850941D01*
X153236580Y-122930130D01*
X153439535Y-122970500D01*
X153439536Y-122970500D01*
X153646464Y-122970500D01*
X153646465Y-122970500D01*
X153849420Y-122930130D01*
X154040598Y-122850941D01*
X154212655Y-122735977D01*
X154358977Y-122589655D01*
X154473941Y-122417598D01*
X154553130Y-122226420D01*
X154593500Y-122023465D01*
X154593500Y-121816535D01*
X155032500Y-121816535D01*
X155032500Y-122023464D01*
X155072868Y-122226413D01*
X155072870Y-122226420D01*
X155152059Y-122417598D01*
X155266810Y-122589337D01*
X155267023Y-122589655D01*
X155413345Y-122735977D01*
X155585402Y-122850941D01*
X155776580Y-122930130D01*
X155979535Y-122970500D01*
X155979536Y-122970500D01*
X156186464Y-122970500D01*
X156186465Y-122970500D01*
X156389420Y-122930130D01*
X156580598Y-122850941D01*
X156752655Y-122735977D01*
X156898977Y-122589655D01*
X157013941Y-122417598D01*
X157093130Y-122226420D01*
X157133500Y-122023465D01*
X157133500Y-121816535D01*
X157572500Y-121816535D01*
X157572500Y-122023464D01*
X157612868Y-122226413D01*
X157612870Y-122226420D01*
X157692059Y-122417598D01*
X157806810Y-122589337D01*
X157807023Y-122589655D01*
X157953345Y-122735977D01*
X158125402Y-122850941D01*
X158316580Y-122930130D01*
X158519535Y-122970500D01*
X158519536Y-122970500D01*
X158726464Y-122970500D01*
X158726465Y-122970500D01*
X158929420Y-122930130D01*
X159120598Y-122850941D01*
X159292655Y-122735977D01*
X159438977Y-122589655D01*
X159553941Y-122417598D01*
X159633130Y-122226420D01*
X159673500Y-122023465D01*
X159673500Y-121816535D01*
X159633130Y-121613580D01*
X159553941Y-121422402D01*
X159438977Y-121250345D01*
X159292655Y-121104023D01*
X159280737Y-121096060D01*
X159120598Y-120989059D01*
X158929420Y-120909870D01*
X158929413Y-120909868D01*
X158752557Y-120874690D01*
X158726465Y-120869500D01*
X158519535Y-120869500D01*
X158493443Y-120874690D01*
X158316586Y-120909868D01*
X158316579Y-120909870D01*
X158125401Y-120989059D01*
X157953345Y-121104022D01*
X157953344Y-121104024D01*
X157807024Y-121250344D01*
X157807022Y-121250345D01*
X157692059Y-121422401D01*
X157612870Y-121613579D01*
X157612868Y-121613586D01*
X157572500Y-121816535D01*
X157133500Y-121816535D01*
X157093130Y-121613580D01*
X157013941Y-121422402D01*
X156898977Y-121250345D01*
X156752655Y-121104023D01*
X156740737Y-121096060D01*
X156580598Y-120989059D01*
X156389420Y-120909870D01*
X156389413Y-120909868D01*
X156212557Y-120874690D01*
X156186465Y-120869500D01*
X155979535Y-120869500D01*
X155953443Y-120874690D01*
X155776586Y-120909868D01*
X155776579Y-120909870D01*
X155585401Y-120989059D01*
X155413345Y-121104022D01*
X155413344Y-121104024D01*
X155267024Y-121250344D01*
X155267022Y-121250345D01*
X155152059Y-121422401D01*
X155072870Y-121613579D01*
X155072868Y-121613586D01*
X155032500Y-121816535D01*
X154593500Y-121816535D01*
X154553130Y-121613580D01*
X154473941Y-121422402D01*
X154358977Y-121250345D01*
X154212655Y-121104023D01*
X154200737Y-121096060D01*
X154040598Y-120989059D01*
X153849420Y-120909870D01*
X153849413Y-120909868D01*
X153672557Y-120874690D01*
X153646465Y-120869500D01*
X153439535Y-120869500D01*
X153413443Y-120874690D01*
X153236586Y-120909868D01*
X153236579Y-120909870D01*
X153045401Y-120989059D01*
X152873345Y-121104022D01*
X152873344Y-121104024D01*
X152727024Y-121250344D01*
X152727022Y-121250345D01*
X152612059Y-121422401D01*
X152532870Y-121613579D01*
X152532868Y-121613586D01*
X152492500Y-121816535D01*
X152053500Y-121816535D01*
X152013130Y-121613580D01*
X151933941Y-121422402D01*
X151818977Y-121250345D01*
X151672655Y-121104023D01*
X151660737Y-121096060D01*
X151500598Y-120989059D01*
X151309420Y-120909870D01*
X151309413Y-120909868D01*
X151132557Y-120874690D01*
X151106465Y-120869500D01*
X150899535Y-120869500D01*
X150873443Y-120874690D01*
X150696586Y-120909868D01*
X150696579Y-120909870D01*
X150505401Y-120989059D01*
X150333345Y-121104022D01*
X150333344Y-121104024D01*
X150187024Y-121250344D01*
X150187022Y-121250345D01*
X150072059Y-121422401D01*
X149992870Y-121613579D01*
X149992868Y-121613586D01*
X149952500Y-121816535D01*
X149513500Y-121816535D01*
X149473130Y-121613580D01*
X149393941Y-121422402D01*
X149278977Y-121250345D01*
X149132655Y-121104023D01*
X149120737Y-121096060D01*
X148960598Y-120989059D01*
X148769420Y-120909870D01*
X148769413Y-120909868D01*
X148592557Y-120874690D01*
X148566465Y-120869500D01*
X148359535Y-120869500D01*
X148333443Y-120874690D01*
X148156586Y-120909868D01*
X148156579Y-120909870D01*
X147965401Y-120989059D01*
X147793345Y-121104022D01*
X147793344Y-121104024D01*
X147647024Y-121250344D01*
X147647022Y-121250345D01*
X147532059Y-121422401D01*
X147452870Y-121613579D01*
X147452868Y-121613586D01*
X147412500Y-121816535D01*
X146412914Y-121816535D01*
X146406608Y-121793000D01*
X146968309Y-121793000D01*
X146968309Y-121792999D01*
X146932651Y-121613732D01*
X146932649Y-121613725D01*
X146853499Y-121422641D01*
X146738589Y-121250664D01*
X146592335Y-121104410D01*
X146420358Y-120989500D01*
X146229274Y-120910350D01*
X146229267Y-120910348D01*
X146050000Y-120874690D01*
X146050000Y-121436391D01*
X145988826Y-121420000D01*
X145857174Y-121420000D01*
X145796000Y-121436391D01*
X145796000Y-120874691D01*
X145795999Y-120874690D01*
X145616732Y-120910348D01*
X145616725Y-120910350D01*
X145425641Y-120989500D01*
X145253664Y-121104410D01*
X145253663Y-121104412D01*
X145107412Y-121250663D01*
X145107410Y-121250664D01*
X144992500Y-121422641D01*
X144913350Y-121613725D01*
X144913348Y-121613732D01*
X144877690Y-121792999D01*
X144428818Y-121792999D01*
X144393130Y-121613580D01*
X144313941Y-121422402D01*
X144198977Y-121250345D01*
X144052655Y-121104023D01*
X144040737Y-121096060D01*
X143880598Y-120989059D01*
X143689420Y-120909870D01*
X143689413Y-120909868D01*
X143512557Y-120874690D01*
X143486465Y-120869500D01*
X143279535Y-120869500D01*
X143253443Y-120874690D01*
X143076586Y-120909868D01*
X143076579Y-120909870D01*
X142885401Y-120989059D01*
X142713345Y-121104022D01*
X142713344Y-121104024D01*
X142567024Y-121250344D01*
X142567022Y-121250345D01*
X142452059Y-121422401D01*
X142372870Y-121613579D01*
X142372868Y-121613586D01*
X142332500Y-121816535D01*
X141893500Y-121816535D01*
X141853130Y-121613580D01*
X141773941Y-121422402D01*
X141658977Y-121250345D01*
X141512655Y-121104023D01*
X141500737Y-121096060D01*
X141340598Y-120989059D01*
X141149420Y-120909870D01*
X141149413Y-120909868D01*
X140972557Y-120874690D01*
X140946465Y-120869500D01*
X140739535Y-120869500D01*
X140713443Y-120874690D01*
X140536586Y-120909868D01*
X140536579Y-120909870D01*
X140345401Y-120989059D01*
X140173345Y-121104022D01*
X140173344Y-121104024D01*
X140027024Y-121250344D01*
X140027022Y-121250345D01*
X139912059Y-121422401D01*
X139832870Y-121613579D01*
X139832868Y-121613586D01*
X139792500Y-121816535D01*
X139353500Y-121816535D01*
X139313130Y-121613580D01*
X139233941Y-121422402D01*
X139118977Y-121250345D01*
X138972655Y-121104023D01*
X138960737Y-121096060D01*
X138800598Y-120989059D01*
X138609420Y-120909870D01*
X138609413Y-120909868D01*
X138432557Y-120874690D01*
X138406465Y-120869500D01*
X138199535Y-120869500D01*
X138173443Y-120874690D01*
X137996586Y-120909868D01*
X137996579Y-120909870D01*
X137805401Y-120989059D01*
X137633345Y-121104022D01*
X137633344Y-121104024D01*
X137487024Y-121250344D01*
X137487022Y-121250345D01*
X137372059Y-121422401D01*
X137292870Y-121613579D01*
X137292868Y-121613586D01*
X137252500Y-121816535D01*
X136813500Y-121816535D01*
X136773130Y-121613580D01*
X136693941Y-121422402D01*
X136578977Y-121250345D01*
X136432655Y-121104023D01*
X136420737Y-121096060D01*
X136260598Y-120989059D01*
X136069420Y-120909870D01*
X136069413Y-120909868D01*
X135892557Y-120874690D01*
X135866465Y-120869500D01*
X135659535Y-120869500D01*
X135633443Y-120874690D01*
X135456586Y-120909868D01*
X135456579Y-120909870D01*
X135265401Y-120989059D01*
X135093345Y-121104022D01*
X135093344Y-121104024D01*
X134947024Y-121250344D01*
X134947022Y-121250345D01*
X134832059Y-121422401D01*
X134752870Y-121613579D01*
X134752868Y-121613586D01*
X134712500Y-121816535D01*
X134273500Y-121816535D01*
X134233130Y-121613580D01*
X134153941Y-121422402D01*
X134038977Y-121250345D01*
X133892655Y-121104023D01*
X133880737Y-121096060D01*
X133720598Y-120989059D01*
X133529420Y-120909870D01*
X133529413Y-120909868D01*
X133352557Y-120874690D01*
X133326465Y-120869500D01*
X133119535Y-120869500D01*
X133093443Y-120874690D01*
X132916586Y-120909868D01*
X132916579Y-120909870D01*
X132725401Y-120989059D01*
X132553345Y-121104022D01*
X132553344Y-121104024D01*
X132407024Y-121250344D01*
X132407022Y-121250345D01*
X132292059Y-121422401D01*
X132212870Y-121613579D01*
X132212868Y-121613586D01*
X132172500Y-121816535D01*
X131733500Y-121816535D01*
X131693130Y-121613580D01*
X131613941Y-121422402D01*
X131498977Y-121250345D01*
X131352655Y-121104023D01*
X131340737Y-121096060D01*
X131180598Y-120989059D01*
X130989420Y-120909870D01*
X130989413Y-120909868D01*
X130812557Y-120874690D01*
X130786465Y-120869500D01*
X130579535Y-120869500D01*
X130553443Y-120874690D01*
X130376586Y-120909868D01*
X130376579Y-120909870D01*
X130185401Y-120989059D01*
X130013345Y-121104022D01*
X130013344Y-121104024D01*
X129867024Y-121250344D01*
X129867022Y-121250345D01*
X129752059Y-121422401D01*
X129672870Y-121613579D01*
X129672868Y-121613586D01*
X129632500Y-121816535D01*
X128883639Y-121816535D01*
X128910552Y-121798552D01*
X128954867Y-121732231D01*
X128966500Y-121673748D01*
X128966500Y-121541834D01*
X128988174Y-121489508D01*
X129030846Y-121468466D01*
X129034386Y-121468000D01*
X129034392Y-121468000D01*
X129034397Y-121467998D01*
X129034401Y-121467998D01*
X129104122Y-121449316D01*
X129161686Y-121433892D01*
X129275814Y-121368000D01*
X129369000Y-121274814D01*
X129434892Y-121160686D01*
X129468999Y-121033394D01*
X129469000Y-121033394D01*
X129469000Y-120901606D01*
X129468999Y-120901605D01*
X129461787Y-120874691D01*
X129435637Y-120777094D01*
X159519500Y-120777094D01*
X159519500Y-120908883D01*
X159553606Y-121036170D01*
X159553610Y-121036179D01*
X159593005Y-121104412D01*
X159619500Y-121150303D01*
X159712686Y-121243489D01*
X159826814Y-121309381D01*
X159954105Y-121343488D01*
X159954106Y-121343489D01*
X159954108Y-121343489D01*
X160085894Y-121343489D01*
X160085894Y-121343488D01*
X160142130Y-121328420D01*
X160198282Y-121335812D01*
X160232761Y-121380745D01*
X160229650Y-121428217D01*
X160152870Y-121613579D01*
X160152868Y-121613586D01*
X160112500Y-121816535D01*
X160112500Y-122023464D01*
X160152868Y-122226413D01*
X160152870Y-122226420D01*
X160232059Y-122417598D01*
X160346810Y-122589337D01*
X160347023Y-122589655D01*
X160493345Y-122735977D01*
X160665402Y-122850941D01*
X160856580Y-122930130D01*
X161059535Y-122970500D01*
X161059536Y-122970500D01*
X161266464Y-122970500D01*
X161266465Y-122970500D01*
X161469420Y-122930130D01*
X161660598Y-122850941D01*
X161832655Y-122735977D01*
X161978977Y-122589655D01*
X162093941Y-122417598D01*
X162173130Y-122226420D01*
X162213500Y-122023465D01*
X162213500Y-121816535D01*
X162652500Y-121816535D01*
X162652500Y-122023464D01*
X162692868Y-122226413D01*
X162692870Y-122226420D01*
X162772059Y-122417598D01*
X162886810Y-122589337D01*
X162887023Y-122589655D01*
X163033345Y-122735977D01*
X163205402Y-122850941D01*
X163396580Y-122930130D01*
X163599535Y-122970500D01*
X163599536Y-122970500D01*
X163806464Y-122970500D01*
X163806465Y-122970500D01*
X164009420Y-122930130D01*
X164200598Y-122850941D01*
X164372655Y-122735977D01*
X164518977Y-122589655D01*
X164633941Y-122417598D01*
X164713130Y-122226420D01*
X164753500Y-122023465D01*
X164753500Y-121816535D01*
X165192500Y-121816535D01*
X165192500Y-122023464D01*
X165232868Y-122226413D01*
X165232870Y-122226420D01*
X165312059Y-122417598D01*
X165426810Y-122589337D01*
X165427023Y-122589655D01*
X165573345Y-122735977D01*
X165745402Y-122850941D01*
X165936580Y-122930130D01*
X166139535Y-122970500D01*
X166139536Y-122970500D01*
X166346464Y-122970500D01*
X166346465Y-122970500D01*
X166549420Y-122930130D01*
X166740598Y-122850941D01*
X166912655Y-122735977D01*
X167058977Y-122589655D01*
X167173941Y-122417598D01*
X167253130Y-122226420D01*
X167293500Y-122023465D01*
X167293500Y-121816535D01*
X167732500Y-121816535D01*
X167732500Y-122023464D01*
X167772868Y-122226413D01*
X167772870Y-122226420D01*
X167852059Y-122417598D01*
X167966810Y-122589337D01*
X167967023Y-122589655D01*
X168113345Y-122735977D01*
X168285402Y-122850941D01*
X168476580Y-122930130D01*
X168679535Y-122970500D01*
X168679536Y-122970500D01*
X168886464Y-122970500D01*
X168886465Y-122970500D01*
X169089420Y-122930130D01*
X169280598Y-122850941D01*
X169452655Y-122735977D01*
X169598977Y-122589655D01*
X169713941Y-122417598D01*
X169793130Y-122226420D01*
X169833500Y-122023465D01*
X169833500Y-121816535D01*
X170272500Y-121816535D01*
X170272500Y-122023464D01*
X170312868Y-122226413D01*
X170312870Y-122226420D01*
X170392059Y-122417598D01*
X170506810Y-122589337D01*
X170507023Y-122589655D01*
X170653345Y-122735977D01*
X170825402Y-122850941D01*
X171016580Y-122930130D01*
X171219535Y-122970500D01*
X171219536Y-122970500D01*
X171426464Y-122970500D01*
X171426465Y-122970500D01*
X171629420Y-122930130D01*
X171820598Y-122850941D01*
X171992655Y-122735977D01*
X172138977Y-122589655D01*
X172253941Y-122417598D01*
X172333130Y-122226420D01*
X172373500Y-122023465D01*
X172373500Y-121816535D01*
X172812500Y-121816535D01*
X172812500Y-122023464D01*
X172852868Y-122226413D01*
X172852870Y-122226420D01*
X172932059Y-122417598D01*
X173046810Y-122589337D01*
X173047023Y-122589655D01*
X173193345Y-122735977D01*
X173365402Y-122850941D01*
X173556580Y-122930130D01*
X173759535Y-122970500D01*
X173759536Y-122970500D01*
X173966464Y-122970500D01*
X173966465Y-122970500D01*
X174169420Y-122930130D01*
X174360598Y-122850941D01*
X174532655Y-122735977D01*
X174678977Y-122589655D01*
X174793941Y-122417598D01*
X174873130Y-122226420D01*
X174913500Y-122023465D01*
X174913500Y-121816535D01*
X175352500Y-121816535D01*
X175352500Y-122023464D01*
X175392868Y-122226413D01*
X175392870Y-122226420D01*
X175472059Y-122417598D01*
X175586810Y-122589337D01*
X175587023Y-122589655D01*
X175733345Y-122735977D01*
X175905402Y-122850941D01*
X176096580Y-122930130D01*
X176299535Y-122970500D01*
X176299536Y-122970500D01*
X176506464Y-122970500D01*
X176506465Y-122970500D01*
X176709420Y-122930130D01*
X176900598Y-122850941D01*
X177072655Y-122735977D01*
X177218977Y-122589655D01*
X177333941Y-122417598D01*
X177413130Y-122226420D01*
X177453500Y-122023465D01*
X177453500Y-121816535D01*
X177413130Y-121613580D01*
X177333941Y-121422402D01*
X177218977Y-121250345D01*
X177072655Y-121104023D01*
X177060737Y-121096060D01*
X176900598Y-120989059D01*
X176709420Y-120909870D01*
X176709413Y-120909868D01*
X176532557Y-120874690D01*
X176506465Y-120869500D01*
X176299535Y-120869500D01*
X176273443Y-120874690D01*
X176096586Y-120909868D01*
X176096579Y-120909870D01*
X175905401Y-120989059D01*
X175733345Y-121104022D01*
X175733344Y-121104024D01*
X175587024Y-121250344D01*
X175587022Y-121250345D01*
X175472059Y-121422401D01*
X175392870Y-121613579D01*
X175392868Y-121613586D01*
X175352500Y-121816535D01*
X174913500Y-121816535D01*
X174873130Y-121613580D01*
X174793941Y-121422402D01*
X174678977Y-121250345D01*
X174532655Y-121104023D01*
X174520737Y-121096060D01*
X174360598Y-120989059D01*
X174169420Y-120909870D01*
X174169413Y-120909868D01*
X173992557Y-120874690D01*
X173966465Y-120869500D01*
X173759535Y-120869500D01*
X173733443Y-120874690D01*
X173556586Y-120909868D01*
X173556579Y-120909870D01*
X173365401Y-120989059D01*
X173193345Y-121104022D01*
X173193344Y-121104024D01*
X173047024Y-121250344D01*
X173047022Y-121250345D01*
X172932059Y-121422401D01*
X172852870Y-121613579D01*
X172852868Y-121613586D01*
X172812500Y-121816535D01*
X172373500Y-121816535D01*
X172333130Y-121613580D01*
X172253941Y-121422402D01*
X172138977Y-121250345D01*
X171992655Y-121104023D01*
X171980737Y-121096060D01*
X171820598Y-120989059D01*
X171629420Y-120909870D01*
X171629413Y-120909868D01*
X171452557Y-120874690D01*
X171426465Y-120869500D01*
X171219535Y-120869500D01*
X171193443Y-120874690D01*
X171016586Y-120909868D01*
X171016579Y-120909870D01*
X170825401Y-120989059D01*
X170653345Y-121104022D01*
X170653344Y-121104024D01*
X170507024Y-121250344D01*
X170507022Y-121250345D01*
X170392059Y-121422401D01*
X170312870Y-121613579D01*
X170312868Y-121613586D01*
X170272500Y-121816535D01*
X169833500Y-121816535D01*
X169793130Y-121613580D01*
X169713941Y-121422402D01*
X169598977Y-121250345D01*
X169452655Y-121104023D01*
X169440737Y-121096060D01*
X169280598Y-120989059D01*
X169089420Y-120909870D01*
X169089413Y-120909868D01*
X168912557Y-120874690D01*
X168886465Y-120869500D01*
X168679535Y-120869500D01*
X168653443Y-120874690D01*
X168476586Y-120909868D01*
X168476579Y-120909870D01*
X168285401Y-120989059D01*
X168113345Y-121104022D01*
X168113344Y-121104024D01*
X167967024Y-121250344D01*
X167967022Y-121250345D01*
X167852059Y-121422401D01*
X167772870Y-121613579D01*
X167772868Y-121613586D01*
X167732500Y-121816535D01*
X167293500Y-121816535D01*
X167253130Y-121613580D01*
X167173941Y-121422402D01*
X167058977Y-121250345D01*
X166912655Y-121104023D01*
X166900737Y-121096060D01*
X166740598Y-120989059D01*
X166549420Y-120909870D01*
X166549413Y-120909868D01*
X166372557Y-120874690D01*
X166346465Y-120869500D01*
X166139535Y-120869500D01*
X166113443Y-120874690D01*
X165936586Y-120909868D01*
X165936579Y-120909870D01*
X165745401Y-120989059D01*
X165573345Y-121104022D01*
X165573344Y-121104024D01*
X165427024Y-121250344D01*
X165427022Y-121250345D01*
X165312059Y-121422401D01*
X165232870Y-121613579D01*
X165232868Y-121613586D01*
X165192500Y-121816535D01*
X164753500Y-121816535D01*
X164713130Y-121613580D01*
X164633941Y-121422402D01*
X164518977Y-121250345D01*
X164372655Y-121104023D01*
X164360737Y-121096060D01*
X164200598Y-120989059D01*
X164009420Y-120909870D01*
X164009413Y-120909868D01*
X163832557Y-120874690D01*
X163806465Y-120869500D01*
X163599535Y-120869500D01*
X163573443Y-120874690D01*
X163396586Y-120909868D01*
X163396579Y-120909870D01*
X163205401Y-120989059D01*
X163033345Y-121104022D01*
X163033344Y-121104024D01*
X162887024Y-121250344D01*
X162887022Y-121250345D01*
X162772059Y-121422401D01*
X162692870Y-121613579D01*
X162692868Y-121613586D01*
X162652500Y-121816535D01*
X162213500Y-121816535D01*
X162173130Y-121613580D01*
X162093941Y-121422402D01*
X161978977Y-121250345D01*
X161832655Y-121104023D01*
X161820737Y-121096060D01*
X161660598Y-120989059D01*
X161469420Y-120909870D01*
X161469413Y-120909868D01*
X161292557Y-120874690D01*
X161266465Y-120869500D01*
X161059535Y-120869500D01*
X161033443Y-120874690D01*
X160856586Y-120909868D01*
X160856579Y-120909870D01*
X160665402Y-120989058D01*
X160626207Y-121015247D01*
X160570658Y-121026295D01*
X160523566Y-120994828D01*
X160512518Y-120939279D01*
X160513612Y-120934586D01*
X160520500Y-120908881D01*
X160520500Y-120777097D01*
X160520500Y-120777095D01*
X160520499Y-120777094D01*
X160486393Y-120649807D01*
X160486392Y-120649803D01*
X160420500Y-120535675D01*
X160367174Y-120482349D01*
X160345500Y-120430023D01*
X160345500Y-118656479D01*
X160367174Y-118604153D01*
X160466153Y-118505174D01*
X160518479Y-118483500D01*
X160593894Y-118483500D01*
X160593894Y-118483499D01*
X160721186Y-118449392D01*
X160835314Y-118383500D01*
X160928500Y-118290314D01*
X160994392Y-118176186D01*
X161028499Y-118048894D01*
X161028500Y-118048894D01*
X161028500Y-117917106D01*
X161028499Y-117917105D01*
X160994393Y-117789818D01*
X160994392Y-117789814D01*
X160928500Y-117675686D01*
X160835314Y-117582500D01*
X160760973Y-117539579D01*
X160721190Y-117516610D01*
X160721181Y-117516606D01*
X160593894Y-117482500D01*
X160593892Y-117482500D01*
X160462108Y-117482500D01*
X160462106Y-117482500D01*
X160334818Y-117516606D01*
X160334809Y-117516610D01*
X160220685Y-117582500D01*
X160127500Y-117675685D01*
X160061610Y-117789809D01*
X160061606Y-117789818D01*
X160027500Y-117917105D01*
X160027500Y-117992521D01*
X160005826Y-118044847D01*
X159759532Y-118291141D01*
X159716682Y-118365359D01*
X159716680Y-118365364D01*
X159698560Y-118432989D01*
X159698560Y-118432993D01*
X159694500Y-118448147D01*
X159694500Y-118448149D01*
X159694500Y-120430023D01*
X159672826Y-120482349D01*
X159619500Y-120535674D01*
X159553610Y-120649798D01*
X159553606Y-120649807D01*
X159519500Y-120777094D01*
X129435637Y-120777094D01*
X129434892Y-120774314D01*
X129369000Y-120660186D01*
X129275814Y-120567000D01*
X129221556Y-120535674D01*
X129161690Y-120501110D01*
X129161681Y-120501106D01*
X129034389Y-120466998D01*
X129030838Y-120466531D01*
X128981790Y-120438211D01*
X128966500Y-120393165D01*
X128966500Y-120134253D01*
X128963621Y-120119779D01*
X128954867Y-120075769D01*
X128910552Y-120009448D01*
X128888343Y-119994608D01*
X128844232Y-119965133D01*
X128844233Y-119965133D01*
X128814989Y-119959316D01*
X128785748Y-119953500D01*
X127246252Y-119953500D01*
X127217010Y-119959316D01*
X127187767Y-119965133D01*
X127121449Y-120009447D01*
X127121447Y-120009449D01*
X127077133Y-120075767D01*
X127065500Y-120134253D01*
X122547122Y-120134253D01*
X122600832Y-120080543D01*
X122677493Y-119965811D01*
X122730298Y-119838328D01*
X122757218Y-119702994D01*
X122757218Y-119565006D01*
X122730298Y-119429671D01*
X122684267Y-119318542D01*
X122677494Y-119302190D01*
X122667678Y-119287500D01*
X122600832Y-119187457D01*
X122503261Y-119089886D01*
X122493316Y-119083241D01*
X122388527Y-119013223D01*
X122261051Y-118960421D01*
X122261041Y-118960418D01*
X122170413Y-118942391D01*
X122125712Y-118933500D01*
X121987724Y-118933500D01*
X121950065Y-118940991D01*
X121852395Y-118960418D01*
X121852385Y-118960421D01*
X121761945Y-118997883D01*
X121733627Y-119003516D01*
X112269023Y-119003516D01*
X112230658Y-119011147D01*
X112133693Y-119030434D01*
X112133683Y-119030437D01*
X112006207Y-119083239D01*
X111891477Y-119159899D01*
X111793899Y-119257477D01*
X111717240Y-119372205D01*
X111669207Y-119488168D01*
X111653166Y-119512174D01*
X111541517Y-119623825D01*
X111489192Y-119645500D01*
X110337623Y-119645500D01*
X110285297Y-119623826D01*
X110267776Y-119595940D01*
X110245794Y-119533119D01*
X110245792Y-119533116D01*
X110165153Y-119423853D01*
X110165146Y-119423846D01*
X110055883Y-119343207D01*
X110055881Y-119343206D01*
X109927704Y-119298355D01*
X109927705Y-119298355D01*
X109927700Y-119298354D01*
X109927699Y-119298354D01*
X109897266Y-119295500D01*
X108288734Y-119295500D01*
X108258301Y-119298354D01*
X108258299Y-119298354D01*
X108258295Y-119298355D01*
X108130118Y-119343206D01*
X108130116Y-119343207D01*
X108020853Y-119423846D01*
X108020846Y-119423853D01*
X107940207Y-119533116D01*
X107940206Y-119533118D01*
X107895355Y-119661295D01*
X107895354Y-119661299D01*
X107895354Y-119661301D01*
X107892500Y-119691734D01*
X102056500Y-119691734D01*
X102056500Y-117742535D01*
X107892500Y-117742535D01*
X107892500Y-117949464D01*
X107932868Y-118152413D01*
X107932870Y-118152420D01*
X108012059Y-118343598D01*
X108127023Y-118515655D01*
X108273345Y-118661977D01*
X108445402Y-118776941D01*
X108636580Y-118856130D01*
X108839535Y-118896500D01*
X108839536Y-118896500D01*
X109346464Y-118896500D01*
X109346465Y-118896500D01*
X109549420Y-118856130D01*
X109677669Y-118803007D01*
X124267500Y-118803007D01*
X124267500Y-118940993D01*
X124276209Y-118984775D01*
X124294418Y-119076322D01*
X124294421Y-119076332D01*
X124347223Y-119203808D01*
X124412958Y-119302188D01*
X124423886Y-119318542D01*
X124521458Y-119416114D01*
X124636189Y-119492775D01*
X124636190Y-119492775D01*
X124636191Y-119492776D01*
X124733581Y-119533116D01*
X124763672Y-119545580D01*
X124899007Y-119572500D01*
X124899009Y-119572500D01*
X128719992Y-119572500D01*
X128719994Y-119572500D01*
X128855328Y-119545580D01*
X128982811Y-119492775D01*
X129097543Y-119416114D01*
X129427482Y-119086173D01*
X129479808Y-119064500D01*
X135323992Y-119064500D01*
X135323994Y-119064500D01*
X135459328Y-119037580D01*
X135586811Y-118984775D01*
X135701543Y-118908114D01*
X138026050Y-116583605D01*
X139770990Y-116583605D01*
X139770990Y-116715394D01*
X139805096Y-116842681D01*
X139805100Y-116842690D01*
X139816187Y-116861893D01*
X139870990Y-116956814D01*
X139964176Y-117050000D01*
X140078304Y-117115892D01*
X140205595Y-117149999D01*
X140205596Y-117150000D01*
X140205598Y-117150000D01*
X140337384Y-117150000D01*
X140337384Y-117149999D01*
X140464676Y-117115892D01*
X140578804Y-117050000D01*
X140671990Y-116956814D01*
X140737882Y-116842686D01*
X140771989Y-116715394D01*
X140771990Y-116715394D01*
X140771990Y-116583606D01*
X140771989Y-116583605D01*
X140757277Y-116528700D01*
X140737882Y-116456314D01*
X140671990Y-116342186D01*
X140618674Y-116288870D01*
X140597000Y-116236544D01*
X140597000Y-114966966D01*
X140618674Y-114914640D01*
X140636888Y-114896426D01*
X140672000Y-114861314D01*
X140737892Y-114747186D01*
X140742779Y-114728948D01*
X141131500Y-114728948D01*
X141131500Y-114887067D01*
X141172421Y-115039787D01*
X141172422Y-115039789D01*
X141172423Y-115039792D01*
X141251480Y-115176724D01*
X141363284Y-115288528D01*
X141500216Y-115367585D01*
X141652940Y-115408507D01*
X141652941Y-115408508D01*
X141652943Y-115408508D01*
X141811059Y-115408508D01*
X141811059Y-115408507D01*
X141963784Y-115367585D01*
X142100716Y-115288528D01*
X142212520Y-115176724D01*
X142291577Y-115039792D01*
X142332500Y-114887065D01*
X142332500Y-114728951D01*
X142332500Y-114728949D01*
X142332499Y-114728948D01*
X142291578Y-114576228D01*
X142291577Y-114576224D01*
X142212520Y-114439292D01*
X142204174Y-114430946D01*
X142182500Y-114378620D01*
X142182500Y-112680105D01*
X142780500Y-112680105D01*
X142780500Y-112811894D01*
X142814606Y-112939181D01*
X142814607Y-112939184D01*
X142814608Y-112939186D01*
X142853274Y-113006158D01*
X142870586Y-113036142D01*
X142880500Y-113073142D01*
X142880500Y-117066273D01*
X142880500Y-117171727D01*
X142907793Y-117273588D01*
X142907795Y-117273592D01*
X142960517Y-117364909D01*
X142960518Y-117364910D01*
X142960520Y-117364913D01*
X145427826Y-119832219D01*
X145449500Y-119884544D01*
X145449500Y-119967059D01*
X145490421Y-120119779D01*
X145490422Y-120119781D01*
X145490423Y-120119784D01*
X145569480Y-120256716D01*
X145681284Y-120368520D01*
X145818216Y-120447577D01*
X145970940Y-120488499D01*
X145970941Y-120488500D01*
X145970943Y-120488500D01*
X146129059Y-120488500D01*
X146129059Y-120488499D01*
X146281784Y-120447577D01*
X146418716Y-120368520D01*
X146530520Y-120256716D01*
X146609577Y-120119784D01*
X146650499Y-119967059D01*
X146650500Y-119967059D01*
X146650500Y-119808941D01*
X146650499Y-119808940D01*
X146622110Y-119702992D01*
X146609577Y-119656216D01*
X146530520Y-119519284D01*
X146418716Y-119407480D01*
X146281784Y-119328423D01*
X146281781Y-119328422D01*
X146281779Y-119328421D01*
X146129059Y-119287500D01*
X146129057Y-119287500D01*
X146046545Y-119287500D01*
X145994219Y-119265826D01*
X143703174Y-116974781D01*
X143681500Y-116922455D01*
X143681500Y-116215305D01*
X151315300Y-116215305D01*
X151315300Y-116347094D01*
X151349406Y-116474381D01*
X151349410Y-116474390D01*
X151415300Y-116588514D01*
X151508486Y-116681700D01*
X151622614Y-116747592D01*
X151749905Y-116781699D01*
X151749906Y-116781700D01*
X151749908Y-116781700D01*
X151881694Y-116781700D01*
X151881694Y-116781699D01*
X151991347Y-116752318D01*
X152047500Y-116759710D01*
X152081978Y-116804643D01*
X152084500Y-116823796D01*
X152084500Y-117736748D01*
X152089821Y-117763500D01*
X152096133Y-117795232D01*
X152112607Y-117819886D01*
X152140448Y-117861552D01*
X152184560Y-117891027D01*
X152206767Y-117905866D01*
X152206768Y-117905866D01*
X152206769Y-117905867D01*
X152265252Y-117917500D01*
X152265254Y-117917500D01*
X153804746Y-117917500D01*
X153804748Y-117917500D01*
X153863231Y-117905867D01*
X153929552Y-117861552D01*
X153973867Y-117795231D01*
X153985500Y-117736748D01*
X153985500Y-116197252D01*
X153973867Y-116138769D01*
X153929552Y-116072448D01*
X153892814Y-116047900D01*
X153863232Y-116028133D01*
X153863233Y-116028133D01*
X153826908Y-116020908D01*
X153804748Y-116016500D01*
X153804746Y-116016500D01*
X152561556Y-116016500D01*
X152524556Y-116006586D01*
X152474843Y-115977884D01*
X152474841Y-115977883D01*
X152474840Y-115977882D01*
X152474839Y-115977882D01*
X152392053Y-115955700D01*
X152392051Y-115955700D01*
X152228766Y-115955700D01*
X152176440Y-115934026D01*
X152123114Y-115880700D01*
X152008990Y-115814810D01*
X152008981Y-115814806D01*
X151881694Y-115780700D01*
X151881692Y-115780700D01*
X151749908Y-115780700D01*
X151749906Y-115780700D01*
X151622618Y-115814806D01*
X151622609Y-115814810D01*
X151508485Y-115880700D01*
X151415300Y-115973885D01*
X151349410Y-116088009D01*
X151349406Y-116088018D01*
X151315300Y-116215305D01*
X143681500Y-116215305D01*
X143681500Y-113073142D01*
X143691414Y-113036142D01*
X143747392Y-112939186D01*
X143781499Y-112811894D01*
X143781500Y-112811894D01*
X143781500Y-112680106D01*
X143781499Y-112680105D01*
X143780123Y-112674971D01*
X143747392Y-112552814D01*
X143681500Y-112438686D01*
X143588314Y-112345500D01*
X143535939Y-112315261D01*
X143474190Y-112279610D01*
X143474181Y-112279606D01*
X143346894Y-112245500D01*
X143346892Y-112245500D01*
X143215108Y-112245500D01*
X143215106Y-112245500D01*
X143087818Y-112279606D01*
X143087809Y-112279610D01*
X142973685Y-112345500D01*
X142880500Y-112438685D01*
X142814610Y-112552809D01*
X142814606Y-112552818D01*
X142780500Y-112680105D01*
X142182500Y-112680105D01*
X142182500Y-112362255D01*
X142204174Y-112309929D01*
X142670929Y-111843174D01*
X142675791Y-111841160D01*
X149390347Y-111841160D01*
X149390347Y-111979145D01*
X149417265Y-112114475D01*
X149417268Y-112114485D01*
X149470071Y-112241963D01*
X149546732Y-112356695D01*
X149748151Y-112558114D01*
X149862883Y-112634775D01*
X149953592Y-112672348D01*
X149990366Y-112687580D01*
X150125700Y-112714500D01*
X150125701Y-112714500D01*
X151671092Y-112714500D01*
X151723418Y-112736174D01*
X151732615Y-112747381D01*
X151755448Y-112781552D01*
X151775233Y-112794772D01*
X151821767Y-112825866D01*
X151821768Y-112825866D01*
X151821769Y-112825867D01*
X151880252Y-112837500D01*
X152214464Y-112837500D01*
X152228899Y-112838921D01*
X152230303Y-112839201D01*
X152230304Y-112839201D01*
X152368290Y-112839201D01*
X152368291Y-112839201D01*
X152369694Y-112838921D01*
X152384130Y-112837500D01*
X152919746Y-112837500D01*
X152919748Y-112837500D01*
X152978231Y-112825867D01*
X153008887Y-112805382D01*
X153064435Y-112794333D01*
X153091111Y-112805381D01*
X153121769Y-112825867D01*
X153180252Y-112837500D01*
X153180254Y-112837500D01*
X154219746Y-112837500D01*
X154219748Y-112837500D01*
X154278231Y-112825867D01*
X154344552Y-112781552D01*
X154388867Y-112715231D01*
X154400500Y-112656748D01*
X154400500Y-111117252D01*
X154388867Y-111058769D01*
X154378666Y-111043503D01*
X154363844Y-111021320D01*
X154344552Y-110992448D01*
X154308887Y-110968617D01*
X154278232Y-110948133D01*
X154278233Y-110948133D01*
X154248989Y-110942316D01*
X154219748Y-110936500D01*
X153180252Y-110936500D01*
X153151010Y-110942316D01*
X153121767Y-110948133D01*
X153091112Y-110968617D01*
X153035564Y-110979666D01*
X153008888Y-110968617D01*
X152978231Y-110948133D01*
X152978233Y-110948133D01*
X152948989Y-110942316D01*
X152919748Y-110936500D01*
X151880252Y-110936500D01*
X151851010Y-110942316D01*
X151821767Y-110948133D01*
X151755449Y-110992447D01*
X151755447Y-110992449D01*
X151711133Y-111058767D01*
X151699500Y-111117253D01*
X151699500Y-111239500D01*
X151677826Y-111291826D01*
X151625500Y-111313500D01*
X150481207Y-111313500D01*
X150440095Y-111301029D01*
X150422655Y-111289376D01*
X150295179Y-111236574D01*
X150295169Y-111236571D01*
X150204332Y-111218503D01*
X150159841Y-111209653D01*
X150021853Y-111209653D01*
X149983487Y-111217284D01*
X149886524Y-111236571D01*
X149886514Y-111236574D01*
X149759036Y-111289377D01*
X149644304Y-111366038D01*
X149644303Y-111366040D01*
X149546734Y-111463609D01*
X149546732Y-111463610D01*
X149470071Y-111578342D01*
X149417268Y-111705820D01*
X149417265Y-111705830D01*
X149390347Y-111841160D01*
X142675791Y-111841160D01*
X142723255Y-111821500D01*
X142735059Y-111821500D01*
X142735059Y-111821499D01*
X142887784Y-111780577D01*
X143024716Y-111701520D01*
X143136520Y-111589716D01*
X143215577Y-111452784D01*
X143256499Y-111300059D01*
X143256500Y-111300059D01*
X143256500Y-111141941D01*
X143256499Y-111141940D01*
X143250219Y-111118504D01*
X143215577Y-110989216D01*
X143136520Y-110852284D01*
X143024716Y-110740480D01*
X142887784Y-110661423D01*
X142887781Y-110661422D01*
X142887779Y-110661421D01*
X142735059Y-110620500D01*
X142735057Y-110620500D01*
X142576943Y-110620500D01*
X142576941Y-110620500D01*
X142424220Y-110661421D01*
X142424214Y-110661424D01*
X142287283Y-110740480D01*
X142175480Y-110852283D01*
X142096424Y-110989214D01*
X142096421Y-110989220D01*
X142055500Y-111141940D01*
X142055500Y-111153745D01*
X142033826Y-111206071D01*
X141371508Y-111868389D01*
X141312200Y-111971113D01*
X141310049Y-111979145D01*
X141308476Y-111985017D01*
X141281500Y-112085688D01*
X141281500Y-114378620D01*
X141259826Y-114430946D01*
X141251480Y-114439291D01*
X141172424Y-114576222D01*
X141172421Y-114576228D01*
X141131500Y-114728948D01*
X140742779Y-114728948D01*
X140772000Y-114619892D01*
X140772000Y-114488108D01*
X140772000Y-114488106D01*
X140771999Y-114488105D01*
X140771131Y-114484867D01*
X140737892Y-114360814D01*
X140672000Y-114246686D01*
X140578814Y-114153500D01*
X140540517Y-114131389D01*
X140464690Y-114087610D01*
X140464681Y-114087606D01*
X140337394Y-114053500D01*
X140337392Y-114053500D01*
X140205608Y-114053500D01*
X140205606Y-114053500D01*
X140078318Y-114087606D01*
X140078309Y-114087610D01*
X139964185Y-114153500D01*
X139871000Y-114246685D01*
X139805110Y-114360809D01*
X139805106Y-114360818D01*
X139771000Y-114488105D01*
X139771000Y-114619894D01*
X139805106Y-114747181D01*
X139805110Y-114747190D01*
X139871000Y-114861314D01*
X139924326Y-114914640D01*
X139946000Y-114966966D01*
X139946000Y-116236524D01*
X139924326Y-116288850D01*
X139870990Y-116342185D01*
X139805100Y-116456309D01*
X139805096Y-116456318D01*
X139770990Y-116583605D01*
X138026050Y-116583605D01*
X138317474Y-116292181D01*
X138369800Y-116270508D01*
X138498991Y-116270508D01*
X138498993Y-116270508D01*
X138634328Y-116243588D01*
X138761811Y-116190783D01*
X138876542Y-116114122D01*
X138974114Y-116016550D01*
X139050775Y-115901819D01*
X139103580Y-115774336D01*
X139130500Y-115639001D01*
X139130500Y-115501015D01*
X139103580Y-115365680D01*
X139050775Y-115238197D01*
X138974114Y-115123466D01*
X138876542Y-115025894D01*
X138868303Y-115020389D01*
X138761808Y-114949231D01*
X138634332Y-114896429D01*
X138634322Y-114896426D01*
X138543694Y-114878399D01*
X138498993Y-114869508D01*
X137979999Y-114869508D01*
X137891735Y-114887065D01*
X137891734Y-114887065D01*
X137844669Y-114896426D01*
X137844658Y-114896429D01*
X137812131Y-114909902D01*
X137812132Y-114909903D01*
X137717181Y-114949232D01*
X137610687Y-115020389D01*
X137610685Y-115020392D01*
X137602451Y-115025894D01*
X137602448Y-115025896D01*
X137602446Y-115025897D01*
X134986517Y-117641826D01*
X134934191Y-117663500D01*
X129482001Y-117663500D01*
X129090007Y-117663500D01*
X129074580Y-117666568D01*
X128981590Y-117685064D01*
X128981591Y-117685065D01*
X128954675Y-117690418D01*
X128954668Y-117690420D01*
X128901865Y-117712291D01*
X128901866Y-117712292D01*
X128827191Y-117743223D01*
X128796846Y-117763500D01*
X128712457Y-117819886D01*
X128382517Y-118149826D01*
X128330191Y-118171500D01*
X125405500Y-118171500D01*
X125353174Y-118149826D01*
X125331500Y-118097500D01*
X125331500Y-113786541D01*
X125341414Y-113749540D01*
X125347393Y-113739186D01*
X125381500Y-113611895D01*
X125381501Y-113611895D01*
X125381501Y-113480106D01*
X125381500Y-113480105D01*
X125379278Y-113471814D01*
X125347393Y-113352814D01*
X125281501Y-113238686D01*
X125188315Y-113145500D01*
X125132853Y-113113479D01*
X125074191Y-113079610D01*
X125074182Y-113079606D01*
X124946895Y-113045500D01*
X124946893Y-113045500D01*
X124815108Y-113045500D01*
X124815106Y-113045500D01*
X124687818Y-113079606D01*
X124687813Y-113079608D01*
X124573686Y-113145500D01*
X124430500Y-113288686D01*
X124364610Y-113402810D01*
X124364606Y-113402819D01*
X124330500Y-113530106D01*
X124330500Y-118565847D01*
X124324867Y-118594165D01*
X124294421Y-118667667D01*
X124294418Y-118667677D01*
X124280462Y-118737843D01*
X124267500Y-118803007D01*
X109677669Y-118803007D01*
X109740598Y-118776941D01*
X109912655Y-118661977D01*
X110058977Y-118515655D01*
X110173941Y-118343598D01*
X110253130Y-118152420D01*
X110293500Y-117949465D01*
X110293500Y-117742535D01*
X110253130Y-117539580D01*
X110173941Y-117348402D01*
X110058977Y-117176345D01*
X109912655Y-117030023D01*
X109740598Y-116915059D01*
X109549420Y-116835870D01*
X109549413Y-116835868D01*
X109378635Y-116801899D01*
X109346465Y-116795500D01*
X108839535Y-116795500D01*
X108807365Y-116801899D01*
X108636586Y-116835868D01*
X108636579Y-116835870D01*
X108445401Y-116915059D01*
X108273345Y-117030022D01*
X108273344Y-117030024D01*
X108127024Y-117176344D01*
X108127022Y-117176345D01*
X108012059Y-117348401D01*
X107932870Y-117539579D01*
X107932868Y-117539586D01*
X107892500Y-117742535D01*
X102056500Y-117742535D01*
X102056500Y-115647699D01*
X110684906Y-115647699D01*
X110684906Y-115779488D01*
X110719012Y-115906775D01*
X110719016Y-115906784D01*
X110745188Y-115952115D01*
X110784906Y-116020908D01*
X110878092Y-116114094D01*
X110992220Y-116179986D01*
X111119511Y-116214093D01*
X111119512Y-116214094D01*
X111119514Y-116214094D01*
X111251300Y-116214094D01*
X111251300Y-116214093D01*
X111378592Y-116179986D01*
X111492720Y-116114094D01*
X111585906Y-116020908D01*
X111651798Y-115906780D01*
X111673758Y-115824824D01*
X111682033Y-115793942D01*
X111716511Y-115749009D01*
X111753511Y-115739095D01*
X114123818Y-115739095D01*
X114176144Y-115760769D01*
X114197818Y-115813095D01*
X114195296Y-115832248D01*
X114163177Y-115952115D01*
X114163177Y-116083904D01*
X114197283Y-116211191D01*
X114197287Y-116211200D01*
X114215987Y-116243589D01*
X114263177Y-116325324D01*
X114356363Y-116418510D01*
X114470491Y-116484402D01*
X114597782Y-116518509D01*
X114597783Y-116518510D01*
X114597785Y-116518510D01*
X114729571Y-116518510D01*
X114729571Y-116518509D01*
X114856863Y-116484402D01*
X114970991Y-116418510D01*
X115024317Y-116365184D01*
X115076643Y-116343510D01*
X118530341Y-116343510D01*
X118530343Y-116343510D01*
X118613129Y-116321328D01*
X118687352Y-116278475D01*
X122172653Y-112793174D01*
X122224979Y-112771500D01*
X125452548Y-112771500D01*
X125504874Y-112793174D01*
X125526548Y-112845500D01*
X125518407Y-112875890D01*
X125519466Y-112876329D01*
X125517606Y-112880818D01*
X125483500Y-113008105D01*
X125483500Y-113139894D01*
X125517606Y-113267181D01*
X125517610Y-113267190D01*
X125546047Y-113316444D01*
X125583500Y-113381314D01*
X125676686Y-113474500D01*
X125790814Y-113540392D01*
X125918105Y-113574499D01*
X125918106Y-113574500D01*
X125918108Y-113574500D01*
X125993521Y-113574500D01*
X126045847Y-113596174D01*
X128026182Y-115576509D01*
X128100405Y-115619362D01*
X128183191Y-115641544D01*
X128268897Y-115641544D01*
X133308191Y-115641544D01*
X134321001Y-115641544D01*
X134373327Y-115663218D01*
X134426653Y-115716544D01*
X134540781Y-115782436D01*
X134668072Y-115816543D01*
X134668073Y-115816544D01*
X134668075Y-115816544D01*
X134799861Y-115816544D01*
X134799861Y-115816543D01*
X134927153Y-115782436D01*
X135041281Y-115716544D01*
X135134467Y-115623358D01*
X135200359Y-115509230D01*
X135234466Y-115381938D01*
X135234467Y-115381938D01*
X135234467Y-115250150D01*
X135234466Y-115250149D01*
X135233676Y-115247202D01*
X135200359Y-115122858D01*
X135134467Y-115008730D01*
X135041281Y-114915544D01*
X134991954Y-114887065D01*
X134927157Y-114849654D01*
X134927148Y-114849650D01*
X134799861Y-114815544D01*
X134799859Y-114815544D01*
X134668075Y-114815544D01*
X134668073Y-114815544D01*
X134540785Y-114849650D01*
X134540776Y-114849654D01*
X134426652Y-114915544D01*
X134373327Y-114968870D01*
X134321001Y-114990544D01*
X134260330Y-114990544D01*
X134208004Y-114968870D01*
X134186330Y-114916544D01*
X134196244Y-114879544D01*
X134202038Y-114869508D01*
X134209158Y-114857176D01*
X134243265Y-114729884D01*
X134243266Y-114729884D01*
X134243266Y-114654469D01*
X134264940Y-114602143D01*
X134854909Y-114012174D01*
X134907235Y-113990500D01*
X137382028Y-113990500D01*
X137434354Y-114012174D01*
X137487680Y-114065500D01*
X137601808Y-114131392D01*
X137729099Y-114165499D01*
X137729100Y-114165500D01*
X137729102Y-114165500D01*
X137860888Y-114165500D01*
X137860888Y-114165499D01*
X137988180Y-114131392D01*
X138102308Y-114065500D01*
X138195494Y-113972314D01*
X138261386Y-113858186D01*
X138295493Y-113730894D01*
X138295494Y-113730894D01*
X138295494Y-113599106D01*
X138295493Y-113599105D01*
X138286261Y-113564652D01*
X138261386Y-113471814D01*
X138195494Y-113357686D01*
X138148542Y-113310734D01*
X138126868Y-113258408D01*
X138148540Y-113206084D01*
X138186646Y-113167980D01*
X138252538Y-113053852D01*
X138286645Y-112926560D01*
X138286646Y-112926560D01*
X138286646Y-112794772D01*
X138286645Y-112794771D01*
X138283102Y-112781550D01*
X138252538Y-112667480D01*
X138186646Y-112553352D01*
X138172067Y-112538773D01*
X138150393Y-112486447D01*
X138172067Y-112434121D01*
X138188218Y-112417970D01*
X138254110Y-112303842D01*
X138288217Y-112176550D01*
X138288218Y-112176550D01*
X138288218Y-112044762D01*
X138288217Y-112044761D01*
X138270635Y-111979145D01*
X138254110Y-111917470D01*
X138188218Y-111803342D01*
X138095032Y-111710156D01*
X138080072Y-111701519D01*
X137980908Y-111644266D01*
X137980899Y-111644262D01*
X137853612Y-111610156D01*
X137853610Y-111610156D01*
X137721826Y-111610156D01*
X137721824Y-111610156D01*
X137594536Y-111644262D01*
X137594527Y-111644266D01*
X137480403Y-111710156D01*
X137387218Y-111803341D01*
X137335978Y-111892092D01*
X137291044Y-111926571D01*
X137271892Y-111929092D01*
X134334068Y-111929092D01*
X134281742Y-111907418D01*
X134242710Y-111868386D01*
X134159860Y-111785535D01*
X134159857Y-111785533D01*
X134159856Y-111785532D01*
X134085641Y-111742684D01*
X134085639Y-111742683D01*
X134085638Y-111742682D01*
X134085637Y-111742682D01*
X134002851Y-111720500D01*
X134002849Y-111720500D01*
X121681399Y-111720500D01*
X121681383Y-111720499D01*
X121676853Y-111720499D01*
X121591148Y-111720499D01*
X121591146Y-111720499D01*
X121508365Y-111742680D01*
X121508360Y-111742682D01*
X121434137Y-111785535D01*
X118153252Y-115066421D01*
X118100926Y-115088095D01*
X111532804Y-115088095D01*
X111532788Y-115088094D01*
X111528258Y-115088094D01*
X111442552Y-115088094D01*
X111442550Y-115088094D01*
X111359770Y-115110275D01*
X111359765Y-115110277D01*
X111285542Y-115153130D01*
X111247253Y-115191420D01*
X111194927Y-115213094D01*
X111119512Y-115213094D01*
X110992224Y-115247200D01*
X110992215Y-115247204D01*
X110878091Y-115313094D01*
X110784906Y-115406279D01*
X110719016Y-115520403D01*
X110719012Y-115520412D01*
X110684906Y-115647699D01*
X102056500Y-115647699D01*
X102056500Y-113006158D01*
X102387000Y-113006158D01*
X102387000Y-113163842D01*
X102393383Y-113195932D01*
X102417761Y-113318491D01*
X102417764Y-113318501D01*
X102478103Y-113464174D01*
X102478105Y-113464177D01*
X102478106Y-113464179D01*
X102517895Y-113523728D01*
X102551819Y-113574499D01*
X102565711Y-113595289D01*
X102677211Y-113706789D01*
X102808321Y-113794394D01*
X102808326Y-113794396D01*
X102808325Y-113794396D01*
X102953998Y-113854735D01*
X102954003Y-113854737D01*
X103108658Y-113885500D01*
X103108660Y-113885500D01*
X103966340Y-113885500D01*
X103966342Y-113885500D01*
X104120997Y-113854737D01*
X104266679Y-113794394D01*
X104397789Y-113706789D01*
X104509289Y-113595289D01*
X104596894Y-113464179D01*
X104657237Y-113318497D01*
X104688000Y-113163842D01*
X104688000Y-113006158D01*
X104657237Y-112851503D01*
X104656635Y-112850049D01*
X104596896Y-112705825D01*
X104596895Y-112705823D01*
X104596894Y-112705821D01*
X104509289Y-112574711D01*
X104397789Y-112463211D01*
X104266679Y-112375606D01*
X104266675Y-112375604D01*
X104266673Y-112375603D01*
X104266674Y-112375603D01*
X104121001Y-112315264D01*
X104120991Y-112315261D01*
X104017425Y-112294661D01*
X103966342Y-112284500D01*
X103108658Y-112284500D01*
X103064815Y-112293220D01*
X102954008Y-112315261D01*
X102953998Y-112315264D01*
X102808325Y-112375603D01*
X102677211Y-112463210D01*
X102677210Y-112463212D01*
X102565712Y-112574710D01*
X102565710Y-112574711D01*
X102478103Y-112705825D01*
X102417764Y-112851498D01*
X102417761Y-112851508D01*
X102400321Y-112939190D01*
X102387000Y-113006158D01*
X102056500Y-113006158D01*
X102056500Y-111993846D01*
X105312000Y-111993846D01*
X105312000Y-112176154D01*
X105312079Y-112176550D01*
X105347565Y-112354952D01*
X105347568Y-112354962D01*
X105417332Y-112523388D01*
X105518616Y-112674971D01*
X105647528Y-112803883D01*
X105799111Y-112905167D01*
X105950357Y-112967815D01*
X105967542Y-112974933D01*
X106146346Y-113010500D01*
X106146348Y-113010500D01*
X106328652Y-113010500D01*
X106328654Y-113010500D01*
X106507458Y-112974933D01*
X106675889Y-112905167D01*
X106827472Y-112803883D01*
X106956383Y-112674972D01*
X107057667Y-112523389D01*
X107127433Y-112354958D01*
X107163000Y-112176154D01*
X107163000Y-111993846D01*
X107127433Y-111815042D01*
X107057667Y-111646611D01*
X106956383Y-111495028D01*
X106827472Y-111366117D01*
X106827356Y-111366039D01*
X106675888Y-111264832D01*
X106507462Y-111195068D01*
X106507452Y-111195065D01*
X106387715Y-111171248D01*
X106328654Y-111159500D01*
X106146346Y-111159500D01*
X106095656Y-111169582D01*
X105967547Y-111195065D01*
X105967537Y-111195068D01*
X105799111Y-111264832D01*
X105647528Y-111366116D01*
X105647527Y-111366118D01*
X105518618Y-111495027D01*
X105518616Y-111495028D01*
X105417332Y-111646611D01*
X105347568Y-111815037D01*
X105347565Y-111815047D01*
X105317874Y-111964315D01*
X105312000Y-111993846D01*
X102056500Y-111993846D01*
X102056500Y-106006159D01*
X102387000Y-106006159D01*
X102387000Y-106163840D01*
X102417761Y-106318491D01*
X102417764Y-106318501D01*
X102478103Y-106464174D01*
X102478105Y-106464177D01*
X102478106Y-106464179D01*
X102514405Y-106518504D01*
X102544594Y-106563686D01*
X102565711Y-106595289D01*
X102677211Y-106706789D01*
X102808321Y-106794394D01*
X102808326Y-106794396D01*
X102808325Y-106794396D01*
X102859406Y-106815554D01*
X102954003Y-106854737D01*
X103108658Y-106885500D01*
X103108660Y-106885500D01*
X103966340Y-106885500D01*
X103966342Y-106885500D01*
X104120997Y-106854737D01*
X104266679Y-106794394D01*
X104397789Y-106706789D01*
X104509289Y-106595289D01*
X104596894Y-106464179D01*
X104657237Y-106318497D01*
X104688000Y-106163842D01*
X104688000Y-106006158D01*
X104657237Y-105851503D01*
X104640325Y-105810674D01*
X104596896Y-105705825D01*
X104596895Y-105705823D01*
X104596894Y-105705821D01*
X104509289Y-105574711D01*
X104397789Y-105463211D01*
X104266679Y-105375606D01*
X104266675Y-105375604D01*
X104266673Y-105375603D01*
X104266674Y-105375603D01*
X104121001Y-105315264D01*
X104120991Y-105315261D01*
X104017425Y-105294661D01*
X103966342Y-105284500D01*
X103108658Y-105284500D01*
X103064815Y-105293220D01*
X102954008Y-105315261D01*
X102953998Y-105315264D01*
X102808325Y-105375603D01*
X102677211Y-105463210D01*
X102677210Y-105463212D01*
X102565712Y-105574710D01*
X102565710Y-105574711D01*
X102478103Y-105705825D01*
X102417764Y-105851498D01*
X102417761Y-105851508D01*
X102387000Y-106006159D01*
X102056500Y-106006159D01*
X102056500Y-104068753D01*
X104806500Y-104068753D01*
X104806500Y-105608246D01*
X104818133Y-105666732D01*
X104844255Y-105705825D01*
X104862448Y-105733052D01*
X104886904Y-105749393D01*
X104928767Y-105777366D01*
X104928768Y-105777366D01*
X104928769Y-105777367D01*
X104987252Y-105789000D01*
X104987254Y-105789000D01*
X106026746Y-105789000D01*
X106026748Y-105789000D01*
X106085231Y-105777367D01*
X106115887Y-105756882D01*
X106171435Y-105745833D01*
X106188231Y-105751324D01*
X106193382Y-105753722D01*
X106228769Y-105777367D01*
X106255668Y-105782717D01*
X106263731Y-105786471D01*
X106277317Y-105801279D01*
X106294028Y-105812444D01*
X106297222Y-105822973D01*
X106302021Y-105828204D01*
X106301622Y-105837477D01*
X106306500Y-105853558D01*
X106306500Y-105856896D01*
X106330979Y-105948252D01*
X106333500Y-105967405D01*
X106333500Y-105997063D01*
X106352065Y-106066347D01*
X106344673Y-106122500D01*
X106299740Y-106156978D01*
X106280587Y-106159500D01*
X106146346Y-106159500D01*
X106095656Y-106169582D01*
X105967547Y-106195065D01*
X105967537Y-106195068D01*
X105799111Y-106264832D01*
X105647528Y-106366116D01*
X105647527Y-106366118D01*
X105518618Y-106495027D01*
X105518616Y-106495028D01*
X105417332Y-106646611D01*
X105347568Y-106815037D01*
X105347565Y-106815047D01*
X105321617Y-106945500D01*
X105312000Y-106993846D01*
X105312000Y-107176154D01*
X105323037Y-107231640D01*
X105347565Y-107354952D01*
X105347568Y-107354962D01*
X105417332Y-107523388D01*
X105509879Y-107661894D01*
X105518617Y-107674972D01*
X105647528Y-107803883D01*
X105799111Y-107905167D01*
X105967542Y-107974933D01*
X106146346Y-108010500D01*
X106146348Y-108010500D01*
X106328652Y-108010500D01*
X106328654Y-108010500D01*
X106507458Y-107974933D01*
X106675889Y-107905167D01*
X106827472Y-107803883D01*
X106916980Y-107714374D01*
X106969305Y-107692701D01*
X107021631Y-107714375D01*
X107043305Y-107766701D01*
X107033391Y-107803700D01*
X107009423Y-107845216D01*
X107009423Y-107845217D01*
X107009421Y-107845220D01*
X106968500Y-107997940D01*
X106968500Y-108156059D01*
X107009421Y-108308779D01*
X107009422Y-108308781D01*
X107009423Y-108308784D01*
X107088480Y-108445716D01*
X107200284Y-108557520D01*
X107337216Y-108636577D01*
X107489940Y-108677499D01*
X107489941Y-108677500D01*
X107489943Y-108677500D01*
X107648059Y-108677500D01*
X107648059Y-108677499D01*
X107800784Y-108636577D01*
X107937716Y-108557520D01*
X108049520Y-108445716D01*
X108128577Y-108308784D01*
X108169499Y-108156059D01*
X108169500Y-108156059D01*
X108169500Y-108144255D01*
X108191174Y-108091929D01*
X108220712Y-108062391D01*
X108310489Y-107972614D01*
X108364926Y-107878324D01*
X108364929Y-107878322D01*
X108369799Y-107869886D01*
X108386746Y-107806640D01*
X108400499Y-107755311D01*
X108400500Y-107755311D01*
X108400500Y-107530105D01*
X110680500Y-107530105D01*
X110680500Y-107661894D01*
X110714606Y-107789181D01*
X110714610Y-107789190D01*
X110780500Y-107903314D01*
X110873686Y-107996500D01*
X110987814Y-108062392D01*
X110991631Y-108063414D01*
X111024808Y-108082568D01*
X111396849Y-108454609D01*
X111418523Y-108506935D01*
X111418523Y-110026844D01*
X111436622Y-110094390D01*
X111436625Y-110094399D01*
X111437497Y-110097652D01*
X111449224Y-110141420D01*
X111462228Y-110163945D01*
X111464417Y-110169889D01*
X111464362Y-110171258D01*
X111466451Y-110176301D01*
X111484106Y-110242192D01*
X111484108Y-110242197D01*
X111539210Y-110337635D01*
X111550000Y-110356324D01*
X111643186Y-110449510D01*
X111757314Y-110515402D01*
X111884605Y-110549509D01*
X111884606Y-110549510D01*
X111884608Y-110549510D01*
X112016394Y-110549510D01*
X112016394Y-110549509D01*
X112143686Y-110515402D01*
X112257814Y-110449510D01*
X112351000Y-110356324D01*
X112416892Y-110242196D01*
X112450999Y-110114904D01*
X112451000Y-110114904D01*
X112451000Y-109983116D01*
X112450999Y-109983115D01*
X112416893Y-109855828D01*
X112416892Y-109855824D01*
X112351000Y-109741696D01*
X112341197Y-109731893D01*
X112319523Y-109679567D01*
X112319523Y-109366940D01*
X116480500Y-109366940D01*
X116480500Y-109525059D01*
X116521421Y-109677779D01*
X116521422Y-109677781D01*
X116521423Y-109677784D01*
X116600480Y-109814716D01*
X116712284Y-109926520D01*
X116794653Y-109974075D01*
X116829131Y-110019008D01*
X116831653Y-110038161D01*
X116831653Y-112534765D01*
X116809979Y-112587091D01*
X116801633Y-112595436D01*
X116722577Y-112732367D01*
X116722574Y-112732373D01*
X116681653Y-112885093D01*
X116681653Y-113043212D01*
X116722574Y-113195932D01*
X116722575Y-113195934D01*
X116722576Y-113195937D01*
X116801633Y-113332869D01*
X116913437Y-113444673D01*
X117050369Y-113523730D01*
X117203093Y-113564652D01*
X117203094Y-113564653D01*
X117203096Y-113564653D01*
X117361212Y-113564653D01*
X117361212Y-113564652D01*
X117513937Y-113523730D01*
X117650869Y-113444673D01*
X117762673Y-113332869D01*
X117841730Y-113195937D01*
X117882652Y-113043212D01*
X117882653Y-113043212D01*
X117882653Y-112885094D01*
X117882652Y-112885093D01*
X117881505Y-112880814D01*
X117841730Y-112732369D01*
X117762673Y-112595437D01*
X117754327Y-112587091D01*
X117732653Y-112534765D01*
X117732653Y-109771241D01*
X124230188Y-109771241D01*
X124230188Y-109903030D01*
X124264294Y-110030317D01*
X124264298Y-110030326D01*
X124313916Y-110116267D01*
X124330188Y-110144450D01*
X124423374Y-110237636D01*
X124537502Y-110303528D01*
X124664793Y-110337635D01*
X124664794Y-110337636D01*
X124664796Y-110337636D01*
X124740209Y-110337636D01*
X124792535Y-110359310D01*
X125351090Y-110917865D01*
X125351091Y-110917866D01*
X125411694Y-110978469D01*
X125485918Y-111021322D01*
X125568700Y-111043503D01*
X125568701Y-111043504D01*
X125568703Y-111043504D01*
X125571030Y-111043504D01*
X125572114Y-111043953D01*
X125573510Y-111044137D01*
X125573460Y-111044510D01*
X125623356Y-111065178D01*
X125676682Y-111118504D01*
X125790810Y-111184396D01*
X125918101Y-111218503D01*
X125918102Y-111218504D01*
X125918104Y-111218504D01*
X126049890Y-111218504D01*
X126049890Y-111218503D01*
X126177182Y-111184396D01*
X126291310Y-111118504D01*
X126384496Y-111025318D01*
X126450388Y-110911190D01*
X126484495Y-110783898D01*
X126484496Y-110783898D01*
X126484496Y-110652110D01*
X126484495Y-110652109D01*
X126450389Y-110524822D01*
X126450388Y-110524818D01*
X126384496Y-110410690D01*
X126291310Y-110317504D01*
X126223890Y-110278579D01*
X126177186Y-110251614D01*
X126177177Y-110251610D01*
X126049890Y-110217504D01*
X126049888Y-110217504D01*
X125918104Y-110217504D01*
X125918102Y-110217504D01*
X125790814Y-110251610D01*
X125790805Y-110251614D01*
X125722497Y-110291052D01*
X125666344Y-110298444D01*
X125633171Y-110279292D01*
X125252862Y-109898983D01*
X125231188Y-109846657D01*
X125231188Y-109771242D01*
X125231187Y-109771241D01*
X125217590Y-109720497D01*
X125197080Y-109643950D01*
X125131188Y-109529822D01*
X125038002Y-109436636D01*
X125022644Y-109427769D01*
X124923878Y-109370746D01*
X124923869Y-109370742D01*
X124796582Y-109336636D01*
X124796580Y-109336636D01*
X124664796Y-109336636D01*
X124664794Y-109336636D01*
X124537506Y-109370742D01*
X124537497Y-109370746D01*
X124423373Y-109436636D01*
X124330188Y-109529821D01*
X124264298Y-109643945D01*
X124264294Y-109643954D01*
X124230188Y-109771241D01*
X117732653Y-109771241D01*
X117732653Y-109587842D01*
X117732652Y-109587841D01*
X117728273Y-109571500D01*
X117710623Y-109505628D01*
X117701953Y-109473270D01*
X117701949Y-109473261D01*
X117691414Y-109455013D01*
X117681500Y-109418014D01*
X117681500Y-109366941D01*
X117681499Y-109366940D01*
X117676858Y-109349621D01*
X117640577Y-109214216D01*
X117561520Y-109077284D01*
X117449716Y-108965480D01*
X117312784Y-108886423D01*
X117312781Y-108886422D01*
X117312779Y-108886421D01*
X117160059Y-108845500D01*
X117160057Y-108845500D01*
X117001943Y-108845500D01*
X117001941Y-108845500D01*
X116849220Y-108886421D01*
X116849214Y-108886424D01*
X116712283Y-108965480D01*
X116600480Y-109077283D01*
X116521424Y-109214214D01*
X116521421Y-109214220D01*
X116480500Y-109366940D01*
X112319523Y-109366940D01*
X112319523Y-108759613D01*
X127452000Y-108759613D01*
X127452000Y-108891402D01*
X127486106Y-109018689D01*
X127486110Y-109018698D01*
X127535998Y-109105106D01*
X127552000Y-109132822D01*
X127645186Y-109226008D01*
X127759314Y-109291900D01*
X127886605Y-109326007D01*
X127886606Y-109326008D01*
X127886608Y-109326008D01*
X128018394Y-109326008D01*
X128018394Y-109326007D01*
X128145686Y-109291900D01*
X128259814Y-109226008D01*
X128353000Y-109132822D01*
X128418892Y-109018694D01*
X128452999Y-108891402D01*
X128453000Y-108891402D01*
X128453000Y-108759614D01*
X128452999Y-108759613D01*
X128418893Y-108632326D01*
X128418892Y-108632322D01*
X128353000Y-108518194D01*
X128299674Y-108464868D01*
X128278000Y-108412542D01*
X128278000Y-107205105D01*
X129755500Y-107205105D01*
X129755500Y-107336894D01*
X129789606Y-107464181D01*
X129789610Y-107464190D01*
X129855500Y-107578314D01*
X129908826Y-107631640D01*
X129930500Y-107683966D01*
X129930500Y-109456893D01*
X129930500Y-109542599D01*
X129951373Y-109620498D01*
X129952683Y-109625387D01*
X129952684Y-109625389D01*
X129995532Y-109699604D01*
X129995533Y-109699605D01*
X129995535Y-109699608D01*
X130012159Y-109716232D01*
X130033833Y-109768557D01*
X130033833Y-109843973D01*
X130067939Y-109971260D01*
X130067943Y-109971269D01*
X130128576Y-110076288D01*
X130133833Y-110085393D01*
X130227019Y-110178579D01*
X130341147Y-110244471D01*
X130468438Y-110278578D01*
X130468439Y-110278579D01*
X130468441Y-110278579D01*
X130600227Y-110278579D01*
X130600227Y-110278578D01*
X130727519Y-110244471D01*
X130841647Y-110178579D01*
X130882284Y-110137942D01*
X130934609Y-110116267D01*
X130986935Y-110137941D01*
X130986936Y-110137941D01*
X131048186Y-110199191D01*
X131162314Y-110265083D01*
X131289605Y-110299190D01*
X131289606Y-110299191D01*
X131289608Y-110299191D01*
X131421394Y-110299191D01*
X131421394Y-110299190D01*
X131548686Y-110265083D01*
X131662814Y-110199191D01*
X131756000Y-110106005D01*
X131821892Y-109991877D01*
X131832936Y-109950658D01*
X138610499Y-109950658D01*
X138610499Y-109955144D01*
X138610499Y-110076288D01*
X138610500Y-110076301D01*
X138610500Y-110788836D01*
X138619979Y-110824211D01*
X138622500Y-110843364D01*
X138622500Y-111136748D01*
X138625881Y-111153745D01*
X138634133Y-111195232D01*
X138654617Y-111225888D01*
X138665666Y-111281436D01*
X138654617Y-111308112D01*
X138634133Y-111338767D01*
X138634133Y-111338769D01*
X138622500Y-111397252D01*
X138622500Y-112436748D01*
X138627764Y-112463210D01*
X138634133Y-112495232D01*
X138652947Y-112523388D01*
X138678448Y-112561552D01*
X138698142Y-112574711D01*
X138744767Y-112605866D01*
X138744768Y-112605866D01*
X138744769Y-112605867D01*
X138803252Y-112617500D01*
X139106696Y-112617500D01*
X139159022Y-112639174D01*
X139178173Y-112672345D01*
X139194258Y-112732373D01*
X139199793Y-112753032D01*
X139199795Y-112753036D01*
X139252517Y-112844353D01*
X139252518Y-112844354D01*
X139252520Y-112844357D01*
X139334721Y-112926558D01*
X139375978Y-112967815D01*
X139395130Y-113000988D01*
X139424106Y-113109126D01*
X139424108Y-113109131D01*
X139458084Y-113167978D01*
X139490000Y-113223258D01*
X139583186Y-113316444D01*
X139697314Y-113382336D01*
X139824605Y-113416443D01*
X139824606Y-113416444D01*
X139824608Y-113416444D01*
X139956394Y-113416444D01*
X139956394Y-113416443D01*
X140083686Y-113382336D01*
X140197814Y-113316444D01*
X140291000Y-113223258D01*
X140356892Y-113109130D01*
X140390999Y-112981838D01*
X140391000Y-112981838D01*
X140391000Y-112850050D01*
X140390999Y-112850049D01*
X140388092Y-112839201D01*
X140356892Y-112722758D01*
X140352557Y-112715251D01*
X140345164Y-112659099D01*
X140379641Y-112614165D01*
X140396651Y-112607764D01*
X140401228Y-112605867D01*
X140401231Y-112605867D01*
X140467552Y-112561552D01*
X140511867Y-112495231D01*
X140523500Y-112436748D01*
X140523500Y-111397252D01*
X140511867Y-111338769D01*
X140491382Y-111308112D01*
X140480333Y-111252565D01*
X140491381Y-111225888D01*
X140511867Y-111195231D01*
X140523500Y-111136748D01*
X140523500Y-110097252D01*
X140511867Y-110038769D01*
X140506225Y-110030326D01*
X140480534Y-109991877D01*
X140467552Y-109972448D01*
X140441655Y-109955144D01*
X140401232Y-109928133D01*
X140401233Y-109928133D01*
X140371989Y-109922316D01*
X140342748Y-109916500D01*
X140342746Y-109916500D01*
X139755835Y-109916500D01*
X139703509Y-109894826D01*
X139681835Y-109842500D01*
X139681835Y-109828265D01*
X139681834Y-109828264D01*
X139658638Y-109741696D01*
X139647727Y-109700973D01*
X139581835Y-109586845D01*
X139488649Y-109493659D01*
X139431909Y-109460900D01*
X139374525Y-109427769D01*
X139374516Y-109427765D01*
X139247229Y-109393659D01*
X139247227Y-109393659D01*
X139115443Y-109393659D01*
X139115441Y-109393659D01*
X138988153Y-109427765D01*
X138988144Y-109427769D01*
X138874020Y-109493659D01*
X138780835Y-109586844D01*
X138714941Y-109700974D01*
X138713528Y-109706250D01*
X138703307Y-109726978D01*
X138703734Y-109727225D01*
X138701310Y-109731422D01*
X138701309Y-109731424D01*
X138695104Y-109742172D01*
X138641473Y-109835061D01*
X138638820Y-109844963D01*
X138637208Y-109850980D01*
X138610499Y-109950658D01*
X131832936Y-109950658D01*
X131855999Y-109864585D01*
X131856000Y-109864585D01*
X131856000Y-109732797D01*
X131855999Y-109732796D01*
X131855631Y-109731424D01*
X131821892Y-109605505D01*
X131756000Y-109491377D01*
X131662814Y-109398191D01*
X131645558Y-109388228D01*
X131548690Y-109332301D01*
X131548681Y-109332297D01*
X131421394Y-109298191D01*
X131421392Y-109298191D01*
X131405500Y-109298191D01*
X131353174Y-109276517D01*
X131331500Y-109224191D01*
X131331500Y-107380105D01*
X135705500Y-107380105D01*
X135705500Y-107511894D01*
X135739606Y-107639181D01*
X135739610Y-107639190D01*
X135805500Y-107753314D01*
X135858826Y-107806640D01*
X135880500Y-107858966D01*
X135880500Y-108828147D01*
X135880500Y-108913853D01*
X135902682Y-108996639D01*
X135902683Y-108996641D01*
X135902684Y-108996643D01*
X135945532Y-109070858D01*
X135945533Y-109070859D01*
X135945535Y-109070862D01*
X135983826Y-109109153D01*
X136005500Y-109161478D01*
X136005500Y-109236894D01*
X136039606Y-109364181D01*
X136039610Y-109364190D01*
X136095444Y-109460897D01*
X136105500Y-109478314D01*
X136198686Y-109571500D01*
X136312814Y-109637392D01*
X136440105Y-109671499D01*
X136440106Y-109671500D01*
X136440108Y-109671500D01*
X136571894Y-109671500D01*
X136571894Y-109671499D01*
X136699186Y-109637392D01*
X136813314Y-109571500D01*
X136906500Y-109478314D01*
X136972392Y-109364186D01*
X137006499Y-109236894D01*
X137006500Y-109236894D01*
X137006500Y-109105106D01*
X137006499Y-109105105D01*
X137001596Y-109086808D01*
X136972392Y-108977814D01*
X136906500Y-108863686D01*
X136813314Y-108770500D01*
X136794457Y-108759613D01*
X136699190Y-108704610D01*
X136699181Y-108704606D01*
X136586347Y-108674372D01*
X136571022Y-108662612D01*
X136553174Y-108655220D01*
X136549347Y-108645981D01*
X136541414Y-108639894D01*
X136531500Y-108602894D01*
X136531500Y-108519105D01*
X143263500Y-108519105D01*
X143263500Y-108650894D01*
X143297606Y-108778181D01*
X143297610Y-108778190D01*
X143360098Y-108886421D01*
X143363500Y-108892314D01*
X143456686Y-108985500D01*
X143570814Y-109051392D01*
X143698105Y-109085499D01*
X143698106Y-109085500D01*
X143698108Y-109085500D01*
X143773521Y-109085500D01*
X143825847Y-109107174D01*
X144224301Y-109505628D01*
X144245975Y-109557954D01*
X144245975Y-110059009D01*
X144224301Y-110111335D01*
X144170975Y-110164660D01*
X144105085Y-110278784D01*
X144105081Y-110278793D01*
X144070975Y-110406080D01*
X144070975Y-110537869D01*
X144105081Y-110665156D01*
X144105085Y-110665165D01*
X144155220Y-110752000D01*
X144170975Y-110779289D01*
X144264161Y-110872475D01*
X144378289Y-110938367D01*
X144505580Y-110972474D01*
X144505581Y-110972475D01*
X144505583Y-110972475D01*
X144637369Y-110972475D01*
X144637369Y-110972474D01*
X144764661Y-110938367D01*
X144878789Y-110872475D01*
X144971975Y-110779289D01*
X145037867Y-110665161D01*
X145071974Y-110537869D01*
X145071975Y-110537869D01*
X145071975Y-110406081D01*
X145071974Y-110406080D01*
X145053634Y-110337635D01*
X145037867Y-110278789D01*
X144971975Y-110164661D01*
X144918649Y-110111335D01*
X144896975Y-110059009D01*
X144896975Y-109349621D01*
X144889800Y-109322842D01*
X144889800Y-109322841D01*
X144874794Y-109266839D01*
X144874792Y-109266834D01*
X144831942Y-109192616D01*
X144831941Y-109192615D01*
X144831940Y-109192613D01*
X144286174Y-108646847D01*
X144264500Y-108594521D01*
X144264500Y-108519106D01*
X144264499Y-108519105D01*
X144249966Y-108464868D01*
X144230392Y-108391814D01*
X144164500Y-108277686D01*
X144071314Y-108184500D01*
X144022053Y-108156059D01*
X143957190Y-108118610D01*
X143957181Y-108118606D01*
X143829894Y-108084500D01*
X143829892Y-108084500D01*
X143698108Y-108084500D01*
X143698106Y-108084500D01*
X143570818Y-108118606D01*
X143570809Y-108118610D01*
X143456685Y-108184500D01*
X143363500Y-108277685D01*
X143297610Y-108391809D01*
X143297606Y-108391818D01*
X143263500Y-108519105D01*
X136531500Y-108519105D01*
X136531500Y-107858966D01*
X136553174Y-107806640D01*
X136570633Y-107789181D01*
X136606500Y-107753314D01*
X136672392Y-107639186D01*
X136706499Y-107511894D01*
X136706500Y-107511894D01*
X136706500Y-107380106D01*
X136706499Y-107380105D01*
X136699759Y-107354952D01*
X136672392Y-107252814D01*
X136606500Y-107138686D01*
X136513314Y-107045500D01*
X136423847Y-106993846D01*
X136399190Y-106979610D01*
X136399181Y-106979606D01*
X136271894Y-106945500D01*
X136271892Y-106945500D01*
X136140108Y-106945500D01*
X136140106Y-106945500D01*
X136012818Y-106979606D01*
X136012809Y-106979610D01*
X135898685Y-107045500D01*
X135805500Y-107138685D01*
X135739610Y-107252809D01*
X135739606Y-107252818D01*
X135705500Y-107380105D01*
X131331500Y-107380105D01*
X131331500Y-107283966D01*
X131353174Y-107231640D01*
X131379709Y-107205105D01*
X131406500Y-107178314D01*
X131472392Y-107064186D01*
X131506499Y-106936894D01*
X131506500Y-106936894D01*
X131506500Y-106805106D01*
X131506499Y-106805105D01*
X131506366Y-106804610D01*
X131472392Y-106677814D01*
X131406500Y-106563686D01*
X131313314Y-106470500D01*
X131270011Y-106445499D01*
X131199190Y-106404610D01*
X131199181Y-106404606D01*
X131071894Y-106370500D01*
X131071892Y-106370500D01*
X130940108Y-106370500D01*
X130940106Y-106370500D01*
X130812818Y-106404606D01*
X130812809Y-106404610D01*
X130698685Y-106470500D01*
X130605500Y-106563685D01*
X130539610Y-106677809D01*
X130539606Y-106677818D01*
X130521004Y-106747242D01*
X130486525Y-106792175D01*
X130430373Y-106799567D01*
X130321894Y-106770500D01*
X130321892Y-106770500D01*
X130190108Y-106770500D01*
X130190106Y-106770500D01*
X130062818Y-106804606D01*
X130062809Y-106804610D01*
X129948685Y-106870500D01*
X129855500Y-106963685D01*
X129789610Y-107077809D01*
X129789606Y-107077818D01*
X129755500Y-107205105D01*
X128278000Y-107205105D01*
X128278000Y-105280605D01*
X128976000Y-105280605D01*
X128976000Y-105412394D01*
X129010106Y-105539681D01*
X129010110Y-105539690D01*
X129024393Y-105564429D01*
X129076000Y-105653814D01*
X129169186Y-105747000D01*
X129283314Y-105812892D01*
X129410605Y-105846999D01*
X129410606Y-105847000D01*
X129410608Y-105847000D01*
X129542394Y-105847000D01*
X129542394Y-105846999D01*
X129669686Y-105812892D01*
X129680042Y-105806912D01*
X129717040Y-105797000D01*
X133342109Y-105797000D01*
X133361260Y-105799520D01*
X133417164Y-105814500D01*
X134287588Y-105814500D01*
X134339914Y-105836174D01*
X134513826Y-106010086D01*
X134535500Y-106062412D01*
X134535500Y-106181442D01*
X134525588Y-106218439D01*
X134523608Y-106221867D01*
X134523606Y-106221872D01*
X134489500Y-106349159D01*
X134489500Y-106480948D01*
X134523606Y-106608235D01*
X134523610Y-106608244D01*
X134563774Y-106677809D01*
X134589500Y-106722368D01*
X134682686Y-106815554D01*
X134796814Y-106881446D01*
X134924105Y-106915553D01*
X134924106Y-106915554D01*
X134924108Y-106915554D01*
X135055894Y-106915554D01*
X135055894Y-106915553D01*
X135183186Y-106881446D01*
X135297314Y-106815554D01*
X135390500Y-106722368D01*
X135456392Y-106608240D01*
X135490499Y-106480948D01*
X135490500Y-106480948D01*
X135490500Y-106349160D01*
X135490499Y-106349159D01*
X135456393Y-106221872D01*
X135456392Y-106221868D01*
X135454411Y-106218438D01*
X135444500Y-106181442D01*
X135444500Y-105909307D01*
X135444501Y-105909294D01*
X135444501Y-105783662D01*
X135444500Y-105783661D01*
X135416049Y-105677480D01*
X135416048Y-105677479D01*
X135413527Y-105668070D01*
X135413527Y-105668069D01*
X135353691Y-105564430D01*
X135346336Y-105557075D01*
X135324662Y-105504749D01*
X135346336Y-105452423D01*
X135581654Y-105217105D01*
X139072500Y-105217105D01*
X139072500Y-105348894D01*
X139106606Y-105476181D01*
X139106607Y-105476184D01*
X139106608Y-105476186D01*
X139172500Y-105590314D01*
X139265686Y-105683500D01*
X139379814Y-105749392D01*
X139507105Y-105783499D01*
X139507106Y-105783500D01*
X139507108Y-105783500D01*
X139583818Y-105783500D01*
X139622097Y-105796494D01*
X139622937Y-105795040D01*
X139656643Y-105814500D01*
X139701361Y-105840318D01*
X139784147Y-105862500D01*
X139869853Y-105862500D01*
X146646521Y-105862500D01*
X146698847Y-105884174D01*
X151501638Y-110686965D01*
X151575861Y-110729818D01*
X151658647Y-110752000D01*
X151744353Y-110752000D01*
X164460925Y-110752000D01*
X164513251Y-110773674D01*
X170335552Y-116595975D01*
X170409775Y-116638828D01*
X170492561Y-116661010D01*
X171109883Y-116661010D01*
X171164034Y-116661010D01*
X171216360Y-116682684D01*
X171269686Y-116736010D01*
X171383814Y-116801902D01*
X171511105Y-116836009D01*
X171511106Y-116836010D01*
X171511108Y-116836010D01*
X171642894Y-116836010D01*
X171642894Y-116836009D01*
X171770186Y-116801902D01*
X171884314Y-116736010D01*
X171977500Y-116642824D01*
X172043392Y-116528696D01*
X172077499Y-116401404D01*
X172077500Y-116401404D01*
X172077500Y-116269616D01*
X172077499Y-116269615D01*
X172076845Y-116267176D01*
X172059932Y-116204052D01*
X172067324Y-116147899D01*
X172112257Y-116113421D01*
X172168410Y-116120813D01*
X172183736Y-116132573D01*
X172324826Y-116273663D01*
X172346500Y-116325989D01*
X172346500Y-116401404D01*
X172380606Y-116528691D01*
X172380610Y-116528700D01*
X172419452Y-116595975D01*
X172446500Y-116642824D01*
X172539686Y-116736010D01*
X172653814Y-116801902D01*
X172781105Y-116836009D01*
X172781106Y-116836010D01*
X172781108Y-116836010D01*
X172912894Y-116836010D01*
X172912894Y-116836009D01*
X173040186Y-116801902D01*
X173154314Y-116736010D01*
X173247500Y-116642824D01*
X173313392Y-116528696D01*
X173347499Y-116401404D01*
X173347500Y-116401404D01*
X173347500Y-116264978D01*
X173369174Y-116212652D01*
X173421500Y-116190978D01*
X173473826Y-116212652D01*
X173594826Y-116333652D01*
X173616500Y-116385978D01*
X173616500Y-116461394D01*
X173650606Y-116588681D01*
X173650610Y-116588690D01*
X173681865Y-116642824D01*
X173716500Y-116702814D01*
X173809686Y-116796000D01*
X173923814Y-116861892D01*
X174051105Y-116895999D01*
X174051106Y-116896000D01*
X174051108Y-116896000D01*
X174182894Y-116896000D01*
X174182894Y-116895999D01*
X174310186Y-116861892D01*
X174424314Y-116796000D01*
X174517500Y-116702814D01*
X174583392Y-116588686D01*
X174617499Y-116461394D01*
X174617500Y-116461394D01*
X174617500Y-116329606D01*
X174617499Y-116329605D01*
X174615280Y-116321325D01*
X174602510Y-116273663D01*
X174599932Y-116264042D01*
X174607324Y-116207889D01*
X174652257Y-116173411D01*
X174708410Y-116180803D01*
X174723736Y-116192563D01*
X174864826Y-116333653D01*
X174886500Y-116385979D01*
X174886500Y-116461394D01*
X174920606Y-116588681D01*
X174920610Y-116588690D01*
X174951865Y-116642824D01*
X174986500Y-116702814D01*
X175079686Y-116796000D01*
X175193814Y-116861892D01*
X175321105Y-116895999D01*
X175321106Y-116896000D01*
X175321108Y-116896000D01*
X175452894Y-116896000D01*
X175452894Y-116895999D01*
X175580186Y-116861892D01*
X175694314Y-116796000D01*
X175787500Y-116702814D01*
X175853392Y-116588686D01*
X175887499Y-116461394D01*
X175887500Y-116461394D01*
X175887500Y-116329606D01*
X175887499Y-116329605D01*
X175885280Y-116321325D01*
X175853392Y-116202314D01*
X175787500Y-116088186D01*
X175694314Y-115995000D01*
X175626245Y-115955700D01*
X175580190Y-115929110D01*
X175580181Y-115929106D01*
X175452894Y-115895000D01*
X175452892Y-115895000D01*
X175377479Y-115895000D01*
X175325153Y-115873326D01*
X174604957Y-115153130D01*
X173872362Y-114420535D01*
X173872359Y-114420533D01*
X173872358Y-114420532D01*
X173798143Y-114377684D01*
X173798141Y-114377683D01*
X173798140Y-114377682D01*
X173798139Y-114377682D01*
X173715353Y-114355500D01*
X173715351Y-114355500D01*
X171361478Y-114355500D01*
X171309152Y-114333826D01*
X168428105Y-111452779D01*
X165426862Y-108451535D01*
X165426859Y-108451533D01*
X165426858Y-108451532D01*
X165352643Y-108408684D01*
X165352641Y-108408683D01*
X165352640Y-108408682D01*
X165352639Y-108408682D01*
X165269853Y-108386500D01*
X165269851Y-108386500D01*
X154597479Y-108386500D01*
X154545154Y-108364827D01*
X154527149Y-108346822D01*
X154504862Y-108324535D01*
X154504859Y-108324533D01*
X154504858Y-108324532D01*
X154430643Y-108281684D01*
X154430641Y-108281683D01*
X154430640Y-108281682D01*
X154430639Y-108281682D01*
X154347853Y-108259500D01*
X154347851Y-108259500D01*
X150698474Y-108259500D01*
X150646148Y-108237826D01*
X148872496Y-106464174D01*
X147049858Y-104641535D01*
X147049855Y-104641533D01*
X147049854Y-104641532D01*
X146975639Y-104598684D01*
X146975635Y-104598682D01*
X146960721Y-104594686D01*
X146909999Y-104581095D01*
X146909998Y-104581094D01*
X146892850Y-104576500D01*
X146892849Y-104576500D01*
X142398966Y-104576500D01*
X142346640Y-104554826D01*
X142305066Y-104513252D01*
X149036500Y-104513252D01*
X149036500Y-106052748D01*
X149039205Y-106066347D01*
X149048133Y-106111232D01*
X149059126Y-106127683D01*
X149092448Y-106177552D01*
X149127944Y-106201270D01*
X149158767Y-106221866D01*
X149158768Y-106221866D01*
X149158769Y-106221867D01*
X149217252Y-106233500D01*
X149465359Y-106233500D01*
X149517685Y-106255174D01*
X149539359Y-106307500D01*
X149529445Y-106344498D01*
X149524934Y-106352314D01*
X149520608Y-106359805D01*
X149520606Y-106359810D01*
X149486500Y-106487097D01*
X149486500Y-106618886D01*
X149520606Y-106746173D01*
X149520610Y-106746182D01*
X149583284Y-106854735D01*
X149586500Y-106860306D01*
X149679686Y-106953492D01*
X149793814Y-107019384D01*
X149921105Y-107053491D01*
X149921106Y-107053492D01*
X149921108Y-107053492D01*
X150052894Y-107053492D01*
X150052894Y-107053491D01*
X150180186Y-107019384D01*
X150294314Y-106953492D01*
X150387500Y-106860306D01*
X150453392Y-106746178D01*
X150487499Y-106618886D01*
X150487500Y-106618886D01*
X150487500Y-106487098D01*
X150487499Y-106487097D01*
X150485851Y-106480948D01*
X150453392Y-106359806D01*
X150444554Y-106344499D01*
X150437162Y-106288348D01*
X150471640Y-106243414D01*
X150508641Y-106233500D01*
X150756746Y-106233500D01*
X150756748Y-106233500D01*
X150815231Y-106221867D01*
X150881552Y-106177552D01*
X150925867Y-106111231D01*
X150937500Y-106052748D01*
X150937500Y-104513252D01*
X150925867Y-104454769D01*
X150913062Y-104435606D01*
X150890273Y-104401500D01*
X150881552Y-104388448D01*
X150859343Y-104373608D01*
X150815232Y-104344133D01*
X150815233Y-104344133D01*
X150785989Y-104338316D01*
X150756748Y-104332500D01*
X149217252Y-104332500D01*
X149188010Y-104338316D01*
X149158767Y-104344133D01*
X149092449Y-104388447D01*
X149092447Y-104388449D01*
X149048133Y-104454767D01*
X149040377Y-104493757D01*
X149036500Y-104513252D01*
X142305066Y-104513252D01*
X142293314Y-104501500D01*
X142179190Y-104435610D01*
X142179181Y-104435606D01*
X142051894Y-104401500D01*
X142051892Y-104401500D01*
X141920108Y-104401500D01*
X141920106Y-104401500D01*
X141792818Y-104435606D01*
X141792809Y-104435610D01*
X141678685Y-104501500D01*
X141585500Y-104594685D01*
X141519610Y-104708809D01*
X141519606Y-104708818D01*
X141485500Y-104836105D01*
X141485500Y-104967894D01*
X141519606Y-105095181D01*
X141519610Y-105095189D01*
X141522676Y-105100500D01*
X141530069Y-105156652D01*
X141495590Y-105201586D01*
X141458590Y-105211500D01*
X140128780Y-105211500D01*
X140076454Y-105189826D01*
X140057302Y-105156653D01*
X140039393Y-105089818D01*
X140039392Y-105089814D01*
X139973500Y-104975686D01*
X139880314Y-104882500D01*
X139876171Y-104880108D01*
X139766190Y-104816610D01*
X139766181Y-104816606D01*
X139638894Y-104782500D01*
X139638892Y-104782500D01*
X139507108Y-104782500D01*
X139507106Y-104782500D01*
X139379818Y-104816606D01*
X139379809Y-104816610D01*
X139265685Y-104882500D01*
X139172500Y-104975685D01*
X139106610Y-105089809D01*
X139106606Y-105089818D01*
X139072500Y-105217105D01*
X135581654Y-105217105D01*
X135638827Y-105159932D01*
X135759574Y-105039185D01*
X135978540Y-104820219D01*
X135978543Y-104820218D01*
X136063164Y-104735597D01*
X136123000Y-104631958D01*
X136132987Y-104594685D01*
X136138496Y-104574127D01*
X136138496Y-104574123D01*
X136138498Y-104574118D01*
X136153974Y-104516363D01*
X136153974Y-104396691D01*
X136153974Y-104392162D01*
X136153973Y-104392144D01*
X136153973Y-103171940D01*
X157514500Y-103171940D01*
X157514500Y-103330059D01*
X157555421Y-103482779D01*
X157555422Y-103482781D01*
X157555423Y-103482784D01*
X157634480Y-103619716D01*
X157746284Y-103731520D01*
X157883216Y-103810577D01*
X158035940Y-103851499D01*
X158035941Y-103851500D01*
X158035943Y-103851500D01*
X158194059Y-103851500D01*
X158194059Y-103851499D01*
X158346784Y-103810577D01*
X158483716Y-103731520D01*
X158595520Y-103619716D01*
X158674577Y-103482784D01*
X158715499Y-103330059D01*
X158715500Y-103330059D01*
X158715500Y-103323912D01*
X158737174Y-103271586D01*
X159283239Y-102725521D01*
X159335565Y-102703847D01*
X159341712Y-102703847D01*
X159341712Y-102703846D01*
X159494437Y-102662924D01*
X159631369Y-102583867D01*
X159743173Y-102472063D01*
X159822230Y-102335131D01*
X159863152Y-102182406D01*
X159863153Y-102182406D01*
X159863153Y-102024288D01*
X159863152Y-102024287D01*
X159854494Y-101991976D01*
X159822230Y-101871563D01*
X159743173Y-101734631D01*
X159631369Y-101622827D01*
X159494437Y-101543770D01*
X159494434Y-101543769D01*
X159494432Y-101543768D01*
X159341712Y-101502847D01*
X159341710Y-101502847D01*
X159183596Y-101502847D01*
X159183594Y-101502847D01*
X159030873Y-101543768D01*
X159030867Y-101543771D01*
X158893936Y-101622827D01*
X158782133Y-101734630D01*
X158703077Y-101871561D01*
X158703074Y-101871567D01*
X158662153Y-102024287D01*
X158662153Y-102030435D01*
X158640479Y-102082761D01*
X158094414Y-102628826D01*
X158042088Y-102650500D01*
X158035941Y-102650500D01*
X157883220Y-102691421D01*
X157883214Y-102691424D01*
X157746283Y-102770480D01*
X157634480Y-102882283D01*
X157555424Y-103019214D01*
X157555421Y-103019220D01*
X157514500Y-103171940D01*
X136153973Y-103171940D01*
X136153973Y-100406490D01*
X136175647Y-100354164D01*
X136227973Y-100332490D01*
X139923735Y-100332490D01*
X139976060Y-100354163D01*
X140040466Y-100418570D01*
X140083695Y-100461799D01*
X140095453Y-100477122D01*
X140098310Y-100482070D01*
X140623326Y-101007086D01*
X140645000Y-101059412D01*
X140645000Y-101495888D01*
X140635088Y-101532885D01*
X140633108Y-101536313D01*
X140633106Y-101536318D01*
X140599000Y-101663605D01*
X140599000Y-101795394D01*
X140633106Y-101922681D01*
X140633110Y-101922690D01*
X140691768Y-102024288D01*
X140699000Y-102036814D01*
X140792186Y-102130000D01*
X140906314Y-102195892D01*
X141033605Y-102229999D01*
X141033606Y-102230000D01*
X141033608Y-102230000D01*
X141165394Y-102230000D01*
X141165394Y-102229999D01*
X141292686Y-102195892D01*
X141406814Y-102130000D01*
X141500000Y-102036814D01*
X141565892Y-101922686D01*
X141599999Y-101795394D01*
X141600000Y-101795394D01*
X141600000Y-101663606D01*
X141599999Y-101663605D01*
X141584532Y-101605882D01*
X141565892Y-101536314D01*
X141563911Y-101532884D01*
X141554000Y-101495888D01*
X141554000Y-100906307D01*
X141554001Y-100906294D01*
X141554001Y-100780662D01*
X141554000Y-100780661D01*
X141544888Y-100746653D01*
X141552280Y-100690501D01*
X141597213Y-100656022D01*
X141616366Y-100653500D01*
X141727811Y-100653500D01*
X141727811Y-100653499D01*
X141842386Y-100622799D01*
X141945113Y-100563489D01*
X141990792Y-100517808D01*
X142006121Y-100506048D01*
X142011070Y-100503191D01*
X142095691Y-100418570D01*
X142155527Y-100314931D01*
X142174519Y-100244048D01*
X142181908Y-100226208D01*
X142198392Y-100197660D01*
X142232500Y-100070366D01*
X142232500Y-99938582D01*
X142232500Y-99938580D01*
X142232499Y-99938579D01*
X142198393Y-99811292D01*
X142198392Y-99811288D01*
X142132500Y-99697160D01*
X142039314Y-99603974D01*
X141986618Y-99573550D01*
X141925190Y-99538084D01*
X141925181Y-99538080D01*
X141797894Y-99503974D01*
X141797892Y-99503974D01*
X141666108Y-99503974D01*
X141666106Y-99503974D01*
X141538818Y-99538080D01*
X141538809Y-99538084D01*
X141424685Y-99603974D01*
X141331497Y-99697163D01*
X141320911Y-99715500D01*
X141275978Y-99749978D01*
X141256825Y-99752500D01*
X140679256Y-99752500D01*
X140626930Y-99730826D01*
X140417602Y-99521499D01*
X140314881Y-99462193D01*
X140314879Y-99462192D01*
X140314877Y-99462191D01*
X140313575Y-99461842D01*
X140290664Y-99455702D01*
X140290664Y-99455703D01*
X140200299Y-99431490D01*
X136183046Y-99431490D01*
X135940013Y-99431490D01*
X135903015Y-99421577D01*
X135892659Y-99415598D01*
X135892655Y-99415597D01*
X135892654Y-99415596D01*
X135765367Y-99381490D01*
X135765365Y-99381490D01*
X135633581Y-99381490D01*
X135633579Y-99381490D01*
X135506291Y-99415596D01*
X135506282Y-99415600D01*
X135392158Y-99481490D01*
X135298973Y-99574675D01*
X135233083Y-99688799D01*
X135233079Y-99688808D01*
X135198973Y-99816095D01*
X135198973Y-99816098D01*
X135198973Y-99947882D01*
X135233081Y-100075176D01*
X135233082Y-100075177D01*
X135233082Y-100075179D01*
X135235056Y-100078597D01*
X135244973Y-100115601D01*
X135244973Y-104237615D01*
X135223299Y-104289941D01*
X134636995Y-104876244D01*
X134584669Y-104897918D01*
X134565516Y-104895396D01*
X134552838Y-104891999D01*
X134552836Y-104891999D01*
X134433164Y-104891999D01*
X134428634Y-104891999D01*
X134428618Y-104892000D01*
X133772986Y-104892000D01*
X133767469Y-104893478D01*
X133748316Y-104896000D01*
X129717040Y-104896000D01*
X129680042Y-104886087D01*
X129669686Y-104880108D01*
X129669682Y-104880107D01*
X129669681Y-104880106D01*
X129542394Y-104846000D01*
X129542392Y-104846000D01*
X129410608Y-104846000D01*
X129410606Y-104846000D01*
X129283318Y-104880106D01*
X129283309Y-104880110D01*
X129169185Y-104946000D01*
X129076000Y-105039185D01*
X129010110Y-105153309D01*
X129010106Y-105153318D01*
X128976000Y-105280605D01*
X128278000Y-105280605D01*
X128278000Y-105110741D01*
X128299673Y-105058416D01*
X129392891Y-103965198D01*
X132323407Y-103965198D01*
X132323407Y-104096987D01*
X132357513Y-104224274D01*
X132357517Y-104224283D01*
X132395425Y-104289941D01*
X132423407Y-104338407D01*
X132516593Y-104431593D01*
X132630721Y-104497485D01*
X132758012Y-104531592D01*
X132758013Y-104531593D01*
X132758015Y-104531593D01*
X132889801Y-104531593D01*
X132889801Y-104531592D01*
X133017093Y-104497485D01*
X133131221Y-104431593D01*
X133224407Y-104338407D01*
X133290299Y-104224279D01*
X133324406Y-104096987D01*
X133324407Y-104096987D01*
X133324407Y-103965199D01*
X133324406Y-103965198D01*
X133318712Y-103943949D01*
X133290299Y-103837907D01*
X133224407Y-103723779D01*
X133174553Y-103673925D01*
X133152879Y-103621599D01*
X133174552Y-103569274D01*
X134036495Y-102707332D01*
X134088821Y-102685658D01*
X134164236Y-102685658D01*
X134164236Y-102685657D01*
X134291528Y-102651550D01*
X134405656Y-102585658D01*
X134498842Y-102492472D01*
X134564734Y-102378344D01*
X134598841Y-102251052D01*
X134598842Y-102251052D01*
X134598842Y-102119264D01*
X134598841Y-102119263D01*
X134589060Y-102082761D01*
X134564734Y-101991972D01*
X134498842Y-101877844D01*
X134405656Y-101784658D01*
X134319007Y-101734631D01*
X134291532Y-101718768D01*
X134291523Y-101718764D01*
X134164236Y-101684658D01*
X134164234Y-101684658D01*
X134032450Y-101684658D01*
X134032448Y-101684658D01*
X133905160Y-101718764D01*
X133905151Y-101718768D01*
X133791027Y-101784658D01*
X133697842Y-101877843D01*
X133631952Y-101991967D01*
X133631948Y-101991976D01*
X133597842Y-102119263D01*
X133597842Y-102194679D01*
X133576168Y-102247005D01*
X132563439Y-103259734D01*
X132520590Y-103333952D01*
X132520589Y-103333954D01*
X132510956Y-103369909D01*
X132510955Y-103369912D01*
X132498407Y-103416738D01*
X132498407Y-103618127D01*
X132476733Y-103670453D01*
X132423407Y-103723778D01*
X132357517Y-103837902D01*
X132357513Y-103837911D01*
X132323407Y-103965198D01*
X129392891Y-103965198D01*
X130760513Y-102597575D01*
X130812838Y-102575902D01*
X130865164Y-102597576D01*
X130884316Y-102630749D01*
X130915112Y-102745681D01*
X130915116Y-102745690D01*
X130938634Y-102786424D01*
X130981006Y-102859814D01*
X131074192Y-102953000D01*
X131188320Y-103018892D01*
X131315611Y-103052999D01*
X131315612Y-103053000D01*
X131315614Y-103053000D01*
X131447400Y-103053000D01*
X131447400Y-103052999D01*
X131574692Y-103018892D01*
X131688820Y-102953000D01*
X131782006Y-102859814D01*
X131847898Y-102745686D01*
X131882005Y-102618394D01*
X131882006Y-102618394D01*
X131882006Y-102574140D01*
X131903680Y-102521814D01*
X132167332Y-102258162D01*
X132219658Y-102236488D01*
X132295073Y-102236488D01*
X132295073Y-102236487D01*
X132422365Y-102202380D01*
X132536493Y-102136488D01*
X132629679Y-102043302D01*
X132695571Y-101929174D01*
X132729678Y-101801882D01*
X132729679Y-101801882D01*
X132729679Y-101670094D01*
X132729678Y-101670093D01*
X132727940Y-101663608D01*
X132695571Y-101542802D01*
X132629679Y-101428674D01*
X132536493Y-101335488D01*
X132448687Y-101284793D01*
X132422369Y-101269598D01*
X132422360Y-101269594D01*
X132295073Y-101235488D01*
X132295071Y-101235488D01*
X132163287Y-101235488D01*
X132163285Y-101235488D01*
X132035997Y-101269594D01*
X132035988Y-101269598D01*
X131928489Y-101331663D01*
X131872336Y-101339055D01*
X131827403Y-101304577D01*
X131820609Y-101284564D01*
X131819756Y-101284793D01*
X131784393Y-101152818D01*
X131784392Y-101152814D01*
X131718500Y-101038686D01*
X131625314Y-100945500D01*
X131511190Y-100879610D01*
X131511181Y-100879606D01*
X131383894Y-100845500D01*
X131383892Y-100845500D01*
X131252108Y-100845500D01*
X131252106Y-100845500D01*
X131124818Y-100879606D01*
X131124809Y-100879610D01*
X131010685Y-100945500D01*
X130917500Y-101038685D01*
X130851610Y-101152809D01*
X130851606Y-101152818D01*
X130817500Y-101280105D01*
X130817500Y-101280108D01*
X130817500Y-101411892D01*
X130821997Y-101428674D01*
X130850407Y-101534704D01*
X130843014Y-101590856D01*
X130831254Y-101606182D01*
X127692032Y-104745405D01*
X127649184Y-104819620D01*
X127649181Y-104819627D01*
X127642114Y-104845999D01*
X127642115Y-104846000D01*
X127632976Y-104880110D01*
X127627000Y-104902412D01*
X127627000Y-108412542D01*
X127605326Y-108464868D01*
X127552000Y-108518193D01*
X127486110Y-108632317D01*
X127486106Y-108632326D01*
X127452000Y-108759613D01*
X112319523Y-108759613D01*
X112319523Y-108371493D01*
X112322045Y-108352338D01*
X112323523Y-108346822D01*
X112323523Y-108224188D01*
X112312889Y-108184500D01*
X112292550Y-108108592D01*
X112232714Y-108004953D01*
X112148093Y-107920332D01*
X112145514Y-107917753D01*
X112145503Y-107917743D01*
X111667568Y-107439808D01*
X111648414Y-107406630D01*
X111647392Y-107402814D01*
X111581500Y-107288686D01*
X111488314Y-107195500D01*
X111454806Y-107176154D01*
X111374190Y-107129610D01*
X111374181Y-107129606D01*
X111246894Y-107095500D01*
X111246892Y-107095500D01*
X111115108Y-107095500D01*
X111115106Y-107095500D01*
X110987818Y-107129606D01*
X110987809Y-107129610D01*
X110873685Y-107195500D01*
X110780500Y-107288685D01*
X110714610Y-107402809D01*
X110714606Y-107402818D01*
X110680500Y-107530105D01*
X108400500Y-107530105D01*
X108400500Y-105863000D01*
X108422174Y-105810674D01*
X108474500Y-105789000D01*
X108626746Y-105789000D01*
X108626748Y-105789000D01*
X108685231Y-105777367D01*
X108751552Y-105733052D01*
X108795867Y-105666731D01*
X108807500Y-105608248D01*
X108807500Y-104527226D01*
X108829173Y-104474901D01*
X109286174Y-104017899D01*
X109338500Y-103996226D01*
X109390826Y-104017900D01*
X109412500Y-104070226D01*
X109412500Y-105608246D01*
X109424133Y-105666732D01*
X109450255Y-105705825D01*
X109468448Y-105733052D01*
X109492904Y-105749393D01*
X109534767Y-105777366D01*
X109534768Y-105777366D01*
X109534769Y-105777367D01*
X109593252Y-105789000D01*
X110325000Y-105789000D01*
X110377326Y-105810674D01*
X110399000Y-105863000D01*
X110396479Y-105882152D01*
X110370500Y-105979108D01*
X110370500Y-106110894D01*
X110404606Y-106238181D01*
X110404610Y-106238190D01*
X110450972Y-106318491D01*
X110470500Y-106352314D01*
X110563686Y-106445500D01*
X110677814Y-106511392D01*
X110805105Y-106545499D01*
X110805106Y-106545500D01*
X110805108Y-106545500D01*
X110936894Y-106545500D01*
X110936894Y-106545499D01*
X111064186Y-106511392D01*
X111178314Y-106445500D01*
X111271500Y-106352314D01*
X111337392Y-106238186D01*
X111371499Y-106110894D01*
X111371500Y-106110894D01*
X111371500Y-105979106D01*
X111371499Y-105979105D01*
X111365753Y-105957662D01*
X111337392Y-105851814D01*
X111286607Y-105763852D01*
X111279214Y-105707700D01*
X111289162Y-105685744D01*
X111301867Y-105666731D01*
X111313500Y-105608248D01*
X111313500Y-104068752D01*
X111301867Y-104010269D01*
X111301224Y-104009307D01*
X111271753Y-103965201D01*
X111257552Y-103943948D01*
X111221887Y-103920117D01*
X111191232Y-103899633D01*
X111191233Y-103899633D01*
X111161989Y-103893816D01*
X111132748Y-103888000D01*
X111132746Y-103888000D01*
X110366888Y-103888000D01*
X110314562Y-103866326D01*
X110292888Y-103814000D01*
X110314562Y-103761674D01*
X110361520Y-103714716D01*
X110406911Y-103636095D01*
X111838510Y-103636095D01*
X111838510Y-103767884D01*
X111872616Y-103895171D01*
X111872617Y-103895174D01*
X111872618Y-103895176D01*
X111930959Y-103996226D01*
X111938512Y-104009307D01*
X111938603Y-104009426D01*
X111938622Y-104009498D01*
X111940935Y-104013504D01*
X111939861Y-104014123D01*
X111953256Y-104064135D01*
X111952506Y-104068676D01*
X111952500Y-104068746D01*
X111952500Y-105608246D01*
X111964133Y-105666732D01*
X111990255Y-105705825D01*
X112008448Y-105733052D01*
X112032904Y-105749393D01*
X112074767Y-105777366D01*
X112074768Y-105777366D01*
X112074769Y-105777367D01*
X112133252Y-105789000D01*
X112133254Y-105789000D01*
X113672746Y-105789000D01*
X113672748Y-105789000D01*
X113731231Y-105777367D01*
X113797552Y-105733052D01*
X113841867Y-105666731D01*
X113853500Y-105608248D01*
X113853500Y-104068752D01*
X113841867Y-104010269D01*
X113841224Y-104009307D01*
X113811753Y-103965201D01*
X113797552Y-103943948D01*
X113761887Y-103920117D01*
X113731232Y-103899633D01*
X113731233Y-103899633D01*
X113701989Y-103893816D01*
X113672748Y-103888000D01*
X113672746Y-103888000D01*
X112903763Y-103888000D01*
X112851437Y-103866326D01*
X112829763Y-103814000D01*
X112832285Y-103794847D01*
X112839509Y-103767884D01*
X112839510Y-103767882D01*
X112839510Y-103636096D01*
X112839509Y-103636095D01*
X112836401Y-103624497D01*
X112805402Y-103508804D01*
X112739510Y-103394676D01*
X112646324Y-103301490D01*
X112574001Y-103259734D01*
X112532200Y-103235600D01*
X112532191Y-103235596D01*
X112404904Y-103201490D01*
X112404902Y-103201490D01*
X112273118Y-103201490D01*
X112273116Y-103201490D01*
X112145828Y-103235596D01*
X112145819Y-103235600D01*
X112031695Y-103301490D01*
X111938510Y-103394675D01*
X111872620Y-103508799D01*
X111872616Y-103508808D01*
X111838510Y-103636095D01*
X110406911Y-103636095D01*
X110440577Y-103577784D01*
X110481499Y-103425059D01*
X110481500Y-103425059D01*
X110481500Y-103266941D01*
X110481499Y-103266940D01*
X110479567Y-103259731D01*
X110440577Y-103114216D01*
X110408180Y-103058103D01*
X124721500Y-103058103D01*
X124721500Y-103189892D01*
X124755606Y-103317179D01*
X124755610Y-103317188D01*
X124800348Y-103394676D01*
X124821500Y-103431312D01*
X124914686Y-103524498D01*
X125028814Y-103590390D01*
X125156105Y-103624497D01*
X125156106Y-103624498D01*
X125156108Y-103624498D01*
X125287894Y-103624498D01*
X125287894Y-103624497D01*
X125415186Y-103590390D01*
X125529314Y-103524498D01*
X125622500Y-103431312D01*
X125688392Y-103317184D01*
X125717367Y-103209041D01*
X125736518Y-103175871D01*
X126255217Y-102657174D01*
X126307543Y-102635500D01*
X128894226Y-102635500D01*
X128894227Y-102635500D01*
X128996088Y-102608207D01*
X129087413Y-102555480D01*
X132424719Y-99218174D01*
X132477045Y-99196500D01*
X141286726Y-99196500D01*
X141286727Y-99196500D01*
X141388588Y-99169207D01*
X141479913Y-99116480D01*
X143040006Y-97556385D01*
X143092331Y-97534712D01*
X143106760Y-97536133D01*
X143279535Y-97570500D01*
X143279537Y-97570500D01*
X143486464Y-97570500D01*
X143486465Y-97570500D01*
X143689420Y-97530130D01*
X143880598Y-97450941D01*
X144052655Y-97335977D01*
X144198977Y-97189655D01*
X144313941Y-97017598D01*
X144393130Y-96826420D01*
X144433500Y-96623465D01*
X144433500Y-96416535D01*
X144428818Y-96392999D01*
X144877690Y-96392999D01*
X144877691Y-96393000D01*
X145439392Y-96393000D01*
X145423000Y-96454174D01*
X145423000Y-96585826D01*
X145439392Y-96647000D01*
X144877690Y-96647000D01*
X144913348Y-96826267D01*
X144913350Y-96826274D01*
X144992500Y-97017358D01*
X145107410Y-97189335D01*
X145253664Y-97335589D01*
X145425641Y-97450499D01*
X145616725Y-97529649D01*
X145616732Y-97529651D01*
X145796000Y-97565308D01*
X145796000Y-97003608D01*
X145857174Y-97020000D01*
X145988826Y-97020000D01*
X146050000Y-97003608D01*
X146050000Y-97565308D01*
X146229267Y-97529651D01*
X146229274Y-97529649D01*
X146420358Y-97450499D01*
X146592335Y-97335589D01*
X146592337Y-97335588D01*
X146738588Y-97189337D01*
X146738589Y-97189335D01*
X146853499Y-97017358D01*
X146932649Y-96826274D01*
X146932651Y-96826267D01*
X146968309Y-96647000D01*
X146406608Y-96647000D01*
X146423000Y-96585826D01*
X146423000Y-96454174D01*
X146412914Y-96416535D01*
X147412500Y-96416535D01*
X147412500Y-96623464D01*
X147452868Y-96826413D01*
X147452870Y-96826420D01*
X147532059Y-97017598D01*
X147646810Y-97189337D01*
X147647023Y-97189655D01*
X147793345Y-97335977D01*
X147965402Y-97450941D01*
X148156580Y-97530130D01*
X148359535Y-97570500D01*
X148359536Y-97570500D01*
X148566464Y-97570500D01*
X148566465Y-97570500D01*
X148769420Y-97530130D01*
X148960598Y-97450941D01*
X149132655Y-97335977D01*
X149278977Y-97189655D01*
X149393941Y-97017598D01*
X149473130Y-96826420D01*
X149513500Y-96623465D01*
X149513500Y-96416535D01*
X149952500Y-96416535D01*
X149952500Y-96623464D01*
X149992868Y-96826413D01*
X149992870Y-96826420D01*
X150072059Y-97017598D01*
X150186810Y-97189337D01*
X150187023Y-97189655D01*
X150333345Y-97335977D01*
X150505402Y-97450941D01*
X150696580Y-97530130D01*
X150899535Y-97570500D01*
X150899536Y-97570500D01*
X151106464Y-97570500D01*
X151106465Y-97570500D01*
X151309420Y-97530130D01*
X151500598Y-97450941D01*
X151672655Y-97335977D01*
X151818977Y-97189655D01*
X151933941Y-97017598D01*
X152013130Y-96826420D01*
X152053500Y-96623465D01*
X152053500Y-96416535D01*
X152492500Y-96416535D01*
X152492500Y-96623464D01*
X152532868Y-96826413D01*
X152532870Y-96826420D01*
X152612059Y-97017598D01*
X152726810Y-97189337D01*
X152727023Y-97189655D01*
X152873345Y-97335977D01*
X153045402Y-97450941D01*
X153236580Y-97530130D01*
X153439535Y-97570500D01*
X153439536Y-97570500D01*
X153646464Y-97570500D01*
X153646465Y-97570500D01*
X153849420Y-97530130D01*
X154040598Y-97450941D01*
X154212655Y-97335977D01*
X154358977Y-97189655D01*
X154473941Y-97017598D01*
X154553130Y-96826420D01*
X154593500Y-96623465D01*
X154593500Y-96416535D01*
X155032500Y-96416535D01*
X155032500Y-96623464D01*
X155072868Y-96826413D01*
X155072870Y-96826420D01*
X155152059Y-97017598D01*
X155266810Y-97189337D01*
X155267023Y-97189655D01*
X155413345Y-97335977D01*
X155585402Y-97450941D01*
X155776580Y-97530130D01*
X155979535Y-97570500D01*
X155979536Y-97570500D01*
X156186464Y-97570500D01*
X156186465Y-97570500D01*
X156389420Y-97530130D01*
X156580598Y-97450941D01*
X156752655Y-97335977D01*
X156898977Y-97189655D01*
X157013941Y-97017598D01*
X157093130Y-96826420D01*
X157133500Y-96623465D01*
X157133500Y-96416535D01*
X157572500Y-96416535D01*
X157572500Y-96623464D01*
X157612868Y-96826413D01*
X157612870Y-96826420D01*
X157692059Y-97017598D01*
X157806810Y-97189337D01*
X157807023Y-97189655D01*
X157953345Y-97335977D01*
X158125402Y-97450941D01*
X158316580Y-97530130D01*
X158519535Y-97570500D01*
X158519536Y-97570500D01*
X158726464Y-97570500D01*
X158726465Y-97570500D01*
X158929420Y-97530130D01*
X159120598Y-97450941D01*
X159292655Y-97335977D01*
X159438977Y-97189655D01*
X159553941Y-97017598D01*
X159633130Y-96826420D01*
X159673500Y-96623465D01*
X159673500Y-96416535D01*
X160112500Y-96416535D01*
X160112500Y-96623464D01*
X160152868Y-96826413D01*
X160152870Y-96826420D01*
X160232059Y-97017598D01*
X160346810Y-97189337D01*
X160347023Y-97189655D01*
X160493345Y-97335977D01*
X160665402Y-97450941D01*
X160856580Y-97530130D01*
X161059535Y-97570500D01*
X161059536Y-97570500D01*
X161266464Y-97570500D01*
X161266465Y-97570500D01*
X161469420Y-97530130D01*
X161660598Y-97450941D01*
X161832655Y-97335977D01*
X161978977Y-97189655D01*
X162093941Y-97017598D01*
X162173130Y-96826420D01*
X162213500Y-96623465D01*
X162213500Y-96416535D01*
X162652500Y-96416535D01*
X162652500Y-96623464D01*
X162692868Y-96826413D01*
X162692870Y-96826420D01*
X162772059Y-97017598D01*
X162886810Y-97189337D01*
X162887023Y-97189655D01*
X163033345Y-97335977D01*
X163205402Y-97450941D01*
X163396580Y-97530130D01*
X163599535Y-97570500D01*
X163599536Y-97570500D01*
X163806464Y-97570500D01*
X163806465Y-97570500D01*
X164009420Y-97530130D01*
X164200598Y-97450941D01*
X164372655Y-97335977D01*
X164518977Y-97189655D01*
X164633941Y-97017598D01*
X164713130Y-96826420D01*
X164753500Y-96623465D01*
X164753500Y-96416535D01*
X165192500Y-96416535D01*
X165192500Y-96623464D01*
X165232868Y-96826413D01*
X165232870Y-96826420D01*
X165312059Y-97017598D01*
X165426810Y-97189337D01*
X165427023Y-97189655D01*
X165573345Y-97335977D01*
X165745402Y-97450941D01*
X165936580Y-97530130D01*
X166139535Y-97570500D01*
X166139536Y-97570500D01*
X166346464Y-97570500D01*
X166346465Y-97570500D01*
X166549420Y-97530130D01*
X166740598Y-97450941D01*
X166912655Y-97335977D01*
X167058977Y-97189655D01*
X167173941Y-97017598D01*
X167253130Y-96826420D01*
X167293500Y-96623465D01*
X167293500Y-96416535D01*
X167732500Y-96416535D01*
X167732500Y-96623464D01*
X167772868Y-96826413D01*
X167772870Y-96826420D01*
X167852059Y-97017598D01*
X167966810Y-97189337D01*
X167967023Y-97189655D01*
X168113345Y-97335977D01*
X168285402Y-97450941D01*
X168476580Y-97530130D01*
X168679535Y-97570500D01*
X168679536Y-97570500D01*
X168886464Y-97570500D01*
X168886465Y-97570500D01*
X169089420Y-97530130D01*
X169280598Y-97450941D01*
X169452655Y-97335977D01*
X169598977Y-97189655D01*
X169713941Y-97017598D01*
X169793130Y-96826420D01*
X169833500Y-96623465D01*
X169833500Y-96416535D01*
X170272500Y-96416535D01*
X170272500Y-96623464D01*
X170312868Y-96826413D01*
X170312870Y-96826420D01*
X170392059Y-97017598D01*
X170506810Y-97189337D01*
X170507023Y-97189655D01*
X170653345Y-97335977D01*
X170825402Y-97450941D01*
X171016580Y-97530130D01*
X171219535Y-97570500D01*
X171219536Y-97570500D01*
X171426464Y-97570500D01*
X171426465Y-97570500D01*
X171629420Y-97530130D01*
X171820598Y-97450941D01*
X171992655Y-97335977D01*
X172138977Y-97189655D01*
X172253941Y-97017598D01*
X172333130Y-96826420D01*
X172373500Y-96623465D01*
X172373500Y-96416535D01*
X172812500Y-96416535D01*
X172812500Y-96623464D01*
X172852868Y-96826413D01*
X172852870Y-96826420D01*
X172932059Y-97017598D01*
X173046810Y-97189337D01*
X173047023Y-97189655D01*
X173193345Y-97335977D01*
X173365402Y-97450941D01*
X173556580Y-97530130D01*
X173759535Y-97570500D01*
X173759536Y-97570500D01*
X173966464Y-97570500D01*
X173966465Y-97570500D01*
X174169420Y-97530130D01*
X174360598Y-97450941D01*
X174532655Y-97335977D01*
X174678977Y-97189655D01*
X174793941Y-97017598D01*
X174873130Y-96826420D01*
X174913500Y-96623465D01*
X174913500Y-96416535D01*
X175352500Y-96416535D01*
X175352500Y-96623464D01*
X175392868Y-96826413D01*
X175392870Y-96826420D01*
X175472059Y-97017598D01*
X175586810Y-97189337D01*
X175587023Y-97189655D01*
X175733345Y-97335977D01*
X175905402Y-97450941D01*
X176096580Y-97530130D01*
X176299535Y-97570500D01*
X176299536Y-97570500D01*
X176506464Y-97570500D01*
X176506465Y-97570500D01*
X176709420Y-97530130D01*
X176900598Y-97450941D01*
X177072655Y-97335977D01*
X177218977Y-97189655D01*
X177333941Y-97017598D01*
X177413130Y-96826420D01*
X177453500Y-96623465D01*
X177453500Y-96416535D01*
X177413130Y-96213580D01*
X177333941Y-96022402D01*
X177218977Y-95850345D01*
X177072655Y-95704023D01*
X177005051Y-95658852D01*
X176900598Y-95589059D01*
X176709420Y-95509870D01*
X176709413Y-95509868D01*
X176532557Y-95474690D01*
X176506465Y-95469500D01*
X176299535Y-95469500D01*
X176273443Y-95474690D01*
X176096586Y-95509868D01*
X176096579Y-95509870D01*
X175905401Y-95589059D01*
X175733345Y-95704022D01*
X175733344Y-95704024D01*
X175587024Y-95850344D01*
X175587022Y-95850345D01*
X175472059Y-96022401D01*
X175392870Y-96213579D01*
X175392868Y-96213586D01*
X175352500Y-96416535D01*
X174913500Y-96416535D01*
X174873130Y-96213580D01*
X174793941Y-96022402D01*
X174678977Y-95850345D01*
X174532655Y-95704023D01*
X174465051Y-95658852D01*
X174360598Y-95589059D01*
X174169420Y-95509870D01*
X174169413Y-95509868D01*
X173992557Y-95474690D01*
X173966465Y-95469500D01*
X173759535Y-95469500D01*
X173733443Y-95474690D01*
X173556586Y-95509868D01*
X173556579Y-95509870D01*
X173365401Y-95589059D01*
X173193345Y-95704022D01*
X173193344Y-95704024D01*
X173047024Y-95850344D01*
X173047022Y-95850345D01*
X172932059Y-96022401D01*
X172852870Y-96213579D01*
X172852868Y-96213586D01*
X172812500Y-96416535D01*
X172373500Y-96416535D01*
X172333130Y-96213580D01*
X172253941Y-96022402D01*
X172138977Y-95850345D01*
X171992655Y-95704023D01*
X171925051Y-95658852D01*
X171820598Y-95589059D01*
X171629420Y-95509870D01*
X171629413Y-95509868D01*
X171452557Y-95474690D01*
X171426465Y-95469500D01*
X171219535Y-95469500D01*
X171193443Y-95474690D01*
X171016586Y-95509868D01*
X171016579Y-95509870D01*
X170825401Y-95589059D01*
X170653345Y-95704022D01*
X170653344Y-95704024D01*
X170507024Y-95850344D01*
X170507022Y-95850345D01*
X170392059Y-96022401D01*
X170312870Y-96213579D01*
X170312868Y-96213586D01*
X170272500Y-96416535D01*
X169833500Y-96416535D01*
X169793130Y-96213580D01*
X169713941Y-96022402D01*
X169598977Y-95850345D01*
X169452655Y-95704023D01*
X169385051Y-95658852D01*
X169280598Y-95589059D01*
X169089420Y-95509870D01*
X169089413Y-95509868D01*
X168912557Y-95474690D01*
X168886465Y-95469500D01*
X168679535Y-95469500D01*
X168653443Y-95474690D01*
X168476586Y-95509868D01*
X168476579Y-95509870D01*
X168285401Y-95589059D01*
X168113345Y-95704022D01*
X168113344Y-95704024D01*
X167967024Y-95850344D01*
X167967022Y-95850345D01*
X167852059Y-96022401D01*
X167772870Y-96213579D01*
X167772868Y-96213586D01*
X167732500Y-96416535D01*
X167293500Y-96416535D01*
X167253130Y-96213580D01*
X167173941Y-96022402D01*
X167058977Y-95850345D01*
X166912655Y-95704023D01*
X166845051Y-95658852D01*
X166740598Y-95589059D01*
X166549420Y-95509870D01*
X166549413Y-95509868D01*
X166372557Y-95474690D01*
X166346465Y-95469500D01*
X166139535Y-95469500D01*
X166113443Y-95474690D01*
X165936586Y-95509868D01*
X165936579Y-95509870D01*
X165745401Y-95589059D01*
X165573345Y-95704022D01*
X165573344Y-95704024D01*
X165427024Y-95850344D01*
X165427022Y-95850345D01*
X165312059Y-96022401D01*
X165232870Y-96213579D01*
X165232868Y-96213586D01*
X165192500Y-96416535D01*
X164753500Y-96416535D01*
X164713130Y-96213580D01*
X164633941Y-96022402D01*
X164518977Y-95850345D01*
X164372655Y-95704023D01*
X164305051Y-95658852D01*
X164200598Y-95589059D01*
X164009420Y-95509870D01*
X164009413Y-95509868D01*
X163832557Y-95474690D01*
X163806465Y-95469500D01*
X163599535Y-95469500D01*
X163573443Y-95474690D01*
X163396586Y-95509868D01*
X163396579Y-95509870D01*
X163205401Y-95589059D01*
X163033345Y-95704022D01*
X163033344Y-95704024D01*
X162887024Y-95850344D01*
X162887022Y-95850345D01*
X162772059Y-96022401D01*
X162692870Y-96213579D01*
X162692868Y-96213586D01*
X162652500Y-96416535D01*
X162213500Y-96416535D01*
X162173130Y-96213580D01*
X162093941Y-96022402D01*
X161978977Y-95850345D01*
X161832655Y-95704023D01*
X161765051Y-95658852D01*
X161660598Y-95589059D01*
X161469420Y-95509870D01*
X161469413Y-95509868D01*
X161292557Y-95474690D01*
X161266465Y-95469500D01*
X161059535Y-95469500D01*
X161033443Y-95474690D01*
X160856586Y-95509868D01*
X160856579Y-95509870D01*
X160665401Y-95589059D01*
X160493345Y-95704022D01*
X160493344Y-95704024D01*
X160347024Y-95850344D01*
X160347022Y-95850345D01*
X160232059Y-96022401D01*
X160152870Y-96213579D01*
X160152868Y-96213586D01*
X160112500Y-96416535D01*
X159673500Y-96416535D01*
X159633130Y-96213580D01*
X159553941Y-96022402D01*
X159438977Y-95850345D01*
X159292655Y-95704023D01*
X159225051Y-95658852D01*
X159120598Y-95589059D01*
X158929420Y-95509870D01*
X158929413Y-95509868D01*
X158752557Y-95474690D01*
X158726465Y-95469500D01*
X158519535Y-95469500D01*
X158493443Y-95474690D01*
X158316586Y-95509868D01*
X158316579Y-95509870D01*
X158125401Y-95589059D01*
X157953345Y-95704022D01*
X157953344Y-95704024D01*
X157807024Y-95850344D01*
X157807022Y-95850345D01*
X157692059Y-96022401D01*
X157612870Y-96213579D01*
X157612868Y-96213586D01*
X157572500Y-96416535D01*
X157133500Y-96416535D01*
X157093130Y-96213580D01*
X157013941Y-96022402D01*
X156898977Y-95850345D01*
X156752655Y-95704023D01*
X156685051Y-95658852D01*
X156580598Y-95589059D01*
X156389420Y-95509870D01*
X156389413Y-95509868D01*
X156212557Y-95474690D01*
X156186465Y-95469500D01*
X155979535Y-95469500D01*
X155953443Y-95474690D01*
X155776586Y-95509868D01*
X155776579Y-95509870D01*
X155585401Y-95589059D01*
X155413345Y-95704022D01*
X155413344Y-95704024D01*
X155267024Y-95850344D01*
X155267022Y-95850345D01*
X155152059Y-96022401D01*
X155072870Y-96213579D01*
X155072868Y-96213586D01*
X155032500Y-96416535D01*
X154593500Y-96416535D01*
X154553130Y-96213580D01*
X154473941Y-96022402D01*
X154358977Y-95850345D01*
X154212655Y-95704023D01*
X154145051Y-95658852D01*
X154040598Y-95589059D01*
X153849420Y-95509870D01*
X153849413Y-95509868D01*
X153672557Y-95474690D01*
X153646465Y-95469500D01*
X153439535Y-95469500D01*
X153413443Y-95474690D01*
X153236586Y-95509868D01*
X153236579Y-95509870D01*
X153045401Y-95589059D01*
X152873345Y-95704022D01*
X152873344Y-95704024D01*
X152727024Y-95850344D01*
X152727022Y-95850345D01*
X152612059Y-96022401D01*
X152532870Y-96213579D01*
X152532868Y-96213586D01*
X152492500Y-96416535D01*
X152053500Y-96416535D01*
X152013130Y-96213580D01*
X151933941Y-96022402D01*
X151818977Y-95850345D01*
X151672655Y-95704023D01*
X151605051Y-95658852D01*
X151500598Y-95589059D01*
X151309420Y-95509870D01*
X151309413Y-95509868D01*
X151132557Y-95474690D01*
X151106465Y-95469500D01*
X150899535Y-95469500D01*
X150873443Y-95474690D01*
X150696586Y-95509868D01*
X150696579Y-95509870D01*
X150505401Y-95589059D01*
X150333345Y-95704022D01*
X150333344Y-95704024D01*
X150187024Y-95850344D01*
X150187022Y-95850345D01*
X150072059Y-96022401D01*
X149992870Y-96213579D01*
X149992868Y-96213586D01*
X149952500Y-96416535D01*
X149513500Y-96416535D01*
X149473130Y-96213580D01*
X149393941Y-96022402D01*
X149278977Y-95850345D01*
X149132655Y-95704023D01*
X149065051Y-95658852D01*
X148960598Y-95589059D01*
X148769420Y-95509870D01*
X148769413Y-95509868D01*
X148592557Y-95474690D01*
X148566465Y-95469500D01*
X148359535Y-95469500D01*
X148333443Y-95474690D01*
X148156586Y-95509868D01*
X148156579Y-95509870D01*
X147965401Y-95589059D01*
X147793345Y-95704022D01*
X147793344Y-95704024D01*
X147647024Y-95850344D01*
X147647022Y-95850345D01*
X147532059Y-96022401D01*
X147452870Y-96213579D01*
X147452868Y-96213586D01*
X147412500Y-96416535D01*
X146412914Y-96416535D01*
X146406608Y-96393000D01*
X146968309Y-96393000D01*
X146968309Y-96392999D01*
X146932651Y-96213732D01*
X146932649Y-96213725D01*
X146853499Y-96022641D01*
X146738589Y-95850664D01*
X146592335Y-95704410D01*
X146420358Y-95589500D01*
X146229274Y-95510350D01*
X146229267Y-95510348D01*
X146050000Y-95474690D01*
X146050000Y-96036391D01*
X145988826Y-96020000D01*
X145857174Y-96020000D01*
X145796000Y-96036391D01*
X145796000Y-95474691D01*
X145795999Y-95474690D01*
X145616732Y-95510348D01*
X145616725Y-95510350D01*
X145425641Y-95589500D01*
X145253664Y-95704410D01*
X145253663Y-95704412D01*
X145107412Y-95850663D01*
X145107410Y-95850664D01*
X144992500Y-96022641D01*
X144913350Y-96213725D01*
X144913348Y-96213732D01*
X144877690Y-96392999D01*
X144428818Y-96392999D01*
X144393130Y-96213580D01*
X144313941Y-96022402D01*
X144198977Y-95850345D01*
X144052655Y-95704023D01*
X143985051Y-95658852D01*
X143880598Y-95589059D01*
X143689420Y-95509870D01*
X143689413Y-95509868D01*
X143512557Y-95474690D01*
X143486465Y-95469500D01*
X143279535Y-95469500D01*
X143253443Y-95474690D01*
X143076586Y-95509868D01*
X143076579Y-95509870D01*
X142885401Y-95589059D01*
X142713345Y-95704022D01*
X142713344Y-95704024D01*
X142567024Y-95850344D01*
X142567022Y-95850345D01*
X142452059Y-96022401D01*
X142372870Y-96213579D01*
X142372868Y-96213586D01*
X142332500Y-96416535D01*
X142332500Y-96623464D01*
X142372868Y-96826413D01*
X142372871Y-96826424D01*
X142431364Y-96967638D01*
X142431364Y-97024275D01*
X142415323Y-97048282D01*
X141089781Y-98373826D01*
X141037455Y-98395500D01*
X138025239Y-98395500D01*
X137972913Y-98373826D01*
X137951239Y-98321500D01*
X137953760Y-98302348D01*
X137969210Y-98244686D01*
X137978000Y-98211882D01*
X137978000Y-98080098D01*
X137978000Y-98080096D01*
X137977999Y-98080095D01*
X137943893Y-97952808D01*
X137943892Y-97952804D01*
X137878000Y-97838676D01*
X137784814Y-97745490D01*
X137752776Y-97726993D01*
X137670690Y-97679600D01*
X137670681Y-97679596D01*
X137543394Y-97645490D01*
X137543392Y-97645490D01*
X137411608Y-97645490D01*
X137411606Y-97645490D01*
X137284318Y-97679596D01*
X137284309Y-97679600D01*
X137170185Y-97745490D01*
X137116860Y-97798816D01*
X137064534Y-97820490D01*
X134887469Y-97820490D01*
X134835143Y-97798816D01*
X134156822Y-97120495D01*
X134135148Y-97068169D01*
X134147622Y-97027054D01*
X134153941Y-97017598D01*
X134233130Y-96826420D01*
X134273500Y-96623465D01*
X134273500Y-96416535D01*
X134712500Y-96416535D01*
X134712500Y-96623464D01*
X134752868Y-96826413D01*
X134752870Y-96826420D01*
X134832059Y-97017598D01*
X134946810Y-97189337D01*
X134947023Y-97189655D01*
X135093345Y-97335977D01*
X135265402Y-97450941D01*
X135456580Y-97530130D01*
X135659535Y-97570500D01*
X135659536Y-97570500D01*
X135866464Y-97570500D01*
X135866465Y-97570500D01*
X136069420Y-97530130D01*
X136260598Y-97450941D01*
X136432655Y-97335977D01*
X136578977Y-97189655D01*
X136693941Y-97017598D01*
X136773130Y-96826420D01*
X136813500Y-96623465D01*
X136813500Y-96416535D01*
X137252500Y-96416535D01*
X137252500Y-96623464D01*
X137292868Y-96826413D01*
X137292870Y-96826420D01*
X137372059Y-97017598D01*
X137486810Y-97189337D01*
X137487023Y-97189655D01*
X137633345Y-97335977D01*
X137805402Y-97450941D01*
X137996580Y-97530130D01*
X138199535Y-97570500D01*
X138199536Y-97570500D01*
X138406464Y-97570500D01*
X138406465Y-97570500D01*
X138609420Y-97530130D01*
X138800598Y-97450941D01*
X138972655Y-97335977D01*
X139118977Y-97189655D01*
X139233941Y-97017598D01*
X139313130Y-96826420D01*
X139353500Y-96623465D01*
X139353500Y-96416535D01*
X139792500Y-96416535D01*
X139792500Y-96623464D01*
X139832868Y-96826413D01*
X139832870Y-96826420D01*
X139912059Y-97017598D01*
X140026810Y-97189337D01*
X140027023Y-97189655D01*
X140173345Y-97335977D01*
X140345402Y-97450941D01*
X140536580Y-97530130D01*
X140739535Y-97570500D01*
X140739536Y-97570500D01*
X140946464Y-97570500D01*
X140946465Y-97570500D01*
X141149420Y-97530130D01*
X141340598Y-97450941D01*
X141512655Y-97335977D01*
X141658977Y-97189655D01*
X141773941Y-97017598D01*
X141853130Y-96826420D01*
X141893500Y-96623465D01*
X141893500Y-96416535D01*
X141853130Y-96213580D01*
X141773941Y-96022402D01*
X141658977Y-95850345D01*
X141512655Y-95704023D01*
X141445051Y-95658852D01*
X141340598Y-95589059D01*
X141149420Y-95509870D01*
X141149413Y-95509868D01*
X140972557Y-95474690D01*
X140946465Y-95469500D01*
X140739535Y-95469500D01*
X140713443Y-95474690D01*
X140536586Y-95509868D01*
X140536579Y-95509870D01*
X140345401Y-95589059D01*
X140173345Y-95704022D01*
X140173344Y-95704024D01*
X140027024Y-95850344D01*
X140027022Y-95850345D01*
X139912059Y-96022401D01*
X139832870Y-96213579D01*
X139832868Y-96213586D01*
X139792500Y-96416535D01*
X139353500Y-96416535D01*
X139313130Y-96213580D01*
X139233941Y-96022402D01*
X139118977Y-95850345D01*
X138972655Y-95704023D01*
X138905051Y-95658852D01*
X138800598Y-95589059D01*
X138609420Y-95509870D01*
X138609413Y-95509868D01*
X138432557Y-95474690D01*
X138406465Y-95469500D01*
X138199535Y-95469500D01*
X138173443Y-95474690D01*
X137996586Y-95509868D01*
X137996579Y-95509870D01*
X137805401Y-95589059D01*
X137633345Y-95704022D01*
X137633344Y-95704024D01*
X137487024Y-95850344D01*
X137487022Y-95850345D01*
X137372059Y-96022401D01*
X137292870Y-96213579D01*
X137292868Y-96213586D01*
X137252500Y-96416535D01*
X136813500Y-96416535D01*
X136773130Y-96213580D01*
X136693941Y-96022402D01*
X136578977Y-95850345D01*
X136432655Y-95704023D01*
X136365051Y-95658852D01*
X136260598Y-95589059D01*
X136069420Y-95509870D01*
X136069413Y-95509868D01*
X135892557Y-95474690D01*
X135866465Y-95469500D01*
X135659535Y-95469500D01*
X135633443Y-95474690D01*
X135456586Y-95509868D01*
X135456579Y-95509870D01*
X135265401Y-95589059D01*
X135093345Y-95704022D01*
X135093344Y-95704024D01*
X134947024Y-95850344D01*
X134947022Y-95850345D01*
X134832059Y-96022401D01*
X134752870Y-96213579D01*
X134752868Y-96213586D01*
X134712500Y-96416535D01*
X134273500Y-96416535D01*
X134233130Y-96213580D01*
X134153941Y-96022402D01*
X134038977Y-95850345D01*
X133892655Y-95704023D01*
X133825051Y-95658852D01*
X133720598Y-95589059D01*
X133529420Y-95509870D01*
X133529413Y-95509868D01*
X133352557Y-95474690D01*
X133326465Y-95469500D01*
X133119535Y-95469500D01*
X133093443Y-95474690D01*
X132916586Y-95509868D01*
X132916579Y-95509870D01*
X132725401Y-95589059D01*
X132553345Y-95704022D01*
X132553344Y-95704024D01*
X132407024Y-95850344D01*
X132407022Y-95850345D01*
X132292059Y-96022401D01*
X132212870Y-96213579D01*
X132212868Y-96213586D01*
X132172500Y-96416535D01*
X132172500Y-96623464D01*
X132212868Y-96826413D01*
X132212870Y-96826420D01*
X132292059Y-97017598D01*
X132406810Y-97189337D01*
X132407023Y-97189655D01*
X132553345Y-97335977D01*
X132725402Y-97450941D01*
X132916580Y-97530130D01*
X133119535Y-97570500D01*
X133119536Y-97570500D01*
X133326464Y-97570500D01*
X133326465Y-97570500D01*
X133529420Y-97530130D01*
X133566034Y-97514964D01*
X133622670Y-97514964D01*
X133646678Y-97531005D01*
X134384847Y-98269174D01*
X134406521Y-98321500D01*
X134384847Y-98373826D01*
X134332521Y-98395500D01*
X132227771Y-98395500D01*
X132125917Y-98422791D01*
X132125911Y-98422794D01*
X132050262Y-98466470D01*
X132034586Y-98475520D01*
X129620335Y-100889770D01*
X129568009Y-100911444D01*
X129515683Y-100889770D01*
X129503926Y-100874448D01*
X129457096Y-100793336D01*
X129363910Y-100700150D01*
X129249786Y-100634260D01*
X129249777Y-100634256D01*
X129122490Y-100600150D01*
X129122488Y-100600150D01*
X129050500Y-100600150D01*
X128998174Y-100578476D01*
X128976500Y-100526150D01*
X128976500Y-98964966D01*
X128998174Y-98912640D01*
X129051500Y-98859314D01*
X129117392Y-98745186D01*
X129151499Y-98617894D01*
X129151500Y-98617894D01*
X129151500Y-98486106D01*
X129151499Y-98486105D01*
X129117393Y-98358818D01*
X129117392Y-98358814D01*
X129051500Y-98244686D01*
X128958314Y-98151500D01*
X128956582Y-98150500D01*
X128844190Y-98085610D01*
X128844181Y-98085606D01*
X128716894Y-98051500D01*
X128716892Y-98051500D01*
X128585108Y-98051500D01*
X128585106Y-98051500D01*
X128457818Y-98085606D01*
X128457809Y-98085610D01*
X128343685Y-98151500D01*
X128250499Y-98244687D01*
X128237770Y-98266734D01*
X128192835Y-98301211D01*
X128136683Y-98293817D01*
X128121359Y-98282058D01*
X128117801Y-98278500D01*
X128003677Y-98212610D01*
X128003668Y-98212606D01*
X127876381Y-98178500D01*
X127876379Y-98178500D01*
X127744595Y-98178500D01*
X127744593Y-98178500D01*
X127617305Y-98212606D01*
X127617296Y-98212610D01*
X127503172Y-98278500D01*
X127409987Y-98371685D01*
X127344097Y-98485809D01*
X127344093Y-98485818D01*
X127309987Y-98613105D01*
X127309987Y-98744894D01*
X127344093Y-98872181D01*
X127344097Y-98872190D01*
X127409987Y-98986314D01*
X127463313Y-99039640D01*
X127484987Y-99091966D01*
X127484987Y-101336624D01*
X127484987Y-101422330D01*
X127486687Y-101428673D01*
X127507169Y-101505117D01*
X127509027Y-101509602D01*
X127507671Y-101510163D01*
X127515500Y-101539375D01*
X127515500Y-101650882D01*
X127524550Y-101684658D01*
X127539740Y-101741348D01*
X127532347Y-101797500D01*
X127487413Y-101831979D01*
X127468261Y-101834500D01*
X126163725Y-101834500D01*
X126058271Y-101834500D01*
X126036890Y-101840229D01*
X125956409Y-101861793D01*
X125956405Y-101861795D01*
X125865088Y-101914517D01*
X125170126Y-102609478D01*
X125136956Y-102628629D01*
X125028814Y-102657606D01*
X125028813Y-102657606D01*
X125028811Y-102657607D01*
X124914685Y-102723498D01*
X124821500Y-102816683D01*
X124755610Y-102930807D01*
X124755606Y-102930816D01*
X124721500Y-103058103D01*
X110408180Y-103058103D01*
X110361520Y-102977284D01*
X110249716Y-102865480D01*
X110112784Y-102786423D01*
X110112781Y-102786422D01*
X110112779Y-102786421D01*
X109960059Y-102745500D01*
X109960057Y-102745500D01*
X109801943Y-102745500D01*
X109801941Y-102745500D01*
X109649220Y-102786421D01*
X109649214Y-102786424D01*
X109512283Y-102865480D01*
X109507938Y-102869826D01*
X109455612Y-102891500D01*
X109255479Y-102891500D01*
X109197681Y-102906986D01*
X109139883Y-102922473D01*
X109139879Y-102922475D01*
X109036244Y-102982309D01*
X108951622Y-103066932D01*
X108152229Y-103866326D01*
X108099903Y-103888000D01*
X107587252Y-103888000D01*
X107558010Y-103893816D01*
X107528767Y-103899633D01*
X107498112Y-103920117D01*
X107442564Y-103931166D01*
X107415888Y-103920117D01*
X107385231Y-103899633D01*
X107385233Y-103899633D01*
X107355989Y-103893816D01*
X107326748Y-103888000D01*
X106287252Y-103888000D01*
X106258010Y-103893816D01*
X106228767Y-103899633D01*
X106198112Y-103920117D01*
X106183675Y-103922988D01*
X106171437Y-103931166D01*
X106157000Y-103928294D01*
X106142564Y-103931166D01*
X106115888Y-103920117D01*
X106083199Y-103898275D01*
X106051733Y-103851183D01*
X106060224Y-103799748D01*
X106096577Y-103736784D01*
X106137499Y-103584059D01*
X106137500Y-103584059D01*
X106137500Y-103425941D01*
X106137499Y-103425940D01*
X106137262Y-103425057D01*
X106096577Y-103273216D01*
X106017520Y-103136284D01*
X105905716Y-103024480D01*
X105768784Y-102945423D01*
X105768781Y-102945422D01*
X105768779Y-102945421D01*
X105616059Y-102904500D01*
X105616057Y-102904500D01*
X105457943Y-102904500D01*
X105457941Y-102904500D01*
X105305220Y-102945421D01*
X105305214Y-102945424D01*
X105168283Y-103024480D01*
X105056480Y-103136283D01*
X104977424Y-103273214D01*
X104977421Y-103273220D01*
X104936500Y-103425940D01*
X104936500Y-103584059D01*
X104977421Y-103736779D01*
X104977425Y-103736788D01*
X105005113Y-103784746D01*
X105012505Y-103840898D01*
X104978026Y-103885831D01*
X104955464Y-103894323D01*
X104928767Y-103899633D01*
X104862449Y-103943947D01*
X104862447Y-103943949D01*
X104818133Y-104010267D01*
X104817366Y-104014123D01*
X104807419Y-104064135D01*
X104806500Y-104068753D01*
X102056500Y-104068753D01*
X102056500Y-99879734D01*
X107892500Y-99879734D01*
X107892500Y-101188266D01*
X107895354Y-101218699D01*
X107895354Y-101218701D01*
X107895355Y-101218704D01*
X107940206Y-101346881D01*
X107940207Y-101346883D01*
X108020846Y-101456146D01*
X108020853Y-101456153D01*
X108130116Y-101536792D01*
X108130118Y-101536793D01*
X108258295Y-101581644D01*
X108258301Y-101581646D01*
X108288734Y-101584500D01*
X108288741Y-101584500D01*
X109897258Y-101584500D01*
X109897266Y-101584500D01*
X109927699Y-101581646D01*
X110055882Y-101536793D01*
X110165150Y-101456150D01*
X110245793Y-101346882D01*
X110290646Y-101218699D01*
X110293500Y-101188266D01*
X110293500Y-99879734D01*
X110290646Y-99849301D01*
X110245793Y-99721118D01*
X110228114Y-99697163D01*
X110165153Y-99611853D01*
X110165146Y-99611846D01*
X110055883Y-99531207D01*
X110055881Y-99531206D01*
X109927704Y-99486355D01*
X109927705Y-99486355D01*
X109927700Y-99486354D01*
X109927699Y-99486354D01*
X109897266Y-99483500D01*
X108288734Y-99483500D01*
X108258301Y-99486354D01*
X108258299Y-99486354D01*
X108258295Y-99486355D01*
X108130118Y-99531206D01*
X108130116Y-99531207D01*
X108020853Y-99611846D01*
X108020846Y-99611853D01*
X107940207Y-99721116D01*
X107940206Y-99721118D01*
X107895355Y-99849295D01*
X107895354Y-99849299D01*
X107895354Y-99849301D01*
X107892500Y-99879734D01*
X102056500Y-99879734D01*
X102056500Y-97906999D01*
X107897690Y-97906999D01*
X107897691Y-97907000D01*
X108609392Y-97907000D01*
X108593000Y-97968174D01*
X108593000Y-98099826D01*
X108609392Y-98161000D01*
X107897690Y-98161000D01*
X107933348Y-98340267D01*
X107933350Y-98340274D01*
X108012500Y-98531358D01*
X108127410Y-98703335D01*
X108273664Y-98849589D01*
X108445641Y-98964499D01*
X108636725Y-99043649D01*
X108636732Y-99043651D01*
X108839584Y-99084000D01*
X108966000Y-99084000D01*
X108966000Y-98517608D01*
X109027174Y-98534000D01*
X109158826Y-98534000D01*
X109220000Y-98517608D01*
X109220000Y-99084000D01*
X109346416Y-99084000D01*
X109549267Y-99043651D01*
X109549274Y-99043649D01*
X109740358Y-98964499D01*
X109912335Y-98849589D01*
X109912337Y-98849588D01*
X110058588Y-98703337D01*
X110058589Y-98703335D01*
X110118878Y-98613105D01*
X115704500Y-98613105D01*
X115704500Y-98744894D01*
X115738606Y-98872181D01*
X115738607Y-98872184D01*
X115738608Y-98872186D01*
X115804500Y-98986314D01*
X115897686Y-99079500D01*
X116011814Y-99145392D01*
X116139105Y-99179499D01*
X116139106Y-99179500D01*
X116139108Y-99179500D01*
X116270891Y-99179500D01*
X116270892Y-99179500D01*
X116398186Y-99145392D01*
X116398189Y-99145390D01*
X116398190Y-99145390D01*
X116401611Y-99143415D01*
X116438612Y-99133500D01*
X116450500Y-99133500D01*
X116502826Y-99155174D01*
X116524500Y-99207500D01*
X116524500Y-99448748D01*
X116531013Y-99481490D01*
X116536133Y-99507232D01*
X116565608Y-99551343D01*
X116580448Y-99573552D01*
X116624560Y-99603027D01*
X116646767Y-99617866D01*
X116646768Y-99617866D01*
X116646769Y-99617867D01*
X116705252Y-99629500D01*
X116705254Y-99629500D01*
X118244746Y-99629500D01*
X118244748Y-99629500D01*
X118303231Y-99617867D01*
X118369552Y-99573552D01*
X118413867Y-99507231D01*
X118425500Y-99448748D01*
X118425500Y-97909252D01*
X118413867Y-97850769D01*
X118369552Y-97784448D01*
X118347343Y-97769608D01*
X118303232Y-97740133D01*
X118303233Y-97740133D01*
X118273989Y-97734316D01*
X118244748Y-97728500D01*
X116705252Y-97728500D01*
X116676010Y-97734316D01*
X116646767Y-97740133D01*
X116580449Y-97784447D01*
X116580447Y-97784449D01*
X116536133Y-97850767D01*
X116524500Y-97909253D01*
X116524500Y-98150500D01*
X116502826Y-98202826D01*
X116450500Y-98224500D01*
X116438612Y-98224500D01*
X116401611Y-98214585D01*
X116398189Y-98212609D01*
X116398186Y-98212608D01*
X116270892Y-98178500D01*
X116139108Y-98178500D01*
X116139106Y-98178500D01*
X116011818Y-98212606D01*
X116011809Y-98212610D01*
X115897685Y-98278500D01*
X115804500Y-98371685D01*
X115738610Y-98485809D01*
X115738606Y-98485818D01*
X115704500Y-98613105D01*
X110118878Y-98613105D01*
X110149587Y-98567146D01*
X110173499Y-98531358D01*
X110252649Y-98340274D01*
X110252651Y-98340267D01*
X110288309Y-98161000D01*
X109576608Y-98161000D01*
X109593000Y-98099826D01*
X109593000Y-97968174D01*
X109576608Y-97907000D01*
X110288309Y-97907000D01*
X110288309Y-97906999D01*
X110252651Y-97727732D01*
X110252649Y-97727725D01*
X110173499Y-97536641D01*
X110058589Y-97364664D01*
X109912335Y-97218410D01*
X109740358Y-97103500D01*
X109549274Y-97024350D01*
X109549267Y-97024348D01*
X109346416Y-96984000D01*
X109220000Y-96984000D01*
X109220000Y-97550391D01*
X109158826Y-97534000D01*
X109027174Y-97534000D01*
X108966000Y-97550391D01*
X108966000Y-96984000D01*
X108839584Y-96984000D01*
X108636732Y-97024348D01*
X108636725Y-97024350D01*
X108445641Y-97103500D01*
X108273664Y-97218410D01*
X108273663Y-97218412D01*
X108127412Y-97364663D01*
X108127410Y-97364664D01*
X108012500Y-97536641D01*
X107933350Y-97727725D01*
X107933348Y-97727732D01*
X107897690Y-97906999D01*
X102056500Y-97906999D01*
X102056500Y-96416535D01*
X129632500Y-96416535D01*
X129632500Y-96623464D01*
X129672868Y-96826413D01*
X129672870Y-96826420D01*
X129752059Y-97017598D01*
X129866810Y-97189337D01*
X129867023Y-97189655D01*
X130013345Y-97335977D01*
X130185402Y-97450941D01*
X130376580Y-97530130D01*
X130579535Y-97570500D01*
X130579536Y-97570500D01*
X130786464Y-97570500D01*
X130786465Y-97570500D01*
X130989420Y-97530130D01*
X131180598Y-97450941D01*
X131352655Y-97335977D01*
X131498977Y-97189655D01*
X131613941Y-97017598D01*
X131693130Y-96826420D01*
X131733500Y-96623465D01*
X131733500Y-96416535D01*
X131693130Y-96213580D01*
X131613941Y-96022402D01*
X131498977Y-95850345D01*
X131352655Y-95704023D01*
X131285051Y-95658852D01*
X131180598Y-95589059D01*
X130989420Y-95509870D01*
X130989413Y-95509868D01*
X130812557Y-95474690D01*
X130786465Y-95469500D01*
X130579535Y-95469500D01*
X130553443Y-95474690D01*
X130376586Y-95509868D01*
X130376579Y-95509870D01*
X130185401Y-95589059D01*
X130013345Y-95704022D01*
X130013344Y-95704024D01*
X129867024Y-95850344D01*
X129867022Y-95850345D01*
X129752059Y-96022401D01*
X129672870Y-96213579D01*
X129672868Y-96213586D01*
X129632500Y-96416535D01*
X102056500Y-96416535D01*
X102056500Y-95095544D01*
X102078174Y-95043218D01*
X102130497Y-95021544D01*
X179567524Y-95045446D01*
G37*
G04 #@! TD.AperFunction*
M02*
