G04 #@! TF.GenerationSoftware,KiCad,Pcbnew,9.0.0*
G04 #@! TF.CreationDate,2025-03-02T20:38:03-08:00*
G04 #@! TF.ProjectId,SuperPower-uC-KiCad,53757065-7250-46f7-9765-722d75432d4b,rev?*
G04 #@! TF.SameCoordinates,Original*
G04 #@! TF.FileFunction,Other,Comment*
%FSLAX46Y46*%
G04 Gerber Fmt 4.6, Leading zero omitted, Abs format (unit mm)*
G04 Created by KiCad (PCBNEW 9.0.0) date 2025-03-02 20:38:03*
%MOMM*%
%LPD*%
G01*
G04 APERTURE LIST*
%ADD10C,0.100000*%
%ADD11C,0.150000*%
G04 APERTURE END LIST*
D10*
X188008904Y-116755109D02*
X187770809Y-116755109D01*
X187770809Y-116755109D02*
X187747000Y-116993204D01*
X187747000Y-116993204D02*
X187770809Y-116969395D01*
X187770809Y-116969395D02*
X187818428Y-116945585D01*
X187818428Y-116945585D02*
X187937476Y-116945585D01*
X187937476Y-116945585D02*
X187985095Y-116969395D01*
X187985095Y-116969395D02*
X188008904Y-116993204D01*
X188008904Y-116993204D02*
X188032714Y-117040823D01*
X188032714Y-117040823D02*
X188032714Y-117159871D01*
X188032714Y-117159871D02*
X188008904Y-117207490D01*
X188008904Y-117207490D02*
X187985095Y-117231300D01*
X187985095Y-117231300D02*
X187937476Y-117255109D01*
X187937476Y-117255109D02*
X187818428Y-117255109D01*
X187818428Y-117255109D02*
X187770809Y-117231300D01*
X187770809Y-117231300D02*
X187747000Y-117207490D01*
X188627951Y-117255109D02*
X188627951Y-116921776D01*
X188627951Y-116969395D02*
X188651761Y-116945585D01*
X188651761Y-116945585D02*
X188699380Y-116921776D01*
X188699380Y-116921776D02*
X188770808Y-116921776D01*
X188770808Y-116921776D02*
X188818427Y-116945585D01*
X188818427Y-116945585D02*
X188842237Y-116993204D01*
X188842237Y-116993204D02*
X188842237Y-117255109D01*
X188842237Y-116993204D02*
X188866046Y-116945585D01*
X188866046Y-116945585D02*
X188913665Y-116921776D01*
X188913665Y-116921776D02*
X188985094Y-116921776D01*
X188985094Y-116921776D02*
X189032713Y-116945585D01*
X189032713Y-116945585D02*
X189056523Y-116993204D01*
X189056523Y-116993204D02*
X189056523Y-117255109D01*
X189294618Y-117255109D02*
X189294618Y-116921776D01*
X189294618Y-116969395D02*
X189318428Y-116945585D01*
X189318428Y-116945585D02*
X189366047Y-116921776D01*
X189366047Y-116921776D02*
X189437475Y-116921776D01*
X189437475Y-116921776D02*
X189485094Y-116945585D01*
X189485094Y-116945585D02*
X189508904Y-116993204D01*
X189508904Y-116993204D02*
X189508904Y-117255109D01*
X189508904Y-116993204D02*
X189532713Y-116945585D01*
X189532713Y-116945585D02*
X189580332Y-116921776D01*
X189580332Y-116921776D02*
X189651761Y-116921776D01*
X189651761Y-116921776D02*
X189699380Y-116945585D01*
X189699380Y-116945585D02*
X189723190Y-116993204D01*
X189723190Y-116993204D02*
X189723190Y-117255109D01*
X183773109Y-98767095D02*
X183773109Y-99005190D01*
X183773109Y-99005190D02*
X184011204Y-99028999D01*
X184011204Y-99028999D02*
X183987395Y-99005190D01*
X183987395Y-99005190D02*
X183963585Y-98957571D01*
X183963585Y-98957571D02*
X183963585Y-98838523D01*
X183963585Y-98838523D02*
X183987395Y-98790904D01*
X183987395Y-98790904D02*
X184011204Y-98767095D01*
X184011204Y-98767095D02*
X184058823Y-98743285D01*
X184058823Y-98743285D02*
X184177871Y-98743285D01*
X184177871Y-98743285D02*
X184225490Y-98767095D01*
X184225490Y-98767095D02*
X184249300Y-98790904D01*
X184249300Y-98790904D02*
X184273109Y-98838523D01*
X184273109Y-98838523D02*
X184273109Y-98957571D01*
X184273109Y-98957571D02*
X184249300Y-99005190D01*
X184249300Y-99005190D02*
X184225490Y-99028999D01*
X184273109Y-98148048D02*
X183939776Y-98148048D01*
X183987395Y-98148048D02*
X183963585Y-98124238D01*
X183963585Y-98124238D02*
X183939776Y-98076619D01*
X183939776Y-98076619D02*
X183939776Y-98005191D01*
X183939776Y-98005191D02*
X183963585Y-97957572D01*
X183963585Y-97957572D02*
X184011204Y-97933762D01*
X184011204Y-97933762D02*
X184273109Y-97933762D01*
X184011204Y-97933762D02*
X183963585Y-97909953D01*
X183963585Y-97909953D02*
X183939776Y-97862334D01*
X183939776Y-97862334D02*
X183939776Y-97790905D01*
X183939776Y-97790905D02*
X183963585Y-97743286D01*
X183963585Y-97743286D02*
X184011204Y-97719476D01*
X184011204Y-97719476D02*
X184273109Y-97719476D01*
X184273109Y-97481381D02*
X183939776Y-97481381D01*
X183987395Y-97481381D02*
X183963585Y-97457571D01*
X183963585Y-97457571D02*
X183939776Y-97409952D01*
X183939776Y-97409952D02*
X183939776Y-97338524D01*
X183939776Y-97338524D02*
X183963585Y-97290905D01*
X183963585Y-97290905D02*
X184011204Y-97267095D01*
X184011204Y-97267095D02*
X184273109Y-97267095D01*
X184011204Y-97267095D02*
X183963585Y-97243286D01*
X183963585Y-97243286D02*
X183939776Y-97195667D01*
X183939776Y-97195667D02*
X183939776Y-97124238D01*
X183939776Y-97124238D02*
X183963585Y-97076619D01*
X183963585Y-97076619D02*
X184011204Y-97052809D01*
X184011204Y-97052809D02*
X184273109Y-97052809D01*
X183773109Y-121767095D02*
X183773109Y-122005190D01*
X183773109Y-122005190D02*
X184011204Y-122028999D01*
X184011204Y-122028999D02*
X183987395Y-122005190D01*
X183987395Y-122005190D02*
X183963585Y-121957571D01*
X183963585Y-121957571D02*
X183963585Y-121838523D01*
X183963585Y-121838523D02*
X183987395Y-121790904D01*
X183987395Y-121790904D02*
X184011204Y-121767095D01*
X184011204Y-121767095D02*
X184058823Y-121743285D01*
X184058823Y-121743285D02*
X184177871Y-121743285D01*
X184177871Y-121743285D02*
X184225490Y-121767095D01*
X184225490Y-121767095D02*
X184249300Y-121790904D01*
X184249300Y-121790904D02*
X184273109Y-121838523D01*
X184273109Y-121838523D02*
X184273109Y-121957571D01*
X184273109Y-121957571D02*
X184249300Y-122005190D01*
X184249300Y-122005190D02*
X184225490Y-122028999D01*
X184273109Y-121148048D02*
X183939776Y-121148048D01*
X183987395Y-121148048D02*
X183963585Y-121124238D01*
X183963585Y-121124238D02*
X183939776Y-121076619D01*
X183939776Y-121076619D02*
X183939776Y-121005191D01*
X183939776Y-121005191D02*
X183963585Y-120957572D01*
X183963585Y-120957572D02*
X184011204Y-120933762D01*
X184011204Y-120933762D02*
X184273109Y-120933762D01*
X184011204Y-120933762D02*
X183963585Y-120909953D01*
X183963585Y-120909953D02*
X183939776Y-120862334D01*
X183939776Y-120862334D02*
X183939776Y-120790905D01*
X183939776Y-120790905D02*
X183963585Y-120743286D01*
X183963585Y-120743286D02*
X184011204Y-120719476D01*
X184011204Y-120719476D02*
X184273109Y-120719476D01*
X184273109Y-120481381D02*
X183939776Y-120481381D01*
X183987395Y-120481381D02*
X183963585Y-120457571D01*
X183963585Y-120457571D02*
X183939776Y-120409952D01*
X183939776Y-120409952D02*
X183939776Y-120338524D01*
X183939776Y-120338524D02*
X183963585Y-120290905D01*
X183963585Y-120290905D02*
X184011204Y-120267095D01*
X184011204Y-120267095D02*
X184273109Y-120267095D01*
X184011204Y-120267095D02*
X183963585Y-120243286D01*
X183963585Y-120243286D02*
X183939776Y-120195667D01*
X183939776Y-120195667D02*
X183939776Y-120124238D01*
X183939776Y-120124238D02*
X183963585Y-120076619D01*
X183963585Y-120076619D02*
X184011204Y-120052809D01*
X184011204Y-120052809D02*
X184273109Y-120052809D01*
D11*
X182841104Y-111990904D02*
X182841104Y-111514714D01*
X183126819Y-112086142D02*
X182126819Y-111752809D01*
X182126819Y-111752809D02*
X183126819Y-111419476D01*
X182460152Y-111086142D02*
X183126819Y-111086142D01*
X182555390Y-111086142D02*
X182507771Y-111038523D01*
X182507771Y-111038523D02*
X182460152Y-110943285D01*
X182460152Y-110943285D02*
X182460152Y-110800428D01*
X182460152Y-110800428D02*
X182507771Y-110705190D01*
X182507771Y-110705190D02*
X182603009Y-110657571D01*
X182603009Y-110657571D02*
X183126819Y-110657571D01*
X182460152Y-110324237D02*
X182460152Y-109943285D01*
X182126819Y-110181380D02*
X182983961Y-110181380D01*
X182983961Y-110181380D02*
X183079200Y-110133761D01*
X183079200Y-110133761D02*
X183126819Y-110038523D01*
X183126819Y-110038523D02*
X183126819Y-109943285D01*
X183079200Y-109228999D02*
X183126819Y-109324237D01*
X183126819Y-109324237D02*
X183126819Y-109514713D01*
X183126819Y-109514713D02*
X183079200Y-109609951D01*
X183079200Y-109609951D02*
X182983961Y-109657570D01*
X182983961Y-109657570D02*
X182603009Y-109657570D01*
X182603009Y-109657570D02*
X182507771Y-109609951D01*
X182507771Y-109609951D02*
X182460152Y-109514713D01*
X182460152Y-109514713D02*
X182460152Y-109324237D01*
X182460152Y-109324237D02*
X182507771Y-109228999D01*
X182507771Y-109228999D02*
X182603009Y-109181380D01*
X182603009Y-109181380D02*
X182698247Y-109181380D01*
X182698247Y-109181380D02*
X182793485Y-109657570D01*
X182460152Y-108752808D02*
X183126819Y-108752808D01*
X182555390Y-108752808D02*
X182507771Y-108705189D01*
X182507771Y-108705189D02*
X182460152Y-108609951D01*
X182460152Y-108609951D02*
X182460152Y-108467094D01*
X182460152Y-108467094D02*
X182507771Y-108371856D01*
X182507771Y-108371856D02*
X182603009Y-108324237D01*
X182603009Y-108324237D02*
X183126819Y-108324237D01*
X182460152Y-107848046D02*
X183126819Y-107848046D01*
X182555390Y-107848046D02*
X182507771Y-107800427D01*
X182507771Y-107800427D02*
X182460152Y-107705189D01*
X182460152Y-107705189D02*
X182460152Y-107562332D01*
X182460152Y-107562332D02*
X182507771Y-107467094D01*
X182507771Y-107467094D02*
X182603009Y-107419475D01*
X182603009Y-107419475D02*
X183126819Y-107419475D01*
X183126819Y-106514713D02*
X182603009Y-106514713D01*
X182603009Y-106514713D02*
X182507771Y-106562332D01*
X182507771Y-106562332D02*
X182460152Y-106657570D01*
X182460152Y-106657570D02*
X182460152Y-106848046D01*
X182460152Y-106848046D02*
X182507771Y-106943284D01*
X183079200Y-106514713D02*
X183126819Y-106609951D01*
X183126819Y-106609951D02*
X183126819Y-106848046D01*
X183126819Y-106848046D02*
X183079200Y-106943284D01*
X183079200Y-106943284D02*
X182983961Y-106990903D01*
X182983961Y-106990903D02*
X182888723Y-106990903D01*
X182888723Y-106990903D02*
X182793485Y-106943284D01*
X182793485Y-106943284D02*
X182745866Y-106848046D01*
X182745866Y-106848046D02*
X182745866Y-106609951D01*
X182745866Y-106609951D02*
X182698247Y-106514713D01*
X189126819Y-115300428D02*
X188126819Y-115300428D01*
X189126819Y-114729000D02*
X188555390Y-115157571D01*
X188126819Y-114729000D02*
X188698247Y-115300428D01*
X188603009Y-114300428D02*
X188603009Y-113967095D01*
X189126819Y-113824238D02*
X189126819Y-114300428D01*
X189126819Y-114300428D02*
X188126819Y-114300428D01*
X188126819Y-114300428D02*
X188126819Y-113824238D01*
X188603009Y-113395666D02*
X188603009Y-113062333D01*
X189126819Y-112919476D02*
X189126819Y-113395666D01*
X189126819Y-113395666D02*
X188126819Y-113395666D01*
X188126819Y-113395666D02*
X188126819Y-112919476D01*
X189126819Y-112490904D02*
X188126819Y-112490904D01*
X188126819Y-112490904D02*
X188126819Y-112109952D01*
X188126819Y-112109952D02*
X188174438Y-112014714D01*
X188174438Y-112014714D02*
X188222057Y-111967095D01*
X188222057Y-111967095D02*
X188317295Y-111919476D01*
X188317295Y-111919476D02*
X188460152Y-111919476D01*
X188460152Y-111919476D02*
X188555390Y-111967095D01*
X188555390Y-111967095D02*
X188603009Y-112014714D01*
X188603009Y-112014714D02*
X188650628Y-112109952D01*
X188650628Y-112109952D02*
X188650628Y-112490904D01*
X188745866Y-111490904D02*
X188745866Y-110729000D01*
X188126819Y-110062333D02*
X188126819Y-109871857D01*
X188126819Y-109871857D02*
X188174438Y-109776619D01*
X188174438Y-109776619D02*
X188269676Y-109681381D01*
X188269676Y-109681381D02*
X188460152Y-109633762D01*
X188460152Y-109633762D02*
X188793485Y-109633762D01*
X188793485Y-109633762D02*
X188983961Y-109681381D01*
X188983961Y-109681381D02*
X189079200Y-109776619D01*
X189079200Y-109776619D02*
X189126819Y-109871857D01*
X189126819Y-109871857D02*
X189126819Y-110062333D01*
X189126819Y-110062333D02*
X189079200Y-110157571D01*
X189079200Y-110157571D02*
X188983961Y-110252809D01*
X188983961Y-110252809D02*
X188793485Y-110300428D01*
X188793485Y-110300428D02*
X188460152Y-110300428D01*
X188460152Y-110300428D02*
X188269676Y-110252809D01*
X188269676Y-110252809D02*
X188174438Y-110157571D01*
X188174438Y-110157571D02*
X188126819Y-110062333D01*
X188126819Y-109205190D02*
X188936342Y-109205190D01*
X188936342Y-109205190D02*
X189031580Y-109157571D01*
X189031580Y-109157571D02*
X189079200Y-109109952D01*
X189079200Y-109109952D02*
X189126819Y-109014714D01*
X189126819Y-109014714D02*
X189126819Y-108824238D01*
X189126819Y-108824238D02*
X189079200Y-108729000D01*
X189079200Y-108729000D02*
X189031580Y-108681381D01*
X189031580Y-108681381D02*
X188936342Y-108633762D01*
X188936342Y-108633762D02*
X188126819Y-108633762D01*
X188126819Y-108300428D02*
X188126819Y-107729000D01*
X189126819Y-108014714D02*
X188126819Y-108014714D01*
X188126819Y-106728999D02*
X188126819Y-106062333D01*
X188126819Y-106062333D02*
X189126819Y-106728999D01*
X189126819Y-106728999D02*
X189126819Y-106062333D01*
X188126819Y-105490904D02*
X188126819Y-105300428D01*
X188126819Y-105300428D02*
X188174438Y-105205190D01*
X188174438Y-105205190D02*
X188269676Y-105109952D01*
X188269676Y-105109952D02*
X188460152Y-105062333D01*
X188460152Y-105062333D02*
X188793485Y-105062333D01*
X188793485Y-105062333D02*
X188983961Y-105109952D01*
X188983961Y-105109952D02*
X189079200Y-105205190D01*
X189079200Y-105205190D02*
X189126819Y-105300428D01*
X189126819Y-105300428D02*
X189126819Y-105490904D01*
X189126819Y-105490904D02*
X189079200Y-105586142D01*
X189079200Y-105586142D02*
X188983961Y-105681380D01*
X188983961Y-105681380D02*
X188793485Y-105728999D01*
X188793485Y-105728999D02*
X188460152Y-105728999D01*
X188460152Y-105728999D02*
X188269676Y-105681380D01*
X188269676Y-105681380D02*
X188174438Y-105586142D01*
X188174438Y-105586142D02*
X188126819Y-105490904D01*
X189126819Y-104633761D02*
X188126819Y-104633761D01*
X188126819Y-104633761D02*
X189126819Y-104062333D01*
X189126819Y-104062333D02*
X188126819Y-104062333D01*
X188603009Y-103586142D02*
X188603009Y-103252809D01*
X189126819Y-103109952D02*
X189126819Y-103586142D01*
X189126819Y-103586142D02*
X188126819Y-103586142D01*
X188126819Y-103586142D02*
X188126819Y-103109952D01*
D10*
X183547000Y-118429000D02*
X183547000Y-123029000D01*
X183547000Y-123029000D02*
X183747000Y-122829000D01*
X183547000Y-123029000D02*
X183347000Y-122829000D01*
X183547000Y-118429000D02*
X183747000Y-118629000D01*
X183547000Y-118429000D02*
X183347000Y-118629000D01*
X183547000Y-95429000D02*
X183747000Y-95629000D01*
X183547000Y-95429000D02*
X183347000Y-95629000D01*
X183547000Y-100029000D02*
X183347000Y-99829000D01*
X183547000Y-95429000D02*
X183547000Y-100029000D01*
X183547000Y-100029000D02*
X183747000Y-99829000D01*
X185672000Y-117629000D02*
X185872000Y-117429000D01*
X185672000Y-117629000D02*
X185872000Y-117829000D01*
X190272000Y-117629000D02*
X190072000Y-117829000D01*
X185672000Y-117629000D02*
X190272000Y-117629000D01*
X190272000Y-117629000D02*
X190072000Y-117429000D01*
M02*
