G04 #@! TF.GenerationSoftware,KiCad,Pcbnew,9.0.0*
G04 #@! TF.CreationDate,2025-03-02T20:38:03-08:00*
G04 #@! TF.ProjectId,SuperPower-uC-KiCad,53757065-7250-46f7-9765-722d75432d4b,rev?*
G04 #@! TF.SameCoordinates,Original*
G04 #@! TF.FileFunction,Copper,L1,Top*
G04 #@! TF.FilePolarity,Positive*
%FSLAX46Y46*%
G04 Gerber Fmt 4.6, Leading zero omitted, Abs format (unit mm)*
G04 Created by KiCad (PCBNEW 9.0.0) date 2025-03-02 20:38:03*
%MOMM*%
%LPD*%
G01*
G04 APERTURE LIST*
G04 Aperture macros list*
%AMRoundRect*
0 Rectangle with rounded corners*
0 $1 Rounding radius*
0 $2 $3 $4 $5 $6 $7 $8 $9 X,Y pos of 4 corners*
0 Add a 4 corners polygon primitive as box body*
4,1,4,$2,$3,$4,$5,$6,$7,$8,$9,$2,$3,0*
0 Add four circle primitives for the rounded corners*
1,1,$1+$1,$2,$3*
1,1,$1+$1,$4,$5*
1,1,$1+$1,$6,$7*
1,1,$1+$1,$8,$9*
0 Add four rect primitives between the rounded corners*
20,1,$1+$1,$2,$3,$4,$5,0*
20,1,$1+$1,$4,$5,$6,$7,0*
20,1,$1+$1,$6,$7,$8,$9,0*
20,1,$1+$1,$8,$9,$2,$3,0*%
%AMFreePoly0*
4,1,9,5.362500,-0.866500,1.237500,-0.866500,1.237500,-0.450000,-1.237500,-0.450000,-1.237500,0.450000,1.237500,0.450000,1.237500,0.866500,5.362500,0.866500,5.362500,-0.866500,5.362500,-0.866500,$1*%
G04 Aperture macros list end*
G04 #@! TA.AperFunction,ComponentPad*
%ADD10O,1.700000X1.700000*%
G04 #@! TD*
G04 #@! TA.AperFunction,ComponentPad*
%ADD11R,1.700000X1.700000*%
G04 #@! TD*
G04 #@! TA.AperFunction,SMDPad,CuDef*
%ADD12R,0.900000X1.200000*%
G04 #@! TD*
G04 #@! TA.AperFunction,SMDPad,CuDef*
%ADD13R,1.900000X1.200000*%
G04 #@! TD*
G04 #@! TA.AperFunction,ComponentPad*
%ADD14O,1.900000X1.200000*%
G04 #@! TD*
G04 #@! TA.AperFunction,SMDPad,CuDef*
%ADD15R,1.900000X1.500000*%
G04 #@! TD*
G04 #@! TA.AperFunction,ComponentPad*
%ADD16C,1.450000*%
G04 #@! TD*
G04 #@! TA.AperFunction,SMDPad,CuDef*
%ADD17R,1.350000X0.400000*%
G04 #@! TD*
G04 #@! TA.AperFunction,SMDPad,CuDef*
%ADD18R,3.500000X2.950000*%
G04 #@! TD*
G04 #@! TA.AperFunction,SMDPad,CuDef*
%ADD19R,1.800000X1.000000*%
G04 #@! TD*
G04 #@! TA.AperFunction,SMDPad,CuDef*
%ADD20R,2.100000X1.800000*%
G04 #@! TD*
G04 #@! TA.AperFunction,SMDPad,CuDef*
%ADD21R,0.900000X2.000000*%
G04 #@! TD*
G04 #@! TA.AperFunction,SMDPad,CuDef*
%ADD22R,2.000000X0.900000*%
G04 #@! TD*
G04 #@! TA.AperFunction,SMDPad,CuDef*
%ADD23R,5.000000X5.000000*%
G04 #@! TD*
G04 #@! TA.AperFunction,SMDPad,CuDef*
%ADD24FreePoly0,90.000000*%
G04 #@! TD*
G04 #@! TA.AperFunction,SMDPad,CuDef*
%ADD25R,0.900000X2.300000*%
G04 #@! TD*
G04 #@! TA.AperFunction,SMDPad,CuDef*
%ADD26FreePoly0,0.000000*%
G04 #@! TD*
G04 #@! TA.AperFunction,SMDPad,CuDef*
%ADD27R,2.300000X0.900000*%
G04 #@! TD*
G04 #@! TA.AperFunction,SMDPad,CuDef*
%ADD28R,1.560000X0.650000*%
G04 #@! TD*
G04 #@! TA.AperFunction,SMDPad,CuDef*
%ADD29RoundRect,0.100000X-0.100000X0.637500X-0.100000X-0.637500X0.100000X-0.637500X0.100000X0.637500X0*%
G04 #@! TD*
G04 #@! TA.AperFunction,SMDPad,CuDef*
%ADD30R,0.800000X1.900000*%
G04 #@! TD*
G04 #@! TA.AperFunction,SMDPad,CuDef*
%ADD31RoundRect,0.150000X0.150000X-0.825000X0.150000X0.825000X-0.150000X0.825000X-0.150000X-0.825000X0*%
G04 #@! TD*
G04 #@! TA.AperFunction,SMDPad,CuDef*
%ADD32R,2.000000X1.500000*%
G04 #@! TD*
G04 #@! TA.AperFunction,SMDPad,CuDef*
%ADD33R,2.000000X3.800000*%
G04 #@! TD*
G04 #@! TA.AperFunction,SMDPad,CuDef*
%ADD34RoundRect,0.150000X0.150000X-0.650000X0.150000X0.650000X-0.150000X0.650000X-0.150000X-0.650000X0*%
G04 #@! TD*
G04 #@! TA.AperFunction,SMDPad,CuDef*
%ADD35RoundRect,0.150000X-0.150000X0.675000X-0.150000X-0.675000X0.150000X-0.675000X0.150000X0.675000X0*%
G04 #@! TD*
G04 #@! TA.AperFunction,SMDPad,CuDef*
%ADD36R,2.400000X1.800000*%
G04 #@! TD*
G04 #@! TA.AperFunction,SMDPad,CuDef*
%ADD37RoundRect,0.062500X-0.387500X-0.062500X0.387500X-0.062500X0.387500X0.062500X-0.387500X0.062500X0*%
G04 #@! TD*
G04 #@! TA.AperFunction,SMDPad,CuDef*
%ADD38RoundRect,0.100000X0.637500X0.100000X-0.637500X0.100000X-0.637500X-0.100000X0.637500X-0.100000X0*%
G04 #@! TD*
G04 #@! TA.AperFunction,SMDPad,CuDef*
%ADD39R,0.650000X1.560000*%
G04 #@! TD*
G04 #@! TA.AperFunction,SMDPad,CuDef*
%ADD40RoundRect,0.237500X-0.287500X-0.237500X0.287500X-0.237500X0.287500X0.237500X-0.287500X0.237500X0*%
G04 #@! TD*
G04 #@! TA.AperFunction,SMDPad,CuDef*
%ADD41RoundRect,0.237500X0.237500X-0.287500X0.237500X0.287500X-0.237500X0.287500X-0.237500X-0.287500X0*%
G04 #@! TD*
G04 #@! TA.AperFunction,SMDPad,CuDef*
%ADD42RoundRect,0.237500X-0.237500X0.287500X-0.237500X-0.287500X0.237500X-0.287500X0.237500X0.287500X0*%
G04 #@! TD*
G04 #@! TA.AperFunction,SMDPad,CuDef*
%ADD43RoundRect,0.237500X0.287500X0.237500X-0.287500X0.237500X-0.287500X-0.237500X0.287500X-0.237500X0*%
G04 #@! TD*
G04 #@! TA.AperFunction,SMDPad,CuDef*
%ADD44R,0.900000X0.800000*%
G04 #@! TD*
G04 #@! TA.AperFunction,SMDPad,CuDef*
%ADD45R,1.900000X0.800000*%
G04 #@! TD*
G04 #@! TA.AperFunction,ComponentPad*
%ADD46O,2.000000X1.700000*%
G04 #@! TD*
G04 #@! TA.AperFunction,ComponentPad*
%ADD47RoundRect,0.250000X0.750000X-0.600000X0.750000X0.600000X-0.750000X0.600000X-0.750000X-0.600000X0*%
G04 #@! TD*
G04 #@! TA.AperFunction,SMDPad,CuDef*
%ADD48R,1.500000X2.700000*%
G04 #@! TD*
G04 #@! TA.AperFunction,ViaPad*
%ADD49C,0.800000*%
G04 #@! TD*
G04 #@! TA.AperFunction,ViaPad*
%ADD50C,0.600000*%
G04 #@! TD*
G04 #@! TA.AperFunction,Conductor*
%ADD51C,0.250000*%
G04 #@! TD*
G04 #@! TA.AperFunction,Conductor*
%ADD52C,0.508000*%
G04 #@! TD*
G04 #@! TA.AperFunction,Conductor*
%ADD53C,0.500000*%
G04 #@! TD*
G04 #@! TA.AperFunction,Conductor*
%ADD54C,1.000000*%
G04 #@! TD*
G04 #@! TA.AperFunction,Conductor*
%ADD55C,0.600000*%
G04 #@! TD*
G04 #@! TA.AperFunction,Conductor*
%ADD56C,0.750000*%
G04 #@! TD*
G04 #@! TA.AperFunction,Conductor*
%ADD57C,0.400000*%
G04 #@! TD*
G04 #@! TA.AperFunction,Conductor*
%ADD58C,0.350000*%
G04 #@! TD*
G04 APERTURE END LIST*
D10*
X130683000Y-121920000D03*
X133223000Y-121920000D03*
X135763000Y-121920000D03*
X138303000Y-121920000D03*
X140843000Y-121920000D03*
X143383000Y-121920000D03*
X145923000Y-121920000D03*
X148463000Y-121920000D03*
X151003000Y-121920000D03*
X153543000Y-121920000D03*
X156083000Y-121920000D03*
X158623000Y-121920000D03*
X161163000Y-121920000D03*
X163703000Y-121920000D03*
X166243000Y-121920000D03*
X168783000Y-121920000D03*
X171323000Y-121920000D03*
X173863000Y-121920000D03*
X176403000Y-121920000D03*
X178943000Y-121920000D03*
D11*
X181483000Y-121920000D03*
D10*
X130683000Y-96520000D03*
X133223000Y-96520000D03*
X135763000Y-96520000D03*
X138303000Y-96520000D03*
X140843000Y-96520000D03*
X143383000Y-96520000D03*
X145923000Y-96520000D03*
X148463000Y-96520000D03*
X151003000Y-96520000D03*
X153543000Y-96520000D03*
X156083000Y-96520000D03*
X158623000Y-96520000D03*
X161163000Y-96520000D03*
X163703000Y-96520000D03*
X166243000Y-96520000D03*
X168783000Y-96520000D03*
X171323000Y-96520000D03*
X173863000Y-96520000D03*
X176403000Y-96520000D03*
X178943000Y-96520000D03*
D11*
X181483000Y-96520000D03*
D12*
X146622500Y-102997000D03*
X149922500Y-102997000D03*
D13*
X103537500Y-106685000D03*
X103537500Y-112485000D03*
D14*
X103537500Y-113085000D03*
X103537500Y-106085000D03*
D15*
X103537500Y-108585000D03*
D16*
X106237500Y-112085000D03*
D17*
X106237500Y-109585000D03*
X106237500Y-110235000D03*
X106237500Y-110885000D03*
X106237500Y-108285000D03*
X106237500Y-108935000D03*
D16*
X106237500Y-107085000D03*
D15*
X103537500Y-110585000D03*
D18*
X147701000Y-106564000D03*
X147701000Y-112014000D03*
D19*
X129095500Y-113942500D03*
X129095500Y-111442500D03*
D20*
X122331000Y-112846000D03*
X119431000Y-112846000D03*
X119431000Y-110546000D03*
X122331000Y-110546000D03*
D21*
X177927000Y-117729000D03*
X176657000Y-117729000D03*
X175387000Y-117729000D03*
X174117000Y-117729000D03*
X172847000Y-117729000D03*
X171577000Y-117729000D03*
X170307000Y-117729000D03*
X169037000Y-117729000D03*
X167767000Y-117729000D03*
X166497000Y-117729000D03*
X165227000Y-117729000D03*
X163957000Y-117729000D03*
X162687000Y-117729000D03*
X161417000Y-117729000D03*
D22*
X160417000Y-114944000D03*
X160417000Y-113674000D03*
X160417000Y-112404000D03*
X160417000Y-111134000D03*
X160417000Y-109864000D03*
X160417000Y-108594000D03*
X160417000Y-107324000D03*
X160417000Y-106054000D03*
X160417000Y-104784000D03*
X160417000Y-103514000D03*
D21*
X161417000Y-100729000D03*
X162687000Y-100729000D03*
X163957000Y-100729000D03*
X165227000Y-100729000D03*
X166497000Y-100729000D03*
X167767000Y-100729000D03*
X169037000Y-100729000D03*
X170307000Y-100729000D03*
X171577000Y-100729000D03*
X172847000Y-100729000D03*
X174117000Y-100729000D03*
X175387000Y-100729000D03*
X176657000Y-100729000D03*
X177927000Y-100729000D03*
D23*
X170427000Y-108229000D03*
D24*
X156337000Y-107599500D03*
D25*
X157837000Y-107687000D03*
X154837000Y-107687000D03*
D26*
X148686500Y-117475000D03*
D27*
X148599000Y-118975000D03*
X148599000Y-115975000D03*
D28*
X142113000Y-101729500D03*
X142113000Y-102679500D03*
X142113000Y-100779500D03*
X144813000Y-100779500D03*
X144813000Y-101729500D03*
X144813000Y-102679500D03*
D29*
X134990000Y-105166000D03*
X134340000Y-105166000D03*
X133690000Y-105166000D03*
X133040000Y-105166000D03*
X132390000Y-105166000D03*
X131740000Y-105166000D03*
X131090000Y-105166000D03*
X130440000Y-105166000D03*
X130440000Y-99441000D03*
X131090000Y-99441000D03*
X131740000Y-99441000D03*
X132390000Y-99441000D03*
X133040000Y-99441000D03*
X133690000Y-99441000D03*
X134340000Y-99441000D03*
X134990000Y-99441000D03*
D30*
X141798000Y-111077000D03*
X140848000Y-108077000D03*
X142748000Y-108077000D03*
D31*
X131064000Y-108331000D03*
X132334000Y-108331000D03*
X133604000Y-108331000D03*
X134874000Y-108331000D03*
X134874000Y-113281000D03*
X133604000Y-113281000D03*
X132334000Y-113281000D03*
X131064000Y-113281000D03*
D32*
X114223000Y-96379000D03*
X114223000Y-100979000D03*
X114223000Y-98679000D03*
D33*
X120523000Y-98679000D03*
D34*
X108204000Y-104827000D03*
X109474000Y-104827000D03*
X110744000Y-104827000D03*
X112014000Y-104827000D03*
X113284000Y-104827000D03*
X114554000Y-104827000D03*
X115824000Y-104827000D03*
X117094000Y-104827000D03*
X117094000Y-111327000D03*
X115824000Y-111327000D03*
X114554000Y-111327000D03*
X113284000Y-111327000D03*
X112014000Y-111327000D03*
X110744000Y-111327000D03*
X109474000Y-111327000D03*
X108204000Y-111327000D03*
D35*
X125476000Y-122026500D03*
X124206000Y-122026500D03*
X122936000Y-122026500D03*
X121666000Y-122026500D03*
X121666000Y-116776500D03*
X122936000Y-116776500D03*
X124206000Y-116776500D03*
X125476000Y-116776500D03*
D36*
X126238000Y-100266500D03*
D37*
X128138000Y-99291500D03*
X128138000Y-99941500D03*
X128138000Y-100591500D03*
X128138000Y-101241500D03*
X124338000Y-101241500D03*
X124338000Y-100591500D03*
X124338000Y-99941500D03*
X124338000Y-99291500D03*
D38*
X112512000Y-122514000D03*
X112512000Y-121864000D03*
X112512000Y-121214000D03*
X112512000Y-120564000D03*
X118237000Y-120564000D03*
X118237000Y-121214000D03*
X118237000Y-121864000D03*
X118237000Y-122514000D03*
D39*
X116715500Y-115981500D03*
X115765500Y-115981500D03*
X117665500Y-115981500D03*
X117665500Y-118681500D03*
X116715500Y-118681500D03*
X115765500Y-118681500D03*
D40*
X113891000Y-118935500D03*
X112141000Y-118935500D03*
D41*
X140271500Y-100711000D03*
X140271500Y-102461000D03*
X148082000Y-99264000D03*
X148082000Y-101014000D03*
D42*
X146621500Y-101014000D03*
X146621500Y-99264000D03*
X155575000Y-116318000D03*
X155575000Y-114568000D03*
D41*
X139509500Y-113933000D03*
X139509500Y-115683000D03*
D40*
X139178000Y-108585000D03*
X137428000Y-108585000D03*
X139178000Y-107061000D03*
X137428000Y-107061000D03*
D42*
X127063500Y-118667500D03*
X127063500Y-116917500D03*
D41*
X118808500Y-104549000D03*
X118808500Y-106299000D03*
D42*
X120332500Y-106299000D03*
X120332500Y-104549000D03*
D43*
X132108000Y-116014500D03*
X133858000Y-116014500D03*
D42*
X127063500Y-122336500D03*
X127063500Y-120586500D03*
D40*
X125476000Y-114935000D03*
X123726000Y-114935000D03*
D43*
X126111000Y-96266000D03*
X127861000Y-96266000D03*
X126111000Y-97740000D03*
X127861000Y-97740000D03*
D42*
X120015000Y-122047000D03*
X120015000Y-120297000D03*
D44*
X139827000Y-118237000D03*
X141827000Y-117287000D03*
X141827000Y-119187000D03*
D45*
X144478000Y-114683500D03*
X141478000Y-115633500D03*
X141478000Y-113733500D03*
D30*
X153032500Y-110728500D03*
X153982500Y-113728500D03*
X152082500Y-113728500D03*
D45*
X125301000Y-107632500D03*
X122301000Y-108582500D03*
X122301000Y-106682500D03*
X125301000Y-104079000D03*
X122301000Y-105029000D03*
X122301000Y-103129000D03*
D44*
X128619500Y-116647000D03*
X130619500Y-115697000D03*
X130619500Y-117597000D03*
X138811000Y-100711000D03*
X136811000Y-101661000D03*
X136811000Y-99761000D03*
D46*
X109093000Y-98034000D03*
D47*
X109093000Y-100534000D03*
D43*
X122710000Y-97740000D03*
X124460000Y-97740000D03*
D46*
X109093000Y-117846000D03*
D47*
X109093000Y-120346000D03*
D48*
X137134000Y-118491000D03*
X132334000Y-118491000D03*
D41*
X127063500Y-113552000D03*
X127063500Y-115302000D03*
X112141000Y-99441000D03*
X112141000Y-101191000D03*
D43*
X176657000Y-98742500D03*
X178407000Y-98742500D03*
D40*
X124460000Y-96266000D03*
X122710000Y-96266000D03*
D43*
X156111000Y-112903000D03*
X157861000Y-112903000D03*
X149606000Y-99187000D03*
X151356000Y-99187000D03*
D41*
X143319500Y-117439500D03*
X143319500Y-119189500D03*
D40*
X157847000Y-109932000D03*
X156097000Y-109932000D03*
D42*
X146431000Y-117602000D03*
X146431000Y-115852000D03*
D40*
X143926500Y-99187000D03*
X142176500Y-99187000D03*
D43*
X149606000Y-100661000D03*
X151356000Y-100661000D03*
X156111000Y-111442500D03*
X157861000Y-111442500D03*
D41*
X144907000Y-117439500D03*
X144907000Y-119189500D03*
D43*
X140970000Y-106045000D03*
X142720000Y-106045000D03*
D41*
X129413000Y-108077000D03*
X129413000Y-109827000D03*
D43*
X112268000Y-114617500D03*
X114018000Y-114617500D03*
X112268000Y-113157000D03*
X114018000Y-113157000D03*
D42*
X112141000Y-97889000D03*
X112141000Y-96139000D03*
D40*
X130429000Y-119189500D03*
X128679000Y-119189500D03*
D42*
X120078500Y-118667500D03*
X120078500Y-116917500D03*
X122809000Y-101064000D03*
X122809000Y-99314000D03*
D40*
X113919000Y-117348000D03*
X112169000Y-117348000D03*
D49*
X150090847Y-111910153D03*
X122096370Y-119594348D03*
X124968000Y-118872000D03*
X152299297Y-112138701D03*
X141732000Y-114808008D03*
X138430000Y-115570008D03*
X129413008Y-118364000D03*
D50*
X112395000Y-119761000D03*
X141732000Y-100004474D03*
X141099500Y-101729500D03*
X134990000Y-106415054D03*
X129476500Y-105346500D03*
X135699473Y-99881990D03*
D49*
X142656000Y-111221000D03*
D50*
X124881001Y-113546000D03*
X177800000Y-116268500D03*
D49*
X173101000Y-110871000D03*
X167767000Y-105537000D03*
X173101000Y-105537000D03*
X149987000Y-115443000D03*
D50*
X139509500Y-101600000D03*
D49*
X129575741Y-104432426D03*
X128506836Y-103403009D03*
X154813000Y-105791000D03*
X130053358Y-98297986D03*
X179324000Y-98425000D03*
X141798020Y-108077000D03*
X155194000Y-112141000D03*
X144145000Y-116586000D03*
X133858000Y-117094000D03*
X130175000Y-116646954D03*
D50*
X120777000Y-121285000D03*
X125594000Y-117856000D03*
X123377500Y-117922500D03*
D49*
X111125000Y-96138994D03*
X123634500Y-98615500D03*
D50*
X146939014Y-118237000D03*
D49*
X143603511Y-101448086D03*
D50*
X146047500Y-101729500D03*
D49*
X177863500Y-102235000D03*
D50*
X135001000Y-111656490D03*
D49*
X161988500Y-103441500D03*
D50*
X150431500Y-99949000D03*
D49*
X128548160Y-109830535D03*
D50*
X137642600Y-120497592D03*
X137033000Y-102489000D03*
X165862000Y-112776000D03*
D49*
X140909010Y-117541044D03*
D50*
X121006000Y-118671000D03*
X117031000Y-121221000D03*
X117031000Y-121871000D03*
X111381000Y-100246000D03*
D49*
X111292010Y-113896000D03*
X107442000Y-111075000D03*
X117282153Y-112964153D03*
X106934000Y-105918004D03*
D50*
X125222000Y-103123998D03*
D49*
X117081000Y-109446000D03*
D50*
X128968500Y-120967500D03*
X116205000Y-98679000D03*
X111950500Y-110049010D03*
X111181000Y-107596000D03*
X139181335Y-109894159D03*
D49*
X158115000Y-103251000D03*
X159262653Y-102103347D03*
X146050000Y-119888000D03*
D50*
X143281000Y-112746000D03*
X139890500Y-112915944D03*
X151815800Y-116281200D03*
X153670000Y-111506000D03*
D49*
X107569000Y-108077000D03*
X109881000Y-103346000D03*
D50*
X149987000Y-106552992D03*
D49*
X105537000Y-103505000D03*
D50*
X139573000Y-105283000D03*
X131381506Y-102552500D03*
X132229179Y-101735988D03*
X171577000Y-116335510D03*
X151764992Y-109219998D03*
X172847000Y-116335510D03*
X137787718Y-112110656D03*
X111185406Y-115713594D03*
X174117000Y-116395500D03*
X114663677Y-116018010D03*
X137786146Y-112860666D03*
X154051000Y-109279990D03*
X141986000Y-104902000D03*
X175387000Y-116395500D03*
X160020000Y-120842989D03*
X160528000Y-117983000D03*
X124730688Y-109837136D03*
X125983996Y-110718004D03*
X125984000Y-113074000D03*
X134733967Y-115316044D03*
X143764000Y-108585000D03*
X133742766Y-114663990D03*
X144571475Y-110471975D03*
X132823907Y-104031093D03*
X134098342Y-102185158D03*
X137794994Y-113665000D03*
X112339010Y-103701990D03*
X110871000Y-106045000D03*
X140271500Y-114554000D03*
X140271490Y-116649500D03*
X128651000Y-98552000D03*
X129056596Y-101100650D03*
X127810487Y-98679000D03*
X128016000Y-101584990D03*
X124460000Y-120904000D03*
X130256000Y-107271000D03*
X130534333Y-109778079D03*
X131006000Y-106871000D03*
X131355500Y-109798691D03*
X131318000Y-101346000D03*
X127952500Y-108825508D03*
X137477500Y-98145990D03*
X136506000Y-109171000D03*
X136206000Y-107446000D03*
D51*
X112966500Y-116522500D02*
X110416500Y-116522500D01*
X114806298Y-117475000D02*
X113919000Y-117475000D01*
X113919000Y-117475000D02*
X112966500Y-116522500D01*
X115054810Y-117226488D02*
X114806298Y-117475000D01*
X115375512Y-117226488D02*
X115054810Y-117226488D01*
X115697000Y-116905000D02*
X115375512Y-117226488D01*
X115697000Y-116045000D02*
X115697000Y-116905000D01*
X113693000Y-118999000D02*
X112169000Y-117475000D01*
X113943700Y-118999000D02*
X113693000Y-118999000D01*
X116095501Y-117626499D02*
X115316201Y-117626499D01*
X116647000Y-117075000D02*
X116095501Y-117626499D01*
X116647000Y-116045000D02*
X116647000Y-117075000D01*
X115316201Y-117626499D02*
X113943700Y-118999000D01*
D52*
X129639000Y-108331000D02*
X129413000Y-108105000D01*
X131064000Y-108331000D02*
X129639000Y-108331000D01*
D53*
X134990000Y-106415000D02*
X135001000Y-106426000D01*
X134990000Y-105097500D02*
X134990000Y-106415000D01*
D52*
X142141000Y-99187000D02*
X142113000Y-99187000D01*
D54*
X150090847Y-111910153D02*
X148185847Y-111910153D01*
D53*
X121784000Y-119906718D02*
X122096370Y-119594348D01*
X121784000Y-122024000D02*
X121784000Y-119906718D01*
D52*
X152461201Y-112138701D02*
X152299297Y-112138701D01*
X153982500Y-113728500D02*
X153982500Y-113660000D01*
D54*
X124587000Y-119253000D02*
X124968000Y-118872000D01*
X122437718Y-119253000D02*
X124587000Y-119253000D01*
X122096370Y-119594348D02*
X122437718Y-119253000D01*
D55*
X139559000Y-115633500D02*
X139509500Y-115683000D01*
D54*
X141478000Y-115633500D02*
X139559000Y-115633500D01*
D55*
X152524701Y-112138701D02*
X152461201Y-112138701D01*
X153982500Y-113596500D02*
X152524701Y-112138701D01*
X153982500Y-113660000D02*
X153982500Y-113596500D01*
D52*
X139700000Y-115810000D02*
X139460008Y-115570008D01*
D54*
X139460008Y-115570008D02*
X138430000Y-115570008D01*
D53*
X112141000Y-118999000D02*
X112141000Y-119507000D01*
X112141000Y-119507000D02*
X112395000Y-119761000D01*
D52*
X142113000Y-99187000D02*
X142113000Y-99187000D01*
X141099500Y-101729500D02*
X142113000Y-101729500D01*
D51*
X123281500Y-100591500D02*
X122809000Y-101064000D01*
X124338000Y-100591500D02*
X123281500Y-100591500D01*
D53*
X129413000Y-108105000D02*
X129383498Y-108075498D01*
X122964000Y-101092000D02*
X122964000Y-100937000D01*
X123641988Y-101769988D02*
X122964000Y-101092000D01*
X129095500Y-105150021D02*
X125715467Y-101769988D01*
X125715467Y-101769988D02*
X123641988Y-101769988D01*
X129413000Y-108105000D02*
X129095500Y-107787500D01*
D52*
X129476500Y-105346500D02*
X129095500Y-105727500D01*
D53*
X129095500Y-105727500D02*
X129095500Y-105150021D01*
X129095500Y-107787500D02*
X129095500Y-105727500D01*
X141972526Y-100004474D02*
X141732000Y-100004474D01*
X142181000Y-99796000D02*
X141972526Y-100004474D01*
X142181000Y-99191500D02*
X142181000Y-99796000D01*
X142176500Y-99187000D02*
X142181000Y-99191500D01*
D51*
X134990000Y-99441000D02*
X134340000Y-99441000D01*
D52*
X142512000Y-111077000D02*
X142656000Y-111221000D01*
X141798000Y-111077000D02*
X142512000Y-111077000D01*
D55*
X154763500Y-113728500D02*
X153982500Y-113728500D01*
X155511500Y-114476500D02*
X154763500Y-113728500D01*
X155511500Y-114568000D02*
X155511500Y-114476500D01*
D53*
X128913000Y-118364000D02*
X129413008Y-118364000D01*
X128651000Y-118626000D02*
X128913000Y-118364000D01*
X128651000Y-119507000D02*
X128651000Y-118626000D01*
D52*
X128651000Y-119901000D02*
X128651000Y-119507000D01*
X128001000Y-120551000D02*
X128651000Y-119901000D01*
X127381000Y-120551000D02*
X128001000Y-120551000D01*
D51*
X135699473Y-99789473D02*
X135699473Y-99881990D01*
X135351000Y-99441000D02*
X135699473Y-99789473D01*
X134990000Y-99441000D02*
X135351000Y-99441000D01*
D55*
X124881001Y-110747499D02*
X124881001Y-113546000D01*
X129383498Y-108075498D02*
X127553002Y-108075498D01*
X127553002Y-108075498D02*
X124881001Y-110747499D01*
D56*
X141732000Y-115379500D02*
X141478000Y-115633500D01*
X141732000Y-114808008D02*
X141732000Y-115379500D01*
X146019000Y-113696000D02*
X147701000Y-112014000D01*
X142972874Y-113696000D02*
X146019000Y-113696000D01*
X142972874Y-114533628D02*
X142972874Y-113696000D01*
X142810502Y-114696000D02*
X142972874Y-114533628D01*
X141732000Y-114696000D02*
X142810502Y-114696000D01*
X141732000Y-114808008D02*
X141732000Y-114696000D01*
D52*
X143383000Y-117602000D02*
X144907000Y-117602000D01*
X144907000Y-117602000D02*
X146431000Y-117602000D01*
X123054000Y-117183200D02*
X123054000Y-116774000D01*
X125349000Y-116529000D02*
X125594000Y-116774000D01*
X125349000Y-114935000D02*
X125349000Y-116529000D01*
X113983000Y-96139000D02*
X114223000Y-96379000D01*
X112141000Y-96139000D02*
X113983000Y-96139000D01*
X122837000Y-99159000D02*
X122809000Y-99187000D01*
X170459000Y-108229000D02*
X173101000Y-110871000D01*
X170427000Y-108229000D02*
X170459000Y-108229000D01*
X170409000Y-108229000D02*
X167767000Y-110871000D01*
X170427000Y-108229000D02*
X170409000Y-108229000D01*
X170427000Y-108197000D02*
X167767000Y-105537000D01*
X170427000Y-108229000D02*
X170427000Y-108197000D01*
X170427000Y-108211000D02*
X173101000Y-105537000D01*
X170427000Y-108229000D02*
X170427000Y-108211000D01*
X149455000Y-115975000D02*
X149987000Y-115443000D01*
X148599000Y-115975000D02*
X149455000Y-115975000D01*
D53*
X120015000Y-122047000D02*
X120142000Y-122047000D01*
X137261000Y-118745000D02*
X137287000Y-118745000D01*
D52*
X129536253Y-104432426D02*
X129575741Y-104432426D01*
X128506836Y-103403009D02*
X129536253Y-104432426D01*
X154837000Y-105815000D02*
X154813000Y-105791000D01*
X154837000Y-107687000D02*
X154837000Y-105815000D01*
X154837000Y-107687000D02*
X154837000Y-106704000D01*
D53*
X120015000Y-122047000D02*
X119761000Y-121793000D01*
D52*
X156337000Y-111442500D02*
X157861000Y-109918500D01*
X156111000Y-111442500D02*
X156337000Y-111442500D01*
X177927000Y-99222500D02*
X178407000Y-98742500D01*
X177927000Y-100729000D02*
X177927000Y-99222500D01*
X179006500Y-98742500D02*
X179324000Y-98425000D01*
X178407000Y-98742500D02*
X179006500Y-98742500D01*
X124460266Y-96266000D02*
X124559000Y-96266000D01*
X123063266Y-97663000D02*
X124460266Y-96266000D01*
X122745500Y-97663000D02*
X123063266Y-97663000D01*
X142748000Y-108077000D02*
X141798020Y-108077000D01*
X155349000Y-112141000D02*
X155194000Y-112141000D01*
X155194000Y-112141000D02*
X155956000Y-112141000D01*
X155956000Y-112141000D02*
X156111000Y-112296000D01*
X156111000Y-112296000D02*
X156111000Y-112903000D01*
X156111000Y-111442500D02*
X156111000Y-112296000D01*
X145034000Y-117475000D02*
X144907000Y-117602000D01*
X144145000Y-116586000D02*
X145034000Y-117475000D01*
X133844000Y-116205000D02*
X133844000Y-117080000D01*
X133844000Y-117080000D02*
X133858000Y-117094000D01*
D53*
X120777000Y-121285000D02*
X120015000Y-122047000D01*
X125594000Y-116774000D02*
X125594000Y-117856000D01*
X123054000Y-116774000D02*
X123054000Y-117599000D01*
X123054000Y-117599000D02*
X123377500Y-117922500D01*
X125594000Y-117856000D02*
X124771315Y-117856000D01*
X124771315Y-117856000D02*
X124581816Y-118045499D01*
X124581816Y-118045499D02*
X123500499Y-118045499D01*
X123500499Y-118045499D02*
X123377500Y-117922500D01*
D52*
X112268000Y-113510000D02*
X111887000Y-113891000D01*
X112268000Y-113157000D02*
X112268000Y-113510000D01*
X112268000Y-114272000D02*
X111887000Y-113891000D01*
X112268000Y-114617500D02*
X112268000Y-114272000D01*
D53*
X112141000Y-96139000D02*
X111125006Y-96139000D01*
X111125006Y-96139000D02*
X111125000Y-96138994D01*
D52*
X122809000Y-99187000D02*
X123063000Y-99187000D01*
X139509500Y-101473000D02*
X140271500Y-100711000D01*
X139509500Y-101600000D02*
X139509500Y-101473000D01*
X146939014Y-118110014D02*
X146939014Y-118237000D01*
X146431000Y-117602000D02*
X146939014Y-118110014D01*
X143926500Y-99187000D02*
X143926500Y-99662000D01*
X143926500Y-99662000D02*
X143603511Y-99984989D01*
X143603511Y-99984989D02*
X143603511Y-101448086D01*
X144813000Y-101729500D02*
X143884925Y-101729500D01*
X143884925Y-101729500D02*
X143603511Y-101448086D01*
X144813000Y-101729500D02*
X146047500Y-101729500D01*
D53*
X146047500Y-101574500D02*
X146621500Y-101000500D01*
X146047500Y-101729500D02*
X146047500Y-101574500D01*
D52*
X177927000Y-116445132D02*
X177775184Y-116293316D01*
X177927000Y-117729000D02*
X177927000Y-116445132D01*
X180848000Y-96520000D02*
X181483000Y-96520000D01*
X179324000Y-98044000D02*
X180848000Y-96520000D01*
X179324000Y-98425000D02*
X179324000Y-98044000D01*
X177927000Y-102171500D02*
X177863500Y-102235000D01*
X177927000Y-100729000D02*
X177927000Y-102171500D01*
D53*
X134874000Y-113281000D02*
X134874000Y-111783490D01*
X134874000Y-111783490D02*
X135001000Y-111656490D01*
D52*
X161916000Y-103514000D02*
X161988500Y-103441500D01*
X160417000Y-103514000D02*
X161916000Y-103514000D01*
D53*
X137134000Y-118364000D02*
X137134000Y-118491000D01*
D52*
X150382000Y-99949000D02*
X150431500Y-99949000D01*
X149620000Y-99187000D02*
X150382000Y-99949000D01*
X150304500Y-99949000D02*
X150431500Y-99949000D01*
X149606000Y-100647500D02*
X150304500Y-99949000D01*
D53*
X128572625Y-109855000D02*
X128548160Y-109830535D01*
X129413000Y-109855000D02*
X128572625Y-109855000D01*
D51*
X122831500Y-99291500D02*
X122809000Y-99314000D01*
X119832000Y-121864000D02*
X120015000Y-122047000D01*
X118237000Y-121864000D02*
X119832000Y-121864000D01*
X119182000Y-121214000D02*
X120015000Y-122047000D01*
X118237000Y-121214000D02*
X119182000Y-121214000D01*
X118237000Y-121214000D02*
X118237000Y-121864000D01*
D53*
X137134000Y-118491000D02*
X137642600Y-118999600D01*
X137642600Y-118999600D02*
X137642600Y-120497592D01*
D52*
X137033000Y-101883000D02*
X136811000Y-101661000D01*
X137033000Y-102489000D02*
X137033000Y-101883000D01*
X167767000Y-110871000D02*
X165862000Y-112776000D01*
D53*
X130082986Y-98297986D02*
X130053358Y-98297986D01*
X130431000Y-98646000D02*
X130082986Y-98297986D01*
X130431000Y-99432000D02*
X130431000Y-98646000D01*
D51*
X124338000Y-99291500D02*
X124338000Y-99028000D01*
X123925500Y-98615500D02*
X123634500Y-98615500D01*
X124338000Y-99028000D02*
X123925500Y-98615500D01*
X124338000Y-99941500D02*
X124338000Y-99291500D01*
D52*
X122837000Y-98502000D02*
X122837000Y-99159000D01*
X122837000Y-97663000D02*
X122837000Y-98502000D01*
X122950500Y-98615500D02*
X122837000Y-98502000D01*
X123634500Y-98615500D02*
X122950500Y-98615500D01*
D53*
X140969966Y-117602000D02*
X140909010Y-117541044D01*
X143383000Y-117602000D02*
X140969966Y-117602000D01*
D52*
X141572956Y-117541044D02*
X141827000Y-117287000D01*
X140909010Y-117541044D02*
X141572956Y-117541044D01*
X130280046Y-116646954D02*
X130175000Y-116646954D01*
X130683000Y-116244000D02*
X130280046Y-116646954D01*
X130683000Y-116017000D02*
X130683000Y-116244000D01*
X142720000Y-108049000D02*
X142748000Y-108077000D01*
X142720000Y-106045000D02*
X142720000Y-108049000D01*
X121002500Y-118667500D02*
X121006000Y-118671000D01*
X120078500Y-118667500D02*
X121002500Y-118667500D01*
X117038000Y-121214000D02*
X117031000Y-121221000D01*
X118237000Y-121214000D02*
X117038000Y-121214000D01*
X117038000Y-121864000D02*
X117031000Y-121871000D01*
X118237000Y-121864000D02*
X117038000Y-121864000D01*
D53*
X111381000Y-100201000D02*
X111381000Y-100246000D01*
X112141000Y-99441000D02*
X111381000Y-100201000D01*
X111887000Y-113891000D02*
X111297010Y-113891000D01*
X111297010Y-113891000D02*
X111292010Y-113896000D01*
D57*
X107252000Y-110885000D02*
X107442000Y-111075000D01*
X106237500Y-110885000D02*
X107252000Y-110885000D01*
X107694000Y-111327000D02*
X107442000Y-111075000D01*
X108204000Y-111327000D02*
X107694000Y-111327000D01*
D52*
X120269000Y-116967000D02*
X121591000Y-116967000D01*
D53*
X117282153Y-113726153D02*
X117282153Y-112964153D01*
X120269000Y-116713000D02*
X117282153Y-113726153D01*
X120269000Y-116967000D02*
X120269000Y-116713000D01*
D51*
X126544010Y-114134990D02*
X127127000Y-113552000D01*
D53*
X115981000Y-108346000D02*
X117081000Y-109446000D01*
X112881000Y-108346000D02*
X115981000Y-108346000D01*
D52*
X109361996Y-108346000D02*
X106934000Y-105918004D01*
X112881000Y-108346000D02*
X109361996Y-108346000D01*
D57*
X121784000Y-115493000D02*
X123142010Y-114134990D01*
X121784000Y-116774000D02*
X121784000Y-115493000D01*
X123647999Y-114096001D02*
X123731000Y-114013000D01*
X123209133Y-114096001D02*
X123647999Y-114096001D01*
X123170144Y-114134990D02*
X123209133Y-114096001D01*
X123142010Y-114134990D02*
X123170144Y-114134990D01*
D51*
X123686988Y-114134990D02*
X123647999Y-114096001D01*
X126544010Y-114134990D02*
X123686988Y-114134990D01*
D57*
X123981000Y-113776002D02*
X123981000Y-109759212D01*
X123661001Y-114096001D02*
X123981000Y-113776002D01*
X123209133Y-114096001D02*
X123661001Y-114096001D01*
X123981000Y-109759212D02*
X123981000Y-108767764D01*
X123981000Y-108767764D02*
X123601001Y-108387765D01*
D51*
X123601001Y-103939735D02*
X123615507Y-103925229D01*
D58*
X123601001Y-108387765D02*
X123601001Y-103939735D01*
D57*
X124276000Y-103123998D02*
X125222000Y-103123998D01*
X123601001Y-103798997D02*
X124276000Y-103123998D01*
X123601001Y-103939735D02*
X123601001Y-103798997D01*
D51*
X132334000Y-118364000D02*
X132715000Y-118364000D01*
X130429000Y-119189500D02*
X130429000Y-119253000D01*
X130429000Y-119189500D02*
X130429000Y-119507000D01*
X130429000Y-119507000D02*
X128968500Y-120967500D01*
D52*
X132334000Y-118491000D02*
X130951000Y-118491000D01*
X130619500Y-118159500D02*
X130619500Y-117597000D01*
X130951000Y-118491000D02*
X130619500Y-118159500D01*
X130456000Y-119162500D02*
X130429000Y-119189500D01*
X130456000Y-118696000D02*
X130456000Y-119162500D01*
X130661000Y-118491000D02*
X130456000Y-118696000D01*
X132334000Y-118491000D02*
X130661000Y-118491000D01*
X132108000Y-118265000D02*
X132334000Y-118491000D01*
X132108000Y-116014500D02*
X132108000Y-118265000D01*
X114223000Y-98679000D02*
X116205000Y-98679000D01*
X116205000Y-98679000D02*
X120523000Y-98679000D01*
D53*
X108204000Y-104827000D02*
X108204000Y-105156000D01*
X112014000Y-111327000D02*
X112014000Y-110112510D01*
X112014000Y-110112510D02*
X111950500Y-110049010D01*
D52*
X113433000Y-97889000D02*
X114223000Y-98679000D01*
X112141000Y-97889000D02*
X113433000Y-97889000D01*
X108204000Y-105919000D02*
X108204000Y-104827000D01*
X109881000Y-107596000D02*
X108204000Y-105919000D01*
X111181000Y-107596000D02*
X109881000Y-107596000D01*
D53*
X112141000Y-97889000D02*
X110646998Y-99383002D01*
X110646998Y-99383002D02*
X110646998Y-101395998D01*
X110646998Y-101395998D02*
X108204000Y-103838996D01*
X108204000Y-103838996D02*
X108204000Y-104827000D01*
D51*
X114945000Y-113157000D02*
X114427000Y-113157000D01*
X115824000Y-112278000D02*
X114945000Y-113157000D01*
X115824000Y-111327000D02*
X115824000Y-112278000D01*
X121072500Y-109346000D02*
X122343500Y-110617000D01*
X118231000Y-109346000D02*
X121072500Y-109346000D01*
X117355999Y-110221001D02*
X118231000Y-109346000D01*
X116129999Y-110221001D02*
X117355999Y-110221001D01*
X115824000Y-110527000D02*
X116129999Y-110221001D01*
X115824000Y-111327000D02*
X115824000Y-110527000D01*
X117094000Y-111327000D02*
X117094000Y-112014000D01*
X114540000Y-114681000D02*
X114427000Y-114681000D01*
X117094000Y-112127000D02*
X114540000Y-114681000D01*
X117094000Y-111327000D02*
X117094000Y-112127000D01*
X118733500Y-111327000D02*
X119443500Y-110617000D01*
X117094000Y-111327000D02*
X118733500Y-111327000D01*
D52*
X140984000Y-106299000D02*
X140984000Y-106920000D01*
X140984000Y-106920000D02*
X140081000Y-107823000D01*
X139940000Y-107823000D02*
X139178000Y-107061000D01*
X139940000Y-107823000D02*
X139178000Y-108585000D01*
X140081000Y-107823000D02*
X139940000Y-107823000D01*
X140377000Y-107823000D02*
X140909000Y-108355000D01*
X140081000Y-107823000D02*
X140377000Y-107823000D01*
X139178000Y-109890824D02*
X139181335Y-109894159D01*
X139178000Y-108585000D02*
X139178000Y-109890824D01*
X143319500Y-119316500D02*
X140843000Y-121793000D01*
X143319500Y-119189500D02*
X143319500Y-119316500D01*
X143693998Y-119041002D02*
X148532998Y-119041002D01*
X148532998Y-119041002D02*
X148599000Y-118975000D01*
X143383000Y-119352000D02*
X143693998Y-119041002D01*
X157861000Y-112903000D02*
X157861000Y-111379000D01*
X157837000Y-103529000D02*
X158115000Y-103251000D01*
X157837000Y-107687000D02*
X157837000Y-103529000D01*
X176657000Y-101726202D02*
X176657000Y-100729000D01*
X176200201Y-102183001D02*
X176657000Y-101726202D01*
X159342307Y-102183001D02*
X176200201Y-102183001D01*
X159262653Y-102103347D02*
X159342307Y-102183001D01*
X158008486Y-111231514D02*
X157861000Y-111379000D01*
X157837000Y-107687000D02*
X158008486Y-107858486D01*
X158790010Y-110513490D02*
X157861000Y-111442500D01*
X158790010Y-109415276D02*
X158790010Y-110513490D01*
X157837000Y-108462266D02*
X158790010Y-109415276D01*
X157837000Y-107687000D02*
X157837000Y-108462266D01*
X176657000Y-100729000D02*
X176657000Y-99731798D01*
X176657000Y-98742500D02*
X176657000Y-99731798D01*
X144145000Y-121793000D02*
X143383000Y-121793000D01*
X146050000Y-119888000D02*
X144145000Y-121793000D01*
X146615685Y-119888000D02*
X146050000Y-119888000D01*
X150955202Y-118946000D02*
X150013202Y-119888000D01*
X154506000Y-118946000D02*
X150955202Y-118946000D01*
X157706000Y-115746000D02*
X154506000Y-118946000D01*
X150013202Y-119888000D02*
X146615685Y-119888000D01*
X157706000Y-113058000D02*
X157706000Y-115746000D01*
X157861000Y-112903000D02*
X157706000Y-113058000D01*
D57*
X139897872Y-112869945D02*
X143157055Y-112869945D01*
X143281000Y-112746000D02*
X143157055Y-112869945D01*
D52*
X148082000Y-101156500D02*
X149922500Y-102997000D01*
X148082000Y-101014500D02*
X148082000Y-101156500D01*
X151370000Y-101549500D02*
X151370000Y-99187000D01*
X149922500Y-102997000D02*
X151370000Y-101549500D01*
X142147001Y-97951001D02*
X140843000Y-96647000D01*
X149894001Y-97951001D02*
X142147001Y-97951001D01*
X151130000Y-99187000D02*
X149894001Y-97951001D01*
X151370000Y-99187000D02*
X151130000Y-99187000D01*
X145580000Y-115001000D02*
X146431000Y-115852000D01*
X144629000Y-115001000D02*
X145580000Y-115001000D01*
X146431000Y-116099056D02*
X147806944Y-117475000D01*
X147806944Y-117475000D02*
X148686500Y-117475000D01*
X146431000Y-115852000D02*
X146431000Y-116099056D01*
X148686500Y-117475000D02*
X148686438Y-117475000D01*
D51*
X150622000Y-117475000D02*
X151815800Y-116281200D01*
X148686500Y-117475000D02*
X150622000Y-117475000D01*
D52*
X156047500Y-109855000D02*
X156111000Y-109918500D01*
X154841000Y-109855000D02*
X156047500Y-109855000D01*
X153670000Y-111366000D02*
X153032500Y-110728500D01*
X153670000Y-111506000D02*
X153670000Y-111366000D01*
X154841000Y-109855000D02*
X154504498Y-110191502D01*
X154504498Y-110191502D02*
X153347502Y-110191502D01*
X153347502Y-110191502D02*
X153289000Y-110133000D01*
X156337000Y-109692500D02*
X156337000Y-107599500D01*
X156111000Y-109918500D02*
X156337000Y-109692500D01*
D51*
X175387000Y-100729000D02*
X175387000Y-100077410D01*
X178181000Y-96647000D02*
X178943000Y-96647000D01*
X177817999Y-97772001D02*
X178943000Y-96647000D01*
X176166999Y-97772001D02*
X177817999Y-97772001D01*
X175387000Y-98552000D02*
X176166999Y-97772001D01*
X175387000Y-100729000D02*
X175387000Y-98552000D01*
X177618665Y-95322664D02*
X178943000Y-96647000D01*
X127509951Y-95338129D02*
X177618665Y-95322664D01*
X123585077Y-95366923D02*
X127481157Y-95366923D01*
X121856500Y-97095500D02*
X123585077Y-95366923D01*
X122809000Y-102362000D02*
X121856500Y-101409500D01*
X125349000Y-102362000D02*
X122809000Y-102362000D01*
X127481157Y-95366923D02*
X127509951Y-95338129D01*
X126619000Y-105058000D02*
X126619000Y-103632000D01*
X126619000Y-103632000D02*
X125349000Y-102362000D01*
X125301000Y-106376000D02*
X126619000Y-105058000D01*
X121856500Y-101409500D02*
X121856500Y-97095500D01*
X125301000Y-107632500D02*
X125301000Y-106376000D01*
X106237500Y-108285000D02*
X106380000Y-108285000D01*
D52*
X114011000Y-101191000D02*
X114223000Y-100979000D01*
X112141000Y-101191000D02*
X114011000Y-101191000D01*
D53*
X107361000Y-108285000D02*
X107569000Y-108077000D01*
X106237500Y-108285000D02*
X107361000Y-108285000D01*
D52*
X109986000Y-103346000D02*
X109881000Y-103346000D01*
X112141000Y-101191000D02*
X109986000Y-103346000D01*
D51*
X127127000Y-116995000D02*
X127127000Y-115302000D01*
D52*
X146257000Y-106009000D02*
X147447000Y-107199000D01*
X145415000Y-105627010D02*
X145415000Y-105627010D01*
D51*
X147701000Y-106564000D02*
X149975992Y-106564000D01*
X149975992Y-106564000D02*
X149987000Y-106552992D01*
X124587000Y-97663000D02*
X126111000Y-97663000D01*
X125998000Y-97550000D02*
X126111000Y-97663000D01*
X126139000Y-97635000D02*
X126111000Y-97663000D01*
X126139000Y-96139000D02*
X126139000Y-97635000D01*
X113284000Y-111058639D02*
X113284000Y-111327000D01*
X113284000Y-110059000D02*
X113284000Y-111058639D01*
X112699000Y-109474000D02*
X113284000Y-110059000D01*
X111386000Y-109474000D02*
X112699000Y-109474000D01*
X111319243Y-109481521D02*
X111386000Y-109474000D01*
X111198953Y-109539450D02*
X111255834Y-109503709D01*
X111115709Y-109643834D02*
X111151450Y-109586953D01*
X110478478Y-109707243D02*
X110486000Y-109774000D01*
X111086000Y-109774000D02*
X111093521Y-109707243D01*
X110373046Y-109539450D02*
X110420549Y-109586953D01*
X110486000Y-109774000D02*
X110486000Y-109924000D01*
X111056290Y-110054165D02*
X111078478Y-109990756D01*
X110316165Y-109503709D02*
X110373046Y-109539450D01*
X111020549Y-110111046D02*
X111056290Y-110054165D01*
X110515709Y-110054165D02*
X110551450Y-110111046D01*
X111078478Y-109990756D02*
X111086000Y-109924000D01*
X110186000Y-109474000D02*
X110252756Y-109481521D01*
X111093521Y-109707243D02*
X111115709Y-109643834D01*
X111255834Y-109503709D02*
X111319243Y-109481521D01*
X110252756Y-109481521D02*
X110316165Y-109503709D01*
X110456290Y-109643834D02*
X110478478Y-109707243D01*
X106348500Y-109474000D02*
X110186000Y-109474000D01*
X111086000Y-109924000D02*
X111086000Y-109774000D01*
X110420549Y-109586953D02*
X110456290Y-109643834D01*
X110719243Y-110216478D02*
X110786000Y-110224000D01*
X110655834Y-110194290D02*
X110719243Y-110216478D01*
X110916165Y-110194290D02*
X110973046Y-110158549D01*
X110493521Y-109990756D02*
X110515709Y-110054165D01*
X110786000Y-110224000D02*
X110852756Y-110216478D01*
X110486000Y-109924000D02*
X110493521Y-109990756D01*
X110852756Y-110216478D02*
X110916165Y-110194290D01*
X110551450Y-110111046D02*
X110598953Y-110158549D01*
X110598953Y-110158549D02*
X110655834Y-110194290D01*
X110973046Y-110158549D02*
X111020549Y-110111046D01*
X106237500Y-109585000D02*
X106348500Y-109474000D01*
X111151450Y-109586953D02*
X111198953Y-109539450D01*
X106345500Y-109043000D02*
X106237500Y-108935000D01*
X112903000Y-109043000D02*
X106345500Y-109043000D01*
X114554000Y-110694000D02*
X112903000Y-109043000D01*
X114554000Y-111327000D02*
X114554000Y-110694000D01*
D52*
X108585000Y-100534000D02*
X109093000Y-100534000D01*
X105614000Y-103505000D02*
X108585000Y-100534000D01*
X105537000Y-103505000D02*
X105614000Y-103505000D01*
D51*
X160417000Y-113674000D02*
X159884000Y-113674000D01*
X159167000Y-113674000D02*
X160417000Y-113674000D01*
X158381000Y-114460000D02*
X159167000Y-113674000D01*
X158381000Y-115971000D02*
X158381000Y-114460000D01*
X154731000Y-119621000D02*
X158381000Y-115971000D01*
X151149167Y-119621000D02*
X154731000Y-119621000D01*
X150247167Y-120523000D02*
X151149167Y-119621000D01*
X149733000Y-120523000D02*
X150247167Y-120523000D01*
X148463000Y-121793000D02*
X149733000Y-120523000D01*
X160417000Y-114944000D02*
X160392000Y-114944000D01*
X154885000Y-120142000D02*
X152654000Y-120142000D01*
X152654000Y-120142000D02*
X151003000Y-121793000D01*
X158881000Y-116146000D02*
X154885000Y-120142000D01*
X158881000Y-115371000D02*
X158881000Y-116146000D01*
X159308000Y-114944000D02*
X158881000Y-115371000D01*
X160417000Y-114944000D02*
X159308000Y-114944000D01*
X156800698Y-119126000D02*
X154133698Y-121793000D01*
X154133698Y-121793000D02*
X153543000Y-121793000D01*
X162560000Y-119126000D02*
X156800698Y-119126000D01*
X162687000Y-118999000D02*
X162560000Y-119126000D01*
X162687000Y-117729000D02*
X162687000Y-118999000D01*
X158242000Y-119634000D02*
X156083000Y-121793000D01*
X163322000Y-119634000D02*
X158242000Y-119634000D01*
X163957000Y-118999000D02*
X163322000Y-119634000D01*
X163957000Y-117729000D02*
X163957000Y-118999000D01*
X158623000Y-120777000D02*
X158623000Y-121793000D01*
X165227000Y-118999000D02*
X164084000Y-120142000D01*
X159258000Y-120142000D02*
X158623000Y-120777000D01*
X164084000Y-120142000D02*
X159258000Y-120142000D01*
X165227000Y-117729000D02*
X165227000Y-118999000D01*
X162306000Y-120650000D02*
X161163000Y-121793000D01*
X164846000Y-120650000D02*
X162306000Y-120650000D01*
X166497000Y-118999000D02*
X164846000Y-120650000D01*
X166497000Y-117729000D02*
X166497000Y-118999000D01*
X164415000Y-121793000D02*
X163703000Y-121793000D01*
X165608000Y-120600000D02*
X164415000Y-121793000D01*
X166146000Y-120600000D02*
X165608000Y-120600000D01*
X167767000Y-118979000D02*
X166146000Y-120600000D01*
X167767000Y-117729000D02*
X167767000Y-118979000D01*
X169037000Y-118999000D02*
X166243000Y-121793000D01*
X169037000Y-117729000D02*
X169037000Y-118999000D01*
X171577000Y-118999000D02*
X171577000Y-117729000D01*
X169037000Y-121539000D02*
X171577000Y-118999000D01*
X171577000Y-117729000D02*
X171577000Y-116335510D01*
X137218000Y-107271000D02*
X137428000Y-107061000D01*
X135174000Y-108031000D02*
X134874000Y-108331000D01*
X136458000Y-108031000D02*
X135174000Y-108031000D01*
X137428000Y-107061000D02*
X136458000Y-108031000D01*
X134340000Y-106680000D02*
X134340000Y-105166000D01*
X134874000Y-107214000D02*
X134340000Y-106680000D01*
X134874000Y-108331000D02*
X134874000Y-107214000D01*
X138544000Y-105283000D02*
X139573000Y-105283000D01*
X137428000Y-106399000D02*
X138544000Y-105283000D01*
X137428000Y-107061000D02*
X137428000Y-106399000D01*
X134340000Y-103846809D02*
X134340000Y-105166000D01*
X132229179Y-101735988D02*
X134340000Y-103846809D01*
X131050500Y-102552500D02*
X131381506Y-102552500D01*
X129771487Y-101273487D02*
X131050500Y-102552500D01*
X129771487Y-100942481D02*
X129771487Y-101273487D01*
X128770506Y-99941500D02*
X129771487Y-100942481D01*
X128138000Y-99941500D02*
X128770506Y-99941500D01*
X149489002Y-109347000D02*
X149484001Y-109352001D01*
X172847000Y-120269000D02*
X172847000Y-118999000D01*
X171577000Y-121539000D02*
X172847000Y-120269000D01*
X172847000Y-118999000D02*
X172847000Y-117729000D01*
X149484001Y-109352001D02*
X151632989Y-109352001D01*
X151632989Y-109352001D02*
X151764992Y-109219998D01*
X172847000Y-117729000D02*
X172847000Y-116335510D01*
X138087717Y-111810657D02*
X137787718Y-112110656D01*
X138329343Y-111810657D02*
X138087717Y-111810657D01*
X140787999Y-109352001D02*
X138329343Y-111810657D01*
X149484001Y-109352001D02*
X140787999Y-109352001D01*
X109601000Y-114129188D02*
X111185406Y-115713594D01*
X109601000Y-111454000D02*
X109601000Y-114129188D01*
X109474000Y-111327000D02*
X109601000Y-111454000D01*
X174117000Y-118999000D02*
X174117000Y-119507000D01*
X174117000Y-121539000D02*
X173863000Y-121793000D01*
X174117000Y-118999000D02*
X174117000Y-121539000D01*
X174117000Y-118999000D02*
X174117000Y-117729000D01*
X174117000Y-117729000D02*
X174117000Y-116395500D01*
X110744000Y-111327000D02*
X110617000Y-111454000D01*
X110617000Y-111454000D02*
X110617000Y-114332000D01*
X110617000Y-114332000D02*
X112303010Y-116018010D01*
X112303010Y-116018010D02*
X114663677Y-116018010D01*
X138027822Y-112860666D02*
X137786146Y-112860666D01*
X141093487Y-109795001D02*
X138027822Y-112860666D01*
X152041029Y-109795001D02*
X141093487Y-109795001D01*
X152556040Y-109279990D02*
X152041029Y-109795001D01*
X154051000Y-109279990D02*
X152556040Y-109279990D01*
X175387000Y-117729000D02*
X175387000Y-118494002D01*
X175387000Y-120777000D02*
X176403000Y-121793000D01*
X175387000Y-118999000D02*
X175387000Y-120777000D01*
X140773004Y-104902000D02*
X141986000Y-104902000D01*
X137428000Y-108585000D02*
X138327990Y-107685010D01*
X138327990Y-107685010D02*
X138327990Y-106590500D01*
X138327990Y-106590500D02*
X138910488Y-106008002D01*
X138910488Y-106008002D02*
X139667002Y-106008002D01*
X139667002Y-106008002D02*
X140773004Y-104902000D01*
X175387000Y-117729000D02*
X175387000Y-116395500D01*
X175387000Y-118999000D02*
X175387000Y-117729000D01*
X135194986Y-109631010D02*
X136240996Y-108585000D01*
X133866010Y-109631010D02*
X135194986Y-109631010D01*
X133690000Y-104009996D02*
X133690000Y-109455000D01*
X131657502Y-101977498D02*
X133690000Y-104009996D01*
X136240996Y-108585000D02*
X137428000Y-108585000D01*
X133690000Y-109455000D02*
X133866010Y-109631010D01*
X131110498Y-101977498D02*
X131657502Y-101977498D01*
X130171498Y-101038498D02*
X131110498Y-101977498D01*
X130171498Y-100733002D02*
X130171498Y-101038498D01*
X128729996Y-99291500D02*
X130171498Y-100733002D01*
X128138000Y-99291500D02*
X128729996Y-99291500D01*
X178685998Y-121793000D02*
X178943000Y-121793000D01*
X176657000Y-119507000D02*
X178943000Y-121793000D01*
X176657000Y-117729000D02*
X176657000Y-119507000D01*
X161417000Y-117729000D02*
X160782000Y-117729000D01*
X160782000Y-117729000D02*
X160528000Y-117983000D01*
X161417000Y-116479000D02*
X161417000Y-117729000D01*
X162202501Y-115693499D02*
X161417000Y-116479000D01*
X178076001Y-115693499D02*
X162202501Y-115693499D01*
X178816000Y-116433498D02*
X178076001Y-115693499D01*
X178816000Y-120078500D02*
X178816000Y-116433498D01*
X180530500Y-121793000D02*
X178816000Y-120078500D01*
X181483000Y-121793000D02*
X180530500Y-121793000D01*
X125983996Y-110718004D02*
X125983996Y-113073996D01*
X125983996Y-113073996D02*
X125984000Y-113074000D01*
X124730688Y-108845688D02*
X124730688Y-109837136D01*
X124075999Y-108190999D02*
X124730688Y-108845688D01*
X124075999Y-105304001D02*
X124075999Y-108190999D01*
X125301000Y-104079000D02*
X124075999Y-105304001D01*
X160020000Y-122307000D02*
X159206010Y-123120990D01*
X130485499Y-120269000D02*
X133223000Y-120269000D01*
X129413000Y-122522490D02*
X129413000Y-121341499D01*
X160020000Y-120842989D02*
X160020000Y-122307000D01*
X129413000Y-121341499D02*
X130485499Y-120269000D01*
X159206010Y-123120990D02*
X130011500Y-123120990D01*
X133223000Y-120269000D02*
X134733967Y-118758033D01*
X134733967Y-118758033D02*
X134733967Y-115316044D01*
X130011500Y-123120990D02*
X129413000Y-122522490D01*
X150989132Y-98298000D02*
X149338132Y-96647000D01*
X154432000Y-98298000D02*
X150989132Y-98298000D01*
X158877000Y-102743000D02*
X154432000Y-98298000D01*
X158877000Y-104467000D02*
X158877000Y-102743000D01*
X149338132Y-96647000D02*
X148463000Y-96647000D01*
X159194000Y-104784000D02*
X158877000Y-104467000D01*
X160417000Y-104784000D02*
X159194000Y-104784000D01*
X152128001Y-97772001D02*
X151003000Y-96647000D01*
X154541001Y-97772001D02*
X152128001Y-97772001D01*
X157498000Y-100729000D02*
X154541001Y-97772001D01*
X161417000Y-100729000D02*
X157498000Y-100729000D01*
X154432000Y-96647000D02*
X153543000Y-96647000D01*
X157099000Y-99314000D02*
X154432000Y-96647000D01*
X162474000Y-99314000D02*
X157099000Y-99314000D01*
X162687000Y-99527000D02*
X162474000Y-99314000D01*
X162687000Y-100729000D02*
X162687000Y-99527000D01*
X163957000Y-100729000D02*
X163957000Y-99963998D01*
X158242000Y-98806000D02*
X156083000Y-96647000D01*
X163166000Y-98806000D02*
X158242000Y-98806000D01*
X163957000Y-99597000D02*
X163166000Y-98806000D01*
X163957000Y-100729000D02*
X163957000Y-99597000D01*
X165227000Y-100729000D02*
X165227000Y-99963998D01*
X160274000Y-98298000D02*
X158623000Y-96647000D01*
X164133000Y-98298000D02*
X160274000Y-98298000D01*
X165227000Y-99392000D02*
X164133000Y-98298000D01*
X165227000Y-100729000D02*
X165227000Y-99392000D01*
X161910002Y-96647000D02*
X161163000Y-96647000D01*
X162288001Y-97772001D02*
X161163000Y-96647000D01*
X164790001Y-97772001D02*
X162288001Y-97772001D01*
X166497000Y-99479000D02*
X164790001Y-97772001D01*
X166497000Y-100729000D02*
X166497000Y-99479000D01*
X164507000Y-96647000D02*
X163703000Y-96647000D01*
X166156000Y-98296000D02*
X164507000Y-96647000D01*
X166531000Y-98296000D02*
X166156000Y-98296000D01*
X167767000Y-99532000D02*
X166531000Y-98296000D01*
X167767000Y-100729000D02*
X167767000Y-99532000D01*
X169037000Y-99441000D02*
X166243000Y-96647000D01*
X169037000Y-100729000D02*
X169037000Y-99441000D01*
X169037000Y-96901000D02*
X168783000Y-96647000D01*
X170307000Y-98171000D02*
X168783000Y-96647000D01*
X170307000Y-100729000D02*
X170307000Y-98171000D01*
X171577000Y-96901000D02*
X171323000Y-96647000D01*
X171577000Y-100729000D02*
X171577000Y-96901000D01*
X172847000Y-97663000D02*
X173863000Y-96647000D01*
X172847000Y-100729000D02*
X172847000Y-97663000D01*
X175679000Y-96647000D02*
X176403000Y-96647000D01*
X174117000Y-98933000D02*
X176403000Y-96647000D01*
X174117000Y-100729000D02*
X174117000Y-98933000D01*
D52*
X154573000Y-115379500D02*
X155511500Y-116318000D01*
X153479500Y-115379500D02*
X154573000Y-115379500D01*
X152082500Y-113982500D02*
X153479500Y-115379500D01*
X152082500Y-113728500D02*
X152082500Y-113982500D01*
D51*
X140152129Y-103639629D02*
X141612629Y-103639629D01*
X143764000Y-105791000D02*
X143764000Y-108585000D01*
X138811000Y-102298500D02*
X140152129Y-103639629D01*
X141612629Y-103639629D02*
X143764000Y-105791000D01*
X138811000Y-100711000D02*
X138811000Y-102298500D01*
X133604000Y-113281000D02*
X133604000Y-114525224D01*
X133604000Y-114525224D02*
X133742766Y-114663990D01*
X144821474Y-110221976D02*
X144571475Y-110471975D01*
X151511000Y-112103998D02*
X149628978Y-110221976D01*
X151511000Y-112305000D02*
X151511000Y-112103998D01*
X149628978Y-110221976D02*
X144821474Y-110221976D01*
X152339000Y-113133000D02*
X151511000Y-112305000D01*
X138636980Y-100885020D02*
X135398480Y-100885020D01*
X133040000Y-105097500D02*
X133040000Y-104247186D01*
X135398480Y-100885020D02*
X134098342Y-102185158D01*
X138811000Y-100711000D02*
X138636980Y-100885020D01*
X133040000Y-104247186D02*
X132823907Y-104031093D01*
X133115500Y-114744500D02*
X133604000Y-114256000D01*
X133604000Y-114256000D02*
X133604000Y-113281000D01*
X130255500Y-114744500D02*
X133115500Y-114744500D01*
X128619500Y-116380500D02*
X130255500Y-114744500D01*
X128619500Y-116647000D02*
X128619500Y-116380500D01*
X137999000Y-113665000D02*
X137794994Y-113665000D01*
X139323066Y-112340934D02*
X137999000Y-113665000D01*
X142702516Y-112340934D02*
X139323066Y-112340934D01*
X144571475Y-110471975D02*
X142702516Y-112340934D01*
X120716000Y-104996000D02*
X122080000Y-104996000D01*
X120269000Y-104549000D02*
X120716000Y-104996000D01*
X117897990Y-103701990D02*
X118745000Y-104549000D01*
X112339010Y-103701990D02*
X112339010Y-103701990D01*
X120419000Y-102875000D02*
X122301000Y-102875000D01*
X118745000Y-104549000D02*
X120419000Y-102875000D01*
X112339010Y-103701990D02*
X117897990Y-103701990D01*
X112125010Y-103701990D02*
X112339010Y-103701990D01*
X112014000Y-103813000D02*
X112125010Y-103701990D01*
X112014000Y-104827000D02*
X112014000Y-103813000D01*
X120281000Y-108521000D02*
X121979000Y-108521000D01*
X118745000Y-106985000D02*
X120281000Y-108521000D01*
X118745000Y-106299000D02*
X118745000Y-106985000D01*
X120591000Y-106621000D02*
X121979000Y-106621000D01*
X119418990Y-105448990D02*
X120591000Y-106621000D01*
X118274500Y-105448990D02*
X119418990Y-105448990D01*
X117771480Y-105952010D02*
X118274500Y-105448990D01*
X111069010Y-105952010D02*
X117771480Y-105952010D01*
X110744000Y-104827000D02*
X110744000Y-105627000D01*
X110871000Y-105868000D02*
X110928000Y-105811000D01*
X110871000Y-106045000D02*
X110871000Y-105868000D01*
X110928000Y-105811000D02*
X111069010Y-105952010D01*
X110744000Y-105627000D02*
X110928000Y-105811000D01*
D52*
X139709000Y-113733500D02*
X139509500Y-113933000D01*
X141478000Y-113733500D02*
X139709000Y-113733500D01*
D51*
X140130500Y-114554000D02*
X140271500Y-114554000D01*
X139509500Y-113933000D02*
X140130500Y-114554000D01*
X139843000Y-118491000D02*
X139843000Y-117077990D01*
X139843000Y-117077990D02*
X140271490Y-116649500D01*
X118440200Y-118722200D02*
X119468990Y-119750990D01*
X118440200Y-117856198D02*
X118440200Y-118722200D01*
X118135202Y-117551200D02*
X118440200Y-117856198D01*
X119468990Y-119750990D02*
X120015000Y-120297000D01*
X116810800Y-117551200D02*
X118135202Y-117551200D01*
X116647000Y-117715000D02*
X116810800Y-117551200D01*
X116647000Y-118745000D02*
X116647000Y-117715000D01*
X127861000Y-97663000D02*
X128651000Y-98453000D01*
X128651000Y-98453000D02*
X128651000Y-98552000D01*
X128547446Y-100591500D02*
X128138000Y-100591500D01*
X129056596Y-101100650D02*
X128547446Y-100591500D01*
X127889000Y-96139000D02*
X127060990Y-96967010D01*
X127060990Y-96967010D02*
X127060990Y-98283056D01*
X127060990Y-98283056D02*
X127456934Y-98679000D01*
X127456934Y-98679000D02*
X127810487Y-98679000D01*
X128016000Y-101254000D02*
X128016000Y-101584990D01*
X124206000Y-116656000D02*
X124324000Y-116774000D01*
X124206000Y-115542000D02*
X124206000Y-116656000D01*
X123599000Y-114935000D02*
X124206000Y-115542000D01*
X127000000Y-118745000D02*
X125525641Y-120219359D01*
X125525641Y-120219359D02*
X124033641Y-120219359D01*
X124033641Y-120219359D02*
X123054000Y-121199000D01*
X123054000Y-121199000D02*
X123054000Y-122024000D01*
X148039000Y-99271000D02*
X148463000Y-99695000D01*
X146601000Y-99271000D02*
X148039000Y-99271000D01*
X146576000Y-99296000D02*
X146601000Y-99271000D01*
X145706000Y-99296000D02*
X146576000Y-99296000D01*
X144813000Y-100189000D02*
X145706000Y-99296000D01*
X144813000Y-100779500D02*
X144813000Y-100189000D01*
X140716000Y-102616000D02*
X142348000Y-102616000D01*
X140561000Y-102461000D02*
X140716000Y-102616000D01*
X140271500Y-102461000D02*
X140561000Y-102461000D01*
X117597000Y-119853000D02*
X118237000Y-120493000D01*
X117597000Y-118745000D02*
X117597000Y-119853000D01*
X115697000Y-119655000D02*
X115697000Y-118745000D01*
X114781000Y-120571000D02*
X115697000Y-119655000D01*
X112590000Y-120571000D02*
X114781000Y-120571000D01*
X112512000Y-120493000D02*
X112590000Y-120571000D01*
X129413000Y-111633000D02*
X129159000Y-111379000D01*
X131191000Y-111633000D02*
X129413000Y-111633000D01*
X132334000Y-112776000D02*
X131191000Y-111633000D01*
X132334000Y-112838000D02*
X132334000Y-112776000D01*
X130200000Y-112838000D02*
X129159000Y-113879000D01*
X131064000Y-112838000D02*
X130200000Y-112838000D01*
X124206000Y-121158000D02*
X124460000Y-120904000D01*
X124206000Y-122026500D02*
X124206000Y-121158000D01*
X130440000Y-105097500D02*
X130256000Y-105281500D01*
X130256000Y-105281500D02*
X130256000Y-107271000D01*
X134615501Y-114657501D02*
X134298990Y-114340990D01*
X133602768Y-111633000D02*
X131964990Y-111633000D01*
X130534333Y-110202343D02*
X130534333Y-109778079D01*
X134298990Y-114340990D02*
X134298990Y-112329222D01*
X135308977Y-114846975D02*
X135119503Y-114657501D01*
X131552989Y-120669011D02*
X133661989Y-120669011D01*
X130429000Y-121793000D02*
X131552989Y-120669011D01*
X135119503Y-114657501D02*
X134615501Y-114657501D01*
X131964990Y-111633000D02*
X130534333Y-110202343D01*
X133661989Y-120669011D02*
X135308977Y-119022023D01*
X135308977Y-119022023D02*
X135308977Y-114846975D01*
X134298990Y-112329222D02*
X133602768Y-111633000D01*
X131090000Y-105097500D02*
X131090000Y-106787000D01*
X131090000Y-106787000D02*
X131006000Y-106871000D01*
X132538297Y-110981488D02*
X131355500Y-109798691D01*
X132969000Y-121793000D02*
X133300000Y-121793000D01*
X133300000Y-121793000D02*
X135708988Y-119384012D01*
X135708988Y-111365474D02*
X135325002Y-110981488D01*
X135325002Y-110981488D02*
X132538297Y-110981488D01*
X135708988Y-119384012D02*
X135708988Y-111365474D01*
X136108999Y-121447001D02*
X135763000Y-121793000D01*
X136108999Y-111199785D02*
X136108999Y-121447001D01*
X135490691Y-110581477D02*
X136108999Y-111199785D01*
X133008419Y-110581477D02*
X135490691Y-110581477D01*
X131740000Y-109313058D02*
X133008419Y-110581477D01*
X131740000Y-105097500D02*
X131740000Y-109313058D01*
X138336001Y-117167712D02*
X138336001Y-121886999D01*
X135892822Y-110109000D02*
X136652000Y-110868178D01*
X133735232Y-110109000D02*
X135892822Y-110109000D01*
X138336001Y-121886999D02*
X138303000Y-121920000D01*
X136652000Y-115483711D02*
X138336001Y-117167712D01*
X136652000Y-110868178D02*
X136652000Y-115483711D01*
X132978990Y-109352758D02*
X133735232Y-110109000D01*
X132978990Y-107048010D02*
X132978990Y-109352758D01*
X132390000Y-106459020D02*
X132978990Y-107048010D01*
X132390000Y-105097500D02*
X132390000Y-106459020D01*
X127381000Y-122301000D02*
X127107590Y-122301000D01*
X125594000Y-121908500D02*
X125476000Y-122026500D01*
X125594000Y-121022000D02*
X125594000Y-121908500D01*
X131191000Y-101219000D02*
X131318000Y-101346000D01*
X131191000Y-97155000D02*
X131191000Y-101219000D01*
X130683000Y-96647000D02*
X131191000Y-97155000D01*
X127850990Y-119214520D02*
X127850990Y-108927018D01*
X125594000Y-120787410D02*
X126786400Y-119595010D01*
X125594000Y-121022000D02*
X125594000Y-120787410D01*
X127850990Y-108927018D02*
X127952500Y-108825508D01*
X127470500Y-119595010D02*
X127850990Y-119214520D01*
X126786400Y-119595010D02*
X127470500Y-119595010D01*
X126851000Y-122124000D02*
X127063500Y-122336500D01*
X125759000Y-122124000D02*
X126851000Y-122124000D01*
X125594000Y-121959000D02*
X125759000Y-122124000D01*
X125594000Y-121022000D02*
X125594000Y-121959000D01*
X133223000Y-96979000D02*
X133223000Y-96647000D01*
X131740000Y-98462000D02*
X133223000Y-96979000D01*
X131740000Y-99372500D02*
X131740000Y-98462000D01*
X138976490Y-98145990D02*
X137477500Y-98145990D01*
X141409990Y-100579490D02*
X138976490Y-98145990D01*
X142484510Y-100579490D02*
X141409990Y-100579490D01*
X142541000Y-100523000D02*
X142484510Y-100579490D01*
X134493000Y-97790000D02*
X135763000Y-96520000D01*
X133212000Y-97790000D02*
X134493000Y-97790000D01*
X132390000Y-98612000D02*
X133212000Y-97790000D01*
X132390000Y-99441000D02*
X132390000Y-98612000D01*
X136206000Y-105106004D02*
X136206000Y-107446000D01*
X132804180Y-101704184D02*
X136206000Y-105106004D01*
X132804180Y-101459987D02*
X132804180Y-101704184D01*
X132390000Y-101045807D02*
X132804180Y-101459987D01*
X132390000Y-99441000D02*
X132390000Y-101045807D01*
X137156498Y-109821498D02*
X136506000Y-109171000D01*
X138736012Y-118493012D02*
X138736012Y-117002016D01*
X137156498Y-115422502D02*
X137156498Y-109821498D01*
X138736012Y-117002016D02*
X137156498Y-115422502D01*
X139684000Y-119441000D02*
X138736012Y-118493012D01*
X141843000Y-119441000D02*
X139684000Y-119441000D01*
X136811000Y-99761000D02*
X136811000Y-97393996D01*
X137557996Y-96647000D02*
X138303000Y-96647000D01*
X136811000Y-97393996D02*
X137557996Y-96647000D01*
X133242000Y-100457000D02*
X133040000Y-100255000D01*
X133040000Y-100255000D02*
X133040000Y-99441000D01*
X136136991Y-100457000D02*
X133242000Y-100457000D01*
X136811000Y-99763500D02*
X136811000Y-99761000D01*
X136139491Y-100435009D02*
X136811000Y-99763500D01*
X136136991Y-100435009D02*
X136139491Y-100435009D01*
X103537500Y-108585000D02*
X103537500Y-110585000D01*
X103537500Y-110585000D02*
X103537500Y-113085000D01*
X103537500Y-108585000D02*
X103537500Y-106685000D01*
X105837500Y-112485000D02*
X106237500Y-112085000D01*
X103537500Y-112485000D02*
X105837500Y-112485000D01*
X105837500Y-106685000D02*
X106237500Y-107085000D01*
X103537500Y-106685000D02*
X105837500Y-106685000D01*
G04 #@! TA.AperFunction,Conductor*
G36*
X145950826Y-102383674D02*
G01*
X145972500Y-102436000D01*
X145972500Y-102743000D01*
X147272500Y-102743000D01*
X147272500Y-102620152D01*
X147294174Y-102567826D01*
X147346500Y-102546152D01*
X147398826Y-102567826D01*
X149584326Y-104753326D01*
X149606000Y-104805652D01*
X149606000Y-104825744D01*
X149584326Y-104878070D01*
X149532000Y-104899744D01*
X149517564Y-104898322D01*
X149470698Y-104889000D01*
X147955000Y-104889000D01*
X147955000Y-106490000D01*
X147933326Y-106542326D01*
X147881000Y-106564000D01*
X147701000Y-106564000D01*
X147701000Y-106744000D01*
X147679326Y-106796326D01*
X147627000Y-106818000D01*
X145751000Y-106818000D01*
X145751000Y-108003000D01*
X145729326Y-108055326D01*
X145677000Y-108077000D01*
X144219000Y-108077000D01*
X144166674Y-108055326D01*
X144145000Y-108003000D01*
X144145000Y-105069302D01*
X145751000Y-105069302D01*
X145751000Y-106310000D01*
X147447000Y-106310000D01*
X147447000Y-104889000D01*
X145931303Y-104889000D01*
X145872964Y-104900603D01*
X145806808Y-104944807D01*
X145806807Y-104944808D01*
X145762603Y-105010964D01*
X145751000Y-105069302D01*
X144145000Y-105069302D01*
X144145000Y-103616697D01*
X145972500Y-103616697D01*
X145984103Y-103675035D01*
X146028307Y-103741191D01*
X146028308Y-103741192D01*
X146094464Y-103785396D01*
X146152803Y-103797000D01*
X146368500Y-103797000D01*
X146876500Y-103797000D01*
X147092197Y-103797000D01*
X147150535Y-103785396D01*
X147216691Y-103741192D01*
X147216692Y-103741191D01*
X147260896Y-103675035D01*
X147272500Y-103616697D01*
X147272500Y-103251000D01*
X146876500Y-103251000D01*
X146876500Y-103797000D01*
X146368500Y-103797000D01*
X146368500Y-103251000D01*
X145972500Y-103251000D01*
X145972500Y-103616697D01*
X144145000Y-103616697D01*
X144145000Y-103278500D01*
X144166674Y-103226174D01*
X144219000Y-103204500D01*
X144559000Y-103204500D01*
X145067000Y-103204500D01*
X145612697Y-103204500D01*
X145671035Y-103192896D01*
X145722036Y-103158819D01*
X145737191Y-103148692D01*
X145737192Y-103148691D01*
X145781396Y-103082535D01*
X145793000Y-103024197D01*
X145793000Y-102933500D01*
X145067000Y-102933500D01*
X145067000Y-103204500D01*
X144559000Y-103204500D01*
X144559000Y-102753500D01*
X144580674Y-102701174D01*
X144633000Y-102679500D01*
X144813000Y-102679500D01*
X144813000Y-102499500D01*
X144834674Y-102447174D01*
X144887000Y-102425500D01*
X145793000Y-102425500D01*
X145800424Y-102418075D01*
X145814674Y-102383674D01*
X145867000Y-102362000D01*
X145898500Y-102362000D01*
X145950826Y-102383674D01*
G37*
G04 #@! TD.AperFunction*
G04 #@! TA.AperFunction,Conductor*
G36*
X111067121Y-116302002D02*
G01*
X111113614Y-116355658D01*
X111125000Y-116408000D01*
X111125000Y-120854000D01*
X111408409Y-120854000D01*
X111476530Y-120874002D01*
X111523023Y-120927658D01*
X111533127Y-120997932D01*
X111531391Y-121005650D01*
X111522890Y-121064000D01*
X113501109Y-121064000D01*
X113492064Y-121001910D01*
X113494984Y-121001484D01*
X113494208Y-120946203D01*
X113531749Y-120885944D01*
X113595910Y-120855547D01*
X113615591Y-120854000D01*
X113793000Y-120854000D01*
X113861121Y-120874002D01*
X113907614Y-120927658D01*
X113919000Y-120980000D01*
X113919000Y-121998000D01*
X113916408Y-122006825D01*
X113917718Y-122015932D01*
X113906562Y-122040357D01*
X113898998Y-122066121D01*
X113892044Y-122072145D01*
X113888224Y-122080512D01*
X113865638Y-122095026D01*
X113845342Y-122112614D01*
X113834655Y-122114938D01*
X113828498Y-122118896D01*
X113793000Y-122124000D01*
X113630771Y-122124000D01*
X113562650Y-122103998D01*
X113516157Y-122050342D01*
X113512890Y-122027620D01*
X113501110Y-122014000D01*
X111522890Y-122014000D01*
X111514286Y-122023947D01*
X111510468Y-122032306D01*
X111507941Y-122050126D01*
X111496026Y-122063928D01*
X111488453Y-122080512D01*
X111473312Y-122090242D01*
X111461550Y-122103869D01*
X111444064Y-122109039D01*
X111428727Y-122118896D01*
X111393692Y-122123933D01*
X111393467Y-122124000D01*
X111177190Y-122124000D01*
X111109069Y-122103998D01*
X111088095Y-122087095D01*
X110715000Y-121714000D01*
X111522890Y-121714000D01*
X112362000Y-121714000D01*
X112662000Y-121714000D01*
X113501109Y-121714000D01*
X113493474Y-121661594D01*
X113493474Y-121661591D01*
X113460596Y-121594339D01*
X113448647Y-121524355D01*
X113460596Y-121483661D01*
X113493474Y-121416408D01*
X113493474Y-121416405D01*
X113501110Y-121364000D01*
X112662000Y-121364000D01*
X112662000Y-121714000D01*
X112362000Y-121714000D01*
X112362000Y-121364000D01*
X111531769Y-121364000D01*
X111571476Y-121504801D01*
X111570714Y-121575794D01*
X111563404Y-121594338D01*
X111530525Y-121661593D01*
X111530525Y-121661594D01*
X111522890Y-121714000D01*
X110715000Y-121714000D01*
X110399905Y-121398905D01*
X110365879Y-121336593D01*
X110363000Y-121309810D01*
X110363000Y-119330000D01*
X108383190Y-119330000D01*
X108315069Y-119309998D01*
X108294095Y-119293095D01*
X107605905Y-118604905D01*
X107571879Y-118542593D01*
X107569000Y-118515810D01*
X107569000Y-117696000D01*
X107848997Y-117696000D01*
X108615555Y-117696000D01*
X108593000Y-117780174D01*
X108593000Y-117911826D01*
X108615555Y-117996000D01*
X107848997Y-117996000D01*
X107866185Y-118104524D01*
X107919883Y-118269788D01*
X107919884Y-118269790D01*
X107998776Y-118424625D01*
X108100917Y-118565210D01*
X108223789Y-118688082D01*
X108364374Y-118790223D01*
X108519209Y-118869115D01*
X108519211Y-118869116D01*
X108684475Y-118922814D01*
X108856116Y-118950000D01*
X108943000Y-118950000D01*
X108943000Y-118323445D01*
X109027174Y-118346000D01*
X109158826Y-118346000D01*
X109243000Y-118323445D01*
X109243000Y-118950000D01*
X109329884Y-118950000D01*
X109501524Y-118922814D01*
X109666788Y-118869116D01*
X109666790Y-118869115D01*
X109821625Y-118790223D01*
X109962210Y-118688082D01*
X110085082Y-118565210D01*
X110187223Y-118424625D01*
X110266115Y-118269790D01*
X110266116Y-118269788D01*
X110319814Y-118104524D01*
X110337003Y-117996000D01*
X109570445Y-117996000D01*
X109593000Y-117911826D01*
X109593000Y-117780174D01*
X109570445Y-117696000D01*
X110337003Y-117696000D01*
X110319814Y-117587475D01*
X110266116Y-117422211D01*
X110266115Y-117422209D01*
X110187223Y-117267374D01*
X110085082Y-117126789D01*
X109962210Y-117003917D01*
X109821625Y-116901776D01*
X109666790Y-116822884D01*
X109666788Y-116822883D01*
X109501524Y-116769185D01*
X109329884Y-116742000D01*
X109243000Y-116742000D01*
X109243000Y-117368554D01*
X109158826Y-117346000D01*
X109027174Y-117346000D01*
X108943000Y-117368554D01*
X108943000Y-116742000D01*
X108856116Y-116742000D01*
X108684475Y-116769185D01*
X108519211Y-116822883D01*
X108519209Y-116822884D01*
X108364374Y-116901776D01*
X108223789Y-117003917D01*
X108100917Y-117126789D01*
X107998776Y-117267374D01*
X107919884Y-117422209D01*
X107919883Y-117422211D01*
X107866185Y-117587475D01*
X107848997Y-117696000D01*
X107569000Y-117696000D01*
X107569000Y-117096190D01*
X107589002Y-117028069D01*
X107605905Y-117007095D01*
X108294095Y-116318905D01*
X108356407Y-116284879D01*
X108383190Y-116282000D01*
X110999000Y-116282000D01*
X111067121Y-116302002D01*
G37*
G04 #@! TD.AperFunction*
M02*
