G04 #@! TF.GenerationSoftware,KiCad,Pcbnew,9.0.0*
G04 #@! TF.CreationDate,2025-03-02T20:38:03-08:00*
G04 #@! TF.ProjectId,SuperPower-uC-KiCad,53757065-7250-46f7-9765-722d75432d4b,rev?*
G04 #@! TF.SameCoordinates,Original*
G04 #@! TF.FileFunction,Legend,Bot*
G04 #@! TF.FilePolarity,Positive*
%FSLAX46Y46*%
G04 Gerber Fmt 4.6, Leading zero omitted, Abs format (unit mm)*
G04 Created by KiCad (PCBNEW 9.0.0) date 2025-03-02 20:38:03*
%MOMM*%
%LPD*%
G01*
G04 APERTURE LIST*
%ADD10C,0.150000*%
%ADD11C,0.120000*%
G04 APERTURE END LIST*
D10*
X138234009Y-117078333D02*
X138234009Y-117411666D01*
X138757819Y-117554523D02*
X138757819Y-117078333D01*
X138757819Y-117078333D02*
X137757819Y-117078333D01*
X137757819Y-117078333D02*
X137757819Y-117554523D01*
X137757819Y-117887857D02*
X138757819Y-118554523D01*
X137757819Y-118554523D02*
X138757819Y-117887857D01*
X138757819Y-118935476D02*
X137757819Y-118935476D01*
X137757819Y-118935476D02*
X137757819Y-119316428D01*
X137757819Y-119316428D02*
X137805438Y-119411666D01*
X137805438Y-119411666D02*
X137853057Y-119459285D01*
X137853057Y-119459285D02*
X137948295Y-119506904D01*
X137948295Y-119506904D02*
X138091152Y-119506904D01*
X138091152Y-119506904D02*
X138186390Y-119459285D01*
X138186390Y-119459285D02*
X138234009Y-119411666D01*
X138234009Y-119411666D02*
X138281628Y-119316428D01*
X138281628Y-119316428D02*
X138281628Y-118935476D01*
X137757819Y-119840238D02*
X137757819Y-120506904D01*
X137757819Y-120506904D02*
X138757819Y-120078333D01*
X135694009Y-117078333D02*
X135694009Y-117411666D01*
X136217819Y-117554523D02*
X136217819Y-117078333D01*
X136217819Y-117078333D02*
X135217819Y-117078333D01*
X135217819Y-117078333D02*
X135217819Y-117554523D01*
X135217819Y-117887857D02*
X136217819Y-118554523D01*
X135217819Y-118554523D02*
X136217819Y-117887857D01*
X136217819Y-118935476D02*
X135217819Y-118935476D01*
X135217819Y-118935476D02*
X135217819Y-119316428D01*
X135217819Y-119316428D02*
X135265438Y-119411666D01*
X135265438Y-119411666D02*
X135313057Y-119459285D01*
X135313057Y-119459285D02*
X135408295Y-119506904D01*
X135408295Y-119506904D02*
X135551152Y-119506904D01*
X135551152Y-119506904D02*
X135646390Y-119459285D01*
X135646390Y-119459285D02*
X135694009Y-119411666D01*
X135694009Y-119411666D02*
X135741628Y-119316428D01*
X135741628Y-119316428D02*
X135741628Y-118935476D01*
X135217819Y-120364047D02*
X135217819Y-120173571D01*
X135217819Y-120173571D02*
X135265438Y-120078333D01*
X135265438Y-120078333D02*
X135313057Y-120030714D01*
X135313057Y-120030714D02*
X135455914Y-119935476D01*
X135455914Y-119935476D02*
X135646390Y-119887857D01*
X135646390Y-119887857D02*
X136027342Y-119887857D01*
X136027342Y-119887857D02*
X136122580Y-119935476D01*
X136122580Y-119935476D02*
X136170200Y-119983095D01*
X136170200Y-119983095D02*
X136217819Y-120078333D01*
X136217819Y-120078333D02*
X136217819Y-120268809D01*
X136217819Y-120268809D02*
X136170200Y-120364047D01*
X136170200Y-120364047D02*
X136122580Y-120411666D01*
X136122580Y-120411666D02*
X136027342Y-120459285D01*
X136027342Y-120459285D02*
X135789247Y-120459285D01*
X135789247Y-120459285D02*
X135694009Y-120411666D01*
X135694009Y-120411666D02*
X135646390Y-120364047D01*
X135646390Y-120364047D02*
X135598771Y-120268809D01*
X135598771Y-120268809D02*
X135598771Y-120078333D01*
X135598771Y-120078333D02*
X135646390Y-119983095D01*
X135646390Y-119983095D02*
X135694009Y-119935476D01*
X135694009Y-119935476D02*
X135789247Y-119887857D01*
X133154009Y-117078333D02*
X133154009Y-117411666D01*
X133677819Y-117554523D02*
X133677819Y-117078333D01*
X133677819Y-117078333D02*
X132677819Y-117078333D01*
X132677819Y-117078333D02*
X132677819Y-117554523D01*
X132677819Y-117887857D02*
X133677819Y-118554523D01*
X132677819Y-118554523D02*
X133677819Y-117887857D01*
X133677819Y-118935476D02*
X132677819Y-118935476D01*
X132677819Y-118935476D02*
X132677819Y-119316428D01*
X132677819Y-119316428D02*
X132725438Y-119411666D01*
X132725438Y-119411666D02*
X132773057Y-119459285D01*
X132773057Y-119459285D02*
X132868295Y-119506904D01*
X132868295Y-119506904D02*
X133011152Y-119506904D01*
X133011152Y-119506904D02*
X133106390Y-119459285D01*
X133106390Y-119459285D02*
X133154009Y-119411666D01*
X133154009Y-119411666D02*
X133201628Y-119316428D01*
X133201628Y-119316428D02*
X133201628Y-118935476D01*
X132677819Y-120411666D02*
X132677819Y-119935476D01*
X132677819Y-119935476D02*
X133154009Y-119887857D01*
X133154009Y-119887857D02*
X133106390Y-119935476D01*
X133106390Y-119935476D02*
X133058771Y-120030714D01*
X133058771Y-120030714D02*
X133058771Y-120268809D01*
X133058771Y-120268809D02*
X133106390Y-120364047D01*
X133106390Y-120364047D02*
X133154009Y-120411666D01*
X133154009Y-120411666D02*
X133249247Y-120459285D01*
X133249247Y-120459285D02*
X133487342Y-120459285D01*
X133487342Y-120459285D02*
X133582580Y-120411666D01*
X133582580Y-120411666D02*
X133630200Y-120364047D01*
X133630200Y-120364047D02*
X133677819Y-120268809D01*
X133677819Y-120268809D02*
X133677819Y-120030714D01*
X133677819Y-120030714D02*
X133630200Y-119935476D01*
X133630200Y-119935476D02*
X133582580Y-119887857D01*
X130741009Y-117205333D02*
X130741009Y-117538666D01*
X131264819Y-117681523D02*
X131264819Y-117205333D01*
X131264819Y-117205333D02*
X130264819Y-117205333D01*
X130264819Y-117205333D02*
X130264819Y-117681523D01*
X130264819Y-118014857D02*
X131264819Y-118681523D01*
X130264819Y-118681523D02*
X131264819Y-118014857D01*
X131264819Y-119062476D02*
X130264819Y-119062476D01*
X130264819Y-119062476D02*
X130264819Y-119443428D01*
X130264819Y-119443428D02*
X130312438Y-119538666D01*
X130312438Y-119538666D02*
X130360057Y-119586285D01*
X130360057Y-119586285D02*
X130455295Y-119633904D01*
X130455295Y-119633904D02*
X130598152Y-119633904D01*
X130598152Y-119633904D02*
X130693390Y-119586285D01*
X130693390Y-119586285D02*
X130741009Y-119538666D01*
X130741009Y-119538666D02*
X130788628Y-119443428D01*
X130788628Y-119443428D02*
X130788628Y-119062476D01*
X130598152Y-120491047D02*
X131264819Y-120491047D01*
X130217200Y-120252952D02*
X130931485Y-120014857D01*
X130931485Y-120014857D02*
X130931485Y-120633904D01*
X140297819Y-118316524D02*
X140297819Y-118935571D01*
X140297819Y-118935571D02*
X140678771Y-118602238D01*
X140678771Y-118602238D02*
X140678771Y-118745095D01*
X140678771Y-118745095D02*
X140726390Y-118840333D01*
X140726390Y-118840333D02*
X140774009Y-118887952D01*
X140774009Y-118887952D02*
X140869247Y-118935571D01*
X140869247Y-118935571D02*
X141107342Y-118935571D01*
X141107342Y-118935571D02*
X141202580Y-118887952D01*
X141202580Y-118887952D02*
X141250200Y-118840333D01*
X141250200Y-118840333D02*
X141297819Y-118745095D01*
X141297819Y-118745095D02*
X141297819Y-118459381D01*
X141297819Y-118459381D02*
X141250200Y-118364143D01*
X141250200Y-118364143D02*
X141202580Y-118316524D01*
X140631152Y-119268905D02*
X141297819Y-119507000D01*
X141297819Y-119507000D02*
X140631152Y-119745095D01*
X140297819Y-120030810D02*
X140297819Y-120649857D01*
X140297819Y-120649857D02*
X140678771Y-120316524D01*
X140678771Y-120316524D02*
X140678771Y-120459381D01*
X140678771Y-120459381D02*
X140726390Y-120554619D01*
X140726390Y-120554619D02*
X140774009Y-120602238D01*
X140774009Y-120602238D02*
X140869247Y-120649857D01*
X140869247Y-120649857D02*
X141107342Y-120649857D01*
X141107342Y-120649857D02*
X141202580Y-120602238D01*
X141202580Y-120602238D02*
X141250200Y-120554619D01*
X141250200Y-120554619D02*
X141297819Y-120459381D01*
X141297819Y-120459381D02*
X141297819Y-120173667D01*
X141297819Y-120173667D02*
X141250200Y-120078429D01*
X141250200Y-120078429D02*
X141202580Y-120030810D01*
X143091819Y-114308333D02*
X143091819Y-114927380D01*
X143091819Y-114927380D02*
X143472771Y-114594047D01*
X143472771Y-114594047D02*
X143472771Y-114736904D01*
X143472771Y-114736904D02*
X143520390Y-114832142D01*
X143520390Y-114832142D02*
X143568009Y-114879761D01*
X143568009Y-114879761D02*
X143663247Y-114927380D01*
X143663247Y-114927380D02*
X143901342Y-114927380D01*
X143901342Y-114927380D02*
X143996580Y-114879761D01*
X143996580Y-114879761D02*
X144044200Y-114832142D01*
X144044200Y-114832142D02*
X144091819Y-114736904D01*
X144091819Y-114736904D02*
X144091819Y-114451190D01*
X144091819Y-114451190D02*
X144044200Y-114355952D01*
X144044200Y-114355952D02*
X143996580Y-114308333D01*
X143425152Y-115260714D02*
X144091819Y-115498809D01*
X144091819Y-115498809D02*
X143425152Y-115736904D01*
X143091819Y-116022619D02*
X143091819Y-116641666D01*
X143091819Y-116641666D02*
X143472771Y-116308333D01*
X143472771Y-116308333D02*
X143472771Y-116451190D01*
X143472771Y-116451190D02*
X143520390Y-116546428D01*
X143520390Y-116546428D02*
X143568009Y-116594047D01*
X143568009Y-116594047D02*
X143663247Y-116641666D01*
X143663247Y-116641666D02*
X143901342Y-116641666D01*
X143901342Y-116641666D02*
X143996580Y-116594047D01*
X143996580Y-116594047D02*
X144044200Y-116546428D01*
X144044200Y-116546428D02*
X144091819Y-116451190D01*
X144091819Y-116451190D02*
X144091819Y-116165476D01*
X144091819Y-116165476D02*
X144044200Y-116070238D01*
X144044200Y-116070238D02*
X143996580Y-116022619D01*
X144187057Y-116832143D02*
X144187057Y-117594047D01*
X144091819Y-117832143D02*
X143091819Y-117832143D01*
X143091819Y-117832143D02*
X143806104Y-118165476D01*
X143806104Y-118165476D02*
X143091819Y-118498809D01*
X143091819Y-118498809D02*
X144091819Y-118498809D01*
X143996580Y-119546428D02*
X144044200Y-119498809D01*
X144044200Y-119498809D02*
X144091819Y-119355952D01*
X144091819Y-119355952D02*
X144091819Y-119260714D01*
X144091819Y-119260714D02*
X144044200Y-119117857D01*
X144044200Y-119117857D02*
X143948961Y-119022619D01*
X143948961Y-119022619D02*
X143853723Y-118975000D01*
X143853723Y-118975000D02*
X143663247Y-118927381D01*
X143663247Y-118927381D02*
X143520390Y-118927381D01*
X143520390Y-118927381D02*
X143329914Y-118975000D01*
X143329914Y-118975000D02*
X143234676Y-119022619D01*
X143234676Y-119022619D02*
X143139438Y-119117857D01*
X143139438Y-119117857D02*
X143091819Y-119260714D01*
X143091819Y-119260714D02*
X143091819Y-119355952D01*
X143091819Y-119355952D02*
X143139438Y-119498809D01*
X143139438Y-119498809D02*
X143187057Y-119546428D01*
X143091819Y-119975000D02*
X143901342Y-119975000D01*
X143901342Y-119975000D02*
X143996580Y-120022619D01*
X143996580Y-120022619D02*
X144044200Y-120070238D01*
X144044200Y-120070238D02*
X144091819Y-120165476D01*
X144091819Y-120165476D02*
X144091819Y-120355952D01*
X144091819Y-120355952D02*
X144044200Y-120451190D01*
X144044200Y-120451190D02*
X143996580Y-120498809D01*
X143996580Y-120498809D02*
X143901342Y-120546428D01*
X143901342Y-120546428D02*
X143091819Y-120546428D01*
X145425438Y-118491095D02*
X145377819Y-118395857D01*
X145377819Y-118395857D02*
X145377819Y-118253000D01*
X145377819Y-118253000D02*
X145425438Y-118110143D01*
X145425438Y-118110143D02*
X145520676Y-118014905D01*
X145520676Y-118014905D02*
X145615914Y-117967286D01*
X145615914Y-117967286D02*
X145806390Y-117919667D01*
X145806390Y-117919667D02*
X145949247Y-117919667D01*
X145949247Y-117919667D02*
X146139723Y-117967286D01*
X146139723Y-117967286D02*
X146234961Y-118014905D01*
X146234961Y-118014905D02*
X146330200Y-118110143D01*
X146330200Y-118110143D02*
X146377819Y-118253000D01*
X146377819Y-118253000D02*
X146377819Y-118348238D01*
X146377819Y-118348238D02*
X146330200Y-118491095D01*
X146330200Y-118491095D02*
X146282580Y-118538714D01*
X146282580Y-118538714D02*
X145949247Y-118538714D01*
X145949247Y-118538714D02*
X145949247Y-118348238D01*
X146377819Y-118967286D02*
X145377819Y-118967286D01*
X145377819Y-118967286D02*
X146377819Y-119538714D01*
X146377819Y-119538714D02*
X145377819Y-119538714D01*
X146377819Y-120014905D02*
X145377819Y-120014905D01*
X145377819Y-120014905D02*
X145377819Y-120253000D01*
X145377819Y-120253000D02*
X145425438Y-120395857D01*
X145425438Y-120395857D02*
X145520676Y-120491095D01*
X145520676Y-120491095D02*
X145615914Y-120538714D01*
X145615914Y-120538714D02*
X145806390Y-120586333D01*
X145806390Y-120586333D02*
X145949247Y-120586333D01*
X145949247Y-120586333D02*
X146139723Y-120538714D01*
X146139723Y-120538714D02*
X146234961Y-120491095D01*
X146234961Y-120491095D02*
X146330200Y-120395857D01*
X146330200Y-120395857D02*
X146377819Y-120253000D01*
X146377819Y-120253000D02*
X146377819Y-120014905D01*
X148917819Y-117522810D02*
X147917819Y-117522810D01*
X147917819Y-118189476D02*
X147917819Y-118379952D01*
X147917819Y-118379952D02*
X147965438Y-118475190D01*
X147965438Y-118475190D02*
X148060676Y-118570428D01*
X148060676Y-118570428D02*
X148251152Y-118618047D01*
X148251152Y-118618047D02*
X148584485Y-118618047D01*
X148584485Y-118618047D02*
X148774961Y-118570428D01*
X148774961Y-118570428D02*
X148870200Y-118475190D01*
X148870200Y-118475190D02*
X148917819Y-118379952D01*
X148917819Y-118379952D02*
X148917819Y-118189476D01*
X148917819Y-118189476D02*
X148870200Y-118094238D01*
X148870200Y-118094238D02*
X148774961Y-117999000D01*
X148774961Y-117999000D02*
X148584485Y-117951381D01*
X148584485Y-117951381D02*
X148251152Y-117951381D01*
X148251152Y-117951381D02*
X148060676Y-117999000D01*
X148060676Y-117999000D02*
X147965438Y-118094238D01*
X147965438Y-118094238D02*
X147917819Y-118189476D01*
X148917819Y-119570428D02*
X148917819Y-118999000D01*
X148917819Y-119284714D02*
X147917819Y-119284714D01*
X147917819Y-119284714D02*
X148060676Y-119189476D01*
X148060676Y-119189476D02*
X148155914Y-119094238D01*
X148155914Y-119094238D02*
X148203533Y-118999000D01*
X147917819Y-120475190D02*
X147917819Y-119999000D01*
X147917819Y-119999000D02*
X148394009Y-119951381D01*
X148394009Y-119951381D02*
X148346390Y-119999000D01*
X148346390Y-119999000D02*
X148298771Y-120094238D01*
X148298771Y-120094238D02*
X148298771Y-120332333D01*
X148298771Y-120332333D02*
X148346390Y-120427571D01*
X148346390Y-120427571D02*
X148394009Y-120475190D01*
X148394009Y-120475190D02*
X148489247Y-120522809D01*
X148489247Y-120522809D02*
X148727342Y-120522809D01*
X148727342Y-120522809D02*
X148822580Y-120475190D01*
X148822580Y-120475190D02*
X148870200Y-120427571D01*
X148870200Y-120427571D02*
X148917819Y-120332333D01*
X148917819Y-120332333D02*
X148917819Y-120094238D01*
X148917819Y-120094238D02*
X148870200Y-119999000D01*
X148870200Y-119999000D02*
X148822580Y-119951381D01*
X151457819Y-118253000D02*
X150457819Y-118253000D01*
X150457819Y-118919666D02*
X150457819Y-119110142D01*
X150457819Y-119110142D02*
X150505438Y-119205380D01*
X150505438Y-119205380D02*
X150600676Y-119300618D01*
X150600676Y-119300618D02*
X150791152Y-119348237D01*
X150791152Y-119348237D02*
X151124485Y-119348237D01*
X151124485Y-119348237D02*
X151314961Y-119300618D01*
X151314961Y-119300618D02*
X151410200Y-119205380D01*
X151410200Y-119205380D02*
X151457819Y-119110142D01*
X151457819Y-119110142D02*
X151457819Y-118919666D01*
X151457819Y-118919666D02*
X151410200Y-118824428D01*
X151410200Y-118824428D02*
X151314961Y-118729190D01*
X151314961Y-118729190D02*
X151124485Y-118681571D01*
X151124485Y-118681571D02*
X150791152Y-118681571D01*
X150791152Y-118681571D02*
X150600676Y-118729190D01*
X150600676Y-118729190D02*
X150505438Y-118824428D01*
X150505438Y-118824428D02*
X150457819Y-118919666D01*
X150553057Y-119729190D02*
X150505438Y-119776809D01*
X150505438Y-119776809D02*
X150457819Y-119872047D01*
X150457819Y-119872047D02*
X150457819Y-120110142D01*
X150457819Y-120110142D02*
X150505438Y-120205380D01*
X150505438Y-120205380D02*
X150553057Y-120252999D01*
X150553057Y-120252999D02*
X150648295Y-120300618D01*
X150648295Y-120300618D02*
X150743533Y-120300618D01*
X150743533Y-120300618D02*
X150886390Y-120252999D01*
X150886390Y-120252999D02*
X151457819Y-119681571D01*
X151457819Y-119681571D02*
X151457819Y-120300618D01*
X153997819Y-118253000D02*
X152997819Y-118253000D01*
X152997819Y-118919666D02*
X152997819Y-119110142D01*
X152997819Y-119110142D02*
X153045438Y-119205380D01*
X153045438Y-119205380D02*
X153140676Y-119300618D01*
X153140676Y-119300618D02*
X153331152Y-119348237D01*
X153331152Y-119348237D02*
X153664485Y-119348237D01*
X153664485Y-119348237D02*
X153854961Y-119300618D01*
X153854961Y-119300618D02*
X153950200Y-119205380D01*
X153950200Y-119205380D02*
X153997819Y-119110142D01*
X153997819Y-119110142D02*
X153997819Y-118919666D01*
X153997819Y-118919666D02*
X153950200Y-118824428D01*
X153950200Y-118824428D02*
X153854961Y-118729190D01*
X153854961Y-118729190D02*
X153664485Y-118681571D01*
X153664485Y-118681571D02*
X153331152Y-118681571D01*
X153331152Y-118681571D02*
X153140676Y-118729190D01*
X153140676Y-118729190D02*
X153045438Y-118824428D01*
X153045438Y-118824428D02*
X152997819Y-118919666D01*
X153331152Y-120205380D02*
X153997819Y-120205380D01*
X152950200Y-119967285D02*
X153664485Y-119729190D01*
X153664485Y-119729190D02*
X153664485Y-120348237D01*
X156537819Y-117522810D02*
X155537819Y-117522810D01*
X155537819Y-118189476D02*
X155537819Y-118379952D01*
X155537819Y-118379952D02*
X155585438Y-118475190D01*
X155585438Y-118475190D02*
X155680676Y-118570428D01*
X155680676Y-118570428D02*
X155871152Y-118618047D01*
X155871152Y-118618047D02*
X156204485Y-118618047D01*
X156204485Y-118618047D02*
X156394961Y-118570428D01*
X156394961Y-118570428D02*
X156490200Y-118475190D01*
X156490200Y-118475190D02*
X156537819Y-118379952D01*
X156537819Y-118379952D02*
X156537819Y-118189476D01*
X156537819Y-118189476D02*
X156490200Y-118094238D01*
X156490200Y-118094238D02*
X156394961Y-117999000D01*
X156394961Y-117999000D02*
X156204485Y-117951381D01*
X156204485Y-117951381D02*
X155871152Y-117951381D01*
X155871152Y-117951381D02*
X155680676Y-117999000D01*
X155680676Y-117999000D02*
X155585438Y-118094238D01*
X155585438Y-118094238D02*
X155537819Y-118189476D01*
X156537819Y-119570428D02*
X156537819Y-118999000D01*
X156537819Y-119284714D02*
X155537819Y-119284714D01*
X155537819Y-119284714D02*
X155680676Y-119189476D01*
X155680676Y-119189476D02*
X155775914Y-119094238D01*
X155775914Y-119094238D02*
X155823533Y-118999000D01*
X155537819Y-120427571D02*
X155537819Y-120237095D01*
X155537819Y-120237095D02*
X155585438Y-120141857D01*
X155585438Y-120141857D02*
X155633057Y-120094238D01*
X155633057Y-120094238D02*
X155775914Y-119999000D01*
X155775914Y-119999000D02*
X155966390Y-119951381D01*
X155966390Y-119951381D02*
X156347342Y-119951381D01*
X156347342Y-119951381D02*
X156442580Y-119999000D01*
X156442580Y-119999000D02*
X156490200Y-120046619D01*
X156490200Y-120046619D02*
X156537819Y-120141857D01*
X156537819Y-120141857D02*
X156537819Y-120332333D01*
X156537819Y-120332333D02*
X156490200Y-120427571D01*
X156490200Y-120427571D02*
X156442580Y-120475190D01*
X156442580Y-120475190D02*
X156347342Y-120522809D01*
X156347342Y-120522809D02*
X156109247Y-120522809D01*
X156109247Y-120522809D02*
X156014009Y-120475190D01*
X156014009Y-120475190D02*
X155966390Y-120427571D01*
X155966390Y-120427571D02*
X155918771Y-120332333D01*
X155918771Y-120332333D02*
X155918771Y-120141857D01*
X155918771Y-120141857D02*
X155966390Y-120046619D01*
X155966390Y-120046619D02*
X156014009Y-119999000D01*
X156014009Y-119999000D02*
X156109247Y-119951381D01*
X159077819Y-117522810D02*
X158077819Y-117522810D01*
X158077819Y-118189476D02*
X158077819Y-118379952D01*
X158077819Y-118379952D02*
X158125438Y-118475190D01*
X158125438Y-118475190D02*
X158220676Y-118570428D01*
X158220676Y-118570428D02*
X158411152Y-118618047D01*
X158411152Y-118618047D02*
X158744485Y-118618047D01*
X158744485Y-118618047D02*
X158934961Y-118570428D01*
X158934961Y-118570428D02*
X159030200Y-118475190D01*
X159030200Y-118475190D02*
X159077819Y-118379952D01*
X159077819Y-118379952D02*
X159077819Y-118189476D01*
X159077819Y-118189476D02*
X159030200Y-118094238D01*
X159030200Y-118094238D02*
X158934961Y-117999000D01*
X158934961Y-117999000D02*
X158744485Y-117951381D01*
X158744485Y-117951381D02*
X158411152Y-117951381D01*
X158411152Y-117951381D02*
X158220676Y-117999000D01*
X158220676Y-117999000D02*
X158125438Y-118094238D01*
X158125438Y-118094238D02*
X158077819Y-118189476D01*
X159077819Y-119570428D02*
X159077819Y-118999000D01*
X159077819Y-119284714D02*
X158077819Y-119284714D01*
X158077819Y-119284714D02*
X158220676Y-119189476D01*
X158220676Y-119189476D02*
X158315914Y-119094238D01*
X158315914Y-119094238D02*
X158363533Y-118999000D01*
X158077819Y-119903762D02*
X158077819Y-120570428D01*
X158077819Y-120570428D02*
X159077819Y-120141857D01*
X161617819Y-118507000D02*
X160617819Y-118507000D01*
X160617819Y-119173666D02*
X160617819Y-119364142D01*
X160617819Y-119364142D02*
X160665438Y-119459380D01*
X160665438Y-119459380D02*
X160760676Y-119554618D01*
X160760676Y-119554618D02*
X160951152Y-119602237D01*
X160951152Y-119602237D02*
X161284485Y-119602237D01*
X161284485Y-119602237D02*
X161474961Y-119554618D01*
X161474961Y-119554618D02*
X161570200Y-119459380D01*
X161570200Y-119459380D02*
X161617819Y-119364142D01*
X161617819Y-119364142D02*
X161617819Y-119173666D01*
X161617819Y-119173666D02*
X161570200Y-119078428D01*
X161570200Y-119078428D02*
X161474961Y-118983190D01*
X161474961Y-118983190D02*
X161284485Y-118935571D01*
X161284485Y-118935571D02*
X160951152Y-118935571D01*
X160951152Y-118935571D02*
X160760676Y-118983190D01*
X160760676Y-118983190D02*
X160665438Y-119078428D01*
X160665438Y-119078428D02*
X160617819Y-119173666D01*
X160617819Y-120506999D02*
X160617819Y-120030809D01*
X160617819Y-120030809D02*
X161094009Y-119983190D01*
X161094009Y-119983190D02*
X161046390Y-120030809D01*
X161046390Y-120030809D02*
X160998771Y-120126047D01*
X160998771Y-120126047D02*
X160998771Y-120364142D01*
X160998771Y-120364142D02*
X161046390Y-120459380D01*
X161046390Y-120459380D02*
X161094009Y-120506999D01*
X161094009Y-120506999D02*
X161189247Y-120554618D01*
X161189247Y-120554618D02*
X161427342Y-120554618D01*
X161427342Y-120554618D02*
X161522580Y-120506999D01*
X161522580Y-120506999D02*
X161570200Y-120459380D01*
X161570200Y-120459380D02*
X161617819Y-120364142D01*
X161617819Y-120364142D02*
X161617819Y-120126047D01*
X161617819Y-120126047D02*
X161570200Y-120030809D01*
X161570200Y-120030809D02*
X161522580Y-119983190D01*
X164157819Y-117522810D02*
X163157819Y-117522810D01*
X163157819Y-118189476D02*
X163157819Y-118379952D01*
X163157819Y-118379952D02*
X163205438Y-118475190D01*
X163205438Y-118475190D02*
X163300676Y-118570428D01*
X163300676Y-118570428D02*
X163491152Y-118618047D01*
X163491152Y-118618047D02*
X163824485Y-118618047D01*
X163824485Y-118618047D02*
X164014961Y-118570428D01*
X164014961Y-118570428D02*
X164110200Y-118475190D01*
X164110200Y-118475190D02*
X164157819Y-118379952D01*
X164157819Y-118379952D02*
X164157819Y-118189476D01*
X164157819Y-118189476D02*
X164110200Y-118094238D01*
X164110200Y-118094238D02*
X164014961Y-117999000D01*
X164014961Y-117999000D02*
X163824485Y-117951381D01*
X163824485Y-117951381D02*
X163491152Y-117951381D01*
X163491152Y-117951381D02*
X163300676Y-117999000D01*
X163300676Y-117999000D02*
X163205438Y-118094238D01*
X163205438Y-118094238D02*
X163157819Y-118189476D01*
X164157819Y-119570428D02*
X164157819Y-118999000D01*
X164157819Y-119284714D02*
X163157819Y-119284714D01*
X163157819Y-119284714D02*
X163300676Y-119189476D01*
X163300676Y-119189476D02*
X163395914Y-119094238D01*
X163395914Y-119094238D02*
X163443533Y-118999000D01*
X163586390Y-120141857D02*
X163538771Y-120046619D01*
X163538771Y-120046619D02*
X163491152Y-119999000D01*
X163491152Y-119999000D02*
X163395914Y-119951381D01*
X163395914Y-119951381D02*
X163348295Y-119951381D01*
X163348295Y-119951381D02*
X163253057Y-119999000D01*
X163253057Y-119999000D02*
X163205438Y-120046619D01*
X163205438Y-120046619D02*
X163157819Y-120141857D01*
X163157819Y-120141857D02*
X163157819Y-120332333D01*
X163157819Y-120332333D02*
X163205438Y-120427571D01*
X163205438Y-120427571D02*
X163253057Y-120475190D01*
X163253057Y-120475190D02*
X163348295Y-120522809D01*
X163348295Y-120522809D02*
X163395914Y-120522809D01*
X163395914Y-120522809D02*
X163491152Y-120475190D01*
X163491152Y-120475190D02*
X163538771Y-120427571D01*
X163538771Y-120427571D02*
X163586390Y-120332333D01*
X163586390Y-120332333D02*
X163586390Y-120141857D01*
X163586390Y-120141857D02*
X163634009Y-120046619D01*
X163634009Y-120046619D02*
X163681628Y-119999000D01*
X163681628Y-119999000D02*
X163776866Y-119951381D01*
X163776866Y-119951381D02*
X163967342Y-119951381D01*
X163967342Y-119951381D02*
X164062580Y-119999000D01*
X164062580Y-119999000D02*
X164110200Y-120046619D01*
X164110200Y-120046619D02*
X164157819Y-120141857D01*
X164157819Y-120141857D02*
X164157819Y-120332333D01*
X164157819Y-120332333D02*
X164110200Y-120427571D01*
X164110200Y-120427571D02*
X164062580Y-120475190D01*
X164062580Y-120475190D02*
X163967342Y-120522809D01*
X163967342Y-120522809D02*
X163776866Y-120522809D01*
X163776866Y-120522809D02*
X163681628Y-120475190D01*
X163681628Y-120475190D02*
X163634009Y-120427571D01*
X163634009Y-120427571D02*
X163586390Y-120332333D01*
X166697819Y-117522810D02*
X165697819Y-117522810D01*
X165697819Y-118189476D02*
X165697819Y-118379952D01*
X165697819Y-118379952D02*
X165745438Y-118475190D01*
X165745438Y-118475190D02*
X165840676Y-118570428D01*
X165840676Y-118570428D02*
X166031152Y-118618047D01*
X166031152Y-118618047D02*
X166364485Y-118618047D01*
X166364485Y-118618047D02*
X166554961Y-118570428D01*
X166554961Y-118570428D02*
X166650200Y-118475190D01*
X166650200Y-118475190D02*
X166697819Y-118379952D01*
X166697819Y-118379952D02*
X166697819Y-118189476D01*
X166697819Y-118189476D02*
X166650200Y-118094238D01*
X166650200Y-118094238D02*
X166554961Y-117999000D01*
X166554961Y-117999000D02*
X166364485Y-117951381D01*
X166364485Y-117951381D02*
X166031152Y-117951381D01*
X166031152Y-117951381D02*
X165840676Y-117999000D01*
X165840676Y-117999000D02*
X165745438Y-118094238D01*
X165745438Y-118094238D02*
X165697819Y-118189476D01*
X166697819Y-119570428D02*
X166697819Y-118999000D01*
X166697819Y-119284714D02*
X165697819Y-119284714D01*
X165697819Y-119284714D02*
X165840676Y-119189476D01*
X165840676Y-119189476D02*
X165935914Y-119094238D01*
X165935914Y-119094238D02*
X165983533Y-118999000D01*
X166697819Y-120046619D02*
X166697819Y-120237095D01*
X166697819Y-120237095D02*
X166650200Y-120332333D01*
X166650200Y-120332333D02*
X166602580Y-120379952D01*
X166602580Y-120379952D02*
X166459723Y-120475190D01*
X166459723Y-120475190D02*
X166269247Y-120522809D01*
X166269247Y-120522809D02*
X165888295Y-120522809D01*
X165888295Y-120522809D02*
X165793057Y-120475190D01*
X165793057Y-120475190D02*
X165745438Y-120427571D01*
X165745438Y-120427571D02*
X165697819Y-120332333D01*
X165697819Y-120332333D02*
X165697819Y-120141857D01*
X165697819Y-120141857D02*
X165745438Y-120046619D01*
X165745438Y-120046619D02*
X165793057Y-119999000D01*
X165793057Y-119999000D02*
X165888295Y-119951381D01*
X165888295Y-119951381D02*
X166126390Y-119951381D01*
X166126390Y-119951381D02*
X166221628Y-119999000D01*
X166221628Y-119999000D02*
X166269247Y-120046619D01*
X166269247Y-120046619D02*
X166316866Y-120141857D01*
X166316866Y-120141857D02*
X166316866Y-120332333D01*
X166316866Y-120332333D02*
X166269247Y-120427571D01*
X166269247Y-120427571D02*
X166221628Y-120475190D01*
X166221628Y-120475190D02*
X166126390Y-120522809D01*
X169190200Y-118038714D02*
X169237819Y-118181571D01*
X169237819Y-118181571D02*
X169237819Y-118419666D01*
X169237819Y-118419666D02*
X169190200Y-118514904D01*
X169190200Y-118514904D02*
X169142580Y-118562523D01*
X169142580Y-118562523D02*
X169047342Y-118610142D01*
X169047342Y-118610142D02*
X168952104Y-118610142D01*
X168952104Y-118610142D02*
X168856866Y-118562523D01*
X168856866Y-118562523D02*
X168809247Y-118514904D01*
X168809247Y-118514904D02*
X168761628Y-118419666D01*
X168761628Y-118419666D02*
X168714009Y-118229190D01*
X168714009Y-118229190D02*
X168666390Y-118133952D01*
X168666390Y-118133952D02*
X168618771Y-118086333D01*
X168618771Y-118086333D02*
X168523533Y-118038714D01*
X168523533Y-118038714D02*
X168428295Y-118038714D01*
X168428295Y-118038714D02*
X168333057Y-118086333D01*
X168333057Y-118086333D02*
X168285438Y-118133952D01*
X168285438Y-118133952D02*
X168237819Y-118229190D01*
X168237819Y-118229190D02*
X168237819Y-118467285D01*
X168237819Y-118467285D02*
X168285438Y-118610142D01*
X169237819Y-119038714D02*
X168237819Y-119038714D01*
X168237819Y-119038714D02*
X168237819Y-119276809D01*
X168237819Y-119276809D02*
X168285438Y-119419666D01*
X168285438Y-119419666D02*
X168380676Y-119514904D01*
X168380676Y-119514904D02*
X168475914Y-119562523D01*
X168475914Y-119562523D02*
X168666390Y-119610142D01*
X168666390Y-119610142D02*
X168809247Y-119610142D01*
X168809247Y-119610142D02*
X168999723Y-119562523D01*
X168999723Y-119562523D02*
X169094961Y-119514904D01*
X169094961Y-119514904D02*
X169190200Y-119419666D01*
X169190200Y-119419666D02*
X169237819Y-119276809D01*
X169237819Y-119276809D02*
X169237819Y-119038714D01*
X168952104Y-119991095D02*
X168952104Y-120467285D01*
X169237819Y-119895857D02*
X168237819Y-120229190D01*
X168237819Y-120229190D02*
X169237819Y-120562523D01*
X173317819Y-118745095D02*
X173317819Y-119316523D01*
X174317819Y-119030809D02*
X173317819Y-119030809D01*
X173317819Y-119554619D02*
X174317819Y-120221285D01*
X173317819Y-120221285D02*
X174317819Y-119554619D01*
X171777819Y-119340333D02*
X171301628Y-119007000D01*
X171777819Y-118768905D02*
X170777819Y-118768905D01*
X170777819Y-118768905D02*
X170777819Y-119149857D01*
X170777819Y-119149857D02*
X170825438Y-119245095D01*
X170825438Y-119245095D02*
X170873057Y-119292714D01*
X170873057Y-119292714D02*
X170968295Y-119340333D01*
X170968295Y-119340333D02*
X171111152Y-119340333D01*
X171111152Y-119340333D02*
X171206390Y-119292714D01*
X171206390Y-119292714D02*
X171254009Y-119245095D01*
X171254009Y-119245095D02*
X171301628Y-119149857D01*
X171301628Y-119149857D02*
X171301628Y-118768905D01*
X170777819Y-119673667D02*
X171777819Y-120340333D01*
X170777819Y-120340333D02*
X171777819Y-119673667D01*
X176810200Y-117808524D02*
X176857819Y-117951381D01*
X176857819Y-117951381D02*
X176857819Y-118189476D01*
X176857819Y-118189476D02*
X176810200Y-118284714D01*
X176810200Y-118284714D02*
X176762580Y-118332333D01*
X176762580Y-118332333D02*
X176667342Y-118379952D01*
X176667342Y-118379952D02*
X176572104Y-118379952D01*
X176572104Y-118379952D02*
X176476866Y-118332333D01*
X176476866Y-118332333D02*
X176429247Y-118284714D01*
X176429247Y-118284714D02*
X176381628Y-118189476D01*
X176381628Y-118189476D02*
X176334009Y-117999000D01*
X176334009Y-117999000D02*
X176286390Y-117903762D01*
X176286390Y-117903762D02*
X176238771Y-117856143D01*
X176238771Y-117856143D02*
X176143533Y-117808524D01*
X176143533Y-117808524D02*
X176048295Y-117808524D01*
X176048295Y-117808524D02*
X175953057Y-117856143D01*
X175953057Y-117856143D02*
X175905438Y-117903762D01*
X175905438Y-117903762D02*
X175857819Y-117999000D01*
X175857819Y-117999000D02*
X175857819Y-118237095D01*
X175857819Y-118237095D02*
X175905438Y-118379952D01*
X176762580Y-119379952D02*
X176810200Y-119332333D01*
X176810200Y-119332333D02*
X176857819Y-119189476D01*
X176857819Y-119189476D02*
X176857819Y-119094238D01*
X176857819Y-119094238D02*
X176810200Y-118951381D01*
X176810200Y-118951381D02*
X176714961Y-118856143D01*
X176714961Y-118856143D02*
X176619723Y-118808524D01*
X176619723Y-118808524D02*
X176429247Y-118760905D01*
X176429247Y-118760905D02*
X176286390Y-118760905D01*
X176286390Y-118760905D02*
X176095914Y-118808524D01*
X176095914Y-118808524D02*
X176000676Y-118856143D01*
X176000676Y-118856143D02*
X175905438Y-118951381D01*
X175905438Y-118951381D02*
X175857819Y-119094238D01*
X175857819Y-119094238D02*
X175857819Y-119189476D01*
X175857819Y-119189476D02*
X175905438Y-119332333D01*
X175905438Y-119332333D02*
X175953057Y-119379952D01*
X176857819Y-120284714D02*
X176857819Y-119808524D01*
X176857819Y-119808524D02*
X175857819Y-119808524D01*
X179397819Y-117345810D02*
X178397819Y-117345810D01*
X178397819Y-118012476D02*
X178397819Y-118202952D01*
X178397819Y-118202952D02*
X178445438Y-118298190D01*
X178445438Y-118298190D02*
X178540676Y-118393428D01*
X178540676Y-118393428D02*
X178731152Y-118441047D01*
X178731152Y-118441047D02*
X179064485Y-118441047D01*
X179064485Y-118441047D02*
X179254961Y-118393428D01*
X179254961Y-118393428D02*
X179350200Y-118298190D01*
X179350200Y-118298190D02*
X179397819Y-118202952D01*
X179397819Y-118202952D02*
X179397819Y-118012476D01*
X179397819Y-118012476D02*
X179350200Y-117917238D01*
X179350200Y-117917238D02*
X179254961Y-117822000D01*
X179254961Y-117822000D02*
X179064485Y-117774381D01*
X179064485Y-117774381D02*
X178731152Y-117774381D01*
X178731152Y-117774381D02*
X178540676Y-117822000D01*
X178540676Y-117822000D02*
X178445438Y-117917238D01*
X178445438Y-117917238D02*
X178397819Y-118012476D01*
X178493057Y-118822000D02*
X178445438Y-118869619D01*
X178445438Y-118869619D02*
X178397819Y-118964857D01*
X178397819Y-118964857D02*
X178397819Y-119202952D01*
X178397819Y-119202952D02*
X178445438Y-119298190D01*
X178445438Y-119298190D02*
X178493057Y-119345809D01*
X178493057Y-119345809D02*
X178588295Y-119393428D01*
X178588295Y-119393428D02*
X178683533Y-119393428D01*
X178683533Y-119393428D02*
X178826390Y-119345809D01*
X178826390Y-119345809D02*
X179397819Y-118774381D01*
X179397819Y-118774381D02*
X179397819Y-119393428D01*
X178397819Y-119726762D02*
X178397819Y-120345809D01*
X178397819Y-120345809D02*
X178778771Y-120012476D01*
X178778771Y-120012476D02*
X178778771Y-120155333D01*
X178778771Y-120155333D02*
X178826390Y-120250571D01*
X178826390Y-120250571D02*
X178874009Y-120298190D01*
X178874009Y-120298190D02*
X178969247Y-120345809D01*
X178969247Y-120345809D02*
X179207342Y-120345809D01*
X179207342Y-120345809D02*
X179302580Y-120298190D01*
X179302580Y-120298190D02*
X179350200Y-120250571D01*
X179350200Y-120250571D02*
X179397819Y-120155333D01*
X179397819Y-120155333D02*
X179397819Y-119869619D01*
X179397819Y-119869619D02*
X179350200Y-119774381D01*
X179350200Y-119774381D02*
X179302580Y-119726762D01*
X181810819Y-118330000D02*
X180810819Y-118330000D01*
X180810819Y-118996666D02*
X180810819Y-119187142D01*
X180810819Y-119187142D02*
X180858438Y-119282380D01*
X180858438Y-119282380D02*
X180953676Y-119377618D01*
X180953676Y-119377618D02*
X181144152Y-119425237D01*
X181144152Y-119425237D02*
X181477485Y-119425237D01*
X181477485Y-119425237D02*
X181667961Y-119377618D01*
X181667961Y-119377618D02*
X181763200Y-119282380D01*
X181763200Y-119282380D02*
X181810819Y-119187142D01*
X181810819Y-119187142D02*
X181810819Y-118996666D01*
X181810819Y-118996666D02*
X181763200Y-118901428D01*
X181763200Y-118901428D02*
X181667961Y-118806190D01*
X181667961Y-118806190D02*
X181477485Y-118758571D01*
X181477485Y-118758571D02*
X181144152Y-118758571D01*
X181144152Y-118758571D02*
X180953676Y-118806190D01*
X180953676Y-118806190D02*
X180858438Y-118901428D01*
X180858438Y-118901428D02*
X180810819Y-118996666D01*
X180810819Y-120044285D02*
X180810819Y-120139523D01*
X180810819Y-120139523D02*
X180858438Y-120234761D01*
X180858438Y-120234761D02*
X180906057Y-120282380D01*
X180906057Y-120282380D02*
X181001295Y-120329999D01*
X181001295Y-120329999D02*
X181191771Y-120377618D01*
X181191771Y-120377618D02*
X181429866Y-120377618D01*
X181429866Y-120377618D02*
X181620342Y-120329999D01*
X181620342Y-120329999D02*
X181715580Y-120282380D01*
X181715580Y-120282380D02*
X181763200Y-120234761D01*
X181763200Y-120234761D02*
X181810819Y-120139523D01*
X181810819Y-120139523D02*
X181810819Y-120044285D01*
X181810819Y-120044285D02*
X181763200Y-119949047D01*
X181763200Y-119949047D02*
X181715580Y-119901428D01*
X181715580Y-119901428D02*
X181620342Y-119853809D01*
X181620342Y-119853809D02*
X181429866Y-119806190D01*
X181429866Y-119806190D02*
X181191771Y-119806190D01*
X181191771Y-119806190D02*
X181001295Y-119853809D01*
X181001295Y-119853809D02*
X180906057Y-119901428D01*
X180906057Y-119901428D02*
X180858438Y-119949047D01*
X180858438Y-119949047D02*
X180810819Y-120044285D01*
X180985438Y-98502095D02*
X180937819Y-98406857D01*
X180937819Y-98406857D02*
X180937819Y-98264000D01*
X180937819Y-98264000D02*
X180985438Y-98121143D01*
X180985438Y-98121143D02*
X181080676Y-98025905D01*
X181080676Y-98025905D02*
X181175914Y-97978286D01*
X181175914Y-97978286D02*
X181366390Y-97930667D01*
X181366390Y-97930667D02*
X181509247Y-97930667D01*
X181509247Y-97930667D02*
X181699723Y-97978286D01*
X181699723Y-97978286D02*
X181794961Y-98025905D01*
X181794961Y-98025905D02*
X181890200Y-98121143D01*
X181890200Y-98121143D02*
X181937819Y-98264000D01*
X181937819Y-98264000D02*
X181937819Y-98359238D01*
X181937819Y-98359238D02*
X181890200Y-98502095D01*
X181890200Y-98502095D02*
X181842580Y-98549714D01*
X181842580Y-98549714D02*
X181509247Y-98549714D01*
X181509247Y-98549714D02*
X181509247Y-98359238D01*
X181937819Y-98978286D02*
X180937819Y-98978286D01*
X180937819Y-98978286D02*
X181937819Y-99549714D01*
X181937819Y-99549714D02*
X180937819Y-99549714D01*
X181937819Y-100025905D02*
X180937819Y-100025905D01*
X180937819Y-100025905D02*
X180937819Y-100264000D01*
X180937819Y-100264000D02*
X180985438Y-100406857D01*
X180985438Y-100406857D02*
X181080676Y-100502095D01*
X181080676Y-100502095D02*
X181175914Y-100549714D01*
X181175914Y-100549714D02*
X181366390Y-100597333D01*
X181366390Y-100597333D02*
X181509247Y-100597333D01*
X181509247Y-100597333D02*
X181699723Y-100549714D01*
X181699723Y-100549714D02*
X181794961Y-100502095D01*
X181794961Y-100502095D02*
X181890200Y-100406857D01*
X181890200Y-100406857D02*
X181937819Y-100264000D01*
X181937819Y-100264000D02*
X181937819Y-100025905D01*
X179397819Y-98639380D02*
X178921628Y-98306047D01*
X179397819Y-98067952D02*
X178397819Y-98067952D01*
X178397819Y-98067952D02*
X178397819Y-98448904D01*
X178397819Y-98448904D02*
X178445438Y-98544142D01*
X178445438Y-98544142D02*
X178493057Y-98591761D01*
X178493057Y-98591761D02*
X178588295Y-98639380D01*
X178588295Y-98639380D02*
X178731152Y-98639380D01*
X178731152Y-98639380D02*
X178826390Y-98591761D01*
X178826390Y-98591761D02*
X178874009Y-98544142D01*
X178874009Y-98544142D02*
X178921628Y-98448904D01*
X178921628Y-98448904D02*
X178921628Y-98067952D01*
X179350200Y-99020333D02*
X179397819Y-99163190D01*
X179397819Y-99163190D02*
X179397819Y-99401285D01*
X179397819Y-99401285D02*
X179350200Y-99496523D01*
X179350200Y-99496523D02*
X179302580Y-99544142D01*
X179302580Y-99544142D02*
X179207342Y-99591761D01*
X179207342Y-99591761D02*
X179112104Y-99591761D01*
X179112104Y-99591761D02*
X179016866Y-99544142D01*
X179016866Y-99544142D02*
X178969247Y-99496523D01*
X178969247Y-99496523D02*
X178921628Y-99401285D01*
X178921628Y-99401285D02*
X178874009Y-99210809D01*
X178874009Y-99210809D02*
X178826390Y-99115571D01*
X178826390Y-99115571D02*
X178778771Y-99067952D01*
X178778771Y-99067952D02*
X178683533Y-99020333D01*
X178683533Y-99020333D02*
X178588295Y-99020333D01*
X178588295Y-99020333D02*
X178493057Y-99067952D01*
X178493057Y-99067952D02*
X178445438Y-99115571D01*
X178445438Y-99115571D02*
X178397819Y-99210809D01*
X178397819Y-99210809D02*
X178397819Y-99448904D01*
X178397819Y-99448904D02*
X178445438Y-99591761D01*
X178397819Y-99877476D02*
X178397819Y-100448904D01*
X179397819Y-100163190D02*
X178397819Y-100163190D01*
X176857819Y-97964810D02*
X175857819Y-97964810D01*
X175857819Y-98631476D02*
X175857819Y-98821952D01*
X175857819Y-98821952D02*
X175905438Y-98917190D01*
X175905438Y-98917190D02*
X176000676Y-99012428D01*
X176000676Y-99012428D02*
X176191152Y-99060047D01*
X176191152Y-99060047D02*
X176524485Y-99060047D01*
X176524485Y-99060047D02*
X176714961Y-99012428D01*
X176714961Y-99012428D02*
X176810200Y-98917190D01*
X176810200Y-98917190D02*
X176857819Y-98821952D01*
X176857819Y-98821952D02*
X176857819Y-98631476D01*
X176857819Y-98631476D02*
X176810200Y-98536238D01*
X176810200Y-98536238D02*
X176714961Y-98441000D01*
X176714961Y-98441000D02*
X176524485Y-98393381D01*
X176524485Y-98393381D02*
X176191152Y-98393381D01*
X176191152Y-98393381D02*
X176000676Y-98441000D01*
X176000676Y-98441000D02*
X175905438Y-98536238D01*
X175905438Y-98536238D02*
X175857819Y-98631476D01*
X175857819Y-99393381D02*
X175857819Y-100012428D01*
X175857819Y-100012428D02*
X176238771Y-99679095D01*
X176238771Y-99679095D02*
X176238771Y-99821952D01*
X176238771Y-99821952D02*
X176286390Y-99917190D01*
X176286390Y-99917190D02*
X176334009Y-99964809D01*
X176334009Y-99964809D02*
X176429247Y-100012428D01*
X176429247Y-100012428D02*
X176667342Y-100012428D01*
X176667342Y-100012428D02*
X176762580Y-99964809D01*
X176762580Y-99964809D02*
X176810200Y-99917190D01*
X176810200Y-99917190D02*
X176857819Y-99821952D01*
X176857819Y-99821952D02*
X176857819Y-99536238D01*
X176857819Y-99536238D02*
X176810200Y-99441000D01*
X176810200Y-99441000D02*
X176762580Y-99393381D01*
X175857819Y-100869571D02*
X175857819Y-100679095D01*
X175857819Y-100679095D02*
X175905438Y-100583857D01*
X175905438Y-100583857D02*
X175953057Y-100536238D01*
X175953057Y-100536238D02*
X176095914Y-100441000D01*
X176095914Y-100441000D02*
X176286390Y-100393381D01*
X176286390Y-100393381D02*
X176667342Y-100393381D01*
X176667342Y-100393381D02*
X176762580Y-100441000D01*
X176762580Y-100441000D02*
X176810200Y-100488619D01*
X176810200Y-100488619D02*
X176857819Y-100583857D01*
X176857819Y-100583857D02*
X176857819Y-100774333D01*
X176857819Y-100774333D02*
X176810200Y-100869571D01*
X176810200Y-100869571D02*
X176762580Y-100917190D01*
X176762580Y-100917190D02*
X176667342Y-100964809D01*
X176667342Y-100964809D02*
X176429247Y-100964809D01*
X176429247Y-100964809D02*
X176334009Y-100917190D01*
X176334009Y-100917190D02*
X176286390Y-100869571D01*
X176286390Y-100869571D02*
X176238771Y-100774333D01*
X176238771Y-100774333D02*
X176238771Y-100583857D01*
X176238771Y-100583857D02*
X176286390Y-100488619D01*
X176286390Y-100488619D02*
X176334009Y-100441000D01*
X176334009Y-100441000D02*
X176429247Y-100393381D01*
X174317819Y-97964810D02*
X173317819Y-97964810D01*
X173317819Y-98631476D02*
X173317819Y-98821952D01*
X173317819Y-98821952D02*
X173365438Y-98917190D01*
X173365438Y-98917190D02*
X173460676Y-99012428D01*
X173460676Y-99012428D02*
X173651152Y-99060047D01*
X173651152Y-99060047D02*
X173984485Y-99060047D01*
X173984485Y-99060047D02*
X174174961Y-99012428D01*
X174174961Y-99012428D02*
X174270200Y-98917190D01*
X174270200Y-98917190D02*
X174317819Y-98821952D01*
X174317819Y-98821952D02*
X174317819Y-98631476D01*
X174317819Y-98631476D02*
X174270200Y-98536238D01*
X174270200Y-98536238D02*
X174174961Y-98441000D01*
X174174961Y-98441000D02*
X173984485Y-98393381D01*
X173984485Y-98393381D02*
X173651152Y-98393381D01*
X173651152Y-98393381D02*
X173460676Y-98441000D01*
X173460676Y-98441000D02*
X173365438Y-98536238D01*
X173365438Y-98536238D02*
X173317819Y-98631476D01*
X173317819Y-99393381D02*
X173317819Y-100012428D01*
X173317819Y-100012428D02*
X173698771Y-99679095D01*
X173698771Y-99679095D02*
X173698771Y-99821952D01*
X173698771Y-99821952D02*
X173746390Y-99917190D01*
X173746390Y-99917190D02*
X173794009Y-99964809D01*
X173794009Y-99964809D02*
X173889247Y-100012428D01*
X173889247Y-100012428D02*
X174127342Y-100012428D01*
X174127342Y-100012428D02*
X174222580Y-99964809D01*
X174222580Y-99964809D02*
X174270200Y-99917190D01*
X174270200Y-99917190D02*
X174317819Y-99821952D01*
X174317819Y-99821952D02*
X174317819Y-99536238D01*
X174317819Y-99536238D02*
X174270200Y-99441000D01*
X174270200Y-99441000D02*
X174222580Y-99393381D01*
X174317819Y-100488619D02*
X174317819Y-100679095D01*
X174317819Y-100679095D02*
X174270200Y-100774333D01*
X174270200Y-100774333D02*
X174222580Y-100821952D01*
X174222580Y-100821952D02*
X174079723Y-100917190D01*
X174079723Y-100917190D02*
X173889247Y-100964809D01*
X173889247Y-100964809D02*
X173508295Y-100964809D01*
X173508295Y-100964809D02*
X173413057Y-100917190D01*
X173413057Y-100917190D02*
X173365438Y-100869571D01*
X173365438Y-100869571D02*
X173317819Y-100774333D01*
X173317819Y-100774333D02*
X173317819Y-100583857D01*
X173317819Y-100583857D02*
X173365438Y-100488619D01*
X173365438Y-100488619D02*
X173413057Y-100441000D01*
X173413057Y-100441000D02*
X173508295Y-100393381D01*
X173508295Y-100393381D02*
X173746390Y-100393381D01*
X173746390Y-100393381D02*
X173841628Y-100441000D01*
X173841628Y-100441000D02*
X173889247Y-100488619D01*
X173889247Y-100488619D02*
X173936866Y-100583857D01*
X173936866Y-100583857D02*
X173936866Y-100774333D01*
X173936866Y-100774333D02*
X173889247Y-100869571D01*
X173889247Y-100869571D02*
X173841628Y-100917190D01*
X173841628Y-100917190D02*
X173746390Y-100964809D01*
X166697819Y-97964810D02*
X165697819Y-97964810D01*
X165697819Y-98631476D02*
X165697819Y-98821952D01*
X165697819Y-98821952D02*
X165745438Y-98917190D01*
X165745438Y-98917190D02*
X165840676Y-99012428D01*
X165840676Y-99012428D02*
X166031152Y-99060047D01*
X166031152Y-99060047D02*
X166364485Y-99060047D01*
X166364485Y-99060047D02*
X166554961Y-99012428D01*
X166554961Y-99012428D02*
X166650200Y-98917190D01*
X166650200Y-98917190D02*
X166697819Y-98821952D01*
X166697819Y-98821952D02*
X166697819Y-98631476D01*
X166697819Y-98631476D02*
X166650200Y-98536238D01*
X166650200Y-98536238D02*
X166554961Y-98441000D01*
X166554961Y-98441000D02*
X166364485Y-98393381D01*
X166364485Y-98393381D02*
X166031152Y-98393381D01*
X166031152Y-98393381D02*
X165840676Y-98441000D01*
X165840676Y-98441000D02*
X165745438Y-98536238D01*
X165745438Y-98536238D02*
X165697819Y-98631476D01*
X165697819Y-99393381D02*
X165697819Y-100012428D01*
X165697819Y-100012428D02*
X166078771Y-99679095D01*
X166078771Y-99679095D02*
X166078771Y-99821952D01*
X166078771Y-99821952D02*
X166126390Y-99917190D01*
X166126390Y-99917190D02*
X166174009Y-99964809D01*
X166174009Y-99964809D02*
X166269247Y-100012428D01*
X166269247Y-100012428D02*
X166507342Y-100012428D01*
X166507342Y-100012428D02*
X166602580Y-99964809D01*
X166602580Y-99964809D02*
X166650200Y-99917190D01*
X166650200Y-99917190D02*
X166697819Y-99821952D01*
X166697819Y-99821952D02*
X166697819Y-99536238D01*
X166697819Y-99536238D02*
X166650200Y-99441000D01*
X166650200Y-99441000D02*
X166602580Y-99393381D01*
X165793057Y-100393381D02*
X165745438Y-100441000D01*
X165745438Y-100441000D02*
X165697819Y-100536238D01*
X165697819Y-100536238D02*
X165697819Y-100774333D01*
X165697819Y-100774333D02*
X165745438Y-100869571D01*
X165745438Y-100869571D02*
X165793057Y-100917190D01*
X165793057Y-100917190D02*
X165888295Y-100964809D01*
X165888295Y-100964809D02*
X165983533Y-100964809D01*
X165983533Y-100964809D02*
X166126390Y-100917190D01*
X166126390Y-100917190D02*
X166697819Y-100345762D01*
X166697819Y-100345762D02*
X166697819Y-100964809D01*
X169237819Y-97964810D02*
X168237819Y-97964810D01*
X168237819Y-98631476D02*
X168237819Y-98821952D01*
X168237819Y-98821952D02*
X168285438Y-98917190D01*
X168285438Y-98917190D02*
X168380676Y-99012428D01*
X168380676Y-99012428D02*
X168571152Y-99060047D01*
X168571152Y-99060047D02*
X168904485Y-99060047D01*
X168904485Y-99060047D02*
X169094961Y-99012428D01*
X169094961Y-99012428D02*
X169190200Y-98917190D01*
X169190200Y-98917190D02*
X169237819Y-98821952D01*
X169237819Y-98821952D02*
X169237819Y-98631476D01*
X169237819Y-98631476D02*
X169190200Y-98536238D01*
X169190200Y-98536238D02*
X169094961Y-98441000D01*
X169094961Y-98441000D02*
X168904485Y-98393381D01*
X168904485Y-98393381D02*
X168571152Y-98393381D01*
X168571152Y-98393381D02*
X168380676Y-98441000D01*
X168380676Y-98441000D02*
X168285438Y-98536238D01*
X168285438Y-98536238D02*
X168237819Y-98631476D01*
X168237819Y-99393381D02*
X168237819Y-100012428D01*
X168237819Y-100012428D02*
X168618771Y-99679095D01*
X168618771Y-99679095D02*
X168618771Y-99821952D01*
X168618771Y-99821952D02*
X168666390Y-99917190D01*
X168666390Y-99917190D02*
X168714009Y-99964809D01*
X168714009Y-99964809D02*
X168809247Y-100012428D01*
X168809247Y-100012428D02*
X169047342Y-100012428D01*
X169047342Y-100012428D02*
X169142580Y-99964809D01*
X169142580Y-99964809D02*
X169190200Y-99917190D01*
X169190200Y-99917190D02*
X169237819Y-99821952D01*
X169237819Y-99821952D02*
X169237819Y-99536238D01*
X169237819Y-99536238D02*
X169190200Y-99441000D01*
X169190200Y-99441000D02*
X169142580Y-99393381D01*
X168237819Y-100917190D02*
X168237819Y-100441000D01*
X168237819Y-100441000D02*
X168714009Y-100393381D01*
X168714009Y-100393381D02*
X168666390Y-100441000D01*
X168666390Y-100441000D02*
X168618771Y-100536238D01*
X168618771Y-100536238D02*
X168618771Y-100774333D01*
X168618771Y-100774333D02*
X168666390Y-100869571D01*
X168666390Y-100869571D02*
X168714009Y-100917190D01*
X168714009Y-100917190D02*
X168809247Y-100964809D01*
X168809247Y-100964809D02*
X169047342Y-100964809D01*
X169047342Y-100964809D02*
X169142580Y-100917190D01*
X169142580Y-100917190D02*
X169190200Y-100869571D01*
X169190200Y-100869571D02*
X169237819Y-100774333D01*
X169237819Y-100774333D02*
X169237819Y-100536238D01*
X169237819Y-100536238D02*
X169190200Y-100441000D01*
X169190200Y-100441000D02*
X169142580Y-100393381D01*
X171777819Y-97964810D02*
X170777819Y-97964810D01*
X170777819Y-98631476D02*
X170777819Y-98821952D01*
X170777819Y-98821952D02*
X170825438Y-98917190D01*
X170825438Y-98917190D02*
X170920676Y-99012428D01*
X170920676Y-99012428D02*
X171111152Y-99060047D01*
X171111152Y-99060047D02*
X171444485Y-99060047D01*
X171444485Y-99060047D02*
X171634961Y-99012428D01*
X171634961Y-99012428D02*
X171730200Y-98917190D01*
X171730200Y-98917190D02*
X171777819Y-98821952D01*
X171777819Y-98821952D02*
X171777819Y-98631476D01*
X171777819Y-98631476D02*
X171730200Y-98536238D01*
X171730200Y-98536238D02*
X171634961Y-98441000D01*
X171634961Y-98441000D02*
X171444485Y-98393381D01*
X171444485Y-98393381D02*
X171111152Y-98393381D01*
X171111152Y-98393381D02*
X170920676Y-98441000D01*
X170920676Y-98441000D02*
X170825438Y-98536238D01*
X170825438Y-98536238D02*
X170777819Y-98631476D01*
X170777819Y-99393381D02*
X170777819Y-100012428D01*
X170777819Y-100012428D02*
X171158771Y-99679095D01*
X171158771Y-99679095D02*
X171158771Y-99821952D01*
X171158771Y-99821952D02*
X171206390Y-99917190D01*
X171206390Y-99917190D02*
X171254009Y-99964809D01*
X171254009Y-99964809D02*
X171349247Y-100012428D01*
X171349247Y-100012428D02*
X171587342Y-100012428D01*
X171587342Y-100012428D02*
X171682580Y-99964809D01*
X171682580Y-99964809D02*
X171730200Y-99917190D01*
X171730200Y-99917190D02*
X171777819Y-99821952D01*
X171777819Y-99821952D02*
X171777819Y-99536238D01*
X171777819Y-99536238D02*
X171730200Y-99441000D01*
X171730200Y-99441000D02*
X171682580Y-99393381D01*
X171111152Y-100869571D02*
X171777819Y-100869571D01*
X170730200Y-100631476D02*
X171444485Y-100393381D01*
X171444485Y-100393381D02*
X171444485Y-101012428D01*
X164157819Y-97964810D02*
X163157819Y-97964810D01*
X163157819Y-98631476D02*
X163157819Y-98821952D01*
X163157819Y-98821952D02*
X163205438Y-98917190D01*
X163205438Y-98917190D02*
X163300676Y-99012428D01*
X163300676Y-99012428D02*
X163491152Y-99060047D01*
X163491152Y-99060047D02*
X163824485Y-99060047D01*
X163824485Y-99060047D02*
X164014961Y-99012428D01*
X164014961Y-99012428D02*
X164110200Y-98917190D01*
X164110200Y-98917190D02*
X164157819Y-98821952D01*
X164157819Y-98821952D02*
X164157819Y-98631476D01*
X164157819Y-98631476D02*
X164110200Y-98536238D01*
X164110200Y-98536238D02*
X164014961Y-98441000D01*
X164014961Y-98441000D02*
X163824485Y-98393381D01*
X163824485Y-98393381D02*
X163491152Y-98393381D01*
X163491152Y-98393381D02*
X163300676Y-98441000D01*
X163300676Y-98441000D02*
X163205438Y-98536238D01*
X163205438Y-98536238D02*
X163157819Y-98631476D01*
X163157819Y-99393381D02*
X163157819Y-100012428D01*
X163157819Y-100012428D02*
X163538771Y-99679095D01*
X163538771Y-99679095D02*
X163538771Y-99821952D01*
X163538771Y-99821952D02*
X163586390Y-99917190D01*
X163586390Y-99917190D02*
X163634009Y-99964809D01*
X163634009Y-99964809D02*
X163729247Y-100012428D01*
X163729247Y-100012428D02*
X163967342Y-100012428D01*
X163967342Y-100012428D02*
X164062580Y-99964809D01*
X164062580Y-99964809D02*
X164110200Y-99917190D01*
X164110200Y-99917190D02*
X164157819Y-99821952D01*
X164157819Y-99821952D02*
X164157819Y-99536238D01*
X164157819Y-99536238D02*
X164110200Y-99441000D01*
X164110200Y-99441000D02*
X164062580Y-99393381D01*
X163157819Y-100345762D02*
X163157819Y-100964809D01*
X163157819Y-100964809D02*
X163538771Y-100631476D01*
X163538771Y-100631476D02*
X163538771Y-100774333D01*
X163538771Y-100774333D02*
X163586390Y-100869571D01*
X163586390Y-100869571D02*
X163634009Y-100917190D01*
X163634009Y-100917190D02*
X163729247Y-100964809D01*
X163729247Y-100964809D02*
X163967342Y-100964809D01*
X163967342Y-100964809D02*
X164062580Y-100917190D01*
X164062580Y-100917190D02*
X164110200Y-100869571D01*
X164110200Y-100869571D02*
X164157819Y-100774333D01*
X164157819Y-100774333D02*
X164157819Y-100488619D01*
X164157819Y-100488619D02*
X164110200Y-100393381D01*
X164110200Y-100393381D02*
X164062580Y-100345762D01*
X161617819Y-97964810D02*
X160617819Y-97964810D01*
X160617819Y-98631476D02*
X160617819Y-98821952D01*
X160617819Y-98821952D02*
X160665438Y-98917190D01*
X160665438Y-98917190D02*
X160760676Y-99012428D01*
X160760676Y-99012428D02*
X160951152Y-99060047D01*
X160951152Y-99060047D02*
X161284485Y-99060047D01*
X161284485Y-99060047D02*
X161474961Y-99012428D01*
X161474961Y-99012428D02*
X161570200Y-98917190D01*
X161570200Y-98917190D02*
X161617819Y-98821952D01*
X161617819Y-98821952D02*
X161617819Y-98631476D01*
X161617819Y-98631476D02*
X161570200Y-98536238D01*
X161570200Y-98536238D02*
X161474961Y-98441000D01*
X161474961Y-98441000D02*
X161284485Y-98393381D01*
X161284485Y-98393381D02*
X160951152Y-98393381D01*
X160951152Y-98393381D02*
X160760676Y-98441000D01*
X160760676Y-98441000D02*
X160665438Y-98536238D01*
X160665438Y-98536238D02*
X160617819Y-98631476D01*
X160713057Y-99441000D02*
X160665438Y-99488619D01*
X160665438Y-99488619D02*
X160617819Y-99583857D01*
X160617819Y-99583857D02*
X160617819Y-99821952D01*
X160617819Y-99821952D02*
X160665438Y-99917190D01*
X160665438Y-99917190D02*
X160713057Y-99964809D01*
X160713057Y-99964809D02*
X160808295Y-100012428D01*
X160808295Y-100012428D02*
X160903533Y-100012428D01*
X160903533Y-100012428D02*
X161046390Y-99964809D01*
X161046390Y-99964809D02*
X161617819Y-99393381D01*
X161617819Y-99393381D02*
X161617819Y-100012428D01*
X160617819Y-100917190D02*
X160617819Y-100441000D01*
X160617819Y-100441000D02*
X161094009Y-100393381D01*
X161094009Y-100393381D02*
X161046390Y-100441000D01*
X161046390Y-100441000D02*
X160998771Y-100536238D01*
X160998771Y-100536238D02*
X160998771Y-100774333D01*
X160998771Y-100774333D02*
X161046390Y-100869571D01*
X161046390Y-100869571D02*
X161094009Y-100917190D01*
X161094009Y-100917190D02*
X161189247Y-100964809D01*
X161189247Y-100964809D02*
X161427342Y-100964809D01*
X161427342Y-100964809D02*
X161522580Y-100917190D01*
X161522580Y-100917190D02*
X161570200Y-100869571D01*
X161570200Y-100869571D02*
X161617819Y-100774333D01*
X161617819Y-100774333D02*
X161617819Y-100536238D01*
X161617819Y-100536238D02*
X161570200Y-100441000D01*
X161570200Y-100441000D02*
X161522580Y-100393381D01*
X159077819Y-97964810D02*
X158077819Y-97964810D01*
X158077819Y-98631476D02*
X158077819Y-98821952D01*
X158077819Y-98821952D02*
X158125438Y-98917190D01*
X158125438Y-98917190D02*
X158220676Y-99012428D01*
X158220676Y-99012428D02*
X158411152Y-99060047D01*
X158411152Y-99060047D02*
X158744485Y-99060047D01*
X158744485Y-99060047D02*
X158934961Y-99012428D01*
X158934961Y-99012428D02*
X159030200Y-98917190D01*
X159030200Y-98917190D02*
X159077819Y-98821952D01*
X159077819Y-98821952D02*
X159077819Y-98631476D01*
X159077819Y-98631476D02*
X159030200Y-98536238D01*
X159030200Y-98536238D02*
X158934961Y-98441000D01*
X158934961Y-98441000D02*
X158744485Y-98393381D01*
X158744485Y-98393381D02*
X158411152Y-98393381D01*
X158411152Y-98393381D02*
X158220676Y-98441000D01*
X158220676Y-98441000D02*
X158125438Y-98536238D01*
X158125438Y-98536238D02*
X158077819Y-98631476D01*
X158173057Y-99441000D02*
X158125438Y-99488619D01*
X158125438Y-99488619D02*
X158077819Y-99583857D01*
X158077819Y-99583857D02*
X158077819Y-99821952D01*
X158077819Y-99821952D02*
X158125438Y-99917190D01*
X158125438Y-99917190D02*
X158173057Y-99964809D01*
X158173057Y-99964809D02*
X158268295Y-100012428D01*
X158268295Y-100012428D02*
X158363533Y-100012428D01*
X158363533Y-100012428D02*
X158506390Y-99964809D01*
X158506390Y-99964809D02*
X159077819Y-99393381D01*
X159077819Y-99393381D02*
X159077819Y-100012428D01*
X158077819Y-100869571D02*
X158077819Y-100679095D01*
X158077819Y-100679095D02*
X158125438Y-100583857D01*
X158125438Y-100583857D02*
X158173057Y-100536238D01*
X158173057Y-100536238D02*
X158315914Y-100441000D01*
X158315914Y-100441000D02*
X158506390Y-100393381D01*
X158506390Y-100393381D02*
X158887342Y-100393381D01*
X158887342Y-100393381D02*
X158982580Y-100441000D01*
X158982580Y-100441000D02*
X159030200Y-100488619D01*
X159030200Y-100488619D02*
X159077819Y-100583857D01*
X159077819Y-100583857D02*
X159077819Y-100774333D01*
X159077819Y-100774333D02*
X159030200Y-100869571D01*
X159030200Y-100869571D02*
X158982580Y-100917190D01*
X158982580Y-100917190D02*
X158887342Y-100964809D01*
X158887342Y-100964809D02*
X158649247Y-100964809D01*
X158649247Y-100964809D02*
X158554009Y-100917190D01*
X158554009Y-100917190D02*
X158506390Y-100869571D01*
X158506390Y-100869571D02*
X158458771Y-100774333D01*
X158458771Y-100774333D02*
X158458771Y-100583857D01*
X158458771Y-100583857D02*
X158506390Y-100488619D01*
X158506390Y-100488619D02*
X158554009Y-100441000D01*
X158554009Y-100441000D02*
X158649247Y-100393381D01*
X156537819Y-97964810D02*
X155537819Y-97964810D01*
X155537819Y-98631476D02*
X155537819Y-98821952D01*
X155537819Y-98821952D02*
X155585438Y-98917190D01*
X155585438Y-98917190D02*
X155680676Y-99012428D01*
X155680676Y-99012428D02*
X155871152Y-99060047D01*
X155871152Y-99060047D02*
X156204485Y-99060047D01*
X156204485Y-99060047D02*
X156394961Y-99012428D01*
X156394961Y-99012428D02*
X156490200Y-98917190D01*
X156490200Y-98917190D02*
X156537819Y-98821952D01*
X156537819Y-98821952D02*
X156537819Y-98631476D01*
X156537819Y-98631476D02*
X156490200Y-98536238D01*
X156490200Y-98536238D02*
X156394961Y-98441000D01*
X156394961Y-98441000D02*
X156204485Y-98393381D01*
X156204485Y-98393381D02*
X155871152Y-98393381D01*
X155871152Y-98393381D02*
X155680676Y-98441000D01*
X155680676Y-98441000D02*
X155585438Y-98536238D01*
X155585438Y-98536238D02*
X155537819Y-98631476D01*
X155633057Y-99441000D02*
X155585438Y-99488619D01*
X155585438Y-99488619D02*
X155537819Y-99583857D01*
X155537819Y-99583857D02*
X155537819Y-99821952D01*
X155537819Y-99821952D02*
X155585438Y-99917190D01*
X155585438Y-99917190D02*
X155633057Y-99964809D01*
X155633057Y-99964809D02*
X155728295Y-100012428D01*
X155728295Y-100012428D02*
X155823533Y-100012428D01*
X155823533Y-100012428D02*
X155966390Y-99964809D01*
X155966390Y-99964809D02*
X156537819Y-99393381D01*
X156537819Y-99393381D02*
X156537819Y-100012428D01*
X155537819Y-100345762D02*
X155537819Y-101012428D01*
X155537819Y-101012428D02*
X156537819Y-100583857D01*
X153997819Y-97964810D02*
X152997819Y-97964810D01*
X152997819Y-98631476D02*
X152997819Y-98821952D01*
X152997819Y-98821952D02*
X153045438Y-98917190D01*
X153045438Y-98917190D02*
X153140676Y-99012428D01*
X153140676Y-99012428D02*
X153331152Y-99060047D01*
X153331152Y-99060047D02*
X153664485Y-99060047D01*
X153664485Y-99060047D02*
X153854961Y-99012428D01*
X153854961Y-99012428D02*
X153950200Y-98917190D01*
X153950200Y-98917190D02*
X153997819Y-98821952D01*
X153997819Y-98821952D02*
X153997819Y-98631476D01*
X153997819Y-98631476D02*
X153950200Y-98536238D01*
X153950200Y-98536238D02*
X153854961Y-98441000D01*
X153854961Y-98441000D02*
X153664485Y-98393381D01*
X153664485Y-98393381D02*
X153331152Y-98393381D01*
X153331152Y-98393381D02*
X153140676Y-98441000D01*
X153140676Y-98441000D02*
X153045438Y-98536238D01*
X153045438Y-98536238D02*
X152997819Y-98631476D01*
X153997819Y-100012428D02*
X153997819Y-99441000D01*
X153997819Y-99726714D02*
X152997819Y-99726714D01*
X152997819Y-99726714D02*
X153140676Y-99631476D01*
X153140676Y-99631476D02*
X153235914Y-99536238D01*
X153235914Y-99536238D02*
X153283533Y-99441000D01*
X153331152Y-100869571D02*
X153997819Y-100869571D01*
X152950200Y-100631476D02*
X153664485Y-100393381D01*
X153664485Y-100393381D02*
X153664485Y-101012428D01*
X151457819Y-97964810D02*
X150457819Y-97964810D01*
X150457819Y-98631476D02*
X150457819Y-98821952D01*
X150457819Y-98821952D02*
X150505438Y-98917190D01*
X150505438Y-98917190D02*
X150600676Y-99012428D01*
X150600676Y-99012428D02*
X150791152Y-99060047D01*
X150791152Y-99060047D02*
X151124485Y-99060047D01*
X151124485Y-99060047D02*
X151314961Y-99012428D01*
X151314961Y-99012428D02*
X151410200Y-98917190D01*
X151410200Y-98917190D02*
X151457819Y-98821952D01*
X151457819Y-98821952D02*
X151457819Y-98631476D01*
X151457819Y-98631476D02*
X151410200Y-98536238D01*
X151410200Y-98536238D02*
X151314961Y-98441000D01*
X151314961Y-98441000D02*
X151124485Y-98393381D01*
X151124485Y-98393381D02*
X150791152Y-98393381D01*
X150791152Y-98393381D02*
X150600676Y-98441000D01*
X150600676Y-98441000D02*
X150505438Y-98536238D01*
X150505438Y-98536238D02*
X150457819Y-98631476D01*
X151457819Y-100012428D02*
X151457819Y-99441000D01*
X151457819Y-99726714D02*
X150457819Y-99726714D01*
X150457819Y-99726714D02*
X150600676Y-99631476D01*
X150600676Y-99631476D02*
X150695914Y-99536238D01*
X150695914Y-99536238D02*
X150743533Y-99441000D01*
X150553057Y-100393381D02*
X150505438Y-100441000D01*
X150505438Y-100441000D02*
X150457819Y-100536238D01*
X150457819Y-100536238D02*
X150457819Y-100774333D01*
X150457819Y-100774333D02*
X150505438Y-100869571D01*
X150505438Y-100869571D02*
X150553057Y-100917190D01*
X150553057Y-100917190D02*
X150648295Y-100964809D01*
X150648295Y-100964809D02*
X150743533Y-100964809D01*
X150743533Y-100964809D02*
X150886390Y-100917190D01*
X150886390Y-100917190D02*
X151457819Y-100345762D01*
X151457819Y-100345762D02*
X151457819Y-100964809D01*
X148917819Y-97964810D02*
X147917819Y-97964810D01*
X147917819Y-98631476D02*
X147917819Y-98821952D01*
X147917819Y-98821952D02*
X147965438Y-98917190D01*
X147965438Y-98917190D02*
X148060676Y-99012428D01*
X148060676Y-99012428D02*
X148251152Y-99060047D01*
X148251152Y-99060047D02*
X148584485Y-99060047D01*
X148584485Y-99060047D02*
X148774961Y-99012428D01*
X148774961Y-99012428D02*
X148870200Y-98917190D01*
X148870200Y-98917190D02*
X148917819Y-98821952D01*
X148917819Y-98821952D02*
X148917819Y-98631476D01*
X148917819Y-98631476D02*
X148870200Y-98536238D01*
X148870200Y-98536238D02*
X148774961Y-98441000D01*
X148774961Y-98441000D02*
X148584485Y-98393381D01*
X148584485Y-98393381D02*
X148251152Y-98393381D01*
X148251152Y-98393381D02*
X148060676Y-98441000D01*
X148060676Y-98441000D02*
X147965438Y-98536238D01*
X147965438Y-98536238D02*
X147917819Y-98631476D01*
X148917819Y-100012428D02*
X148917819Y-99441000D01*
X148917819Y-99726714D02*
X147917819Y-99726714D01*
X147917819Y-99726714D02*
X148060676Y-99631476D01*
X148060676Y-99631476D02*
X148155914Y-99536238D01*
X148155914Y-99536238D02*
X148203533Y-99441000D01*
X147917819Y-100345762D02*
X147917819Y-100964809D01*
X147917819Y-100964809D02*
X148298771Y-100631476D01*
X148298771Y-100631476D02*
X148298771Y-100774333D01*
X148298771Y-100774333D02*
X148346390Y-100869571D01*
X148346390Y-100869571D02*
X148394009Y-100917190D01*
X148394009Y-100917190D02*
X148489247Y-100964809D01*
X148489247Y-100964809D02*
X148727342Y-100964809D01*
X148727342Y-100964809D02*
X148822580Y-100917190D01*
X148822580Y-100917190D02*
X148870200Y-100869571D01*
X148870200Y-100869571D02*
X148917819Y-100774333D01*
X148917819Y-100774333D02*
X148917819Y-100488619D01*
X148917819Y-100488619D02*
X148870200Y-100393381D01*
X148870200Y-100393381D02*
X148822580Y-100345762D01*
X145425438Y-98425095D02*
X145377819Y-98329857D01*
X145377819Y-98329857D02*
X145377819Y-98187000D01*
X145377819Y-98187000D02*
X145425438Y-98044143D01*
X145425438Y-98044143D02*
X145520676Y-97948905D01*
X145520676Y-97948905D02*
X145615914Y-97901286D01*
X145615914Y-97901286D02*
X145806390Y-97853667D01*
X145806390Y-97853667D02*
X145949247Y-97853667D01*
X145949247Y-97853667D02*
X146139723Y-97901286D01*
X146139723Y-97901286D02*
X146234961Y-97948905D01*
X146234961Y-97948905D02*
X146330200Y-98044143D01*
X146330200Y-98044143D02*
X146377819Y-98187000D01*
X146377819Y-98187000D02*
X146377819Y-98282238D01*
X146377819Y-98282238D02*
X146330200Y-98425095D01*
X146330200Y-98425095D02*
X146282580Y-98472714D01*
X146282580Y-98472714D02*
X145949247Y-98472714D01*
X145949247Y-98472714D02*
X145949247Y-98282238D01*
X146377819Y-98901286D02*
X145377819Y-98901286D01*
X145377819Y-98901286D02*
X146377819Y-99472714D01*
X146377819Y-99472714D02*
X145377819Y-99472714D01*
X146377819Y-99948905D02*
X145377819Y-99948905D01*
X145377819Y-99948905D02*
X145377819Y-100187000D01*
X145377819Y-100187000D02*
X145425438Y-100329857D01*
X145425438Y-100329857D02*
X145520676Y-100425095D01*
X145520676Y-100425095D02*
X145615914Y-100472714D01*
X145615914Y-100472714D02*
X145806390Y-100520333D01*
X145806390Y-100520333D02*
X145949247Y-100520333D01*
X145949247Y-100520333D02*
X146139723Y-100472714D01*
X146139723Y-100472714D02*
X146234961Y-100425095D01*
X146234961Y-100425095D02*
X146330200Y-100329857D01*
X146330200Y-100329857D02*
X146377819Y-100187000D01*
X146377819Y-100187000D02*
X146377819Y-99948905D01*
X142837819Y-97837762D02*
X143837819Y-98171095D01*
X143837819Y-98171095D02*
X142837819Y-98504428D01*
X143837819Y-98837762D02*
X142837819Y-98837762D01*
X143837819Y-99313952D02*
X142837819Y-99313952D01*
X142837819Y-99313952D02*
X143837819Y-99885380D01*
X143837819Y-99885380D02*
X142837819Y-99885380D01*
X140297819Y-98488523D02*
X140297819Y-98012333D01*
X140297819Y-98012333D02*
X140774009Y-97964714D01*
X140774009Y-97964714D02*
X140726390Y-98012333D01*
X140726390Y-98012333D02*
X140678771Y-98107571D01*
X140678771Y-98107571D02*
X140678771Y-98345666D01*
X140678771Y-98345666D02*
X140726390Y-98440904D01*
X140726390Y-98440904D02*
X140774009Y-98488523D01*
X140774009Y-98488523D02*
X140869247Y-98536142D01*
X140869247Y-98536142D02*
X141107342Y-98536142D01*
X141107342Y-98536142D02*
X141202580Y-98488523D01*
X141202580Y-98488523D02*
X141250200Y-98440904D01*
X141250200Y-98440904D02*
X141297819Y-98345666D01*
X141297819Y-98345666D02*
X141297819Y-98107571D01*
X141297819Y-98107571D02*
X141250200Y-98012333D01*
X141250200Y-98012333D02*
X141202580Y-97964714D01*
X140297819Y-98821857D02*
X141297819Y-99155190D01*
X141297819Y-99155190D02*
X140297819Y-99488523D01*
X138757819Y-98028238D02*
X137757819Y-98028238D01*
X138757819Y-98504428D02*
X137757819Y-98504428D01*
X137757819Y-98504428D02*
X138757819Y-99075856D01*
X138757819Y-99075856D02*
X137757819Y-99075856D01*
X137757819Y-99409190D02*
X137757819Y-99980618D01*
X138757819Y-99694904D02*
X137757819Y-99694904D01*
X135217819Y-97782381D02*
X135217819Y-98401428D01*
X135217819Y-98401428D02*
X135598771Y-98068095D01*
X135598771Y-98068095D02*
X135598771Y-98210952D01*
X135598771Y-98210952D02*
X135646390Y-98306190D01*
X135646390Y-98306190D02*
X135694009Y-98353809D01*
X135694009Y-98353809D02*
X135789247Y-98401428D01*
X135789247Y-98401428D02*
X136027342Y-98401428D01*
X136027342Y-98401428D02*
X136122580Y-98353809D01*
X136122580Y-98353809D02*
X136170200Y-98306190D01*
X136170200Y-98306190D02*
X136217819Y-98210952D01*
X136217819Y-98210952D02*
X136217819Y-97925238D01*
X136217819Y-97925238D02*
X136170200Y-97830000D01*
X136170200Y-97830000D02*
X136122580Y-97782381D01*
X135551152Y-98734762D02*
X136217819Y-98972857D01*
X136217819Y-98972857D02*
X135551152Y-99210952D01*
X135217819Y-99496667D02*
X135217819Y-100115714D01*
X135217819Y-100115714D02*
X135598771Y-99782381D01*
X135598771Y-99782381D02*
X135598771Y-99925238D01*
X135598771Y-99925238D02*
X135646390Y-100020476D01*
X135646390Y-100020476D02*
X135694009Y-100068095D01*
X135694009Y-100068095D02*
X135789247Y-100115714D01*
X135789247Y-100115714D02*
X136027342Y-100115714D01*
X136027342Y-100115714D02*
X136122580Y-100068095D01*
X136122580Y-100068095D02*
X136170200Y-100020476D01*
X136170200Y-100020476D02*
X136217819Y-99925238D01*
X136217819Y-99925238D02*
X136217819Y-99639524D01*
X136217819Y-99639524D02*
X136170200Y-99544286D01*
X136170200Y-99544286D02*
X136122580Y-99496667D01*
X136313057Y-100306191D02*
X136313057Y-101068095D01*
X135694009Y-101306191D02*
X135694009Y-101639524D01*
X136217819Y-101782381D02*
X136217819Y-101306191D01*
X136217819Y-101306191D02*
X135217819Y-101306191D01*
X135217819Y-101306191D02*
X135217819Y-101782381D01*
X136217819Y-102210953D02*
X135217819Y-102210953D01*
X135217819Y-102210953D02*
X136217819Y-102782381D01*
X136217819Y-102782381D02*
X135217819Y-102782381D01*
X132677819Y-98401380D02*
X132677819Y-97925190D01*
X132677819Y-97925190D02*
X133154009Y-97877571D01*
X133154009Y-97877571D02*
X133106390Y-97925190D01*
X133106390Y-97925190D02*
X133058771Y-98020428D01*
X133058771Y-98020428D02*
X133058771Y-98258523D01*
X133058771Y-98258523D02*
X133106390Y-98353761D01*
X133106390Y-98353761D02*
X133154009Y-98401380D01*
X133154009Y-98401380D02*
X133249247Y-98448999D01*
X133249247Y-98448999D02*
X133487342Y-98448999D01*
X133487342Y-98448999D02*
X133582580Y-98401380D01*
X133582580Y-98401380D02*
X133630200Y-98353761D01*
X133630200Y-98353761D02*
X133677819Y-98258523D01*
X133677819Y-98258523D02*
X133677819Y-98020428D01*
X133677819Y-98020428D02*
X133630200Y-97925190D01*
X133630200Y-97925190D02*
X133582580Y-97877571D01*
X132677819Y-98734714D02*
X133677819Y-99068047D01*
X133677819Y-99068047D02*
X132677819Y-99401380D01*
X133773057Y-99496619D02*
X133773057Y-100258523D01*
X133154009Y-100496619D02*
X133154009Y-100829952D01*
X133677819Y-100972809D02*
X133677819Y-100496619D01*
X133677819Y-100496619D02*
X132677819Y-100496619D01*
X132677819Y-100496619D02*
X132677819Y-100972809D01*
X133677819Y-101401381D02*
X132677819Y-101401381D01*
X132677819Y-101401381D02*
X133677819Y-101972809D01*
X133677819Y-101972809D02*
X132677819Y-101972809D01*
X131042580Y-98520476D02*
X131090200Y-98472857D01*
X131090200Y-98472857D02*
X131137819Y-98330000D01*
X131137819Y-98330000D02*
X131137819Y-98234762D01*
X131137819Y-98234762D02*
X131090200Y-98091905D01*
X131090200Y-98091905D02*
X130994961Y-97996667D01*
X130994961Y-97996667D02*
X130899723Y-97949048D01*
X130899723Y-97949048D02*
X130709247Y-97901429D01*
X130709247Y-97901429D02*
X130566390Y-97901429D01*
X130566390Y-97901429D02*
X130375914Y-97949048D01*
X130375914Y-97949048D02*
X130280676Y-97996667D01*
X130280676Y-97996667D02*
X130185438Y-98091905D01*
X130185438Y-98091905D02*
X130137819Y-98234762D01*
X130137819Y-98234762D02*
X130137819Y-98330000D01*
X130137819Y-98330000D02*
X130185438Y-98472857D01*
X130185438Y-98472857D02*
X130233057Y-98520476D01*
X131137819Y-98949048D02*
X130137819Y-98949048D01*
X130614009Y-98949048D02*
X130614009Y-99520476D01*
X131137819Y-99520476D02*
X130137819Y-99520476D01*
X131233057Y-99758572D02*
X131233057Y-100520476D01*
X131137819Y-100758572D02*
X130137819Y-100758572D01*
X130137819Y-100758572D02*
X130137819Y-100996667D01*
X130137819Y-100996667D02*
X130185438Y-101139524D01*
X130185438Y-101139524D02*
X130280676Y-101234762D01*
X130280676Y-101234762D02*
X130375914Y-101282381D01*
X130375914Y-101282381D02*
X130566390Y-101330000D01*
X130566390Y-101330000D02*
X130709247Y-101330000D01*
X130709247Y-101330000D02*
X130899723Y-101282381D01*
X130899723Y-101282381D02*
X130994961Y-101234762D01*
X130994961Y-101234762D02*
X131090200Y-101139524D01*
X131090200Y-101139524D02*
X131137819Y-100996667D01*
X131137819Y-100996667D02*
X131137819Y-100758572D01*
X131137819Y-101758572D02*
X130137819Y-101758572D01*
X131090200Y-102187143D02*
X131137819Y-102330000D01*
X131137819Y-102330000D02*
X131137819Y-102568095D01*
X131137819Y-102568095D02*
X131090200Y-102663333D01*
X131090200Y-102663333D02*
X131042580Y-102710952D01*
X131042580Y-102710952D02*
X130947342Y-102758571D01*
X130947342Y-102758571D02*
X130852104Y-102758571D01*
X130852104Y-102758571D02*
X130756866Y-102710952D01*
X130756866Y-102710952D02*
X130709247Y-102663333D01*
X130709247Y-102663333D02*
X130661628Y-102568095D01*
X130661628Y-102568095D02*
X130614009Y-102377619D01*
X130614009Y-102377619D02*
X130566390Y-102282381D01*
X130566390Y-102282381D02*
X130518771Y-102234762D01*
X130518771Y-102234762D02*
X130423533Y-102187143D01*
X130423533Y-102187143D02*
X130328295Y-102187143D01*
X130328295Y-102187143D02*
X130233057Y-102234762D01*
X130233057Y-102234762D02*
X130185438Y-102282381D01*
X130185438Y-102282381D02*
X130137819Y-102377619D01*
X130137819Y-102377619D02*
X130137819Y-102615714D01*
X130137819Y-102615714D02*
X130185438Y-102758571D01*
X132187819Y-109871095D02*
X132187819Y-110442523D01*
X133187819Y-110156809D02*
X132187819Y-110156809D01*
X133187819Y-110775857D02*
X132187819Y-110775857D01*
X132187819Y-110775857D02*
X132187819Y-111156809D01*
X132187819Y-111156809D02*
X132235438Y-111252047D01*
X132235438Y-111252047D02*
X132283057Y-111299666D01*
X132283057Y-111299666D02*
X132378295Y-111347285D01*
X132378295Y-111347285D02*
X132521152Y-111347285D01*
X132521152Y-111347285D02*
X132616390Y-111299666D01*
X132616390Y-111299666D02*
X132664009Y-111252047D01*
X132664009Y-111252047D02*
X132711628Y-111156809D01*
X132711628Y-111156809D02*
X132711628Y-110775857D01*
X132283057Y-111728238D02*
X132235438Y-111775857D01*
X132235438Y-111775857D02*
X132187819Y-111871095D01*
X132187819Y-111871095D02*
X132187819Y-112109190D01*
X132187819Y-112109190D02*
X132235438Y-112204428D01*
X132235438Y-112204428D02*
X132283057Y-112252047D01*
X132283057Y-112252047D02*
X132378295Y-112299666D01*
X132378295Y-112299666D02*
X132473533Y-112299666D01*
X132473533Y-112299666D02*
X132616390Y-112252047D01*
X132616390Y-112252047D02*
X133187819Y-111680619D01*
X133187819Y-111680619D02*
X133187819Y-112299666D01*
X123914819Y-118245095D02*
X123914819Y-118816523D01*
X124914819Y-118530809D02*
X123914819Y-118530809D01*
X124914819Y-119149857D02*
X123914819Y-119149857D01*
X123914819Y-119149857D02*
X123914819Y-119530809D01*
X123914819Y-119530809D02*
X123962438Y-119626047D01*
X123962438Y-119626047D02*
X124010057Y-119673666D01*
X124010057Y-119673666D02*
X124105295Y-119721285D01*
X124105295Y-119721285D02*
X124248152Y-119721285D01*
X124248152Y-119721285D02*
X124343390Y-119673666D01*
X124343390Y-119673666D02*
X124391009Y-119626047D01*
X124391009Y-119626047D02*
X124438628Y-119530809D01*
X124438628Y-119530809D02*
X124438628Y-119149857D01*
X124248152Y-120578428D02*
X124914819Y-120578428D01*
X123867200Y-120340333D02*
X124581485Y-120102238D01*
X124581485Y-120102238D02*
X124581485Y-120721285D01*
X152616819Y-113165095D02*
X152616819Y-113736523D01*
X153616819Y-113450809D02*
X152616819Y-113450809D01*
X153616819Y-114069857D02*
X152616819Y-114069857D01*
X152616819Y-114069857D02*
X152616819Y-114450809D01*
X152616819Y-114450809D02*
X152664438Y-114546047D01*
X152664438Y-114546047D02*
X152712057Y-114593666D01*
X152712057Y-114593666D02*
X152807295Y-114641285D01*
X152807295Y-114641285D02*
X152950152Y-114641285D01*
X152950152Y-114641285D02*
X153045390Y-114593666D01*
X153045390Y-114593666D02*
X153093009Y-114546047D01*
X153093009Y-114546047D02*
X153140628Y-114450809D01*
X153140628Y-114450809D02*
X153140628Y-114069857D01*
X153045390Y-115212714D02*
X152997771Y-115117476D01*
X152997771Y-115117476D02*
X152950152Y-115069857D01*
X152950152Y-115069857D02*
X152854914Y-115022238D01*
X152854914Y-115022238D02*
X152807295Y-115022238D01*
X152807295Y-115022238D02*
X152712057Y-115069857D01*
X152712057Y-115069857D02*
X152664438Y-115117476D01*
X152664438Y-115117476D02*
X152616819Y-115212714D01*
X152616819Y-115212714D02*
X152616819Y-115403190D01*
X152616819Y-115403190D02*
X152664438Y-115498428D01*
X152664438Y-115498428D02*
X152712057Y-115546047D01*
X152712057Y-115546047D02*
X152807295Y-115593666D01*
X152807295Y-115593666D02*
X152854914Y-115593666D01*
X152854914Y-115593666D02*
X152950152Y-115546047D01*
X152950152Y-115546047D02*
X152997771Y-115498428D01*
X152997771Y-115498428D02*
X153045390Y-115403190D01*
X153045390Y-115403190D02*
X153045390Y-115212714D01*
X153045390Y-115212714D02*
X153093009Y-115117476D01*
X153093009Y-115117476D02*
X153140628Y-115069857D01*
X153140628Y-115069857D02*
X153235866Y-115022238D01*
X153235866Y-115022238D02*
X153426342Y-115022238D01*
X153426342Y-115022238D02*
X153521580Y-115069857D01*
X153521580Y-115069857D02*
X153569200Y-115117476D01*
X153569200Y-115117476D02*
X153616819Y-115212714D01*
X153616819Y-115212714D02*
X153616819Y-115403190D01*
X153616819Y-115403190D02*
X153569200Y-115498428D01*
X153569200Y-115498428D02*
X153521580Y-115546047D01*
X153521580Y-115546047D02*
X153426342Y-115593666D01*
X153426342Y-115593666D02*
X153235866Y-115593666D01*
X153235866Y-115593666D02*
X153140628Y-115546047D01*
X153140628Y-115546047D02*
X153093009Y-115498428D01*
X153093009Y-115498428D02*
X153045390Y-115403190D01*
X149568819Y-101481095D02*
X149568819Y-102052523D01*
X150568819Y-101766809D02*
X149568819Y-101766809D01*
X150568819Y-102385857D02*
X149568819Y-102385857D01*
X149568819Y-102385857D02*
X149568819Y-102766809D01*
X149568819Y-102766809D02*
X149616438Y-102862047D01*
X149616438Y-102862047D02*
X149664057Y-102909666D01*
X149664057Y-102909666D02*
X149759295Y-102957285D01*
X149759295Y-102957285D02*
X149902152Y-102957285D01*
X149902152Y-102957285D02*
X149997390Y-102909666D01*
X149997390Y-102909666D02*
X150045009Y-102862047D01*
X150045009Y-102862047D02*
X150092628Y-102766809D01*
X150092628Y-102766809D02*
X150092628Y-102385857D01*
X149568819Y-103862047D02*
X149568819Y-103385857D01*
X149568819Y-103385857D02*
X150045009Y-103338238D01*
X150045009Y-103338238D02*
X149997390Y-103385857D01*
X149997390Y-103385857D02*
X149949771Y-103481095D01*
X149949771Y-103481095D02*
X149949771Y-103719190D01*
X149949771Y-103719190D02*
X149997390Y-103814428D01*
X149997390Y-103814428D02*
X150045009Y-103862047D01*
X150045009Y-103862047D02*
X150140247Y-103909666D01*
X150140247Y-103909666D02*
X150378342Y-103909666D01*
X150378342Y-103909666D02*
X150473580Y-103862047D01*
X150473580Y-103862047D02*
X150521200Y-103814428D01*
X150521200Y-103814428D02*
X150568819Y-103719190D01*
X150568819Y-103719190D02*
X150568819Y-103481095D01*
X150568819Y-103481095D02*
X150521200Y-103385857D01*
X150521200Y-103385857D02*
X150473580Y-103338238D01*
X112484819Y-106053095D02*
X112484819Y-106624523D01*
X113484819Y-106338809D02*
X112484819Y-106338809D01*
X113484819Y-106957857D02*
X112484819Y-106957857D01*
X112484819Y-106957857D02*
X112484819Y-107338809D01*
X112484819Y-107338809D02*
X112532438Y-107434047D01*
X112532438Y-107434047D02*
X112580057Y-107481666D01*
X112580057Y-107481666D02*
X112675295Y-107529285D01*
X112675295Y-107529285D02*
X112818152Y-107529285D01*
X112818152Y-107529285D02*
X112913390Y-107481666D01*
X112913390Y-107481666D02*
X112961009Y-107434047D01*
X112961009Y-107434047D02*
X113008628Y-107338809D01*
X113008628Y-107338809D02*
X113008628Y-106957857D01*
X112484819Y-107862619D02*
X112484819Y-108529285D01*
X112484819Y-108529285D02*
X113484819Y-108100714D01*
X109817819Y-106053095D02*
X109817819Y-106624523D01*
X110817819Y-106338809D02*
X109817819Y-106338809D01*
X110817819Y-106957857D02*
X109817819Y-106957857D01*
X109817819Y-106957857D02*
X109817819Y-107338809D01*
X109817819Y-107338809D02*
X109865438Y-107434047D01*
X109865438Y-107434047D02*
X109913057Y-107481666D01*
X109913057Y-107481666D02*
X110008295Y-107529285D01*
X110008295Y-107529285D02*
X110151152Y-107529285D01*
X110151152Y-107529285D02*
X110246390Y-107481666D01*
X110246390Y-107481666D02*
X110294009Y-107434047D01*
X110294009Y-107434047D02*
X110341628Y-107338809D01*
X110341628Y-107338809D02*
X110341628Y-106957857D01*
X109817819Y-108386428D02*
X109817819Y-108195952D01*
X109817819Y-108195952D02*
X109865438Y-108100714D01*
X109865438Y-108100714D02*
X109913057Y-108053095D01*
X109913057Y-108053095D02*
X110055914Y-107957857D01*
X110055914Y-107957857D02*
X110246390Y-107910238D01*
X110246390Y-107910238D02*
X110627342Y-107910238D01*
X110627342Y-107910238D02*
X110722580Y-107957857D01*
X110722580Y-107957857D02*
X110770200Y-108005476D01*
X110770200Y-108005476D02*
X110817819Y-108100714D01*
X110817819Y-108100714D02*
X110817819Y-108291190D01*
X110817819Y-108291190D02*
X110770200Y-108386428D01*
X110770200Y-108386428D02*
X110722580Y-108434047D01*
X110722580Y-108434047D02*
X110627342Y-108481666D01*
X110627342Y-108481666D02*
X110389247Y-108481666D01*
X110389247Y-108481666D02*
X110294009Y-108434047D01*
X110294009Y-108434047D02*
X110246390Y-108386428D01*
X110246390Y-108386428D02*
X110198771Y-108291190D01*
X110198771Y-108291190D02*
X110198771Y-108100714D01*
X110198771Y-108100714D02*
X110246390Y-108005476D01*
X110246390Y-108005476D02*
X110294009Y-107957857D01*
X110294009Y-107957857D02*
X110389247Y-107910238D01*
X127407319Y-117102095D02*
X127407319Y-117673523D01*
X128407319Y-117387809D02*
X127407319Y-117387809D01*
X128407319Y-118006857D02*
X127407319Y-118006857D01*
X127407319Y-118006857D02*
X127407319Y-118387809D01*
X127407319Y-118387809D02*
X127454938Y-118483047D01*
X127454938Y-118483047D02*
X127502557Y-118530666D01*
X127502557Y-118530666D02*
X127597795Y-118578285D01*
X127597795Y-118578285D02*
X127740652Y-118578285D01*
X127740652Y-118578285D02*
X127835890Y-118530666D01*
X127835890Y-118530666D02*
X127883509Y-118483047D01*
X127883509Y-118483047D02*
X127931128Y-118387809D01*
X127931128Y-118387809D02*
X127931128Y-118006857D01*
X127407319Y-118911619D02*
X127407319Y-119530666D01*
X127407319Y-119530666D02*
X127788271Y-119197333D01*
X127788271Y-119197333D02*
X127788271Y-119340190D01*
X127788271Y-119340190D02*
X127835890Y-119435428D01*
X127835890Y-119435428D02*
X127883509Y-119483047D01*
X127883509Y-119483047D02*
X127978747Y-119530666D01*
X127978747Y-119530666D02*
X128216842Y-119530666D01*
X128216842Y-119530666D02*
X128312080Y-119483047D01*
X128312080Y-119483047D02*
X128359700Y-119435428D01*
X128359700Y-119435428D02*
X128407319Y-119340190D01*
X128407319Y-119340190D02*
X128407319Y-119054476D01*
X128407319Y-119054476D02*
X128359700Y-118959238D01*
X128359700Y-118959238D02*
X128312080Y-118911619D01*
X116929819Y-95131095D02*
X116929819Y-95702523D01*
X117929819Y-95416809D02*
X116929819Y-95416809D01*
X117929819Y-96035857D02*
X116929819Y-96035857D01*
X116929819Y-96035857D02*
X116929819Y-96416809D01*
X116929819Y-96416809D02*
X116977438Y-96512047D01*
X116977438Y-96512047D02*
X117025057Y-96559666D01*
X117025057Y-96559666D02*
X117120295Y-96607285D01*
X117120295Y-96607285D02*
X117263152Y-96607285D01*
X117263152Y-96607285D02*
X117358390Y-96559666D01*
X117358390Y-96559666D02*
X117406009Y-96512047D01*
X117406009Y-96512047D02*
X117453628Y-96416809D01*
X117453628Y-96416809D02*
X117453628Y-96035857D01*
X117929819Y-97559666D02*
X117929819Y-96988238D01*
X117929819Y-97273952D02*
X116929819Y-97273952D01*
X116929819Y-97273952D02*
X117072676Y-97178714D01*
X117072676Y-97178714D02*
X117167914Y-97083476D01*
X117167914Y-97083476D02*
X117215533Y-96988238D01*
X138900819Y-104653666D02*
X139615104Y-104653666D01*
X139615104Y-104653666D02*
X139757961Y-104606047D01*
X139757961Y-104606047D02*
X139853200Y-104510809D01*
X139853200Y-104510809D02*
X139900819Y-104367952D01*
X139900819Y-104367952D02*
X139900819Y-104272714D01*
X139900819Y-105129857D02*
X138900819Y-105129857D01*
X138900819Y-105129857D02*
X138900819Y-105510809D01*
X138900819Y-105510809D02*
X138948438Y-105606047D01*
X138948438Y-105606047D02*
X138996057Y-105653666D01*
X138996057Y-105653666D02*
X139091295Y-105701285D01*
X139091295Y-105701285D02*
X139234152Y-105701285D01*
X139234152Y-105701285D02*
X139329390Y-105653666D01*
X139329390Y-105653666D02*
X139377009Y-105606047D01*
X139377009Y-105606047D02*
X139424628Y-105510809D01*
X139424628Y-105510809D02*
X139424628Y-105129857D01*
X139234152Y-106558428D02*
X139900819Y-106558428D01*
X138853200Y-106320333D02*
X139567485Y-106082238D01*
X139567485Y-106082238D02*
X139567485Y-106701285D01*
X152743819Y-107066666D02*
X153458104Y-107066666D01*
X153458104Y-107066666D02*
X153600961Y-107019047D01*
X153600961Y-107019047D02*
X153696200Y-106923809D01*
X153696200Y-106923809D02*
X153743819Y-106780952D01*
X153743819Y-106780952D02*
X153743819Y-106685714D01*
X153743819Y-107542857D02*
X152743819Y-107542857D01*
X152743819Y-107542857D02*
X152743819Y-107923809D01*
X152743819Y-107923809D02*
X152791438Y-108019047D01*
X152791438Y-108019047D02*
X152839057Y-108066666D01*
X152839057Y-108066666D02*
X152934295Y-108114285D01*
X152934295Y-108114285D02*
X153077152Y-108114285D01*
X153077152Y-108114285D02*
X153172390Y-108066666D01*
X153172390Y-108066666D02*
X153220009Y-108019047D01*
X153220009Y-108019047D02*
X153267628Y-107923809D01*
X153267628Y-107923809D02*
X153267628Y-107542857D01*
X152743819Y-108447619D02*
X152743819Y-109066666D01*
X152743819Y-109066666D02*
X153124771Y-108733333D01*
X153124771Y-108733333D02*
X153124771Y-108876190D01*
X153124771Y-108876190D02*
X153172390Y-108971428D01*
X153172390Y-108971428D02*
X153220009Y-109019047D01*
X153220009Y-109019047D02*
X153315247Y-109066666D01*
X153315247Y-109066666D02*
X153553342Y-109066666D01*
X153553342Y-109066666D02*
X153648580Y-109019047D01*
X153648580Y-109019047D02*
X153696200Y-108971428D01*
X153696200Y-108971428D02*
X153743819Y-108876190D01*
X153743819Y-108876190D02*
X153743819Y-108590476D01*
X153743819Y-108590476D02*
X153696200Y-108495238D01*
X153696200Y-108495238D02*
X153648580Y-108447619D01*
X107404819Y-106481666D02*
X108119104Y-106481666D01*
X108119104Y-106481666D02*
X108261961Y-106434047D01*
X108261961Y-106434047D02*
X108357200Y-106338809D01*
X108357200Y-106338809D02*
X108404819Y-106195952D01*
X108404819Y-106195952D02*
X108404819Y-106100714D01*
X108404819Y-106957857D02*
X107404819Y-106957857D01*
X107404819Y-106957857D02*
X107404819Y-107338809D01*
X107404819Y-107338809D02*
X107452438Y-107434047D01*
X107452438Y-107434047D02*
X107500057Y-107481666D01*
X107500057Y-107481666D02*
X107595295Y-107529285D01*
X107595295Y-107529285D02*
X107738152Y-107529285D01*
X107738152Y-107529285D02*
X107833390Y-107481666D01*
X107833390Y-107481666D02*
X107881009Y-107434047D01*
X107881009Y-107434047D02*
X107928628Y-107338809D01*
X107928628Y-107338809D02*
X107928628Y-106957857D01*
X108404819Y-108481666D02*
X108404819Y-107910238D01*
X108404819Y-108195952D02*
X107404819Y-108195952D01*
X107404819Y-108195952D02*
X107547676Y-108100714D01*
X107547676Y-108100714D02*
X107642914Y-108005476D01*
X107642914Y-108005476D02*
X107690533Y-107910238D01*
D11*
X131656000Y-114496000D02*
X133556000Y-114496000D01*
X133556000Y-114496000D02*
X133556000Y-112596000D01*
X133556000Y-112596000D02*
X131656000Y-112596000D01*
X131656000Y-112596000D02*
X131656000Y-114496000D01*
X123383000Y-122997000D02*
X125283000Y-122997000D01*
X125283000Y-122997000D02*
X125283000Y-121097000D01*
X125283000Y-121097000D02*
X123383000Y-121097000D01*
X123383000Y-121097000D02*
X123383000Y-122997000D01*
X152085000Y-116017000D02*
X152085000Y-117917000D01*
X153985000Y-116017000D02*
X152085000Y-116017000D01*
X153985000Y-117917000D02*
X153985000Y-116017000D01*
X152085000Y-117917000D02*
X153985000Y-117917000D01*
X149037000Y-104333000D02*
X149037000Y-106233000D01*
X150937000Y-104333000D02*
X149037000Y-104333000D01*
X150937000Y-106233000D02*
X150937000Y-104333000D01*
X149037000Y-106233000D02*
X150937000Y-106233000D01*
X111953000Y-103888500D02*
X111953000Y-105788500D01*
X113853000Y-103888500D02*
X111953000Y-103888500D01*
X113853000Y-105788500D02*
X113853000Y-103888500D01*
X111953000Y-105788500D02*
X113853000Y-105788500D01*
X109413000Y-103888500D02*
X109413000Y-105788500D01*
X111313000Y-103888500D02*
X109413000Y-103888500D01*
X111313000Y-105788500D02*
X111313000Y-103888500D01*
X109413000Y-105788500D02*
X111313000Y-105788500D01*
X127066000Y-119954000D02*
X127066000Y-121854000D01*
X128966000Y-119954000D02*
X127066000Y-119954000D01*
X128966000Y-121854000D02*
X128966000Y-119954000D01*
X127066000Y-121854000D02*
X128966000Y-121854000D01*
X116525000Y-97729000D02*
X116525000Y-99629000D01*
X118425000Y-97729000D02*
X116525000Y-97729000D01*
X118425000Y-99629000D02*
X118425000Y-97729000D01*
X116525000Y-99629000D02*
X118425000Y-99629000D01*
X138573000Y-112667000D02*
X140573000Y-112667000D01*
X138573000Y-109867000D02*
X138573000Y-112667000D01*
X140573000Y-109867000D02*
X138573000Y-109867000D01*
X140573000Y-112667000D02*
X140573000Y-109867000D01*
X151650000Y-110887000D02*
X151650000Y-112887000D01*
X154450000Y-110887000D02*
X151650000Y-110887000D01*
X154450000Y-112887000D02*
X154450000Y-110887000D01*
X151650000Y-112887000D02*
X154450000Y-112887000D01*
X105507000Y-103638500D02*
X105807000Y-103338500D01*
X105207000Y-103338500D02*
X105807000Y-103338500D01*
X105507000Y-103638500D02*
X105207000Y-103338500D01*
X104757000Y-103838500D02*
X104757000Y-105838500D01*
X108857000Y-103838500D02*
X104757000Y-103838500D01*
X108857000Y-105838500D02*
X108857000Y-103838500D01*
X104757000Y-105838500D02*
X108857000Y-105838500D01*
M02*
