G04 #@! TF.GenerationSoftware,KiCad,Pcbnew,9.0.0*
G04 #@! TF.CreationDate,2025-03-02T20:38:03-08:00*
G04 #@! TF.ProjectId,SuperPower-uC-KiCad,53757065-7250-46f7-9765-722d75432d4b,rev?*
G04 #@! TF.SameCoordinates,Original*
G04 #@! TF.FileFunction,Legend,Top*
G04 #@! TF.FilePolarity,Positive*
%FSLAX46Y46*%
G04 Gerber Fmt 4.6, Leading zero omitted, Abs format (unit mm)*
G04 Created by KiCad (PCBNEW 9.0.0) date 2025-03-02 20:38:03*
%MOMM*%
%LPD*%
G01*
G04 APERTURE LIST*
%ADD10C,0.150000*%
%ADD11C,0.153000*%
%ADD12C,0.120000*%
G04 APERTURE END LIST*
D10*
X183096819Y-122253333D02*
X183811104Y-122253333D01*
X183811104Y-122253333D02*
X183953961Y-122300952D01*
X183953961Y-122300952D02*
X184049200Y-122396190D01*
X184049200Y-122396190D02*
X184096819Y-122539047D01*
X184096819Y-122539047D02*
X184096819Y-122634285D01*
X183096819Y-121300952D02*
X183096819Y-121777142D01*
X183096819Y-121777142D02*
X183573009Y-121824761D01*
X183573009Y-121824761D02*
X183525390Y-121777142D01*
X183525390Y-121777142D02*
X183477771Y-121681904D01*
X183477771Y-121681904D02*
X183477771Y-121443809D01*
X183477771Y-121443809D02*
X183525390Y-121348571D01*
X183525390Y-121348571D02*
X183573009Y-121300952D01*
X183573009Y-121300952D02*
X183668247Y-121253333D01*
X183668247Y-121253333D02*
X183906342Y-121253333D01*
X183906342Y-121253333D02*
X184001580Y-121300952D01*
X184001580Y-121300952D02*
X184049200Y-121348571D01*
X184049200Y-121348571D02*
X184096819Y-121443809D01*
X184096819Y-121443809D02*
X184096819Y-121681904D01*
X184096819Y-121681904D02*
X184049200Y-121777142D01*
X184049200Y-121777142D02*
X184001580Y-121824761D01*
X183096819Y-96853333D02*
X183811104Y-96853333D01*
X183811104Y-96853333D02*
X183953961Y-96900952D01*
X183953961Y-96900952D02*
X184049200Y-96996190D01*
X184049200Y-96996190D02*
X184096819Y-97139047D01*
X184096819Y-97139047D02*
X184096819Y-97234285D01*
X183096819Y-95948571D02*
X183096819Y-96139047D01*
X183096819Y-96139047D02*
X183144438Y-96234285D01*
X183144438Y-96234285D02*
X183192057Y-96281904D01*
X183192057Y-96281904D02*
X183334914Y-96377142D01*
X183334914Y-96377142D02*
X183525390Y-96424761D01*
X183525390Y-96424761D02*
X183906342Y-96424761D01*
X183906342Y-96424761D02*
X184001580Y-96377142D01*
X184001580Y-96377142D02*
X184049200Y-96329523D01*
X184049200Y-96329523D02*
X184096819Y-96234285D01*
X184096819Y-96234285D02*
X184096819Y-96043809D01*
X184096819Y-96043809D02*
X184049200Y-95948571D01*
X184049200Y-95948571D02*
X184001580Y-95900952D01*
X184001580Y-95900952D02*
X183906342Y-95853333D01*
X183906342Y-95853333D02*
X183668247Y-95853333D01*
X183668247Y-95853333D02*
X183573009Y-95900952D01*
X183573009Y-95900952D02*
X183525390Y-95948571D01*
X183525390Y-95948571D02*
X183477771Y-96043809D01*
X183477771Y-96043809D02*
X183477771Y-96234285D01*
X183477771Y-96234285D02*
X183525390Y-96329523D01*
X183525390Y-96329523D02*
X183573009Y-96377142D01*
X183573009Y-96377142D02*
X183668247Y-96424761D01*
D11*
X150857024Y-103613139D02*
X150857024Y-102813139D01*
X150857024Y-102813139D02*
X151047500Y-102813139D01*
X151047500Y-102813139D02*
X151161786Y-102851234D01*
X151161786Y-102851234D02*
X151237976Y-102927424D01*
X151237976Y-102927424D02*
X151276071Y-103003615D01*
X151276071Y-103003615D02*
X151314167Y-103155996D01*
X151314167Y-103155996D02*
X151314167Y-103270282D01*
X151314167Y-103270282D02*
X151276071Y-103422663D01*
X151276071Y-103422663D02*
X151237976Y-103498853D01*
X151237976Y-103498853D02*
X151161786Y-103575044D01*
X151161786Y-103575044D02*
X151047500Y-103613139D01*
X151047500Y-103613139D02*
X150857024Y-103613139D01*
X151999881Y-103079805D02*
X151999881Y-103613139D01*
X151809405Y-102775044D02*
X151618928Y-103346472D01*
X151618928Y-103346472D02*
X152114167Y-103346472D01*
X104908639Y-114630166D02*
X105480067Y-114630166D01*
X105480067Y-114630166D02*
X105594353Y-114668261D01*
X105594353Y-114668261D02*
X105670544Y-114744452D01*
X105670544Y-114744452D02*
X105708639Y-114858737D01*
X105708639Y-114858737D02*
X105708639Y-114934928D01*
X104908639Y-114325404D02*
X104908639Y-113830166D01*
X104908639Y-113830166D02*
X105213401Y-114096832D01*
X105213401Y-114096832D02*
X105213401Y-113982547D01*
X105213401Y-113982547D02*
X105251496Y-113906356D01*
X105251496Y-113906356D02*
X105289591Y-113868261D01*
X105289591Y-113868261D02*
X105365782Y-113830166D01*
X105365782Y-113830166D02*
X105556258Y-113830166D01*
X105556258Y-113830166D02*
X105632448Y-113868261D01*
X105632448Y-113868261D02*
X105670544Y-113906356D01*
X105670544Y-113906356D02*
X105708639Y-113982547D01*
X105708639Y-113982547D02*
X105708639Y-114211118D01*
X105708639Y-114211118D02*
X105670544Y-114287309D01*
X105670544Y-114287309D02*
X105632448Y-114325404D01*
X150107666Y-105518139D02*
X149726714Y-105518139D01*
X149726714Y-105518139D02*
X149726714Y-104718139D01*
X150793380Y-105518139D02*
X150336237Y-105518139D01*
X150564809Y-105518139D02*
X150564809Y-104718139D01*
X150564809Y-104718139D02*
X150488618Y-104832424D01*
X150488618Y-104832424D02*
X150412428Y-104908615D01*
X150412428Y-104908615D02*
X150336237Y-104946710D01*
X127750048Y-110327186D02*
X127750048Y-110708139D01*
X127483381Y-109908139D02*
X127750048Y-110327186D01*
X127750048Y-110327186D02*
X128016714Y-109908139D01*
X128245285Y-109984329D02*
X128283381Y-109946234D01*
X128283381Y-109946234D02*
X128359571Y-109908139D01*
X128359571Y-109908139D02*
X128550047Y-109908139D01*
X128550047Y-109908139D02*
X128626238Y-109946234D01*
X128626238Y-109946234D02*
X128664333Y-109984329D01*
X128664333Y-109984329D02*
X128702428Y-110060520D01*
X128702428Y-110060520D02*
X128702428Y-110136710D01*
X128702428Y-110136710D02*
X128664333Y-110250996D01*
X128664333Y-110250996D02*
X128207190Y-110708139D01*
X128207190Y-110708139D02*
X128702428Y-110708139D01*
X120510548Y-114464186D02*
X120510548Y-114845139D01*
X120243881Y-114045139D02*
X120510548Y-114464186D01*
X120510548Y-114464186D02*
X120777214Y-114045139D01*
X121462928Y-114845139D02*
X121005785Y-114845139D01*
X121234357Y-114845139D02*
X121234357Y-114045139D01*
X121234357Y-114045139D02*
X121158166Y-114159424D01*
X121158166Y-114159424D02*
X121081976Y-114235615D01*
X121081976Y-114235615D02*
X121005785Y-114273710D01*
X158566139Y-102463475D02*
X159213758Y-102463475D01*
X159213758Y-102463475D02*
X159289948Y-102425380D01*
X159289948Y-102425380D02*
X159328044Y-102387285D01*
X159328044Y-102387285D02*
X159366139Y-102311094D01*
X159366139Y-102311094D02*
X159366139Y-102158713D01*
X159366139Y-102158713D02*
X159328044Y-102082523D01*
X159328044Y-102082523D02*
X159289948Y-102044428D01*
X159289948Y-102044428D02*
X159213758Y-102006332D01*
X159213758Y-102006332D02*
X158566139Y-102006332D01*
X159366139Y-101206333D02*
X159366139Y-101663476D01*
X159366139Y-101434904D02*
X158566139Y-101434904D01*
X158566139Y-101434904D02*
X158680424Y-101511095D01*
X158680424Y-101511095D02*
X158756615Y-101587285D01*
X158756615Y-101587285D02*
X158794710Y-101663476D01*
X158566139Y-100939666D02*
X158566139Y-100444428D01*
X158566139Y-100444428D02*
X158870901Y-100711094D01*
X158870901Y-100711094D02*
X158870901Y-100596809D01*
X158870901Y-100596809D02*
X158908996Y-100520618D01*
X158908996Y-100520618D02*
X158947091Y-100482523D01*
X158947091Y-100482523D02*
X159023282Y-100444428D01*
X159023282Y-100444428D02*
X159213758Y-100444428D01*
X159213758Y-100444428D02*
X159289948Y-100482523D01*
X159289948Y-100482523D02*
X159328044Y-100520618D01*
X159328044Y-100520618D02*
X159366139Y-100596809D01*
X159366139Y-100596809D02*
X159366139Y-100825380D01*
X159366139Y-100825380D02*
X159328044Y-100901571D01*
X159328044Y-100901571D02*
X159289948Y-100939666D01*
X153187524Y-102686139D02*
X153187524Y-103333758D01*
X153187524Y-103333758D02*
X153225619Y-103409948D01*
X153225619Y-103409948D02*
X153263714Y-103448044D01*
X153263714Y-103448044D02*
X153339905Y-103486139D01*
X153339905Y-103486139D02*
X153492286Y-103486139D01*
X153492286Y-103486139D02*
X153568476Y-103448044D01*
X153568476Y-103448044D02*
X153606571Y-103409948D01*
X153606571Y-103409948D02*
X153644667Y-103333758D01*
X153644667Y-103333758D02*
X153644667Y-102686139D01*
X154444666Y-103486139D02*
X153987523Y-103486139D01*
X154216095Y-103486139D02*
X154216095Y-102686139D01*
X154216095Y-102686139D02*
X154139904Y-102800424D01*
X154139904Y-102800424D02*
X154063714Y-102876615D01*
X154063714Y-102876615D02*
X153987523Y-102914710D01*
X154749428Y-102762329D02*
X154787524Y-102724234D01*
X154787524Y-102724234D02*
X154863714Y-102686139D01*
X154863714Y-102686139D02*
X155054190Y-102686139D01*
X155054190Y-102686139D02*
X155130381Y-102724234D01*
X155130381Y-102724234D02*
X155168476Y-102762329D01*
X155168476Y-102762329D02*
X155206571Y-102838520D01*
X155206571Y-102838520D02*
X155206571Y-102914710D01*
X155206571Y-102914710D02*
X155168476Y-103028996D01*
X155168476Y-103028996D02*
X154711333Y-103486139D01*
X154711333Y-103486139D02*
X155206571Y-103486139D01*
X152679524Y-115513139D02*
X152679524Y-116160758D01*
X152679524Y-116160758D02*
X152717619Y-116236948D01*
X152717619Y-116236948D02*
X152755714Y-116275044D01*
X152755714Y-116275044D02*
X152831905Y-116313139D01*
X152831905Y-116313139D02*
X152984286Y-116313139D01*
X152984286Y-116313139D02*
X153060476Y-116275044D01*
X153060476Y-116275044D02*
X153098571Y-116236948D01*
X153098571Y-116236948D02*
X153136667Y-116160758D01*
X153136667Y-116160758D02*
X153136667Y-115513139D01*
X153936666Y-116313139D02*
X153479523Y-116313139D01*
X153708095Y-116313139D02*
X153708095Y-115513139D01*
X153708095Y-115513139D02*
X153631904Y-115627424D01*
X153631904Y-115627424D02*
X153555714Y-115703615D01*
X153555714Y-115703615D02*
X153479523Y-115741710D01*
X154698571Y-116313139D02*
X154241428Y-116313139D01*
X154470000Y-116313139D02*
X154470000Y-115513139D01*
X154470000Y-115513139D02*
X154393809Y-115627424D01*
X154393809Y-115627424D02*
X154317619Y-115703615D01*
X154317619Y-115703615D02*
X154241428Y-115741710D01*
X142773524Y-103575139D02*
X142773524Y-104222758D01*
X142773524Y-104222758D02*
X142811619Y-104298948D01*
X142811619Y-104298948D02*
X142849714Y-104337044D01*
X142849714Y-104337044D02*
X142925905Y-104375139D01*
X142925905Y-104375139D02*
X143078286Y-104375139D01*
X143078286Y-104375139D02*
X143154476Y-104337044D01*
X143154476Y-104337044D02*
X143192571Y-104298948D01*
X143192571Y-104298948D02*
X143230667Y-104222758D01*
X143230667Y-104222758D02*
X143230667Y-103575139D01*
X144030666Y-104375139D02*
X143573523Y-104375139D01*
X143802095Y-104375139D02*
X143802095Y-103575139D01*
X143802095Y-103575139D02*
X143725904Y-103689424D01*
X143725904Y-103689424D02*
X143649714Y-103765615D01*
X143649714Y-103765615D02*
X143573523Y-103803710D01*
X144525905Y-103575139D02*
X144602095Y-103575139D01*
X144602095Y-103575139D02*
X144678286Y-103613234D01*
X144678286Y-103613234D02*
X144716381Y-103651329D01*
X144716381Y-103651329D02*
X144754476Y-103727520D01*
X144754476Y-103727520D02*
X144792571Y-103879901D01*
X144792571Y-103879901D02*
X144792571Y-104070377D01*
X144792571Y-104070377D02*
X144754476Y-104222758D01*
X144754476Y-104222758D02*
X144716381Y-104298948D01*
X144716381Y-104298948D02*
X144678286Y-104337044D01*
X144678286Y-104337044D02*
X144602095Y-104375139D01*
X144602095Y-104375139D02*
X144525905Y-104375139D01*
X144525905Y-104375139D02*
X144449714Y-104337044D01*
X144449714Y-104337044D02*
X144411619Y-104298948D01*
X144411619Y-104298948D02*
X144373524Y-104222758D01*
X144373524Y-104222758D02*
X144335428Y-104070377D01*
X144335428Y-104070377D02*
X144335428Y-103879901D01*
X144335428Y-103879901D02*
X144373524Y-103727520D01*
X144373524Y-103727520D02*
X144411619Y-103651329D01*
X144411619Y-103651329D02*
X144449714Y-103613234D01*
X144449714Y-103613234D02*
X144525905Y-103575139D01*
X128676476Y-104718139D02*
X128676476Y-105365758D01*
X128676476Y-105365758D02*
X128714571Y-105441948D01*
X128714571Y-105441948D02*
X128752666Y-105480044D01*
X128752666Y-105480044D02*
X128828857Y-105518139D01*
X128828857Y-105518139D02*
X128981238Y-105518139D01*
X128981238Y-105518139D02*
X129057428Y-105480044D01*
X129057428Y-105480044D02*
X129095523Y-105441948D01*
X129095523Y-105441948D02*
X129133619Y-105365758D01*
X129133619Y-105365758D02*
X129133619Y-104718139D01*
X129552666Y-105518139D02*
X129705047Y-105518139D01*
X129705047Y-105518139D02*
X129781237Y-105480044D01*
X129781237Y-105480044D02*
X129819333Y-105441948D01*
X129819333Y-105441948D02*
X129895523Y-105327663D01*
X129895523Y-105327663D02*
X129933618Y-105175282D01*
X129933618Y-105175282D02*
X129933618Y-104870520D01*
X129933618Y-104870520D02*
X129895523Y-104794329D01*
X129895523Y-104794329D02*
X129857428Y-104756234D01*
X129857428Y-104756234D02*
X129781237Y-104718139D01*
X129781237Y-104718139D02*
X129628856Y-104718139D01*
X129628856Y-104718139D02*
X129552666Y-104756234D01*
X129552666Y-104756234D02*
X129514571Y-104794329D01*
X129514571Y-104794329D02*
X129476475Y-104870520D01*
X129476475Y-104870520D02*
X129476475Y-105060996D01*
X129476475Y-105060996D02*
X129514571Y-105137186D01*
X129514571Y-105137186D02*
X129552666Y-105175282D01*
X129552666Y-105175282D02*
X129628856Y-105213377D01*
X129628856Y-105213377D02*
X129781237Y-105213377D01*
X129781237Y-105213377D02*
X129857428Y-105175282D01*
X129857428Y-105175282D02*
X129895523Y-105137186D01*
X129895523Y-105137186D02*
X129933618Y-105060996D01*
X142709976Y-110560139D02*
X142709976Y-111207758D01*
X142709976Y-111207758D02*
X142748071Y-111283948D01*
X142748071Y-111283948D02*
X142786166Y-111322044D01*
X142786166Y-111322044D02*
X142862357Y-111360139D01*
X142862357Y-111360139D02*
X143014738Y-111360139D01*
X143014738Y-111360139D02*
X143090928Y-111322044D01*
X143090928Y-111322044D02*
X143129023Y-111283948D01*
X143129023Y-111283948D02*
X143167119Y-111207758D01*
X143167119Y-111207758D02*
X143167119Y-110560139D01*
X143662356Y-110902996D02*
X143586166Y-110864901D01*
X143586166Y-110864901D02*
X143548071Y-110826805D01*
X143548071Y-110826805D02*
X143509975Y-110750615D01*
X143509975Y-110750615D02*
X143509975Y-110712520D01*
X143509975Y-110712520D02*
X143548071Y-110636329D01*
X143548071Y-110636329D02*
X143586166Y-110598234D01*
X143586166Y-110598234D02*
X143662356Y-110560139D01*
X143662356Y-110560139D02*
X143814737Y-110560139D01*
X143814737Y-110560139D02*
X143890928Y-110598234D01*
X143890928Y-110598234D02*
X143929023Y-110636329D01*
X143929023Y-110636329D02*
X143967118Y-110712520D01*
X143967118Y-110712520D02*
X143967118Y-110750615D01*
X143967118Y-110750615D02*
X143929023Y-110826805D01*
X143929023Y-110826805D02*
X143890928Y-110864901D01*
X143890928Y-110864901D02*
X143814737Y-110902996D01*
X143814737Y-110902996D02*
X143662356Y-110902996D01*
X143662356Y-110902996D02*
X143586166Y-110941091D01*
X143586166Y-110941091D02*
X143548071Y-110979186D01*
X143548071Y-110979186D02*
X143509975Y-111055377D01*
X143509975Y-111055377D02*
X143509975Y-111207758D01*
X143509975Y-111207758D02*
X143548071Y-111283948D01*
X143548071Y-111283948D02*
X143586166Y-111322044D01*
X143586166Y-111322044D02*
X143662356Y-111360139D01*
X143662356Y-111360139D02*
X143814737Y-111360139D01*
X143814737Y-111360139D02*
X143890928Y-111322044D01*
X143890928Y-111322044D02*
X143929023Y-111283948D01*
X143929023Y-111283948D02*
X143967118Y-111207758D01*
X143967118Y-111207758D02*
X143967118Y-111055377D01*
X143967118Y-111055377D02*
X143929023Y-110979186D01*
X143929023Y-110979186D02*
X143890928Y-110941091D01*
X143890928Y-110941091D02*
X143814737Y-110902996D01*
X129438476Y-106496139D02*
X129438476Y-107143758D01*
X129438476Y-107143758D02*
X129476571Y-107219948D01*
X129476571Y-107219948D02*
X129514666Y-107258044D01*
X129514666Y-107258044D02*
X129590857Y-107296139D01*
X129590857Y-107296139D02*
X129743238Y-107296139D01*
X129743238Y-107296139D02*
X129819428Y-107258044D01*
X129819428Y-107258044D02*
X129857523Y-107219948D01*
X129857523Y-107219948D02*
X129895619Y-107143758D01*
X129895619Y-107143758D02*
X129895619Y-106496139D01*
X130200380Y-106496139D02*
X130733714Y-106496139D01*
X130733714Y-106496139D02*
X130390856Y-107296139D01*
X117373476Y-102305139D02*
X117373476Y-102952758D01*
X117373476Y-102952758D02*
X117411571Y-103028948D01*
X117411571Y-103028948D02*
X117449666Y-103067044D01*
X117449666Y-103067044D02*
X117525857Y-103105139D01*
X117525857Y-103105139D02*
X117678238Y-103105139D01*
X117678238Y-103105139D02*
X117754428Y-103067044D01*
X117754428Y-103067044D02*
X117792523Y-103028948D01*
X117792523Y-103028948D02*
X117830619Y-102952758D01*
X117830619Y-102952758D02*
X117830619Y-102305139D01*
X118554428Y-102305139D02*
X118402047Y-102305139D01*
X118402047Y-102305139D02*
X118325856Y-102343234D01*
X118325856Y-102343234D02*
X118287761Y-102381329D01*
X118287761Y-102381329D02*
X118211571Y-102495615D01*
X118211571Y-102495615D02*
X118173475Y-102647996D01*
X118173475Y-102647996D02*
X118173475Y-102952758D01*
X118173475Y-102952758D02*
X118211571Y-103028948D01*
X118211571Y-103028948D02*
X118249666Y-103067044D01*
X118249666Y-103067044D02*
X118325856Y-103105139D01*
X118325856Y-103105139D02*
X118478237Y-103105139D01*
X118478237Y-103105139D02*
X118554428Y-103067044D01*
X118554428Y-103067044D02*
X118592523Y-103028948D01*
X118592523Y-103028948D02*
X118630618Y-102952758D01*
X118630618Y-102952758D02*
X118630618Y-102762282D01*
X118630618Y-102762282D02*
X118592523Y-102686091D01*
X118592523Y-102686091D02*
X118554428Y-102647996D01*
X118554428Y-102647996D02*
X118478237Y-102609901D01*
X118478237Y-102609901D02*
X118325856Y-102609901D01*
X118325856Y-102609901D02*
X118249666Y-102647996D01*
X118249666Y-102647996D02*
X118211571Y-102686091D01*
X118211571Y-102686091D02*
X118173475Y-102762282D01*
X106324476Y-104337139D02*
X106324476Y-104984758D01*
X106324476Y-104984758D02*
X106362571Y-105060948D01*
X106362571Y-105060948D02*
X106400666Y-105099044D01*
X106400666Y-105099044D02*
X106476857Y-105137139D01*
X106476857Y-105137139D02*
X106629238Y-105137139D01*
X106629238Y-105137139D02*
X106705428Y-105099044D01*
X106705428Y-105099044D02*
X106743523Y-105060948D01*
X106743523Y-105060948D02*
X106781619Y-104984758D01*
X106781619Y-104984758D02*
X106781619Y-104337139D01*
X107543523Y-104337139D02*
X107162571Y-104337139D01*
X107162571Y-104337139D02*
X107124475Y-104718091D01*
X107124475Y-104718091D02*
X107162571Y-104679996D01*
X107162571Y-104679996D02*
X107238761Y-104641901D01*
X107238761Y-104641901D02*
X107429237Y-104641901D01*
X107429237Y-104641901D02*
X107505428Y-104679996D01*
X107505428Y-104679996D02*
X107543523Y-104718091D01*
X107543523Y-104718091D02*
X107581618Y-104794282D01*
X107581618Y-104794282D02*
X107581618Y-104984758D01*
X107581618Y-104984758D02*
X107543523Y-105060948D01*
X107543523Y-105060948D02*
X107505428Y-105099044D01*
X107505428Y-105099044D02*
X107429237Y-105137139D01*
X107429237Y-105137139D02*
X107238761Y-105137139D01*
X107238761Y-105137139D02*
X107162571Y-105099044D01*
X107162571Y-105099044D02*
X107124475Y-105060948D01*
X119913476Y-115358139D02*
X119913476Y-116005758D01*
X119913476Y-116005758D02*
X119951571Y-116081948D01*
X119951571Y-116081948D02*
X119989666Y-116120044D01*
X119989666Y-116120044D02*
X120065857Y-116158139D01*
X120065857Y-116158139D02*
X120218238Y-116158139D01*
X120218238Y-116158139D02*
X120294428Y-116120044D01*
X120294428Y-116120044D02*
X120332523Y-116081948D01*
X120332523Y-116081948D02*
X120370619Y-116005758D01*
X120370619Y-116005758D02*
X120370619Y-115358139D01*
X121094428Y-115624805D02*
X121094428Y-116158139D01*
X120903952Y-115320044D02*
X120713475Y-115891472D01*
X120713475Y-115891472D02*
X121208714Y-115891472D01*
X126898476Y-101987639D02*
X126898476Y-102635258D01*
X126898476Y-102635258D02*
X126936571Y-102711448D01*
X126936571Y-102711448D02*
X126974666Y-102749544D01*
X126974666Y-102749544D02*
X127050857Y-102787639D01*
X127050857Y-102787639D02*
X127203238Y-102787639D01*
X127203238Y-102787639D02*
X127279428Y-102749544D01*
X127279428Y-102749544D02*
X127317523Y-102711448D01*
X127317523Y-102711448D02*
X127355619Y-102635258D01*
X127355619Y-102635258D02*
X127355619Y-101987639D01*
X127660380Y-101987639D02*
X128155618Y-101987639D01*
X128155618Y-101987639D02*
X127888952Y-102292401D01*
X127888952Y-102292401D02*
X128003237Y-102292401D01*
X128003237Y-102292401D02*
X128079428Y-102330496D01*
X128079428Y-102330496D02*
X128117523Y-102368591D01*
X128117523Y-102368591D02*
X128155618Y-102444782D01*
X128155618Y-102444782D02*
X128155618Y-102635258D01*
X128155618Y-102635258D02*
X128117523Y-102711448D01*
X128117523Y-102711448D02*
X128079428Y-102749544D01*
X128079428Y-102749544D02*
X128003237Y-102787639D01*
X128003237Y-102787639D02*
X127774666Y-102787639D01*
X127774666Y-102787639D02*
X127698475Y-102749544D01*
X127698475Y-102749544D02*
X127660380Y-102711448D01*
X110261476Y-122244139D02*
X110261476Y-122891758D01*
X110261476Y-122891758D02*
X110299571Y-122967948D01*
X110299571Y-122967948D02*
X110337666Y-123006044D01*
X110337666Y-123006044D02*
X110413857Y-123044139D01*
X110413857Y-123044139D02*
X110566238Y-123044139D01*
X110566238Y-123044139D02*
X110642428Y-123006044D01*
X110642428Y-123006044D02*
X110680523Y-122967948D01*
X110680523Y-122967948D02*
X110718619Y-122891758D01*
X110718619Y-122891758D02*
X110718619Y-122244139D01*
X111061475Y-122320329D02*
X111099571Y-122282234D01*
X111099571Y-122282234D02*
X111175761Y-122244139D01*
X111175761Y-122244139D02*
X111366237Y-122244139D01*
X111366237Y-122244139D02*
X111442428Y-122282234D01*
X111442428Y-122282234D02*
X111480523Y-122320329D01*
X111480523Y-122320329D02*
X111518618Y-122396520D01*
X111518618Y-122396520D02*
X111518618Y-122472710D01*
X111518618Y-122472710D02*
X111480523Y-122586996D01*
X111480523Y-122586996D02*
X111023380Y-123044139D01*
X111023380Y-123044139D02*
X111518618Y-123044139D01*
X116166976Y-114193139D02*
X116166976Y-114840758D01*
X116166976Y-114840758D02*
X116205071Y-114916948D01*
X116205071Y-114916948D02*
X116243166Y-114955044D01*
X116243166Y-114955044D02*
X116319357Y-114993139D01*
X116319357Y-114993139D02*
X116471738Y-114993139D01*
X116471738Y-114993139D02*
X116547928Y-114955044D01*
X116547928Y-114955044D02*
X116586023Y-114916948D01*
X116586023Y-114916948D02*
X116624119Y-114840758D01*
X116624119Y-114840758D02*
X116624119Y-114193139D01*
X117424118Y-114993139D02*
X116966975Y-114993139D01*
X117195547Y-114993139D02*
X117195547Y-114193139D01*
X117195547Y-114193139D02*
X117119356Y-114307424D01*
X117119356Y-114307424D02*
X117043166Y-114383615D01*
X117043166Y-114383615D02*
X116966975Y-114421710D01*
X111423639Y-119336285D02*
X111042686Y-119602952D01*
X111423639Y-119793428D02*
X110623639Y-119793428D01*
X110623639Y-119793428D02*
X110623639Y-119488666D01*
X110623639Y-119488666D02*
X110661734Y-119412476D01*
X110661734Y-119412476D02*
X110699829Y-119374381D01*
X110699829Y-119374381D02*
X110776020Y-119336285D01*
X110776020Y-119336285D02*
X110890305Y-119336285D01*
X110890305Y-119336285D02*
X110966496Y-119374381D01*
X110966496Y-119374381D02*
X111004591Y-119412476D01*
X111004591Y-119412476D02*
X111042686Y-119488666D01*
X111042686Y-119488666D02*
X111042686Y-119793428D01*
X110699829Y-119031524D02*
X110661734Y-118993428D01*
X110661734Y-118993428D02*
X110623639Y-118917238D01*
X110623639Y-118917238D02*
X110623639Y-118726762D01*
X110623639Y-118726762D02*
X110661734Y-118650571D01*
X110661734Y-118650571D02*
X110699829Y-118612476D01*
X110699829Y-118612476D02*
X110776020Y-118574381D01*
X110776020Y-118574381D02*
X110852210Y-118574381D01*
X110852210Y-118574381D02*
X110966496Y-118612476D01*
X110966496Y-118612476D02*
X111423639Y-119069619D01*
X111423639Y-119069619D02*
X111423639Y-118574381D01*
X111423639Y-117812476D02*
X111423639Y-118269619D01*
X111423639Y-118041047D02*
X110623639Y-118041047D01*
X110623639Y-118041047D02*
X110737924Y-118117238D01*
X110737924Y-118117238D02*
X110814115Y-118193428D01*
X110814115Y-118193428D02*
X110852210Y-118269619D01*
X139566714Y-103994139D02*
X139300047Y-103613186D01*
X139109571Y-103994139D02*
X139109571Y-103194139D01*
X139109571Y-103194139D02*
X139414333Y-103194139D01*
X139414333Y-103194139D02*
X139490523Y-103232234D01*
X139490523Y-103232234D02*
X139528618Y-103270329D01*
X139528618Y-103270329D02*
X139566714Y-103346520D01*
X139566714Y-103346520D02*
X139566714Y-103460805D01*
X139566714Y-103460805D02*
X139528618Y-103536996D01*
X139528618Y-103536996D02*
X139490523Y-103575091D01*
X139490523Y-103575091D02*
X139414333Y-103613186D01*
X139414333Y-103613186D02*
X139109571Y-103613186D01*
X140328618Y-103994139D02*
X139871475Y-103994139D01*
X140100047Y-103994139D02*
X140100047Y-103194139D01*
X140100047Y-103194139D02*
X140023856Y-103308424D01*
X140023856Y-103308424D02*
X139947666Y-103384615D01*
X139947666Y-103384615D02*
X139871475Y-103422710D01*
X140595285Y-103194139D02*
X141128619Y-103194139D01*
X141128619Y-103194139D02*
X140785761Y-103994139D01*
X147694714Y-98659639D02*
X147428047Y-98278686D01*
X147237571Y-98659639D02*
X147237571Y-97859639D01*
X147237571Y-97859639D02*
X147542333Y-97859639D01*
X147542333Y-97859639D02*
X147618523Y-97897734D01*
X147618523Y-97897734D02*
X147656618Y-97935829D01*
X147656618Y-97935829D02*
X147694714Y-98012020D01*
X147694714Y-98012020D02*
X147694714Y-98126305D01*
X147694714Y-98126305D02*
X147656618Y-98202496D01*
X147656618Y-98202496D02*
X147618523Y-98240591D01*
X147618523Y-98240591D02*
X147542333Y-98278686D01*
X147542333Y-98278686D02*
X147237571Y-98278686D01*
X148456618Y-98659639D02*
X147999475Y-98659639D01*
X148228047Y-98659639D02*
X148228047Y-97859639D01*
X148228047Y-97859639D02*
X148151856Y-97973924D01*
X148151856Y-97973924D02*
X148075666Y-98050115D01*
X148075666Y-98050115D02*
X147999475Y-98088210D01*
X149142333Y-97859639D02*
X148989952Y-97859639D01*
X148989952Y-97859639D02*
X148913761Y-97897734D01*
X148913761Y-97897734D02*
X148875666Y-97935829D01*
X148875666Y-97935829D02*
X148799476Y-98050115D01*
X148799476Y-98050115D02*
X148761380Y-98202496D01*
X148761380Y-98202496D02*
X148761380Y-98507258D01*
X148761380Y-98507258D02*
X148799476Y-98583448D01*
X148799476Y-98583448D02*
X148837571Y-98621544D01*
X148837571Y-98621544D02*
X148913761Y-98659639D01*
X148913761Y-98659639D02*
X149066142Y-98659639D01*
X149066142Y-98659639D02*
X149142333Y-98621544D01*
X149142333Y-98621544D02*
X149180428Y-98583448D01*
X149180428Y-98583448D02*
X149218523Y-98507258D01*
X149218523Y-98507258D02*
X149218523Y-98316782D01*
X149218523Y-98316782D02*
X149180428Y-98240591D01*
X149180428Y-98240591D02*
X149142333Y-98202496D01*
X149142333Y-98202496D02*
X149066142Y-98164401D01*
X149066142Y-98164401D02*
X148913761Y-98164401D01*
X148913761Y-98164401D02*
X148837571Y-98202496D01*
X148837571Y-98202496D02*
X148799476Y-98240591D01*
X148799476Y-98240591D02*
X148761380Y-98316782D01*
X145650139Y-99524285D02*
X145269186Y-99790952D01*
X145650139Y-99981428D02*
X144850139Y-99981428D01*
X144850139Y-99981428D02*
X144850139Y-99676666D01*
X144850139Y-99676666D02*
X144888234Y-99600476D01*
X144888234Y-99600476D02*
X144926329Y-99562381D01*
X144926329Y-99562381D02*
X145002520Y-99524285D01*
X145002520Y-99524285D02*
X145116805Y-99524285D01*
X145116805Y-99524285D02*
X145192996Y-99562381D01*
X145192996Y-99562381D02*
X145231091Y-99600476D01*
X145231091Y-99600476D02*
X145269186Y-99676666D01*
X145269186Y-99676666D02*
X145269186Y-99981428D01*
X145650139Y-98762381D02*
X145650139Y-99219524D01*
X145650139Y-98990952D02*
X144850139Y-98990952D01*
X144850139Y-98990952D02*
X144964424Y-99067143D01*
X144964424Y-99067143D02*
X145040615Y-99143333D01*
X145040615Y-99143333D02*
X145078710Y-99219524D01*
X144850139Y-98038571D02*
X144850139Y-98419523D01*
X144850139Y-98419523D02*
X145231091Y-98457619D01*
X145231091Y-98457619D02*
X145192996Y-98419523D01*
X145192996Y-98419523D02*
X145154901Y-98343333D01*
X145154901Y-98343333D02*
X145154901Y-98152857D01*
X145154901Y-98152857D02*
X145192996Y-98076666D01*
X145192996Y-98076666D02*
X145231091Y-98038571D01*
X145231091Y-98038571D02*
X145307282Y-98000476D01*
X145307282Y-98000476D02*
X145497758Y-98000476D01*
X145497758Y-98000476D02*
X145573948Y-98038571D01*
X145573948Y-98038571D02*
X145612044Y-98076666D01*
X145612044Y-98076666D02*
X145650139Y-98152857D01*
X145650139Y-98152857D02*
X145650139Y-98343333D01*
X145650139Y-98343333D02*
X145612044Y-98419523D01*
X145612044Y-98419523D02*
X145573948Y-98457619D01*
X156766714Y-116008139D02*
X156500047Y-115627186D01*
X156309571Y-116008139D02*
X156309571Y-115208139D01*
X156309571Y-115208139D02*
X156614333Y-115208139D01*
X156614333Y-115208139D02*
X156690523Y-115246234D01*
X156690523Y-115246234D02*
X156728618Y-115284329D01*
X156728618Y-115284329D02*
X156766714Y-115360520D01*
X156766714Y-115360520D02*
X156766714Y-115474805D01*
X156766714Y-115474805D02*
X156728618Y-115550996D01*
X156728618Y-115550996D02*
X156690523Y-115589091D01*
X156690523Y-115589091D02*
X156614333Y-115627186D01*
X156614333Y-115627186D02*
X156309571Y-115627186D01*
X157528618Y-116008139D02*
X157071475Y-116008139D01*
X157300047Y-116008139D02*
X157300047Y-115208139D01*
X157300047Y-115208139D02*
X157223856Y-115322424D01*
X157223856Y-115322424D02*
X157147666Y-115398615D01*
X157147666Y-115398615D02*
X157071475Y-115436710D01*
X158214333Y-115474805D02*
X158214333Y-116008139D01*
X158023857Y-115170044D02*
X157833380Y-115741472D01*
X157833380Y-115741472D02*
X158328619Y-115741472D01*
X138792139Y-115322285D02*
X138411186Y-115588952D01*
X138792139Y-115779428D02*
X137992139Y-115779428D01*
X137992139Y-115779428D02*
X137992139Y-115474666D01*
X137992139Y-115474666D02*
X138030234Y-115398476D01*
X138030234Y-115398476D02*
X138068329Y-115360381D01*
X138068329Y-115360381D02*
X138144520Y-115322285D01*
X138144520Y-115322285D02*
X138258805Y-115322285D01*
X138258805Y-115322285D02*
X138334996Y-115360381D01*
X138334996Y-115360381D02*
X138373091Y-115398476D01*
X138373091Y-115398476D02*
X138411186Y-115474666D01*
X138411186Y-115474666D02*
X138411186Y-115779428D01*
X138792139Y-114560381D02*
X138792139Y-115017524D01*
X138792139Y-114788952D02*
X137992139Y-114788952D01*
X137992139Y-114788952D02*
X138106424Y-114865143D01*
X138106424Y-114865143D02*
X138182615Y-114941333D01*
X138182615Y-114941333D02*
X138220710Y-115017524D01*
X137992139Y-114293714D02*
X137992139Y-113798476D01*
X137992139Y-113798476D02*
X138296901Y-114065142D01*
X138296901Y-114065142D02*
X138296901Y-113950857D01*
X138296901Y-113950857D02*
X138334996Y-113874666D01*
X138334996Y-113874666D02*
X138373091Y-113836571D01*
X138373091Y-113836571D02*
X138449282Y-113798476D01*
X138449282Y-113798476D02*
X138639758Y-113798476D01*
X138639758Y-113798476D02*
X138715948Y-113836571D01*
X138715948Y-113836571D02*
X138754044Y-113874666D01*
X138754044Y-113874666D02*
X138792139Y-113950857D01*
X138792139Y-113950857D02*
X138792139Y-114179428D01*
X138792139Y-114179428D02*
X138754044Y-114255619D01*
X138754044Y-114255619D02*
X138715948Y-114293714D01*
X137788714Y-110217139D02*
X137522047Y-109836186D01*
X137331571Y-110217139D02*
X137331571Y-109417139D01*
X137331571Y-109417139D02*
X137636333Y-109417139D01*
X137636333Y-109417139D02*
X137712523Y-109455234D01*
X137712523Y-109455234D02*
X137750618Y-109493329D01*
X137750618Y-109493329D02*
X137788714Y-109569520D01*
X137788714Y-109569520D02*
X137788714Y-109683805D01*
X137788714Y-109683805D02*
X137750618Y-109759996D01*
X137750618Y-109759996D02*
X137712523Y-109798091D01*
X137712523Y-109798091D02*
X137636333Y-109836186D01*
X137636333Y-109836186D02*
X137331571Y-109836186D01*
X138550618Y-110217139D02*
X138093475Y-110217139D01*
X138322047Y-110217139D02*
X138322047Y-109417139D01*
X138322047Y-109417139D02*
X138245856Y-109531424D01*
X138245856Y-109531424D02*
X138169666Y-109607615D01*
X138169666Y-109607615D02*
X138093475Y-109645710D01*
X138855380Y-109493329D02*
X138893476Y-109455234D01*
X138893476Y-109455234D02*
X138969666Y-109417139D01*
X138969666Y-109417139D02*
X139160142Y-109417139D01*
X139160142Y-109417139D02*
X139236333Y-109455234D01*
X139236333Y-109455234D02*
X139274428Y-109493329D01*
X139274428Y-109493329D02*
X139312523Y-109569520D01*
X139312523Y-109569520D02*
X139312523Y-109645710D01*
X139312523Y-109645710D02*
X139274428Y-109759996D01*
X139274428Y-109759996D02*
X138817285Y-110217139D01*
X138817285Y-110217139D02*
X139312523Y-110217139D01*
X137788714Y-106153139D02*
X137522047Y-105772186D01*
X137331571Y-106153139D02*
X137331571Y-105353139D01*
X137331571Y-105353139D02*
X137636333Y-105353139D01*
X137636333Y-105353139D02*
X137712523Y-105391234D01*
X137712523Y-105391234D02*
X137750618Y-105429329D01*
X137750618Y-105429329D02*
X137788714Y-105505520D01*
X137788714Y-105505520D02*
X137788714Y-105619805D01*
X137788714Y-105619805D02*
X137750618Y-105695996D01*
X137750618Y-105695996D02*
X137712523Y-105734091D01*
X137712523Y-105734091D02*
X137636333Y-105772186D01*
X137636333Y-105772186D02*
X137331571Y-105772186D01*
X138550618Y-106153139D02*
X138093475Y-106153139D01*
X138322047Y-106153139D02*
X138322047Y-105353139D01*
X138322047Y-105353139D02*
X138245856Y-105467424D01*
X138245856Y-105467424D02*
X138169666Y-105543615D01*
X138169666Y-105543615D02*
X138093475Y-105581710D01*
X139312523Y-106153139D02*
X138855380Y-106153139D01*
X139083952Y-106153139D02*
X139083952Y-105353139D01*
X139083952Y-105353139D02*
X139007761Y-105467424D01*
X139007761Y-105467424D02*
X138931571Y-105543615D01*
X138931571Y-105543615D02*
X138855380Y-105581710D01*
X126416714Y-112858139D02*
X126150047Y-112477186D01*
X125959571Y-112858139D02*
X125959571Y-112058139D01*
X125959571Y-112058139D02*
X126264333Y-112058139D01*
X126264333Y-112058139D02*
X126340523Y-112096234D01*
X126340523Y-112096234D02*
X126378618Y-112134329D01*
X126378618Y-112134329D02*
X126416714Y-112210520D01*
X126416714Y-112210520D02*
X126416714Y-112324805D01*
X126416714Y-112324805D02*
X126378618Y-112400996D01*
X126378618Y-112400996D02*
X126340523Y-112439091D01*
X126340523Y-112439091D02*
X126264333Y-112477186D01*
X126264333Y-112477186D02*
X125959571Y-112477186D01*
X127178618Y-112858139D02*
X126721475Y-112858139D01*
X126950047Y-112858139D02*
X126950047Y-112058139D01*
X126950047Y-112058139D02*
X126873856Y-112172424D01*
X126873856Y-112172424D02*
X126797666Y-112248615D01*
X126797666Y-112248615D02*
X126721475Y-112286710D01*
X127673857Y-112058139D02*
X127750047Y-112058139D01*
X127750047Y-112058139D02*
X127826238Y-112096234D01*
X127826238Y-112096234D02*
X127864333Y-112134329D01*
X127864333Y-112134329D02*
X127902428Y-112210520D01*
X127902428Y-112210520D02*
X127940523Y-112362901D01*
X127940523Y-112362901D02*
X127940523Y-112553377D01*
X127940523Y-112553377D02*
X127902428Y-112705758D01*
X127902428Y-112705758D02*
X127864333Y-112781948D01*
X127864333Y-112781948D02*
X127826238Y-112820044D01*
X127826238Y-112820044D02*
X127750047Y-112858139D01*
X127750047Y-112858139D02*
X127673857Y-112858139D01*
X127673857Y-112858139D02*
X127597666Y-112820044D01*
X127597666Y-112820044D02*
X127559571Y-112781948D01*
X127559571Y-112781948D02*
X127521476Y-112705758D01*
X127521476Y-112705758D02*
X127483380Y-112553377D01*
X127483380Y-112553377D02*
X127483380Y-112362901D01*
X127483380Y-112362901D02*
X127521476Y-112210520D01*
X127521476Y-112210520D02*
X127559571Y-112134329D01*
X127559571Y-112134329D02*
X127597666Y-112096234D01*
X127597666Y-112096234D02*
X127673857Y-112058139D01*
X119234139Y-108083332D02*
X118853186Y-108349999D01*
X119234139Y-108540475D02*
X118434139Y-108540475D01*
X118434139Y-108540475D02*
X118434139Y-108235713D01*
X118434139Y-108235713D02*
X118472234Y-108159523D01*
X118472234Y-108159523D02*
X118510329Y-108121428D01*
X118510329Y-108121428D02*
X118586520Y-108083332D01*
X118586520Y-108083332D02*
X118700805Y-108083332D01*
X118700805Y-108083332D02*
X118776996Y-108121428D01*
X118776996Y-108121428D02*
X118815091Y-108159523D01*
X118815091Y-108159523D02*
X118853186Y-108235713D01*
X118853186Y-108235713D02*
X118853186Y-108540475D01*
X119234139Y-107702380D02*
X119234139Y-107549999D01*
X119234139Y-107549999D02*
X119196044Y-107473809D01*
X119196044Y-107473809D02*
X119157948Y-107435713D01*
X119157948Y-107435713D02*
X119043663Y-107359523D01*
X119043663Y-107359523D02*
X118891282Y-107321428D01*
X118891282Y-107321428D02*
X118586520Y-107321428D01*
X118586520Y-107321428D02*
X118510329Y-107359523D01*
X118510329Y-107359523D02*
X118472234Y-107397618D01*
X118472234Y-107397618D02*
X118434139Y-107473809D01*
X118434139Y-107473809D02*
X118434139Y-107626190D01*
X118434139Y-107626190D02*
X118472234Y-107702380D01*
X118472234Y-107702380D02*
X118510329Y-107740475D01*
X118510329Y-107740475D02*
X118586520Y-107778571D01*
X118586520Y-107778571D02*
X118776996Y-107778571D01*
X118776996Y-107778571D02*
X118853186Y-107740475D01*
X118853186Y-107740475D02*
X118891282Y-107702380D01*
X118891282Y-107702380D02*
X118929377Y-107626190D01*
X118929377Y-107626190D02*
X118929377Y-107473809D01*
X118929377Y-107473809D02*
X118891282Y-107397618D01*
X118891282Y-107397618D02*
X118853186Y-107359523D01*
X118853186Y-107359523D02*
X118776996Y-107321428D01*
X120758139Y-108083332D02*
X120377186Y-108349999D01*
X120758139Y-108540475D02*
X119958139Y-108540475D01*
X119958139Y-108540475D02*
X119958139Y-108235713D01*
X119958139Y-108235713D02*
X119996234Y-108159523D01*
X119996234Y-108159523D02*
X120034329Y-108121428D01*
X120034329Y-108121428D02*
X120110520Y-108083332D01*
X120110520Y-108083332D02*
X120224805Y-108083332D01*
X120224805Y-108083332D02*
X120300996Y-108121428D01*
X120300996Y-108121428D02*
X120339091Y-108159523D01*
X120339091Y-108159523D02*
X120377186Y-108235713D01*
X120377186Y-108235713D02*
X120377186Y-108540475D01*
X120300996Y-107626190D02*
X120262901Y-107702380D01*
X120262901Y-107702380D02*
X120224805Y-107740475D01*
X120224805Y-107740475D02*
X120148615Y-107778571D01*
X120148615Y-107778571D02*
X120110520Y-107778571D01*
X120110520Y-107778571D02*
X120034329Y-107740475D01*
X120034329Y-107740475D02*
X119996234Y-107702380D01*
X119996234Y-107702380D02*
X119958139Y-107626190D01*
X119958139Y-107626190D02*
X119958139Y-107473809D01*
X119958139Y-107473809D02*
X119996234Y-107397618D01*
X119996234Y-107397618D02*
X120034329Y-107359523D01*
X120034329Y-107359523D02*
X120110520Y-107321428D01*
X120110520Y-107321428D02*
X120148615Y-107321428D01*
X120148615Y-107321428D02*
X120224805Y-107359523D01*
X120224805Y-107359523D02*
X120262901Y-107397618D01*
X120262901Y-107397618D02*
X120300996Y-107473809D01*
X120300996Y-107473809D02*
X120300996Y-107626190D01*
X120300996Y-107626190D02*
X120339091Y-107702380D01*
X120339091Y-107702380D02*
X120377186Y-107740475D01*
X120377186Y-107740475D02*
X120453377Y-107778571D01*
X120453377Y-107778571D02*
X120605758Y-107778571D01*
X120605758Y-107778571D02*
X120681948Y-107740475D01*
X120681948Y-107740475D02*
X120720044Y-107702380D01*
X120720044Y-107702380D02*
X120758139Y-107626190D01*
X120758139Y-107626190D02*
X120758139Y-107473809D01*
X120758139Y-107473809D02*
X120720044Y-107397618D01*
X120720044Y-107397618D02*
X120681948Y-107359523D01*
X120681948Y-107359523D02*
X120605758Y-107321428D01*
X120605758Y-107321428D02*
X120453377Y-107321428D01*
X120453377Y-107321428D02*
X120377186Y-107359523D01*
X120377186Y-107359523D02*
X120339091Y-107397618D01*
X120339091Y-107397618D02*
X120300996Y-107473809D01*
X132708667Y-115424139D02*
X132442000Y-115043186D01*
X132251524Y-115424139D02*
X132251524Y-114624139D01*
X132251524Y-114624139D02*
X132556286Y-114624139D01*
X132556286Y-114624139D02*
X132632476Y-114662234D01*
X132632476Y-114662234D02*
X132670571Y-114700329D01*
X132670571Y-114700329D02*
X132708667Y-114776520D01*
X132708667Y-114776520D02*
X132708667Y-114890805D01*
X132708667Y-114890805D02*
X132670571Y-114966996D01*
X132670571Y-114966996D02*
X132632476Y-115005091D01*
X132632476Y-115005091D02*
X132556286Y-115043186D01*
X132556286Y-115043186D02*
X132251524Y-115043186D01*
X132975333Y-114624139D02*
X133508667Y-114624139D01*
X133508667Y-114624139D02*
X133165809Y-115424139D01*
X128505139Y-122307332D02*
X128124186Y-122573999D01*
X128505139Y-122764475D02*
X127705139Y-122764475D01*
X127705139Y-122764475D02*
X127705139Y-122459713D01*
X127705139Y-122459713D02*
X127743234Y-122383523D01*
X127743234Y-122383523D02*
X127781329Y-122345428D01*
X127781329Y-122345428D02*
X127857520Y-122307332D01*
X127857520Y-122307332D02*
X127971805Y-122307332D01*
X127971805Y-122307332D02*
X128047996Y-122345428D01*
X128047996Y-122345428D02*
X128086091Y-122383523D01*
X128086091Y-122383523D02*
X128124186Y-122459713D01*
X128124186Y-122459713D02*
X128124186Y-122764475D01*
X127705139Y-121621618D02*
X127705139Y-121773999D01*
X127705139Y-121773999D02*
X127743234Y-121850190D01*
X127743234Y-121850190D02*
X127781329Y-121888285D01*
X127781329Y-121888285D02*
X127895615Y-121964475D01*
X127895615Y-121964475D02*
X128047996Y-122002571D01*
X128047996Y-122002571D02*
X128352758Y-122002571D01*
X128352758Y-122002571D02*
X128428948Y-121964475D01*
X128428948Y-121964475D02*
X128467044Y-121926380D01*
X128467044Y-121926380D02*
X128505139Y-121850190D01*
X128505139Y-121850190D02*
X128505139Y-121697809D01*
X128505139Y-121697809D02*
X128467044Y-121621618D01*
X128467044Y-121621618D02*
X128428948Y-121583523D01*
X128428948Y-121583523D02*
X128352758Y-121545428D01*
X128352758Y-121545428D02*
X128162282Y-121545428D01*
X128162282Y-121545428D02*
X128086091Y-121583523D01*
X128086091Y-121583523D02*
X128047996Y-121621618D01*
X128047996Y-121621618D02*
X128009901Y-121697809D01*
X128009901Y-121697809D02*
X128009901Y-121850190D01*
X128009901Y-121850190D02*
X128047996Y-121926380D01*
X128047996Y-121926380D02*
X128086091Y-121964475D01*
X128086091Y-121964475D02*
X128162282Y-122002571D01*
X124547667Y-114208139D02*
X124281000Y-113827186D01*
X124090524Y-114208139D02*
X124090524Y-113408139D01*
X124090524Y-113408139D02*
X124395286Y-113408139D01*
X124395286Y-113408139D02*
X124471476Y-113446234D01*
X124471476Y-113446234D02*
X124509571Y-113484329D01*
X124509571Y-113484329D02*
X124547667Y-113560520D01*
X124547667Y-113560520D02*
X124547667Y-113674805D01*
X124547667Y-113674805D02*
X124509571Y-113750996D01*
X124509571Y-113750996D02*
X124471476Y-113789091D01*
X124471476Y-113789091D02*
X124395286Y-113827186D01*
X124395286Y-113827186D02*
X124090524Y-113827186D01*
X125271476Y-113408139D02*
X124890524Y-113408139D01*
X124890524Y-113408139D02*
X124852428Y-113789091D01*
X124852428Y-113789091D02*
X124890524Y-113750996D01*
X124890524Y-113750996D02*
X124966714Y-113712901D01*
X124966714Y-113712901D02*
X125157190Y-113712901D01*
X125157190Y-113712901D02*
X125233381Y-113750996D01*
X125233381Y-113750996D02*
X125271476Y-113789091D01*
X125271476Y-113789091D02*
X125309571Y-113865282D01*
X125309571Y-113865282D02*
X125309571Y-114055758D01*
X125309571Y-114055758D02*
X125271476Y-114131948D01*
X125271476Y-114131948D02*
X125233381Y-114170044D01*
X125233381Y-114170044D02*
X125157190Y-114208139D01*
X125157190Y-114208139D02*
X124966714Y-114208139D01*
X124966714Y-114208139D02*
X124890524Y-114170044D01*
X124890524Y-114170044D02*
X124852428Y-114131948D01*
X129267139Y-96272332D02*
X128886186Y-96538999D01*
X129267139Y-96729475D02*
X128467139Y-96729475D01*
X128467139Y-96729475D02*
X128467139Y-96424713D01*
X128467139Y-96424713D02*
X128505234Y-96348523D01*
X128505234Y-96348523D02*
X128543329Y-96310428D01*
X128543329Y-96310428D02*
X128619520Y-96272332D01*
X128619520Y-96272332D02*
X128733805Y-96272332D01*
X128733805Y-96272332D02*
X128809996Y-96310428D01*
X128809996Y-96310428D02*
X128848091Y-96348523D01*
X128848091Y-96348523D02*
X128886186Y-96424713D01*
X128886186Y-96424713D02*
X128886186Y-96729475D01*
X128467139Y-96005666D02*
X128467139Y-95510428D01*
X128467139Y-95510428D02*
X128771901Y-95777094D01*
X128771901Y-95777094D02*
X128771901Y-95662809D01*
X128771901Y-95662809D02*
X128809996Y-95586618D01*
X128809996Y-95586618D02*
X128848091Y-95548523D01*
X128848091Y-95548523D02*
X128924282Y-95510428D01*
X128924282Y-95510428D02*
X129114758Y-95510428D01*
X129114758Y-95510428D02*
X129190948Y-95548523D01*
X129190948Y-95548523D02*
X129229044Y-95586618D01*
X129229044Y-95586618D02*
X129267139Y-95662809D01*
X129267139Y-95662809D02*
X129267139Y-95891380D01*
X129267139Y-95891380D02*
X129229044Y-95967571D01*
X129229044Y-95967571D02*
X129190948Y-96005666D01*
X129267139Y-98063832D02*
X128886186Y-98330499D01*
X129267139Y-98520975D02*
X128467139Y-98520975D01*
X128467139Y-98520975D02*
X128467139Y-98216213D01*
X128467139Y-98216213D02*
X128505234Y-98140023D01*
X128505234Y-98140023D02*
X128543329Y-98101928D01*
X128543329Y-98101928D02*
X128619520Y-98063832D01*
X128619520Y-98063832D02*
X128733805Y-98063832D01*
X128733805Y-98063832D02*
X128809996Y-98101928D01*
X128809996Y-98101928D02*
X128848091Y-98140023D01*
X128848091Y-98140023D02*
X128886186Y-98216213D01*
X128886186Y-98216213D02*
X128886186Y-98520975D01*
X128543329Y-97759071D02*
X128505234Y-97720975D01*
X128505234Y-97720975D02*
X128467139Y-97644785D01*
X128467139Y-97644785D02*
X128467139Y-97454309D01*
X128467139Y-97454309D02*
X128505234Y-97378118D01*
X128505234Y-97378118D02*
X128543329Y-97340023D01*
X128543329Y-97340023D02*
X128619520Y-97301928D01*
X128619520Y-97301928D02*
X128695710Y-97301928D01*
X128695710Y-97301928D02*
X128809996Y-97340023D01*
X128809996Y-97340023D02*
X129267139Y-97797166D01*
X129267139Y-97797166D02*
X129267139Y-97301928D01*
X119361139Y-119767332D02*
X118980186Y-120033999D01*
X119361139Y-120224475D02*
X118561139Y-120224475D01*
X118561139Y-120224475D02*
X118561139Y-119919713D01*
X118561139Y-119919713D02*
X118599234Y-119843523D01*
X118599234Y-119843523D02*
X118637329Y-119805428D01*
X118637329Y-119805428D02*
X118713520Y-119767332D01*
X118713520Y-119767332D02*
X118827805Y-119767332D01*
X118827805Y-119767332D02*
X118903996Y-119805428D01*
X118903996Y-119805428D02*
X118942091Y-119843523D01*
X118942091Y-119843523D02*
X118980186Y-119919713D01*
X118980186Y-119919713D02*
X118980186Y-120224475D01*
X119361139Y-119005428D02*
X119361139Y-119462571D01*
X119361139Y-119233999D02*
X118561139Y-119233999D01*
X118561139Y-119233999D02*
X118675424Y-119310190D01*
X118675424Y-119310190D02*
X118751615Y-119386380D01*
X118751615Y-119386380D02*
X118789710Y-119462571D01*
X139052309Y-119881829D02*
X138976119Y-119843734D01*
X138976119Y-119843734D02*
X138899928Y-119767544D01*
X138899928Y-119767544D02*
X138785642Y-119653258D01*
X138785642Y-119653258D02*
X138709452Y-119615163D01*
X138709452Y-119615163D02*
X138633261Y-119615163D01*
X138671357Y-119805639D02*
X138595166Y-119767544D01*
X138595166Y-119767544D02*
X138518976Y-119691353D01*
X138518976Y-119691353D02*
X138480880Y-119538972D01*
X138480880Y-119538972D02*
X138480880Y-119272305D01*
X138480880Y-119272305D02*
X138518976Y-119119924D01*
X138518976Y-119119924D02*
X138595166Y-119043734D01*
X138595166Y-119043734D02*
X138671357Y-119005639D01*
X138671357Y-119005639D02*
X138823738Y-119005639D01*
X138823738Y-119005639D02*
X138899928Y-119043734D01*
X138899928Y-119043734D02*
X138976119Y-119119924D01*
X138976119Y-119119924D02*
X139014214Y-119272305D01*
X139014214Y-119272305D02*
X139014214Y-119538972D01*
X139014214Y-119538972D02*
X138976119Y-119691353D01*
X138976119Y-119691353D02*
X138899928Y-119767544D01*
X138899928Y-119767544D02*
X138823738Y-119805639D01*
X138823738Y-119805639D02*
X138671357Y-119805639D01*
X139280880Y-119005639D02*
X139814214Y-119005639D01*
X139814214Y-119005639D02*
X139471356Y-119805639D01*
X143243309Y-112896829D02*
X143167119Y-112858734D01*
X143167119Y-112858734D02*
X143090928Y-112782544D01*
X143090928Y-112782544D02*
X142976642Y-112668258D01*
X142976642Y-112668258D02*
X142900452Y-112630163D01*
X142900452Y-112630163D02*
X142824261Y-112630163D01*
X142862357Y-112820639D02*
X142786166Y-112782544D01*
X142786166Y-112782544D02*
X142709976Y-112706353D01*
X142709976Y-112706353D02*
X142671880Y-112553972D01*
X142671880Y-112553972D02*
X142671880Y-112287305D01*
X142671880Y-112287305D02*
X142709976Y-112134924D01*
X142709976Y-112134924D02*
X142786166Y-112058734D01*
X142786166Y-112058734D02*
X142862357Y-112020639D01*
X142862357Y-112020639D02*
X143014738Y-112020639D01*
X143014738Y-112020639D02*
X143090928Y-112058734D01*
X143090928Y-112058734D02*
X143167119Y-112134924D01*
X143167119Y-112134924D02*
X143205214Y-112287305D01*
X143205214Y-112287305D02*
X143205214Y-112553972D01*
X143205214Y-112553972D02*
X143167119Y-112706353D01*
X143167119Y-112706353D02*
X143090928Y-112782544D01*
X143090928Y-112782544D02*
X143014738Y-112820639D01*
X143014738Y-112820639D02*
X142862357Y-112820639D01*
X143890928Y-112020639D02*
X143738547Y-112020639D01*
X143738547Y-112020639D02*
X143662356Y-112058734D01*
X143662356Y-112058734D02*
X143624261Y-112096829D01*
X143624261Y-112096829D02*
X143548071Y-112211115D01*
X143548071Y-112211115D02*
X143509975Y-112363496D01*
X143509975Y-112363496D02*
X143509975Y-112668258D01*
X143509975Y-112668258D02*
X143548071Y-112744448D01*
X143548071Y-112744448D02*
X143586166Y-112782544D01*
X143586166Y-112782544D02*
X143662356Y-112820639D01*
X143662356Y-112820639D02*
X143814737Y-112820639D01*
X143814737Y-112820639D02*
X143890928Y-112782544D01*
X143890928Y-112782544D02*
X143929023Y-112744448D01*
X143929023Y-112744448D02*
X143967118Y-112668258D01*
X143967118Y-112668258D02*
X143967118Y-112477782D01*
X143967118Y-112477782D02*
X143929023Y-112401591D01*
X143929023Y-112401591D02*
X143890928Y-112363496D01*
X143890928Y-112363496D02*
X143814737Y-112325401D01*
X143814737Y-112325401D02*
X143662356Y-112325401D01*
X143662356Y-112325401D02*
X143586166Y-112363496D01*
X143586166Y-112363496D02*
X143548071Y-112401591D01*
X143548071Y-112401591D02*
X143509975Y-112477782D01*
X152330329Y-110693190D02*
X152292234Y-110769380D01*
X152292234Y-110769380D02*
X152216044Y-110845571D01*
X152216044Y-110845571D02*
X152101758Y-110959857D01*
X152101758Y-110959857D02*
X152063663Y-111036047D01*
X152063663Y-111036047D02*
X152063663Y-111112238D01*
X152254139Y-111074142D02*
X152216044Y-111150333D01*
X152216044Y-111150333D02*
X152139853Y-111226523D01*
X152139853Y-111226523D02*
X151987472Y-111264619D01*
X151987472Y-111264619D02*
X151720805Y-111264619D01*
X151720805Y-111264619D02*
X151568424Y-111226523D01*
X151568424Y-111226523D02*
X151492234Y-111150333D01*
X151492234Y-111150333D02*
X151454139Y-111074142D01*
X151454139Y-111074142D02*
X151454139Y-110921761D01*
X151454139Y-110921761D02*
X151492234Y-110845571D01*
X151492234Y-110845571D02*
X151568424Y-110769380D01*
X151568424Y-110769380D02*
X151720805Y-110731285D01*
X151720805Y-110731285D02*
X151987472Y-110731285D01*
X151987472Y-110731285D02*
X152139853Y-110769380D01*
X152139853Y-110769380D02*
X152216044Y-110845571D01*
X152216044Y-110845571D02*
X152254139Y-110921761D01*
X152254139Y-110921761D02*
X152254139Y-111074142D01*
X151454139Y-110007476D02*
X151454139Y-110388428D01*
X151454139Y-110388428D02*
X151835091Y-110426524D01*
X151835091Y-110426524D02*
X151796996Y-110388428D01*
X151796996Y-110388428D02*
X151758901Y-110312238D01*
X151758901Y-110312238D02*
X151758901Y-110121762D01*
X151758901Y-110121762D02*
X151796996Y-110045571D01*
X151796996Y-110045571D02*
X151835091Y-110007476D01*
X151835091Y-110007476D02*
X151911282Y-109969381D01*
X151911282Y-109969381D02*
X152101758Y-109969381D01*
X152101758Y-109969381D02*
X152177948Y-110007476D01*
X152177948Y-110007476D02*
X152216044Y-110045571D01*
X152216044Y-110045571D02*
X152254139Y-110121762D01*
X152254139Y-110121762D02*
X152254139Y-110312238D01*
X152254139Y-110312238D02*
X152216044Y-110388428D01*
X152216044Y-110388428D02*
X152177948Y-110426524D01*
X125399809Y-109150329D02*
X125323619Y-109112234D01*
X125323619Y-109112234D02*
X125247428Y-109036044D01*
X125247428Y-109036044D02*
X125133142Y-108921758D01*
X125133142Y-108921758D02*
X125056952Y-108883663D01*
X125056952Y-108883663D02*
X124980761Y-108883663D01*
X125018857Y-109074139D02*
X124942666Y-109036044D01*
X124942666Y-109036044D02*
X124866476Y-108959853D01*
X124866476Y-108959853D02*
X124828380Y-108807472D01*
X124828380Y-108807472D02*
X124828380Y-108540805D01*
X124828380Y-108540805D02*
X124866476Y-108388424D01*
X124866476Y-108388424D02*
X124942666Y-108312234D01*
X124942666Y-108312234D02*
X125018857Y-108274139D01*
X125018857Y-108274139D02*
X125171238Y-108274139D01*
X125171238Y-108274139D02*
X125247428Y-108312234D01*
X125247428Y-108312234D02*
X125323619Y-108388424D01*
X125323619Y-108388424D02*
X125361714Y-108540805D01*
X125361714Y-108540805D02*
X125361714Y-108807472D01*
X125361714Y-108807472D02*
X125323619Y-108959853D01*
X125323619Y-108959853D02*
X125247428Y-109036044D01*
X125247428Y-109036044D02*
X125171238Y-109074139D01*
X125171238Y-109074139D02*
X125018857Y-109074139D01*
X126047428Y-108540805D02*
X126047428Y-109074139D01*
X125856952Y-108236044D02*
X125666475Y-108807472D01*
X125666475Y-108807472D02*
X126161714Y-108807472D01*
X125399809Y-105657829D02*
X125323619Y-105619734D01*
X125323619Y-105619734D02*
X125247428Y-105543544D01*
X125247428Y-105543544D02*
X125133142Y-105429258D01*
X125133142Y-105429258D02*
X125056952Y-105391163D01*
X125056952Y-105391163D02*
X124980761Y-105391163D01*
X125018857Y-105581639D02*
X124942666Y-105543544D01*
X124942666Y-105543544D02*
X124866476Y-105467353D01*
X124866476Y-105467353D02*
X124828380Y-105314972D01*
X124828380Y-105314972D02*
X124828380Y-105048305D01*
X124828380Y-105048305D02*
X124866476Y-104895924D01*
X124866476Y-104895924D02*
X124942666Y-104819734D01*
X124942666Y-104819734D02*
X125018857Y-104781639D01*
X125018857Y-104781639D02*
X125171238Y-104781639D01*
X125171238Y-104781639D02*
X125247428Y-104819734D01*
X125247428Y-104819734D02*
X125323619Y-104895924D01*
X125323619Y-104895924D02*
X125361714Y-105048305D01*
X125361714Y-105048305D02*
X125361714Y-105314972D01*
X125361714Y-105314972D02*
X125323619Y-105467353D01*
X125323619Y-105467353D02*
X125247428Y-105543544D01*
X125247428Y-105543544D02*
X125171238Y-105581639D01*
X125171238Y-105581639D02*
X125018857Y-105581639D01*
X125628380Y-104781639D02*
X126123618Y-104781639D01*
X126123618Y-104781639D02*
X125856952Y-105086401D01*
X125856952Y-105086401D02*
X125971237Y-105086401D01*
X125971237Y-105086401D02*
X126047428Y-105124496D01*
X126047428Y-105124496D02*
X126085523Y-105162591D01*
X126085523Y-105162591D02*
X126123618Y-105238782D01*
X126123618Y-105238782D02*
X126123618Y-105429258D01*
X126123618Y-105429258D02*
X126085523Y-105505448D01*
X126085523Y-105505448D02*
X126047428Y-105543544D01*
X126047428Y-105543544D02*
X125971237Y-105581639D01*
X125971237Y-105581639D02*
X125742666Y-105581639D01*
X125742666Y-105581639D02*
X125666475Y-105543544D01*
X125666475Y-105543544D02*
X125628380Y-105505448D01*
X130105329Y-116662190D02*
X130067234Y-116738380D01*
X130067234Y-116738380D02*
X129991044Y-116814571D01*
X129991044Y-116814571D02*
X129876758Y-116928857D01*
X129876758Y-116928857D02*
X129838663Y-117005047D01*
X129838663Y-117005047D02*
X129838663Y-117081238D01*
X130029139Y-117043142D02*
X129991044Y-117119333D01*
X129991044Y-117119333D02*
X129914853Y-117195523D01*
X129914853Y-117195523D02*
X129762472Y-117233619D01*
X129762472Y-117233619D02*
X129495805Y-117233619D01*
X129495805Y-117233619D02*
X129343424Y-117195523D01*
X129343424Y-117195523D02*
X129267234Y-117119333D01*
X129267234Y-117119333D02*
X129229139Y-117043142D01*
X129229139Y-117043142D02*
X129229139Y-116890761D01*
X129229139Y-116890761D02*
X129267234Y-116814571D01*
X129267234Y-116814571D02*
X129343424Y-116738380D01*
X129343424Y-116738380D02*
X129495805Y-116700285D01*
X129495805Y-116700285D02*
X129762472Y-116700285D01*
X129762472Y-116700285D02*
X129914853Y-116738380D01*
X129914853Y-116738380D02*
X129991044Y-116814571D01*
X129991044Y-116814571D02*
X130029139Y-116890761D01*
X130029139Y-116890761D02*
X130029139Y-117043142D01*
X129305329Y-116395524D02*
X129267234Y-116357428D01*
X129267234Y-116357428D02*
X129229139Y-116281238D01*
X129229139Y-116281238D02*
X129229139Y-116090762D01*
X129229139Y-116090762D02*
X129267234Y-116014571D01*
X129267234Y-116014571D02*
X129305329Y-115976476D01*
X129305329Y-115976476D02*
X129381520Y-115938381D01*
X129381520Y-115938381D02*
X129457710Y-115938381D01*
X129457710Y-115938381D02*
X129571996Y-115976476D01*
X129571996Y-115976476D02*
X130029139Y-116433619D01*
X130029139Y-116433619D02*
X130029139Y-115938381D01*
X137464809Y-103435329D02*
X137388619Y-103397234D01*
X137388619Y-103397234D02*
X137312428Y-103321044D01*
X137312428Y-103321044D02*
X137198142Y-103206758D01*
X137198142Y-103206758D02*
X137121952Y-103168663D01*
X137121952Y-103168663D02*
X137045761Y-103168663D01*
X137083857Y-103359139D02*
X137007666Y-103321044D01*
X137007666Y-103321044D02*
X136931476Y-103244853D01*
X136931476Y-103244853D02*
X136893380Y-103092472D01*
X136893380Y-103092472D02*
X136893380Y-102825805D01*
X136893380Y-102825805D02*
X136931476Y-102673424D01*
X136931476Y-102673424D02*
X137007666Y-102597234D01*
X137007666Y-102597234D02*
X137083857Y-102559139D01*
X137083857Y-102559139D02*
X137236238Y-102559139D01*
X137236238Y-102559139D02*
X137312428Y-102597234D01*
X137312428Y-102597234D02*
X137388619Y-102673424D01*
X137388619Y-102673424D02*
X137426714Y-102825805D01*
X137426714Y-102825805D02*
X137426714Y-103092472D01*
X137426714Y-103092472D02*
X137388619Y-103244853D01*
X137388619Y-103244853D02*
X137312428Y-103321044D01*
X137312428Y-103321044D02*
X137236238Y-103359139D01*
X137236238Y-103359139D02*
X137083857Y-103359139D01*
X138188618Y-103359139D02*
X137731475Y-103359139D01*
X137960047Y-103359139D02*
X137960047Y-102559139D01*
X137960047Y-102559139D02*
X137883856Y-102673424D01*
X137883856Y-102673424D02*
X137807666Y-102749615D01*
X137807666Y-102749615D02*
X137731475Y-102787710D01*
D10*
X102705819Y-99533833D02*
X103420104Y-99533833D01*
X103420104Y-99533833D02*
X103562961Y-99581452D01*
X103562961Y-99581452D02*
X103658200Y-99676690D01*
X103658200Y-99676690D02*
X103705819Y-99819547D01*
X103705819Y-99819547D02*
X103705819Y-99914785D01*
X103039152Y-98629071D02*
X103705819Y-98629071D01*
X102658200Y-98867166D02*
X103372485Y-99105261D01*
X103372485Y-99105261D02*
X103372485Y-98486214D01*
D11*
X124919833Y-98254639D02*
X124919833Y-98826067D01*
X124919833Y-98826067D02*
X124881738Y-98940353D01*
X124881738Y-98940353D02*
X124805547Y-99016544D01*
X124805547Y-99016544D02*
X124691262Y-99054639D01*
X124691262Y-99054639D02*
X124615071Y-99054639D01*
X125262690Y-98330829D02*
X125300786Y-98292734D01*
X125300786Y-98292734D02*
X125376976Y-98254639D01*
X125376976Y-98254639D02*
X125567452Y-98254639D01*
X125567452Y-98254639D02*
X125643643Y-98292734D01*
X125643643Y-98292734D02*
X125681738Y-98330829D01*
X125681738Y-98330829D02*
X125719833Y-98407020D01*
X125719833Y-98407020D02*
X125719833Y-98483210D01*
X125719833Y-98483210D02*
X125681738Y-98597496D01*
X125681738Y-98597496D02*
X125224595Y-99054639D01*
X125224595Y-99054639D02*
X125719833Y-99054639D01*
D10*
X102705819Y-119472833D02*
X103420104Y-119472833D01*
X103420104Y-119472833D02*
X103562961Y-119520452D01*
X103562961Y-119520452D02*
X103658200Y-119615690D01*
X103658200Y-119615690D02*
X103705819Y-119758547D01*
X103705819Y-119758547D02*
X103705819Y-119853785D01*
X103705819Y-118472833D02*
X103705819Y-119044261D01*
X103705819Y-118758547D02*
X102705819Y-118758547D01*
X102705819Y-118758547D02*
X102848676Y-118853785D01*
X102848676Y-118853785D02*
X102943914Y-118949023D01*
X102943914Y-118949023D02*
X102991533Y-119044261D01*
D11*
X135807524Y-116821139D02*
X135807524Y-116021139D01*
X135807524Y-116021139D02*
X135998000Y-116021139D01*
X135998000Y-116021139D02*
X136112286Y-116059234D01*
X136112286Y-116059234D02*
X136188476Y-116135424D01*
X136188476Y-116135424D02*
X136226571Y-116211615D01*
X136226571Y-116211615D02*
X136264667Y-116363996D01*
X136264667Y-116363996D02*
X136264667Y-116478282D01*
X136264667Y-116478282D02*
X136226571Y-116630663D01*
X136226571Y-116630663D02*
X136188476Y-116706853D01*
X136188476Y-116706853D02*
X136112286Y-116783044D01*
X136112286Y-116783044D02*
X135998000Y-116821139D01*
X135998000Y-116821139D02*
X135807524Y-116821139D01*
X136531333Y-116021139D02*
X137026571Y-116021139D01*
X137026571Y-116021139D02*
X136759905Y-116325901D01*
X136759905Y-116325901D02*
X136874190Y-116325901D01*
X136874190Y-116325901D02*
X136950381Y-116363996D01*
X136950381Y-116363996D02*
X136988476Y-116402091D01*
X136988476Y-116402091D02*
X137026571Y-116478282D01*
X137026571Y-116478282D02*
X137026571Y-116668758D01*
X137026571Y-116668758D02*
X136988476Y-116744948D01*
X136988476Y-116744948D02*
X136950381Y-116783044D01*
X136950381Y-116783044D02*
X136874190Y-116821139D01*
X136874190Y-116821139D02*
X136645619Y-116821139D01*
X136645619Y-116821139D02*
X136569428Y-116783044D01*
X136569428Y-116783044D02*
X136531333Y-116744948D01*
X126340524Y-111858139D02*
X126340524Y-111058139D01*
X126340524Y-111058139D02*
X126531000Y-111058139D01*
X126531000Y-111058139D02*
X126645286Y-111096234D01*
X126645286Y-111096234D02*
X126721476Y-111172424D01*
X126721476Y-111172424D02*
X126759571Y-111248615D01*
X126759571Y-111248615D02*
X126797667Y-111400996D01*
X126797667Y-111400996D02*
X126797667Y-111515282D01*
X126797667Y-111515282D02*
X126759571Y-111667663D01*
X126759571Y-111667663D02*
X126721476Y-111743853D01*
X126721476Y-111743853D02*
X126645286Y-111820044D01*
X126645286Y-111820044D02*
X126531000Y-111858139D01*
X126531000Y-111858139D02*
X126340524Y-111858139D01*
X127102428Y-111134329D02*
X127140524Y-111096234D01*
X127140524Y-111096234D02*
X127216714Y-111058139D01*
X127216714Y-111058139D02*
X127407190Y-111058139D01*
X127407190Y-111058139D02*
X127483381Y-111096234D01*
X127483381Y-111096234D02*
X127521476Y-111134329D01*
X127521476Y-111134329D02*
X127559571Y-111210520D01*
X127559571Y-111210520D02*
X127559571Y-111286710D01*
X127559571Y-111286710D02*
X127521476Y-111400996D01*
X127521476Y-111400996D02*
X127064333Y-111858139D01*
X127064333Y-111858139D02*
X127559571Y-111858139D01*
X111499714Y-102661448D02*
X111461618Y-102699544D01*
X111461618Y-102699544D02*
X111347333Y-102737639D01*
X111347333Y-102737639D02*
X111271142Y-102737639D01*
X111271142Y-102737639D02*
X111156856Y-102699544D01*
X111156856Y-102699544D02*
X111080666Y-102623353D01*
X111080666Y-102623353D02*
X111042571Y-102547163D01*
X111042571Y-102547163D02*
X111004475Y-102394782D01*
X111004475Y-102394782D02*
X111004475Y-102280496D01*
X111004475Y-102280496D02*
X111042571Y-102128115D01*
X111042571Y-102128115D02*
X111080666Y-102051924D01*
X111080666Y-102051924D02*
X111156856Y-101975734D01*
X111156856Y-101975734D02*
X111271142Y-101937639D01*
X111271142Y-101937639D02*
X111347333Y-101937639D01*
X111347333Y-101937639D02*
X111461618Y-101975734D01*
X111461618Y-101975734D02*
X111499714Y-102013829D01*
X111804475Y-102013829D02*
X111842571Y-101975734D01*
X111842571Y-101975734D02*
X111918761Y-101937639D01*
X111918761Y-101937639D02*
X112109237Y-101937639D01*
X112109237Y-101937639D02*
X112185428Y-101975734D01*
X112185428Y-101975734D02*
X112223523Y-102013829D01*
X112223523Y-102013829D02*
X112261618Y-102090020D01*
X112261618Y-102090020D02*
X112261618Y-102166210D01*
X112261618Y-102166210D02*
X112223523Y-102280496D01*
X112223523Y-102280496D02*
X111766380Y-102737639D01*
X111766380Y-102737639D02*
X112261618Y-102737639D01*
X113023523Y-102737639D02*
X112566380Y-102737639D01*
X112794952Y-102737639D02*
X112794952Y-101937639D01*
X112794952Y-101937639D02*
X112718761Y-102051924D01*
X112718761Y-102051924D02*
X112642571Y-102128115D01*
X112642571Y-102128115D02*
X112566380Y-102166210D01*
X174047214Y-99155448D02*
X174009118Y-99193544D01*
X174009118Y-99193544D02*
X173894833Y-99231639D01*
X173894833Y-99231639D02*
X173818642Y-99231639D01*
X173818642Y-99231639D02*
X173704356Y-99193544D01*
X173704356Y-99193544D02*
X173628166Y-99117353D01*
X173628166Y-99117353D02*
X173590071Y-99041163D01*
X173590071Y-99041163D02*
X173551975Y-98888782D01*
X173551975Y-98888782D02*
X173551975Y-98774496D01*
X173551975Y-98774496D02*
X173590071Y-98622115D01*
X173590071Y-98622115D02*
X173628166Y-98545924D01*
X173628166Y-98545924D02*
X173704356Y-98469734D01*
X173704356Y-98469734D02*
X173818642Y-98431639D01*
X173818642Y-98431639D02*
X173894833Y-98431639D01*
X173894833Y-98431639D02*
X174009118Y-98469734D01*
X174009118Y-98469734D02*
X174047214Y-98507829D01*
X174351975Y-98507829D02*
X174390071Y-98469734D01*
X174390071Y-98469734D02*
X174466261Y-98431639D01*
X174466261Y-98431639D02*
X174656737Y-98431639D01*
X174656737Y-98431639D02*
X174732928Y-98469734D01*
X174732928Y-98469734D02*
X174771023Y-98507829D01*
X174771023Y-98507829D02*
X174809118Y-98584020D01*
X174809118Y-98584020D02*
X174809118Y-98660210D01*
X174809118Y-98660210D02*
X174771023Y-98774496D01*
X174771023Y-98774496D02*
X174313880Y-99231639D01*
X174313880Y-99231639D02*
X174809118Y-99231639D01*
X175304357Y-98431639D02*
X175380547Y-98431639D01*
X175380547Y-98431639D02*
X175456738Y-98469734D01*
X175456738Y-98469734D02*
X175494833Y-98507829D01*
X175494833Y-98507829D02*
X175532928Y-98584020D01*
X175532928Y-98584020D02*
X175571023Y-98736401D01*
X175571023Y-98736401D02*
X175571023Y-98926877D01*
X175571023Y-98926877D02*
X175532928Y-99079258D01*
X175532928Y-99079258D02*
X175494833Y-99155448D01*
X175494833Y-99155448D02*
X175456738Y-99193544D01*
X175456738Y-99193544D02*
X175380547Y-99231639D01*
X175380547Y-99231639D02*
X175304357Y-99231639D01*
X175304357Y-99231639D02*
X175228166Y-99193544D01*
X175228166Y-99193544D02*
X175190071Y-99155448D01*
X175190071Y-99155448D02*
X175151976Y-99079258D01*
X175151976Y-99079258D02*
X175113880Y-98926877D01*
X175113880Y-98926877D02*
X175113880Y-98736401D01*
X175113880Y-98736401D02*
X175151976Y-98584020D01*
X175151976Y-98584020D02*
X175190071Y-98507829D01*
X175190071Y-98507829D02*
X175228166Y-98469734D01*
X175228166Y-98469734D02*
X175304357Y-98431639D01*
X120516714Y-96043948D02*
X120478618Y-96082044D01*
X120478618Y-96082044D02*
X120364333Y-96120139D01*
X120364333Y-96120139D02*
X120288142Y-96120139D01*
X120288142Y-96120139D02*
X120173856Y-96082044D01*
X120173856Y-96082044D02*
X120097666Y-96005853D01*
X120097666Y-96005853D02*
X120059571Y-95929663D01*
X120059571Y-95929663D02*
X120021475Y-95777282D01*
X120021475Y-95777282D02*
X120021475Y-95662996D01*
X120021475Y-95662996D02*
X120059571Y-95510615D01*
X120059571Y-95510615D02*
X120097666Y-95434424D01*
X120097666Y-95434424D02*
X120173856Y-95358234D01*
X120173856Y-95358234D02*
X120288142Y-95320139D01*
X120288142Y-95320139D02*
X120364333Y-95320139D01*
X120364333Y-95320139D02*
X120478618Y-95358234D01*
X120478618Y-95358234D02*
X120516714Y-95396329D01*
X121278618Y-96120139D02*
X120821475Y-96120139D01*
X121050047Y-96120139D02*
X121050047Y-95320139D01*
X121050047Y-95320139D02*
X120973856Y-95434424D01*
X120973856Y-95434424D02*
X120897666Y-95510615D01*
X120897666Y-95510615D02*
X120821475Y-95548710D01*
X121659571Y-96120139D02*
X121811952Y-96120139D01*
X121811952Y-96120139D02*
X121888142Y-96082044D01*
X121888142Y-96082044D02*
X121926238Y-96043948D01*
X121926238Y-96043948D02*
X122002428Y-95929663D01*
X122002428Y-95929663D02*
X122040523Y-95777282D01*
X122040523Y-95777282D02*
X122040523Y-95472520D01*
X122040523Y-95472520D02*
X122002428Y-95396329D01*
X122002428Y-95396329D02*
X121964333Y-95358234D01*
X121964333Y-95358234D02*
X121888142Y-95320139D01*
X121888142Y-95320139D02*
X121735761Y-95320139D01*
X121735761Y-95320139D02*
X121659571Y-95358234D01*
X121659571Y-95358234D02*
X121621476Y-95396329D01*
X121621476Y-95396329D02*
X121583380Y-95472520D01*
X121583380Y-95472520D02*
X121583380Y-95662996D01*
X121583380Y-95662996D02*
X121621476Y-95739186D01*
X121621476Y-95739186D02*
X121659571Y-95777282D01*
X121659571Y-95777282D02*
X121735761Y-95815377D01*
X121735761Y-95815377D02*
X121888142Y-95815377D01*
X121888142Y-95815377D02*
X121964333Y-95777282D01*
X121964333Y-95777282D02*
X122002428Y-95739186D01*
X122002428Y-95739186D02*
X122040523Y-95662996D01*
X156965714Y-114331948D02*
X156927618Y-114370044D01*
X156927618Y-114370044D02*
X156813333Y-114408139D01*
X156813333Y-114408139D02*
X156737142Y-114408139D01*
X156737142Y-114408139D02*
X156622856Y-114370044D01*
X156622856Y-114370044D02*
X156546666Y-114293853D01*
X156546666Y-114293853D02*
X156508571Y-114217663D01*
X156508571Y-114217663D02*
X156470475Y-114065282D01*
X156470475Y-114065282D02*
X156470475Y-113950996D01*
X156470475Y-113950996D02*
X156508571Y-113798615D01*
X156508571Y-113798615D02*
X156546666Y-113722424D01*
X156546666Y-113722424D02*
X156622856Y-113646234D01*
X156622856Y-113646234D02*
X156737142Y-113608139D01*
X156737142Y-113608139D02*
X156813333Y-113608139D01*
X156813333Y-113608139D02*
X156927618Y-113646234D01*
X156927618Y-113646234D02*
X156965714Y-113684329D01*
X157727618Y-114408139D02*
X157270475Y-114408139D01*
X157499047Y-114408139D02*
X157499047Y-113608139D01*
X157499047Y-113608139D02*
X157422856Y-113722424D01*
X157422856Y-113722424D02*
X157346666Y-113798615D01*
X157346666Y-113798615D02*
X157270475Y-113836710D01*
X158184761Y-113950996D02*
X158108571Y-113912901D01*
X158108571Y-113912901D02*
X158070476Y-113874805D01*
X158070476Y-113874805D02*
X158032380Y-113798615D01*
X158032380Y-113798615D02*
X158032380Y-113760520D01*
X158032380Y-113760520D02*
X158070476Y-113684329D01*
X158070476Y-113684329D02*
X158108571Y-113646234D01*
X158108571Y-113646234D02*
X158184761Y-113608139D01*
X158184761Y-113608139D02*
X158337142Y-113608139D01*
X158337142Y-113608139D02*
X158413333Y-113646234D01*
X158413333Y-113646234D02*
X158451428Y-113684329D01*
X158451428Y-113684329D02*
X158489523Y-113760520D01*
X158489523Y-113760520D02*
X158489523Y-113798615D01*
X158489523Y-113798615D02*
X158451428Y-113874805D01*
X158451428Y-113874805D02*
X158413333Y-113912901D01*
X158413333Y-113912901D02*
X158337142Y-113950996D01*
X158337142Y-113950996D02*
X158184761Y-113950996D01*
X158184761Y-113950996D02*
X158108571Y-113989091D01*
X158108571Y-113989091D02*
X158070476Y-114027186D01*
X158070476Y-114027186D02*
X158032380Y-114103377D01*
X158032380Y-114103377D02*
X158032380Y-114255758D01*
X158032380Y-114255758D02*
X158070476Y-114331948D01*
X158070476Y-114331948D02*
X158108571Y-114370044D01*
X158108571Y-114370044D02*
X158184761Y-114408139D01*
X158184761Y-114408139D02*
X158337142Y-114408139D01*
X158337142Y-114408139D02*
X158413333Y-114370044D01*
X158413333Y-114370044D02*
X158451428Y-114331948D01*
X158451428Y-114331948D02*
X158489523Y-114255758D01*
X158489523Y-114255758D02*
X158489523Y-114103377D01*
X158489523Y-114103377D02*
X158451428Y-114027186D01*
X158451428Y-114027186D02*
X158413333Y-113989091D01*
X158413333Y-113989091D02*
X158337142Y-113950996D01*
X152506714Y-99472948D02*
X152468618Y-99511044D01*
X152468618Y-99511044D02*
X152354333Y-99549139D01*
X152354333Y-99549139D02*
X152278142Y-99549139D01*
X152278142Y-99549139D02*
X152163856Y-99511044D01*
X152163856Y-99511044D02*
X152087666Y-99434853D01*
X152087666Y-99434853D02*
X152049571Y-99358663D01*
X152049571Y-99358663D02*
X152011475Y-99206282D01*
X152011475Y-99206282D02*
X152011475Y-99091996D01*
X152011475Y-99091996D02*
X152049571Y-98939615D01*
X152049571Y-98939615D02*
X152087666Y-98863424D01*
X152087666Y-98863424D02*
X152163856Y-98787234D01*
X152163856Y-98787234D02*
X152278142Y-98749139D01*
X152278142Y-98749139D02*
X152354333Y-98749139D01*
X152354333Y-98749139D02*
X152468618Y-98787234D01*
X152468618Y-98787234D02*
X152506714Y-98825329D01*
X153268618Y-99549139D02*
X152811475Y-99549139D01*
X153040047Y-99549139D02*
X153040047Y-98749139D01*
X153040047Y-98749139D02*
X152963856Y-98863424D01*
X152963856Y-98863424D02*
X152887666Y-98939615D01*
X152887666Y-98939615D02*
X152811475Y-98977710D01*
X153535285Y-98749139D02*
X154068619Y-98749139D01*
X154068619Y-98749139D02*
X153725761Y-99549139D01*
X144166714Y-116581948D02*
X144128618Y-116620044D01*
X144128618Y-116620044D02*
X144014333Y-116658139D01*
X144014333Y-116658139D02*
X143938142Y-116658139D01*
X143938142Y-116658139D02*
X143823856Y-116620044D01*
X143823856Y-116620044D02*
X143747666Y-116543853D01*
X143747666Y-116543853D02*
X143709571Y-116467663D01*
X143709571Y-116467663D02*
X143671475Y-116315282D01*
X143671475Y-116315282D02*
X143671475Y-116200996D01*
X143671475Y-116200996D02*
X143709571Y-116048615D01*
X143709571Y-116048615D02*
X143747666Y-115972424D01*
X143747666Y-115972424D02*
X143823856Y-115896234D01*
X143823856Y-115896234D02*
X143938142Y-115858139D01*
X143938142Y-115858139D02*
X144014333Y-115858139D01*
X144014333Y-115858139D02*
X144128618Y-115896234D01*
X144128618Y-115896234D02*
X144166714Y-115934329D01*
X144928618Y-116658139D02*
X144471475Y-116658139D01*
X144700047Y-116658139D02*
X144700047Y-115858139D01*
X144700047Y-115858139D02*
X144623856Y-115972424D01*
X144623856Y-115972424D02*
X144547666Y-116048615D01*
X144547666Y-116048615D02*
X144471475Y-116086710D01*
X145614333Y-115858139D02*
X145461952Y-115858139D01*
X145461952Y-115858139D02*
X145385761Y-115896234D01*
X145385761Y-115896234D02*
X145347666Y-115934329D01*
X145347666Y-115934329D02*
X145271476Y-116048615D01*
X145271476Y-116048615D02*
X145233380Y-116200996D01*
X145233380Y-116200996D02*
X145233380Y-116505758D01*
X145233380Y-116505758D02*
X145271476Y-116581948D01*
X145271476Y-116581948D02*
X145309571Y-116620044D01*
X145309571Y-116620044D02*
X145385761Y-116658139D01*
X145385761Y-116658139D02*
X145538142Y-116658139D01*
X145538142Y-116658139D02*
X145614333Y-116620044D01*
X145614333Y-116620044D02*
X145652428Y-116581948D01*
X145652428Y-116581948D02*
X145690523Y-116505758D01*
X145690523Y-116505758D02*
X145690523Y-116315282D01*
X145690523Y-116315282D02*
X145652428Y-116239091D01*
X145652428Y-116239091D02*
X145614333Y-116200996D01*
X145614333Y-116200996D02*
X145538142Y-116162901D01*
X145538142Y-116162901D02*
X145385761Y-116162901D01*
X145385761Y-116162901D02*
X145309571Y-116200996D01*
X145309571Y-116200996D02*
X145271476Y-116239091D01*
X145271476Y-116239091D02*
X145233380Y-116315282D01*
X154030714Y-109900448D02*
X153992618Y-109938544D01*
X153992618Y-109938544D02*
X153878333Y-109976639D01*
X153878333Y-109976639D02*
X153802142Y-109976639D01*
X153802142Y-109976639D02*
X153687856Y-109938544D01*
X153687856Y-109938544D02*
X153611666Y-109862353D01*
X153611666Y-109862353D02*
X153573571Y-109786163D01*
X153573571Y-109786163D02*
X153535475Y-109633782D01*
X153535475Y-109633782D02*
X153535475Y-109519496D01*
X153535475Y-109519496D02*
X153573571Y-109367115D01*
X153573571Y-109367115D02*
X153611666Y-109290924D01*
X153611666Y-109290924D02*
X153687856Y-109214734D01*
X153687856Y-109214734D02*
X153802142Y-109176639D01*
X153802142Y-109176639D02*
X153878333Y-109176639D01*
X153878333Y-109176639D02*
X153992618Y-109214734D01*
X153992618Y-109214734D02*
X154030714Y-109252829D01*
X154792618Y-109976639D02*
X154335475Y-109976639D01*
X154564047Y-109976639D02*
X154564047Y-109176639D01*
X154564047Y-109176639D02*
X154487856Y-109290924D01*
X154487856Y-109290924D02*
X154411666Y-109367115D01*
X154411666Y-109367115D02*
X154335475Y-109405210D01*
X155516428Y-109176639D02*
X155135476Y-109176639D01*
X155135476Y-109176639D02*
X155097380Y-109557591D01*
X155097380Y-109557591D02*
X155135476Y-109519496D01*
X155135476Y-109519496D02*
X155211666Y-109481401D01*
X155211666Y-109481401D02*
X155402142Y-109481401D01*
X155402142Y-109481401D02*
X155478333Y-109519496D01*
X155478333Y-109519496D02*
X155516428Y-109557591D01*
X155516428Y-109557591D02*
X155554523Y-109633782D01*
X155554523Y-109633782D02*
X155554523Y-109824258D01*
X155554523Y-109824258D02*
X155516428Y-109900448D01*
X155516428Y-109900448D02*
X155478333Y-109938544D01*
X155478333Y-109938544D02*
X155402142Y-109976639D01*
X155402142Y-109976639D02*
X155211666Y-109976639D01*
X155211666Y-109976639D02*
X155135476Y-109938544D01*
X155135476Y-109938544D02*
X155097380Y-109900448D01*
X146297714Y-115093948D02*
X146259618Y-115132044D01*
X146259618Y-115132044D02*
X146145333Y-115170139D01*
X146145333Y-115170139D02*
X146069142Y-115170139D01*
X146069142Y-115170139D02*
X145954856Y-115132044D01*
X145954856Y-115132044D02*
X145878666Y-115055853D01*
X145878666Y-115055853D02*
X145840571Y-114979663D01*
X145840571Y-114979663D02*
X145802475Y-114827282D01*
X145802475Y-114827282D02*
X145802475Y-114712996D01*
X145802475Y-114712996D02*
X145840571Y-114560615D01*
X145840571Y-114560615D02*
X145878666Y-114484424D01*
X145878666Y-114484424D02*
X145954856Y-114408234D01*
X145954856Y-114408234D02*
X146069142Y-114370139D01*
X146069142Y-114370139D02*
X146145333Y-114370139D01*
X146145333Y-114370139D02*
X146259618Y-114408234D01*
X146259618Y-114408234D02*
X146297714Y-114446329D01*
X147059618Y-115170139D02*
X146602475Y-115170139D01*
X146831047Y-115170139D02*
X146831047Y-114370139D01*
X146831047Y-114370139D02*
X146754856Y-114484424D01*
X146754856Y-114484424D02*
X146678666Y-114560615D01*
X146678666Y-114560615D02*
X146602475Y-114598710D01*
X147745333Y-114636805D02*
X147745333Y-115170139D01*
X147554857Y-114332044D02*
X147364380Y-114903472D01*
X147364380Y-114903472D02*
X147859619Y-114903472D01*
X139947714Y-99472948D02*
X139909618Y-99511044D01*
X139909618Y-99511044D02*
X139795333Y-99549139D01*
X139795333Y-99549139D02*
X139719142Y-99549139D01*
X139719142Y-99549139D02*
X139604856Y-99511044D01*
X139604856Y-99511044D02*
X139528666Y-99434853D01*
X139528666Y-99434853D02*
X139490571Y-99358663D01*
X139490571Y-99358663D02*
X139452475Y-99206282D01*
X139452475Y-99206282D02*
X139452475Y-99091996D01*
X139452475Y-99091996D02*
X139490571Y-98939615D01*
X139490571Y-98939615D02*
X139528666Y-98863424D01*
X139528666Y-98863424D02*
X139604856Y-98787234D01*
X139604856Y-98787234D02*
X139719142Y-98749139D01*
X139719142Y-98749139D02*
X139795333Y-98749139D01*
X139795333Y-98749139D02*
X139909618Y-98787234D01*
X139909618Y-98787234D02*
X139947714Y-98825329D01*
X140709618Y-99549139D02*
X140252475Y-99549139D01*
X140481047Y-99549139D02*
X140481047Y-98749139D01*
X140481047Y-98749139D02*
X140404856Y-98863424D01*
X140404856Y-98863424D02*
X140328666Y-98939615D01*
X140328666Y-98939615D02*
X140252475Y-98977710D01*
X140976285Y-98749139D02*
X141471523Y-98749139D01*
X141471523Y-98749139D02*
X141204857Y-99053901D01*
X141204857Y-99053901D02*
X141319142Y-99053901D01*
X141319142Y-99053901D02*
X141395333Y-99091996D01*
X141395333Y-99091996D02*
X141433428Y-99130091D01*
X141433428Y-99130091D02*
X141471523Y-99206282D01*
X141471523Y-99206282D02*
X141471523Y-99396758D01*
X141471523Y-99396758D02*
X141433428Y-99472948D01*
X141433428Y-99472948D02*
X141395333Y-99511044D01*
X141395333Y-99511044D02*
X141319142Y-99549139D01*
X141319142Y-99549139D02*
X141090571Y-99549139D01*
X141090571Y-99549139D02*
X141014380Y-99511044D01*
X141014380Y-99511044D02*
X140976285Y-99472948D01*
X152520714Y-101010448D02*
X152482618Y-101048544D01*
X152482618Y-101048544D02*
X152368333Y-101086639D01*
X152368333Y-101086639D02*
X152292142Y-101086639D01*
X152292142Y-101086639D02*
X152177856Y-101048544D01*
X152177856Y-101048544D02*
X152101666Y-100972353D01*
X152101666Y-100972353D02*
X152063571Y-100896163D01*
X152063571Y-100896163D02*
X152025475Y-100743782D01*
X152025475Y-100743782D02*
X152025475Y-100629496D01*
X152025475Y-100629496D02*
X152063571Y-100477115D01*
X152063571Y-100477115D02*
X152101666Y-100400924D01*
X152101666Y-100400924D02*
X152177856Y-100324734D01*
X152177856Y-100324734D02*
X152292142Y-100286639D01*
X152292142Y-100286639D02*
X152368333Y-100286639D01*
X152368333Y-100286639D02*
X152482618Y-100324734D01*
X152482618Y-100324734D02*
X152520714Y-100362829D01*
X153282618Y-101086639D02*
X152825475Y-101086639D01*
X153054047Y-101086639D02*
X153054047Y-100286639D01*
X153054047Y-100286639D02*
X152977856Y-100400924D01*
X152977856Y-100400924D02*
X152901666Y-100477115D01*
X152901666Y-100477115D02*
X152825475Y-100515210D01*
X153587380Y-100362829D02*
X153625476Y-100324734D01*
X153625476Y-100324734D02*
X153701666Y-100286639D01*
X153701666Y-100286639D02*
X153892142Y-100286639D01*
X153892142Y-100286639D02*
X153968333Y-100324734D01*
X153968333Y-100324734D02*
X154006428Y-100362829D01*
X154006428Y-100362829D02*
X154044523Y-100439020D01*
X154044523Y-100439020D02*
X154044523Y-100515210D01*
X154044523Y-100515210D02*
X154006428Y-100629496D01*
X154006428Y-100629496D02*
X153549285Y-101086639D01*
X153549285Y-101086639D02*
X154044523Y-101086639D01*
X154044714Y-111156948D02*
X154006618Y-111195044D01*
X154006618Y-111195044D02*
X153892333Y-111233139D01*
X153892333Y-111233139D02*
X153816142Y-111233139D01*
X153816142Y-111233139D02*
X153701856Y-111195044D01*
X153701856Y-111195044D02*
X153625666Y-111118853D01*
X153625666Y-111118853D02*
X153587571Y-111042663D01*
X153587571Y-111042663D02*
X153549475Y-110890282D01*
X153549475Y-110890282D02*
X153549475Y-110775996D01*
X153549475Y-110775996D02*
X153587571Y-110623615D01*
X153587571Y-110623615D02*
X153625666Y-110547424D01*
X153625666Y-110547424D02*
X153701856Y-110471234D01*
X153701856Y-110471234D02*
X153816142Y-110433139D01*
X153816142Y-110433139D02*
X153892333Y-110433139D01*
X153892333Y-110433139D02*
X154006618Y-110471234D01*
X154006618Y-110471234D02*
X154044714Y-110509329D01*
X154806618Y-111233139D02*
X154349475Y-111233139D01*
X154578047Y-111233139D02*
X154578047Y-110433139D01*
X154578047Y-110433139D02*
X154501856Y-110547424D01*
X154501856Y-110547424D02*
X154425666Y-110623615D01*
X154425666Y-110623615D02*
X154349475Y-110661710D01*
X155568523Y-111233139D02*
X155111380Y-111233139D01*
X155339952Y-111233139D02*
X155339952Y-110433139D01*
X155339952Y-110433139D02*
X155263761Y-110547424D01*
X155263761Y-110547424D02*
X155187571Y-110623615D01*
X155187571Y-110623615D02*
X155111380Y-110661710D01*
X146366948Y-119910285D02*
X146405044Y-119948381D01*
X146405044Y-119948381D02*
X146443139Y-120062666D01*
X146443139Y-120062666D02*
X146443139Y-120138857D01*
X146443139Y-120138857D02*
X146405044Y-120253143D01*
X146405044Y-120253143D02*
X146328853Y-120329333D01*
X146328853Y-120329333D02*
X146252663Y-120367428D01*
X146252663Y-120367428D02*
X146100282Y-120405524D01*
X146100282Y-120405524D02*
X145985996Y-120405524D01*
X145985996Y-120405524D02*
X145833615Y-120367428D01*
X145833615Y-120367428D02*
X145757424Y-120329333D01*
X145757424Y-120329333D02*
X145681234Y-120253143D01*
X145681234Y-120253143D02*
X145643139Y-120138857D01*
X145643139Y-120138857D02*
X145643139Y-120062666D01*
X145643139Y-120062666D02*
X145681234Y-119948381D01*
X145681234Y-119948381D02*
X145719329Y-119910285D01*
X146443139Y-119148381D02*
X146443139Y-119605524D01*
X146443139Y-119376952D02*
X145643139Y-119376952D01*
X145643139Y-119376952D02*
X145757424Y-119453143D01*
X145757424Y-119453143D02*
X145833615Y-119529333D01*
X145833615Y-119529333D02*
X145871710Y-119605524D01*
X145643139Y-118653142D02*
X145643139Y-118576952D01*
X145643139Y-118576952D02*
X145681234Y-118500761D01*
X145681234Y-118500761D02*
X145719329Y-118462666D01*
X145719329Y-118462666D02*
X145795520Y-118424571D01*
X145795520Y-118424571D02*
X145947901Y-118386476D01*
X145947901Y-118386476D02*
X146138377Y-118386476D01*
X146138377Y-118386476D02*
X146290758Y-118424571D01*
X146290758Y-118424571D02*
X146366948Y-118462666D01*
X146366948Y-118462666D02*
X146405044Y-118500761D01*
X146405044Y-118500761D02*
X146443139Y-118576952D01*
X146443139Y-118576952D02*
X146443139Y-118653142D01*
X146443139Y-118653142D02*
X146405044Y-118729333D01*
X146405044Y-118729333D02*
X146366948Y-118767428D01*
X146366948Y-118767428D02*
X146290758Y-118805523D01*
X146290758Y-118805523D02*
X146138377Y-118843619D01*
X146138377Y-118843619D02*
X145947901Y-118843619D01*
X145947901Y-118843619D02*
X145795520Y-118805523D01*
X145795520Y-118805523D02*
X145719329Y-118767428D01*
X145719329Y-118767428D02*
X145681234Y-118729333D01*
X145681234Y-118729333D02*
X145643139Y-118653142D01*
X141408167Y-105251448D02*
X141370071Y-105289544D01*
X141370071Y-105289544D02*
X141255786Y-105327639D01*
X141255786Y-105327639D02*
X141179595Y-105327639D01*
X141179595Y-105327639D02*
X141065309Y-105289544D01*
X141065309Y-105289544D02*
X140989119Y-105213353D01*
X140989119Y-105213353D02*
X140951024Y-105137163D01*
X140951024Y-105137163D02*
X140912928Y-104984782D01*
X140912928Y-104984782D02*
X140912928Y-104870496D01*
X140912928Y-104870496D02*
X140951024Y-104718115D01*
X140951024Y-104718115D02*
X140989119Y-104641924D01*
X140989119Y-104641924D02*
X141065309Y-104565734D01*
X141065309Y-104565734D02*
X141179595Y-104527639D01*
X141179595Y-104527639D02*
X141255786Y-104527639D01*
X141255786Y-104527639D02*
X141370071Y-104565734D01*
X141370071Y-104565734D02*
X141408167Y-104603829D01*
X141789119Y-105327639D02*
X141941500Y-105327639D01*
X141941500Y-105327639D02*
X142017690Y-105289544D01*
X142017690Y-105289544D02*
X142055786Y-105251448D01*
X142055786Y-105251448D02*
X142131976Y-105137163D01*
X142131976Y-105137163D02*
X142170071Y-104984782D01*
X142170071Y-104984782D02*
X142170071Y-104680020D01*
X142170071Y-104680020D02*
X142131976Y-104603829D01*
X142131976Y-104603829D02*
X142093881Y-104565734D01*
X142093881Y-104565734D02*
X142017690Y-104527639D01*
X142017690Y-104527639D02*
X141865309Y-104527639D01*
X141865309Y-104527639D02*
X141789119Y-104565734D01*
X141789119Y-104565734D02*
X141751024Y-104603829D01*
X141751024Y-104603829D02*
X141712928Y-104680020D01*
X141712928Y-104680020D02*
X141712928Y-104870496D01*
X141712928Y-104870496D02*
X141751024Y-104946686D01*
X141751024Y-104946686D02*
X141789119Y-104984782D01*
X141789119Y-104984782D02*
X141865309Y-105022877D01*
X141865309Y-105022877D02*
X142017690Y-105022877D01*
X142017690Y-105022877D02*
X142093881Y-104984782D01*
X142093881Y-104984782D02*
X142131976Y-104946686D01*
X142131976Y-104946686D02*
X142170071Y-104870496D01*
X128428948Y-109099332D02*
X128467044Y-109137428D01*
X128467044Y-109137428D02*
X128505139Y-109251713D01*
X128505139Y-109251713D02*
X128505139Y-109327904D01*
X128505139Y-109327904D02*
X128467044Y-109442190D01*
X128467044Y-109442190D02*
X128390853Y-109518380D01*
X128390853Y-109518380D02*
X128314663Y-109556475D01*
X128314663Y-109556475D02*
X128162282Y-109594571D01*
X128162282Y-109594571D02*
X128047996Y-109594571D01*
X128047996Y-109594571D02*
X127895615Y-109556475D01*
X127895615Y-109556475D02*
X127819424Y-109518380D01*
X127819424Y-109518380D02*
X127743234Y-109442190D01*
X127743234Y-109442190D02*
X127705139Y-109327904D01*
X127705139Y-109327904D02*
X127705139Y-109251713D01*
X127705139Y-109251713D02*
X127743234Y-109137428D01*
X127743234Y-109137428D02*
X127781329Y-109099332D01*
X128047996Y-108642190D02*
X128009901Y-108718380D01*
X128009901Y-108718380D02*
X127971805Y-108756475D01*
X127971805Y-108756475D02*
X127895615Y-108794571D01*
X127895615Y-108794571D02*
X127857520Y-108794571D01*
X127857520Y-108794571D02*
X127781329Y-108756475D01*
X127781329Y-108756475D02*
X127743234Y-108718380D01*
X127743234Y-108718380D02*
X127705139Y-108642190D01*
X127705139Y-108642190D02*
X127705139Y-108489809D01*
X127705139Y-108489809D02*
X127743234Y-108413618D01*
X127743234Y-108413618D02*
X127781329Y-108375523D01*
X127781329Y-108375523D02*
X127857520Y-108337428D01*
X127857520Y-108337428D02*
X127895615Y-108337428D01*
X127895615Y-108337428D02*
X127971805Y-108375523D01*
X127971805Y-108375523D02*
X128009901Y-108413618D01*
X128009901Y-108413618D02*
X128047996Y-108489809D01*
X128047996Y-108489809D02*
X128047996Y-108642190D01*
X128047996Y-108642190D02*
X128086091Y-108718380D01*
X128086091Y-108718380D02*
X128124186Y-108756475D01*
X128124186Y-108756475D02*
X128200377Y-108794571D01*
X128200377Y-108794571D02*
X128352758Y-108794571D01*
X128352758Y-108794571D02*
X128428948Y-108756475D01*
X128428948Y-108756475D02*
X128467044Y-108718380D01*
X128467044Y-108718380D02*
X128505139Y-108642190D01*
X128505139Y-108642190D02*
X128505139Y-108489809D01*
X128505139Y-108489809D02*
X128467044Y-108413618D01*
X128467044Y-108413618D02*
X128428948Y-108375523D01*
X128428948Y-108375523D02*
X128352758Y-108337428D01*
X128352758Y-108337428D02*
X128200377Y-108337428D01*
X128200377Y-108337428D02*
X128124186Y-108375523D01*
X128124186Y-108375523D02*
X128086091Y-108413618D01*
X128086091Y-108413618D02*
X128047996Y-108489809D01*
X111283948Y-114814332D02*
X111322044Y-114852428D01*
X111322044Y-114852428D02*
X111360139Y-114966713D01*
X111360139Y-114966713D02*
X111360139Y-115042904D01*
X111360139Y-115042904D02*
X111322044Y-115157190D01*
X111322044Y-115157190D02*
X111245853Y-115233380D01*
X111245853Y-115233380D02*
X111169663Y-115271475D01*
X111169663Y-115271475D02*
X111017282Y-115309571D01*
X111017282Y-115309571D02*
X110902996Y-115309571D01*
X110902996Y-115309571D02*
X110750615Y-115271475D01*
X110750615Y-115271475D02*
X110674424Y-115233380D01*
X110674424Y-115233380D02*
X110598234Y-115157190D01*
X110598234Y-115157190D02*
X110560139Y-115042904D01*
X110560139Y-115042904D02*
X110560139Y-114966713D01*
X110560139Y-114966713D02*
X110598234Y-114852428D01*
X110598234Y-114852428D02*
X110636329Y-114814332D01*
X110560139Y-114547666D02*
X110560139Y-114014332D01*
X110560139Y-114014332D02*
X111360139Y-114357190D01*
X111283948Y-113290332D02*
X111322044Y-113328428D01*
X111322044Y-113328428D02*
X111360139Y-113442713D01*
X111360139Y-113442713D02*
X111360139Y-113518904D01*
X111360139Y-113518904D02*
X111322044Y-113633190D01*
X111322044Y-113633190D02*
X111245853Y-113709380D01*
X111245853Y-113709380D02*
X111169663Y-113747475D01*
X111169663Y-113747475D02*
X111017282Y-113785571D01*
X111017282Y-113785571D02*
X110902996Y-113785571D01*
X110902996Y-113785571D02*
X110750615Y-113747475D01*
X110750615Y-113747475D02*
X110674424Y-113709380D01*
X110674424Y-113709380D02*
X110598234Y-113633190D01*
X110598234Y-113633190D02*
X110560139Y-113518904D01*
X110560139Y-113518904D02*
X110560139Y-113442713D01*
X110560139Y-113442713D02*
X110598234Y-113328428D01*
X110598234Y-113328428D02*
X110636329Y-113290332D01*
X110560139Y-112604618D02*
X110560139Y-112756999D01*
X110560139Y-112756999D02*
X110598234Y-112833190D01*
X110598234Y-112833190D02*
X110636329Y-112871285D01*
X110636329Y-112871285D02*
X110750615Y-112947475D01*
X110750615Y-112947475D02*
X110902996Y-112985571D01*
X110902996Y-112985571D02*
X111207758Y-112985571D01*
X111207758Y-112985571D02*
X111283948Y-112947475D01*
X111283948Y-112947475D02*
X111322044Y-112909380D01*
X111322044Y-112909380D02*
X111360139Y-112833190D01*
X111360139Y-112833190D02*
X111360139Y-112680809D01*
X111360139Y-112680809D02*
X111322044Y-112604618D01*
X111322044Y-112604618D02*
X111283948Y-112566523D01*
X111283948Y-112566523D02*
X111207758Y-112528428D01*
X111207758Y-112528428D02*
X111017282Y-112528428D01*
X111017282Y-112528428D02*
X110941091Y-112566523D01*
X110941091Y-112566523D02*
X110902996Y-112604618D01*
X110902996Y-112604618D02*
X110864901Y-112680809D01*
X110864901Y-112680809D02*
X110864901Y-112833190D01*
X110864901Y-112833190D02*
X110902996Y-112909380D01*
X110902996Y-112909380D02*
X110941091Y-112947475D01*
X110941091Y-112947475D02*
X111017282Y-112985571D01*
X110737667Y-98724448D02*
X110699571Y-98762544D01*
X110699571Y-98762544D02*
X110585286Y-98800639D01*
X110585286Y-98800639D02*
X110509095Y-98800639D01*
X110509095Y-98800639D02*
X110394809Y-98762544D01*
X110394809Y-98762544D02*
X110318619Y-98686353D01*
X110318619Y-98686353D02*
X110280524Y-98610163D01*
X110280524Y-98610163D02*
X110242428Y-98457782D01*
X110242428Y-98457782D02*
X110242428Y-98343496D01*
X110242428Y-98343496D02*
X110280524Y-98191115D01*
X110280524Y-98191115D02*
X110318619Y-98114924D01*
X110318619Y-98114924D02*
X110394809Y-98038734D01*
X110394809Y-98038734D02*
X110509095Y-98000639D01*
X110509095Y-98000639D02*
X110585286Y-98000639D01*
X110585286Y-98000639D02*
X110699571Y-98038734D01*
X110699571Y-98038734D02*
X110737667Y-98076829D01*
X111461476Y-98000639D02*
X111080524Y-98000639D01*
X111080524Y-98000639D02*
X111042428Y-98381591D01*
X111042428Y-98381591D02*
X111080524Y-98343496D01*
X111080524Y-98343496D02*
X111156714Y-98305401D01*
X111156714Y-98305401D02*
X111347190Y-98305401D01*
X111347190Y-98305401D02*
X111423381Y-98343496D01*
X111423381Y-98343496D02*
X111461476Y-98381591D01*
X111461476Y-98381591D02*
X111499571Y-98457782D01*
X111499571Y-98457782D02*
X111499571Y-98648258D01*
X111499571Y-98648258D02*
X111461476Y-98724448D01*
X111461476Y-98724448D02*
X111423381Y-98762544D01*
X111423381Y-98762544D02*
X111347190Y-98800639D01*
X111347190Y-98800639D02*
X111156714Y-98800639D01*
X111156714Y-98800639D02*
X111080524Y-98762544D01*
X111080524Y-98762544D02*
X111042428Y-98724448D01*
X128263667Y-120681948D02*
X128225571Y-120720044D01*
X128225571Y-120720044D02*
X128111286Y-120758139D01*
X128111286Y-120758139D02*
X128035095Y-120758139D01*
X128035095Y-120758139D02*
X127920809Y-120720044D01*
X127920809Y-120720044D02*
X127844619Y-120643853D01*
X127844619Y-120643853D02*
X127806524Y-120567663D01*
X127806524Y-120567663D02*
X127768428Y-120415282D01*
X127768428Y-120415282D02*
X127768428Y-120300996D01*
X127768428Y-120300996D02*
X127806524Y-120148615D01*
X127806524Y-120148615D02*
X127844619Y-120072424D01*
X127844619Y-120072424D02*
X127920809Y-119996234D01*
X127920809Y-119996234D02*
X128035095Y-119958139D01*
X128035095Y-119958139D02*
X128111286Y-119958139D01*
X128111286Y-119958139D02*
X128225571Y-119996234D01*
X128225571Y-119996234D02*
X128263667Y-120034329D01*
X128949381Y-120224805D02*
X128949381Y-120758139D01*
X128758905Y-119920044D02*
X128568428Y-120491472D01*
X128568428Y-120491472D02*
X129063667Y-120491472D01*
X119411948Y-117227332D02*
X119450044Y-117265428D01*
X119450044Y-117265428D02*
X119488139Y-117379713D01*
X119488139Y-117379713D02*
X119488139Y-117455904D01*
X119488139Y-117455904D02*
X119450044Y-117570190D01*
X119450044Y-117570190D02*
X119373853Y-117646380D01*
X119373853Y-117646380D02*
X119297663Y-117684475D01*
X119297663Y-117684475D02*
X119145282Y-117722571D01*
X119145282Y-117722571D02*
X119030996Y-117722571D01*
X119030996Y-117722571D02*
X118878615Y-117684475D01*
X118878615Y-117684475D02*
X118802424Y-117646380D01*
X118802424Y-117646380D02*
X118726234Y-117570190D01*
X118726234Y-117570190D02*
X118688139Y-117455904D01*
X118688139Y-117455904D02*
X118688139Y-117379713D01*
X118688139Y-117379713D02*
X118726234Y-117265428D01*
X118726234Y-117265428D02*
X118764329Y-117227332D01*
X118688139Y-116960666D02*
X118688139Y-116465428D01*
X118688139Y-116465428D02*
X118992901Y-116732094D01*
X118992901Y-116732094D02*
X118992901Y-116617809D01*
X118992901Y-116617809D02*
X119030996Y-116541618D01*
X119030996Y-116541618D02*
X119069091Y-116503523D01*
X119069091Y-116503523D02*
X119145282Y-116465428D01*
X119145282Y-116465428D02*
X119335758Y-116465428D01*
X119335758Y-116465428D02*
X119411948Y-116503523D01*
X119411948Y-116503523D02*
X119450044Y-116541618D01*
X119450044Y-116541618D02*
X119488139Y-116617809D01*
X119488139Y-116617809D02*
X119488139Y-116846380D01*
X119488139Y-116846380D02*
X119450044Y-116922571D01*
X119450044Y-116922571D02*
X119411948Y-116960666D01*
X121278667Y-101631948D02*
X121240571Y-101670044D01*
X121240571Y-101670044D02*
X121126286Y-101708139D01*
X121126286Y-101708139D02*
X121050095Y-101708139D01*
X121050095Y-101708139D02*
X120935809Y-101670044D01*
X120935809Y-101670044D02*
X120859619Y-101593853D01*
X120859619Y-101593853D02*
X120821524Y-101517663D01*
X120821524Y-101517663D02*
X120783428Y-101365282D01*
X120783428Y-101365282D02*
X120783428Y-101250996D01*
X120783428Y-101250996D02*
X120821524Y-101098615D01*
X120821524Y-101098615D02*
X120859619Y-101022424D01*
X120859619Y-101022424D02*
X120935809Y-100946234D01*
X120935809Y-100946234D02*
X121050095Y-100908139D01*
X121050095Y-100908139D02*
X121126286Y-100908139D01*
X121126286Y-100908139D02*
X121240571Y-100946234D01*
X121240571Y-100946234D02*
X121278667Y-100984329D01*
X121583428Y-100984329D02*
X121621524Y-100946234D01*
X121621524Y-100946234D02*
X121697714Y-100908139D01*
X121697714Y-100908139D02*
X121888190Y-100908139D01*
X121888190Y-100908139D02*
X121964381Y-100946234D01*
X121964381Y-100946234D02*
X122002476Y-100984329D01*
X122002476Y-100984329D02*
X122040571Y-101060520D01*
X122040571Y-101060520D02*
X122040571Y-101136710D01*
X122040571Y-101136710D02*
X122002476Y-101250996D01*
X122002476Y-101250996D02*
X121545333Y-101708139D01*
X121545333Y-101708139D02*
X122040571Y-101708139D01*
X112896667Y-116567948D02*
X112858571Y-116606044D01*
X112858571Y-116606044D02*
X112744286Y-116644139D01*
X112744286Y-116644139D02*
X112668095Y-116644139D01*
X112668095Y-116644139D02*
X112553809Y-116606044D01*
X112553809Y-116606044D02*
X112477619Y-116529853D01*
X112477619Y-116529853D02*
X112439524Y-116453663D01*
X112439524Y-116453663D02*
X112401428Y-116301282D01*
X112401428Y-116301282D02*
X112401428Y-116186996D01*
X112401428Y-116186996D02*
X112439524Y-116034615D01*
X112439524Y-116034615D02*
X112477619Y-115958424D01*
X112477619Y-115958424D02*
X112553809Y-115882234D01*
X112553809Y-115882234D02*
X112668095Y-115844139D01*
X112668095Y-115844139D02*
X112744286Y-115844139D01*
X112744286Y-115844139D02*
X112858571Y-115882234D01*
X112858571Y-115882234D02*
X112896667Y-115920329D01*
X113658571Y-116644139D02*
X113201428Y-116644139D01*
X113430000Y-116644139D02*
X113430000Y-115844139D01*
X113430000Y-115844139D02*
X113353809Y-115958424D01*
X113353809Y-115958424D02*
X113277619Y-116034615D01*
X113277619Y-116034615D02*
X113201428Y-116072710D01*
D12*
X182813000Y-121920000D02*
X182813000Y-123250000D01*
X182813000Y-123250000D02*
X181483000Y-123250000D01*
X180213000Y-123250000D02*
X129353000Y-123250000D01*
X129353000Y-120590000D02*
X129353000Y-123250000D01*
X180213000Y-120590000D02*
X129353000Y-120590000D01*
X180213000Y-120590000D02*
X180213000Y-123250000D01*
X182813000Y-96520000D02*
X182813000Y-97850000D01*
X182813000Y-97850000D02*
X181483000Y-97850000D01*
X180213000Y-97850000D02*
X129353000Y-97850000D01*
X129353000Y-95190000D02*
X129353000Y-97850000D01*
X180213000Y-95190000D02*
X129353000Y-95190000D01*
X180213000Y-95190000D02*
X180213000Y-97850000D01*
D11*
X150522500Y-103997000D02*
X150522500Y-101997000D01*
X150522500Y-101997000D02*
X146622500Y-101997000D01*
X150522500Y-103997000D02*
X146622500Y-103997000D01*
X107087500Y-107885000D02*
X106637500Y-107885000D01*
X107087500Y-107885000D02*
X107087500Y-108335000D01*
X106537500Y-113485000D02*
X106537500Y-113035000D01*
X104687500Y-113485000D02*
X106537500Y-113485000D01*
X102137500Y-105685000D02*
X102387500Y-105685000D01*
X102137500Y-113485000D02*
X102387500Y-113485000D01*
X104687500Y-105685000D02*
X106537500Y-105685000D01*
X106537500Y-105685000D02*
X106537500Y-106135000D01*
X145751000Y-112749000D02*
X144901000Y-112749000D01*
X144901000Y-105829000D02*
X145751000Y-105829000D01*
X150451000Y-112749000D02*
X149651000Y-112749000D01*
X151111000Y-106439000D02*
X151111000Y-112089000D01*
X149651000Y-105829000D02*
X150501000Y-105829000D01*
X144291000Y-112139000D02*
X144291000Y-106439000D01*
X150501000Y-105829000D02*
G75*
G02*
X151111000Y-106439000I0J-610000D01*
G01*
X151111000Y-112089000D02*
G75*
G02*
X150451000Y-112749000I-660000J0D01*
G01*
X144291000Y-106439000D02*
G75*
G02*
X144901000Y-105829000I610000J0D01*
G01*
X144901000Y-112749000D02*
G75*
G02*
X144291000Y-112139000I0J610000D01*
G01*
X129970500Y-113367500D02*
X129970500Y-112017500D01*
X128220500Y-113367500D02*
X128220500Y-112017500D01*
X123581000Y-113946000D02*
X123581000Y-109446000D01*
X123581000Y-109446000D02*
X118181000Y-109446000D01*
X160572000Y-100109000D02*
X159792000Y-100109000D01*
X159792000Y-100109000D02*
X159792000Y-101109000D01*
X160572000Y-118349000D02*
X159792000Y-118349000D01*
X159792000Y-118349000D02*
X159792000Y-117349000D01*
X185537000Y-100109000D02*
X185537000Y-118349000D01*
X185537000Y-118349000D02*
X179117000Y-118349000D01*
X185537000Y-100109000D02*
X179117000Y-100109000D01*
X179117000Y-100109000D02*
X179117000Y-99729000D01*
X157387000Y-103877000D02*
X158697000Y-103877000D01*
X158697000Y-103877000D02*
X158697000Y-106597000D01*
X154207000Y-107737000D02*
X154207000Y-106597000D01*
X153977000Y-103877000D02*
X155287000Y-103877000D01*
X153977000Y-106597000D02*
X153977000Y-103877000D01*
X153977000Y-106597000D02*
X154207000Y-106597000D01*
X158697000Y-106597000D02*
X158467000Y-106597000D01*
X152409000Y-118525000D02*
X152409000Y-119835000D01*
X152409000Y-119835000D02*
X149689000Y-119835000D01*
X148549000Y-115345000D02*
X149689000Y-115345000D01*
X152409000Y-115115000D02*
X152409000Y-116425000D01*
X149689000Y-115115000D02*
X152409000Y-115115000D01*
X149689000Y-115115000D02*
X149689000Y-115345000D01*
X149689000Y-119835000D02*
X149689000Y-119605000D01*
X144363000Y-100119500D02*
X142563000Y-100119500D01*
X142563000Y-103339500D02*
X145513000Y-103339500D01*
X129980000Y-102303500D02*
X129980000Y-104503500D01*
X129980000Y-102303500D02*
X129980000Y-100103500D01*
X135450000Y-102303500D02*
X135450000Y-104503500D01*
X135450000Y-102303500D02*
X135450000Y-98703500D01*
X140218000Y-110337000D02*
X141148000Y-110337000D01*
X143378000Y-110337000D02*
X142448000Y-110337000D01*
X143378000Y-110337000D02*
X143378000Y-107177000D01*
X140218000Y-110337000D02*
X140218000Y-108877000D01*
X135529000Y-110806000D02*
X135529000Y-108856000D01*
X135529000Y-110806000D02*
X135529000Y-112756000D01*
X130409000Y-110806000D02*
X130409000Y-108856000D01*
X130409000Y-110806000D02*
X130409000Y-114256000D01*
X119283000Y-102089000D02*
X119283000Y-100829000D01*
X119283000Y-95269000D02*
X119283000Y-96529000D01*
X115523000Y-102089000D02*
X119283000Y-102089000D01*
X113273000Y-95269000D02*
X119283000Y-95269000D01*
X117909000Y-108077000D02*
X117909000Y-105692000D01*
X117909000Y-105692000D02*
X117654000Y-105692000D01*
X117909000Y-108077000D02*
X117909000Y-110462000D01*
X117909000Y-110462000D02*
X117654000Y-110462000D01*
X107389000Y-108077000D02*
X107389000Y-105692000D01*
X107389000Y-105692000D02*
X107644000Y-105692000D01*
X107389000Y-108077000D02*
X107389000Y-110462000D01*
X107389000Y-110462000D02*
X107644000Y-110462000D01*
X107644000Y-110462000D02*
X107644000Y-112127000D01*
X121011000Y-119401500D02*
X121011000Y-121351500D01*
X121011000Y-119401500D02*
X121011000Y-117451500D01*
X126131000Y-119401500D02*
X126131000Y-121351500D01*
X126131000Y-119401500D02*
X126131000Y-115951500D01*
X126238000Y-98656500D02*
X128238000Y-98656500D01*
X124238000Y-101876500D02*
X128238000Y-101876500D01*
X115374500Y-119929000D02*
X113174500Y-119929000D01*
X115374500Y-119929000D02*
X117574500Y-119929000D01*
X115374500Y-123149000D02*
X113174500Y-123149000D01*
X115374500Y-123149000D02*
X118974500Y-123149000D01*
X118325500Y-118231500D02*
X118325500Y-116431500D01*
X115105500Y-116431500D02*
X115105500Y-119381500D01*
X112844733Y-118425500D02*
X113187267Y-118425500D01*
X112844733Y-119445500D02*
X113187267Y-119445500D01*
X139761500Y-101757267D02*
X139761500Y-101414733D01*
X140781500Y-101757267D02*
X140781500Y-101414733D01*
X147572000Y-100310267D02*
X147572000Y-99967733D01*
X148592000Y-100310267D02*
X148592000Y-99967733D01*
X147131500Y-99967733D02*
X147131500Y-100310267D01*
X146111500Y-99967733D02*
X146111500Y-100310267D01*
X156085000Y-115271733D02*
X156085000Y-115614267D01*
X155065000Y-115271733D02*
X155065000Y-115614267D01*
X138999500Y-114979267D02*
X138999500Y-114636733D01*
X140019500Y-114979267D02*
X140019500Y-114636733D01*
X138131733Y-108075000D02*
X138474267Y-108075000D01*
X138131733Y-109095000D02*
X138474267Y-109095000D01*
X138131733Y-106551000D02*
X138474267Y-106551000D01*
X138131733Y-107571000D02*
X138474267Y-107571000D01*
X127573500Y-117621233D02*
X127573500Y-117963767D01*
X126553500Y-117621233D02*
X126553500Y-117963767D01*
X118298500Y-105595267D02*
X118298500Y-105252733D01*
X119318500Y-105595267D02*
X119318500Y-105252733D01*
X120842500Y-105252733D02*
X120842500Y-105595267D01*
X119822500Y-105252733D02*
X119822500Y-105595267D01*
X133154267Y-116524500D02*
X132811733Y-116524500D01*
X133154267Y-115504500D02*
X132811733Y-115504500D01*
X127573500Y-121290233D02*
X127573500Y-121632767D01*
X126553500Y-121290233D02*
X126553500Y-121632767D01*
X124429733Y-114425000D02*
X124772267Y-114425000D01*
X124429733Y-115445000D02*
X124772267Y-115445000D01*
X127157267Y-96776000D02*
X126814733Y-96776000D01*
X127157267Y-95756000D02*
X126814733Y-95756000D01*
X127157267Y-98250000D02*
X126814733Y-98250000D01*
X127157267Y-97230000D02*
X126814733Y-97230000D01*
X120525000Y-121000733D02*
X120525000Y-121343267D01*
X119505000Y-121000733D02*
X119505000Y-121343267D01*
X140067000Y-116657000D02*
X140067000Y-117587000D01*
X140067000Y-119817000D02*
X140067000Y-118887000D01*
X140067000Y-119817000D02*
X142227000Y-119817000D01*
X140067000Y-116657000D02*
X141527000Y-116657000D01*
X143738000Y-116263500D02*
X143738000Y-115333500D01*
X143738000Y-113103500D02*
X143738000Y-114033500D01*
X143738000Y-113103500D02*
X140578000Y-113103500D01*
X143738000Y-116263500D02*
X142278000Y-116263500D01*
X154612500Y-111468500D02*
X153682500Y-111468500D01*
X151452500Y-111468500D02*
X152382500Y-111468500D01*
X151452500Y-111468500D02*
X151452500Y-114628500D01*
X154612500Y-111468500D02*
X154612500Y-112928500D01*
X124561000Y-109212500D02*
X124561000Y-108282500D01*
X124561000Y-106052500D02*
X124561000Y-106982500D01*
X124561000Y-106052500D02*
X121401000Y-106052500D01*
X124561000Y-109212500D02*
X123101000Y-109212500D01*
X124561000Y-105659000D02*
X124561000Y-104729000D01*
X124561000Y-102499000D02*
X124561000Y-103429000D01*
X124561000Y-102499000D02*
X121401000Y-102499000D01*
X124561000Y-105659000D02*
X123101000Y-105659000D01*
X128859500Y-115067000D02*
X128859500Y-115997000D01*
X128859500Y-118227000D02*
X128859500Y-117297000D01*
X128859500Y-118227000D02*
X131019500Y-118227000D01*
X128859500Y-115067000D02*
X130319500Y-115067000D01*
X138571000Y-102291000D02*
X138571000Y-101361000D01*
X138571000Y-99131000D02*
X138571000Y-100061000D01*
X138571000Y-99131000D02*
X136411000Y-99131000D01*
X138571000Y-102291000D02*
X137111000Y-102291000D01*
D12*
X108503000Y-101924000D02*
X110703000Y-101924000D01*
X110703000Y-101924000D02*
X110703000Y-103144000D01*
X110703000Y-103144000D02*
X102283000Y-103144000D01*
X102283000Y-103144000D02*
X102283000Y-95424000D01*
X102283000Y-95424000D02*
X110703000Y-95424000D01*
X110703000Y-95424000D02*
X110703000Y-96644000D01*
X110703000Y-96644000D02*
X108503000Y-96644000D01*
X103503000Y-103144000D02*
X103503000Y-101924000D01*
X103503000Y-101924000D02*
X108503000Y-101924000D01*
X108503000Y-101924000D02*
X108503000Y-103144000D01*
X103503000Y-95424000D02*
X103503000Y-96644000D01*
X103503000Y-96644000D02*
X108503000Y-96644000D01*
X108503000Y-96644000D02*
X108503000Y-95424000D01*
X107503000Y-101924000D02*
X107503000Y-96644000D01*
X107503000Y-100534000D02*
X107503000Y-100854000D01*
X107503000Y-100854000D02*
X104083000Y-100854000D01*
X104083000Y-100854000D02*
X104003000Y-100534000D01*
X104003000Y-100534000D02*
X104083000Y-100214000D01*
X104083000Y-100214000D02*
X107503000Y-100214000D01*
X107503000Y-100214000D02*
X107503000Y-100534000D01*
X108503000Y-99364000D02*
X108503000Y-99204000D01*
X107503000Y-98034000D02*
X107503000Y-98354000D01*
X107503000Y-98354000D02*
X104083000Y-98354000D01*
X104083000Y-98354000D02*
X104003000Y-98034000D01*
X104003000Y-98034000D02*
X104083000Y-97714000D01*
X104083000Y-97714000D02*
X107503000Y-97714000D01*
X107503000Y-97714000D02*
X107503000Y-98034000D01*
X110593000Y-100534000D02*
X111193000Y-100834000D01*
X111193000Y-100834000D02*
X111193000Y-100234000D01*
X111193000Y-100234000D02*
X110593000Y-100534000D01*
D11*
X123756267Y-98250000D02*
X123413733Y-98250000D01*
X123756267Y-97230000D02*
X123413733Y-97230000D01*
D12*
X108503000Y-121736000D02*
X110703000Y-121736000D01*
X110703000Y-121736000D02*
X110703000Y-122956000D01*
X110703000Y-122956000D02*
X102283000Y-122956000D01*
X102283000Y-122956000D02*
X102283000Y-115236000D01*
X102283000Y-115236000D02*
X110703000Y-115236000D01*
X110703000Y-115236000D02*
X110703000Y-116456000D01*
X110703000Y-116456000D02*
X108503000Y-116456000D01*
X103503000Y-122956000D02*
X103503000Y-121736000D01*
X103503000Y-121736000D02*
X108503000Y-121736000D01*
X108503000Y-121736000D02*
X108503000Y-122956000D01*
X103503000Y-115236000D02*
X103503000Y-116456000D01*
X103503000Y-116456000D02*
X108503000Y-116456000D01*
X108503000Y-116456000D02*
X108503000Y-115236000D01*
X107503000Y-121736000D02*
X107503000Y-116456000D01*
X107503000Y-120346000D02*
X107503000Y-120666000D01*
X107503000Y-120666000D02*
X104083000Y-120666000D01*
X104083000Y-120666000D02*
X104003000Y-120346000D01*
X104003000Y-120346000D02*
X104083000Y-120026000D01*
X104083000Y-120026000D02*
X107503000Y-120026000D01*
X107503000Y-120026000D02*
X107503000Y-120346000D01*
X108503000Y-119176000D02*
X108503000Y-119016000D01*
X107503000Y-117846000D02*
X107503000Y-118166000D01*
X107503000Y-118166000D02*
X104083000Y-118166000D01*
X104083000Y-118166000D02*
X104003000Y-117846000D01*
X104003000Y-117846000D02*
X104083000Y-117526000D01*
X104083000Y-117526000D02*
X107503000Y-117526000D01*
X107503000Y-117526000D02*
X107503000Y-117846000D01*
X110593000Y-120346000D02*
X111193000Y-120646000D01*
X111193000Y-120646000D02*
X111193000Y-120046000D01*
X111193000Y-120046000D02*
X110593000Y-120346000D01*
D11*
X137134000Y-116991000D02*
X131434000Y-116991000D01*
X131434000Y-116991000D02*
X131434000Y-119991000D01*
X131434000Y-119991000D02*
X137134000Y-119991000D01*
X126328500Y-113627000D02*
X126328500Y-116087000D01*
X126328500Y-116087000D02*
X127798500Y-116087000D01*
X127798500Y-116087000D02*
X127798500Y-113627000D01*
X111631000Y-100487267D02*
X111631000Y-100144733D01*
X112651000Y-100487267D02*
X112651000Y-100144733D01*
X177703267Y-99252500D02*
X177360733Y-99252500D01*
X177703267Y-98232500D02*
X177360733Y-98232500D01*
X123413733Y-95756000D02*
X123756267Y-95756000D01*
X123413733Y-96776000D02*
X123756267Y-96776000D01*
X157157267Y-113413000D02*
X156814733Y-113413000D01*
X157157267Y-112393000D02*
X156814733Y-112393000D01*
X150652267Y-99697000D02*
X150309733Y-99697000D01*
X150652267Y-98677000D02*
X150309733Y-98677000D01*
X142809500Y-118485767D02*
X142809500Y-118143233D01*
X143829500Y-118485767D02*
X143829500Y-118143233D01*
X156800733Y-109422000D02*
X157143267Y-109422000D01*
X156800733Y-110442000D02*
X157143267Y-110442000D01*
X146941000Y-116555733D02*
X146941000Y-116898267D01*
X145921000Y-116555733D02*
X145921000Y-116898267D01*
X142880233Y-98677000D02*
X143222767Y-98677000D01*
X142880233Y-99697000D02*
X143222767Y-99697000D01*
X150652267Y-101171000D02*
X150309733Y-101171000D01*
X150652267Y-100151000D02*
X150309733Y-100151000D01*
X157157267Y-111952500D02*
X156814733Y-111952500D01*
X157157267Y-110932500D02*
X156814733Y-110932500D01*
X144397000Y-118485767D02*
X144397000Y-118143233D01*
X145417000Y-118485767D02*
X145417000Y-118143233D01*
X142016267Y-106555000D02*
X141673733Y-106555000D01*
X142016267Y-105535000D02*
X141673733Y-105535000D01*
X128903000Y-109123267D02*
X128903000Y-108780733D01*
X129923000Y-109123267D02*
X129923000Y-108780733D01*
X113314267Y-115127500D02*
X112971733Y-115127500D01*
X113314267Y-114107500D02*
X112971733Y-114107500D01*
X113314267Y-113667000D02*
X112971733Y-113667000D01*
X113314267Y-112647000D02*
X112971733Y-112647000D01*
X112651000Y-96842733D02*
X112651000Y-97185267D01*
X111631000Y-96842733D02*
X111631000Y-97185267D01*
X129382733Y-118679500D02*
X129725267Y-118679500D01*
X129382733Y-119699500D02*
X129725267Y-119699500D01*
X120588500Y-117621233D02*
X120588500Y-117963767D01*
X119568500Y-117621233D02*
X119568500Y-117963767D01*
X123319000Y-100017733D02*
X123319000Y-100360267D01*
X122299000Y-100017733D02*
X122299000Y-100360267D01*
X112872733Y-116838000D02*
X113215267Y-116838000D01*
X112872733Y-117858000D02*
X113215267Y-117858000D01*
M02*
