G04 #@! TF.GenerationSoftware,KiCad,Pcbnew,9.0.0*
G04 #@! TF.CreationDate,2025-03-02T20:38:03-08:00*
G04 #@! TF.ProjectId,SuperPower-uC-KiCad,53757065-7250-46f7-9765-722d75432d4b,rev?*
G04 #@! TF.SameCoordinates,Original*
G04 #@! TF.FileFunction,Other,User*
%FSLAX46Y46*%
G04 Gerber Fmt 4.6, Leading zero omitted, Abs format (unit mm)*
G04 Created by KiCad (PCBNEW 9.0.0) date 2025-03-02 20:38:03*
%MOMM*%
%LPD*%
G01*
G04 APERTURE LIST*
%ADD10C,0.050000*%
G04 APERTURE END LIST*
D10*
X150622500Y-104147000D02*
X145922500Y-104147000D01*
X145922500Y-104147000D02*
X145922500Y-101847000D01*
X145922500Y-101847000D02*
X150622500Y-101847000D01*
X150622500Y-104147000D02*
X150622500Y-101847000D01*
X101135000Y-105185000D02*
X107235000Y-105185000D01*
X107235000Y-105185000D02*
X107235000Y-113985000D01*
X107235000Y-113985000D02*
X101135000Y-113985000D01*
X101135000Y-105185000D02*
X101135000Y-113985000D01*
X151251000Y-112889000D02*
X149701000Y-112889000D01*
X149701000Y-105689000D02*
X151251000Y-105689000D01*
X144151000Y-105689000D02*
X145701000Y-105689000D01*
X145701000Y-112889000D02*
X144151000Y-112889000D01*
X149701000Y-104839000D02*
X149701000Y-105689000D01*
X145701000Y-105689000D02*
X145701000Y-104839000D01*
X149701000Y-112889000D02*
X149701000Y-113739000D01*
X145701000Y-113739000D02*
X145701000Y-112889000D01*
X151251000Y-105689000D02*
X151251000Y-112889000D01*
X145701000Y-104839000D02*
X149701000Y-104839000D01*
X144151000Y-112889000D02*
X144151000Y-105689000D01*
X149701000Y-113739000D02*
X145701000Y-113739000D01*
X127945500Y-114692500D02*
X127945500Y-110692500D01*
X130245500Y-114692500D02*
X130245500Y-110692500D01*
X127945500Y-114692500D02*
X130245500Y-114692500D01*
X127945500Y-110692500D02*
X130245500Y-110692500D01*
X123681000Y-113996000D02*
X123681000Y-109396000D01*
X123681000Y-109396000D02*
X118081000Y-109396000D01*
X118081000Y-109396000D02*
X118081000Y-113996000D01*
X118081000Y-113996000D02*
X123681000Y-113996000D01*
X159172000Y-99479000D02*
X179392000Y-99479000D01*
X159172000Y-99479000D02*
X159172000Y-118979000D01*
X179392000Y-118979000D02*
X159172000Y-118979000D01*
X190672000Y-94979000D02*
X190672000Y-123479000D01*
X190672000Y-94979000D02*
X179392000Y-94979000D01*
X190672000Y-123479000D02*
X179392000Y-123479000D01*
X179392000Y-94979000D02*
X179392000Y-99479000D01*
X179392000Y-118979000D02*
X179392000Y-123479000D01*
X153837000Y-101987000D02*
X158837000Y-101987000D01*
X153837000Y-101987000D02*
X153837000Y-109087000D01*
X158837000Y-109087000D02*
X158837000Y-101987000D01*
X158837000Y-109087000D02*
X153837000Y-109087000D01*
X154299000Y-114975000D02*
X154299000Y-119975000D01*
X154299000Y-114975000D02*
X147199000Y-114975000D01*
X147199000Y-119975000D02*
X154299000Y-119975000D01*
X147199000Y-119975000D02*
X147199000Y-114975000D01*
X145863000Y-99929500D02*
X145863000Y-103529500D01*
X141063000Y-99929500D02*
X145863000Y-99929500D01*
X141063000Y-103529500D02*
X141063000Y-99929500D01*
X145863000Y-103529500D02*
X141063000Y-103529500D01*
X135465000Y-98453500D02*
X129965000Y-98453500D01*
X129965000Y-98453500D02*
X129965000Y-106153500D01*
X129965000Y-106153500D02*
X135465000Y-106153500D01*
X135465000Y-106153500D02*
X135465000Y-98453500D01*
X143548000Y-106877000D02*
X143548000Y-112277000D01*
X143548000Y-112277000D02*
X140048000Y-112277000D01*
X140048000Y-112277000D02*
X140048000Y-106877000D01*
X140048000Y-106877000D02*
X143548000Y-106877000D01*
X130269000Y-114506000D02*
X135669000Y-114506000D01*
X135669000Y-114506000D02*
X135669000Y-107106000D01*
X135669000Y-107106000D02*
X130269000Y-107106000D01*
X130269000Y-107106000D02*
X130269000Y-114506000D01*
X121773000Y-95079000D02*
X112973000Y-95079000D01*
X121773000Y-102279000D02*
X121773000Y-95079000D01*
X112973000Y-102279000D02*
X121773000Y-102279000D01*
X112973000Y-95079000D02*
X112973000Y-102279000D01*
X107249000Y-112377000D02*
X118049000Y-112377000D01*
X118049000Y-112377000D02*
X118049000Y-103777000D01*
X118049000Y-103777000D02*
X107249000Y-103777000D01*
X107249000Y-103777000D02*
X107249000Y-112377000D01*
X126271000Y-115701500D02*
X120871000Y-115701500D01*
X120871000Y-115701500D02*
X120871000Y-123101500D01*
X120871000Y-123101500D02*
X126271000Y-123101500D01*
X126271000Y-123101500D02*
X126271000Y-115701500D01*
X123638000Y-98516500D02*
X123638000Y-102016500D01*
X123638000Y-102016500D02*
X128838000Y-102016500D01*
X128838000Y-102016500D02*
X128838000Y-98516500D01*
X128838000Y-98516500D02*
X123638000Y-98516500D01*
X119224500Y-123289000D02*
X119224500Y-119789000D01*
X119224500Y-119789000D02*
X111524500Y-119789000D01*
X111524500Y-119789000D02*
X111524500Y-123289000D01*
X111524500Y-123289000D02*
X119224500Y-123289000D01*
X118515500Y-119731500D02*
X114915500Y-119731500D01*
X118515500Y-114931500D02*
X118515500Y-119731500D01*
X114915500Y-114931500D02*
X118515500Y-114931500D01*
X114915500Y-119731500D02*
X114915500Y-114931500D01*
X111366000Y-119665500D02*
X111366000Y-118205500D01*
X111366000Y-118205500D02*
X114666000Y-118205500D01*
X114666000Y-118205500D02*
X114666000Y-119665500D01*
X114666000Y-119665500D02*
X111366000Y-119665500D01*
X141001500Y-103236000D02*
X139541500Y-103236000D01*
X139541500Y-103236000D02*
X139541500Y-99936000D01*
X139541500Y-99936000D02*
X141001500Y-99936000D01*
X141001500Y-99936000D02*
X141001500Y-103236000D01*
X148812000Y-101789000D02*
X147352000Y-101789000D01*
X147352000Y-101789000D02*
X147352000Y-98489000D01*
X147352000Y-98489000D02*
X148812000Y-98489000D01*
X148812000Y-98489000D02*
X148812000Y-101789000D01*
X145891500Y-98489000D02*
X147351500Y-98489000D01*
X147351500Y-98489000D02*
X147351500Y-101789000D01*
X147351500Y-101789000D02*
X145891500Y-101789000D01*
X145891500Y-101789000D02*
X145891500Y-98489000D01*
X154845000Y-113793000D02*
X156305000Y-113793000D01*
X156305000Y-113793000D02*
X156305000Y-117093000D01*
X156305000Y-117093000D02*
X154845000Y-117093000D01*
X154845000Y-117093000D02*
X154845000Y-113793000D01*
X140239500Y-116458000D02*
X138779500Y-116458000D01*
X138779500Y-116458000D02*
X138779500Y-113158000D01*
X138779500Y-113158000D02*
X140239500Y-113158000D01*
X140239500Y-113158000D02*
X140239500Y-116458000D01*
X136653000Y-109315000D02*
X136653000Y-107855000D01*
X136653000Y-107855000D02*
X139953000Y-107855000D01*
X139953000Y-107855000D02*
X139953000Y-109315000D01*
X139953000Y-109315000D02*
X136653000Y-109315000D01*
X136653000Y-107791000D02*
X136653000Y-106331000D01*
X136653000Y-106331000D02*
X139953000Y-106331000D01*
X139953000Y-106331000D02*
X139953000Y-107791000D01*
X139953000Y-107791000D02*
X136653000Y-107791000D01*
X126333500Y-116142500D02*
X127793500Y-116142500D01*
X127793500Y-116142500D02*
X127793500Y-119442500D01*
X127793500Y-119442500D02*
X126333500Y-119442500D01*
X126333500Y-119442500D02*
X126333500Y-116142500D01*
X119538500Y-107074000D02*
X118078500Y-107074000D01*
X118078500Y-107074000D02*
X118078500Y-103774000D01*
X118078500Y-103774000D02*
X119538500Y-103774000D01*
X119538500Y-103774000D02*
X119538500Y-107074000D01*
X119602500Y-103774000D02*
X121062500Y-103774000D01*
X121062500Y-103774000D02*
X121062500Y-107074000D01*
X121062500Y-107074000D02*
X119602500Y-107074000D01*
X119602500Y-107074000D02*
X119602500Y-103774000D01*
X134633000Y-115284500D02*
X134633000Y-116744500D01*
X134633000Y-116744500D02*
X131333000Y-116744500D01*
X131333000Y-116744500D02*
X131333000Y-115284500D01*
X131333000Y-115284500D02*
X134633000Y-115284500D01*
X126333500Y-119811500D02*
X127793500Y-119811500D01*
X127793500Y-119811500D02*
X127793500Y-123111500D01*
X127793500Y-123111500D02*
X126333500Y-123111500D01*
X126333500Y-123111500D02*
X126333500Y-119811500D01*
X122951000Y-115665000D02*
X122951000Y-114205000D01*
X122951000Y-114205000D02*
X126251000Y-114205000D01*
X126251000Y-114205000D02*
X126251000Y-115665000D01*
X126251000Y-115665000D02*
X122951000Y-115665000D01*
X128636000Y-95536000D02*
X128636000Y-96996000D01*
X128636000Y-96996000D02*
X125336000Y-96996000D01*
X125336000Y-96996000D02*
X125336000Y-95536000D01*
X125336000Y-95536000D02*
X128636000Y-95536000D01*
X128636000Y-97010000D02*
X128636000Y-98470000D01*
X128636000Y-98470000D02*
X125336000Y-98470000D01*
X125336000Y-98470000D02*
X125336000Y-97010000D01*
X125336000Y-97010000D02*
X128636000Y-97010000D01*
X119285000Y-119522000D02*
X120745000Y-119522000D01*
X120745000Y-119522000D02*
X120745000Y-122822000D01*
X120745000Y-122822000D02*
X119285000Y-122822000D01*
X119285000Y-122822000D02*
X119285000Y-119522000D01*
X142527000Y-119987000D02*
X139127000Y-119987000D01*
X139127000Y-119987000D02*
X139127000Y-116487000D01*
X139127000Y-116487000D02*
X142527000Y-116487000D01*
X142527000Y-116487000D02*
X142527000Y-119987000D01*
X140278000Y-112933500D02*
X145678000Y-112933500D01*
X145678000Y-112933500D02*
X145678000Y-116433500D01*
X145678000Y-116433500D02*
X140278000Y-116433500D01*
X140278000Y-116433500D02*
X140278000Y-112933500D01*
X151282500Y-114928500D02*
X151282500Y-109528500D01*
X151282500Y-109528500D02*
X154782500Y-109528500D01*
X154782500Y-109528500D02*
X154782500Y-114928500D01*
X154782500Y-114928500D02*
X151282500Y-114928500D01*
X121101000Y-105882500D02*
X126501000Y-105882500D01*
X126501000Y-105882500D02*
X126501000Y-109382500D01*
X126501000Y-109382500D02*
X121101000Y-109382500D01*
X121101000Y-109382500D02*
X121101000Y-105882500D01*
X121101000Y-102329000D02*
X126501000Y-102329000D01*
X126501000Y-102329000D02*
X126501000Y-105829000D01*
X126501000Y-105829000D02*
X121101000Y-105829000D01*
X121101000Y-105829000D02*
X121101000Y-102329000D01*
X131319500Y-118397000D02*
X127919500Y-118397000D01*
X127919500Y-118397000D02*
X127919500Y-114897000D01*
X127919500Y-114897000D02*
X131319500Y-114897000D01*
X131319500Y-114897000D02*
X131319500Y-118397000D01*
X136111000Y-98961000D02*
X139511000Y-98961000D01*
X139511000Y-98961000D02*
X139511000Y-102461000D01*
X139511000Y-102461000D02*
X136111000Y-102461000D01*
X136111000Y-102461000D02*
X136111000Y-98961000D01*
X101893000Y-103534000D02*
X111093000Y-103534000D01*
X111093000Y-103534000D02*
X111093000Y-95034000D01*
X111093000Y-95034000D02*
X101893000Y-95034000D01*
X101893000Y-95034000D02*
X101893000Y-103534000D01*
X125235000Y-97010000D02*
X125235000Y-98470000D01*
X125235000Y-98470000D02*
X121935000Y-98470000D01*
X121935000Y-98470000D02*
X121935000Y-97010000D01*
X121935000Y-97010000D02*
X125235000Y-97010000D01*
X101893000Y-123346000D02*
X111093000Y-123346000D01*
X111093000Y-123346000D02*
X111093000Y-114846000D01*
X111093000Y-114846000D02*
X101893000Y-114846000D01*
X101893000Y-114846000D02*
X101893000Y-123346000D01*
X131334000Y-116891000D02*
X138134000Y-116891000D01*
X138134000Y-116891000D02*
X138134000Y-120091000D01*
X138134000Y-120091000D02*
X131334000Y-120091000D01*
X131334000Y-120091000D02*
X131334000Y-116891000D01*
X127793500Y-116077000D02*
X126333500Y-116077000D01*
X126333500Y-116077000D02*
X126333500Y-112777000D01*
X126333500Y-112777000D02*
X127793500Y-112777000D01*
X127793500Y-112777000D02*
X127793500Y-116077000D01*
X112871000Y-101966000D02*
X111411000Y-101966000D01*
X111411000Y-101966000D02*
X111411000Y-98666000D01*
X111411000Y-98666000D02*
X112871000Y-98666000D01*
X112871000Y-98666000D02*
X112871000Y-101966000D01*
X179182000Y-98012500D02*
X179182000Y-99472500D01*
X179182000Y-99472500D02*
X175882000Y-99472500D01*
X175882000Y-99472500D02*
X175882000Y-98012500D01*
X175882000Y-98012500D02*
X179182000Y-98012500D01*
X121935000Y-96996000D02*
X121935000Y-95536000D01*
X121935000Y-95536000D02*
X125235000Y-95536000D01*
X125235000Y-95536000D02*
X125235000Y-96996000D01*
X125235000Y-96996000D02*
X121935000Y-96996000D01*
X158636000Y-112173000D02*
X158636000Y-113633000D01*
X158636000Y-113633000D02*
X155336000Y-113633000D01*
X155336000Y-113633000D02*
X155336000Y-112173000D01*
X155336000Y-112173000D02*
X158636000Y-112173000D01*
X152131000Y-98457000D02*
X152131000Y-99917000D01*
X152131000Y-99917000D02*
X148831000Y-99917000D01*
X148831000Y-99917000D02*
X148831000Y-98457000D01*
X148831000Y-98457000D02*
X152131000Y-98457000D01*
X144049500Y-119964500D02*
X142589500Y-119964500D01*
X142589500Y-119964500D02*
X142589500Y-116664500D01*
X142589500Y-116664500D02*
X144049500Y-116664500D01*
X144049500Y-116664500D02*
X144049500Y-119964500D01*
X155322000Y-110662000D02*
X155322000Y-109202000D01*
X155322000Y-109202000D02*
X158622000Y-109202000D01*
X158622000Y-109202000D02*
X158622000Y-110662000D01*
X158622000Y-110662000D02*
X155322000Y-110662000D01*
X145701000Y-115077000D02*
X147161000Y-115077000D01*
X147161000Y-115077000D02*
X147161000Y-118377000D01*
X147161000Y-118377000D02*
X145701000Y-118377000D01*
X145701000Y-118377000D02*
X145701000Y-115077000D01*
X141401500Y-99917000D02*
X141401500Y-98457000D01*
X141401500Y-98457000D02*
X144701500Y-98457000D01*
X144701500Y-98457000D02*
X144701500Y-99917000D01*
X144701500Y-99917000D02*
X141401500Y-99917000D01*
X152131000Y-99931000D02*
X152131000Y-101391000D01*
X152131000Y-101391000D02*
X148831000Y-101391000D01*
X148831000Y-101391000D02*
X148831000Y-99931000D01*
X148831000Y-99931000D02*
X152131000Y-99931000D01*
X158636000Y-110712500D02*
X158636000Y-112172500D01*
X158636000Y-112172500D02*
X155336000Y-112172500D01*
X155336000Y-112172500D02*
X155336000Y-110712500D01*
X155336000Y-110712500D02*
X158636000Y-110712500D01*
X145637000Y-119964500D02*
X144177000Y-119964500D01*
X144177000Y-119964500D02*
X144177000Y-116664500D01*
X144177000Y-116664500D02*
X145637000Y-116664500D01*
X145637000Y-116664500D02*
X145637000Y-119964500D01*
X143495000Y-105315000D02*
X143495000Y-106775000D01*
X143495000Y-106775000D02*
X140195000Y-106775000D01*
X140195000Y-106775000D02*
X140195000Y-105315000D01*
X140195000Y-105315000D02*
X143495000Y-105315000D01*
X130143000Y-110602000D02*
X128683000Y-110602000D01*
X128683000Y-110602000D02*
X128683000Y-107302000D01*
X128683000Y-107302000D02*
X130143000Y-107302000D01*
X130143000Y-107302000D02*
X130143000Y-110602000D01*
X114793000Y-113887500D02*
X114793000Y-115347500D01*
X114793000Y-115347500D02*
X111493000Y-115347500D01*
X111493000Y-115347500D02*
X111493000Y-113887500D01*
X111493000Y-113887500D02*
X114793000Y-113887500D01*
X114793000Y-112427000D02*
X114793000Y-113887000D01*
X114793000Y-113887000D02*
X111493000Y-113887000D01*
X111493000Y-113887000D02*
X111493000Y-112427000D01*
X111493000Y-112427000D02*
X114793000Y-112427000D01*
X111411000Y-95364000D02*
X112871000Y-95364000D01*
X112871000Y-95364000D02*
X112871000Y-98664000D01*
X112871000Y-98664000D02*
X111411000Y-98664000D01*
X111411000Y-98664000D02*
X111411000Y-95364000D01*
X127904000Y-119919500D02*
X127904000Y-118459500D01*
X127904000Y-118459500D02*
X131204000Y-118459500D01*
X131204000Y-118459500D02*
X131204000Y-119919500D01*
X131204000Y-119919500D02*
X127904000Y-119919500D01*
X119348500Y-116142500D02*
X120808500Y-116142500D01*
X120808500Y-116142500D02*
X120808500Y-119442500D01*
X120808500Y-119442500D02*
X119348500Y-119442500D01*
X119348500Y-119442500D02*
X119348500Y-116142500D01*
X122079000Y-98539000D02*
X123539000Y-98539000D01*
X123539000Y-98539000D02*
X123539000Y-101839000D01*
X123539000Y-101839000D02*
X122079000Y-101839000D01*
X122079000Y-101839000D02*
X122079000Y-98539000D01*
X111394000Y-118078000D02*
X111394000Y-116618000D01*
X111394000Y-116618000D02*
X114694000Y-116618000D01*
X114694000Y-116618000D02*
X114694000Y-118078000D01*
X114694000Y-118078000D02*
X111394000Y-118078000D01*
M02*
