G04 #@! TF.GenerationSoftware,KiCad,Pcbnew,9.0.0*
G04 #@! TF.CreationDate,2025-03-02T20:38:03-08:00*
G04 #@! TF.ProjectId,SuperPower-uC-KiCad,53757065-7250-46f7-9765-722d75432d4b,rev?*
G04 #@! TF.SameCoordinates,Original*
G04 #@! TF.FileFunction,Paste,Top*
G04 #@! TF.FilePolarity,Positive*
%FSLAX46Y46*%
G04 Gerber Fmt 4.6, Leading zero omitted, Abs format (unit mm)*
G04 Created by KiCad (PCBNEW 9.0.0) date 2025-03-02 20:38:03*
%MOMM*%
%LPD*%
G01*
G04 APERTURE LIST*
G04 Aperture macros list*
%AMRoundRect*
0 Rectangle with rounded corners*
0 $1 Rounding radius*
0 $2 $3 $4 $5 $6 $7 $8 $9 X,Y pos of 4 corners*
0 Add a 4 corners polygon primitive as box body*
4,1,4,$2,$3,$4,$5,$6,$7,$8,$9,$2,$3,0*
0 Add four circle primitives for the rounded corners*
1,1,$1+$1,$2,$3*
1,1,$1+$1,$4,$5*
1,1,$1+$1,$6,$7*
1,1,$1+$1,$8,$9*
0 Add four rect primitives between the rounded corners*
20,1,$1+$1,$2,$3,$4,$5,0*
20,1,$1+$1,$4,$5,$6,$7,0*
20,1,$1+$1,$6,$7,$8,$9,0*
20,1,$1+$1,$8,$9,$2,$3,0*%
%AMFreePoly0*
4,1,9,5.362500,-0.866500,1.237500,-0.866500,1.237500,-0.450000,-1.237500,-0.450000,-1.237500,0.450000,1.237500,0.450000,1.237500,0.866500,5.362500,0.866500,5.362500,-0.866500,5.362500,-0.866500,$1*%
G04 Aperture macros list end*
%ADD10R,0.900000X1.200000*%
%ADD11R,1.900000X1.500000*%
%ADD12R,1.350000X0.400000*%
%ADD13R,3.500000X2.950000*%
%ADD14R,1.800000X1.000000*%
%ADD15R,2.100000X1.800000*%
%ADD16R,0.900000X2.000000*%
%ADD17R,2.000000X0.900000*%
%ADD18R,5.000000X5.000000*%
%ADD19FreePoly0,90.000000*%
%ADD20R,0.900000X2.300000*%
%ADD21FreePoly0,0.000000*%
%ADD22R,2.300000X0.900000*%
%ADD23R,1.560000X0.650000*%
%ADD24RoundRect,0.100000X-0.100000X0.637500X-0.100000X-0.637500X0.100000X-0.637500X0.100000X0.637500X0*%
%ADD25R,0.800000X1.900000*%
%ADD26RoundRect,0.150000X0.150000X-0.825000X0.150000X0.825000X-0.150000X0.825000X-0.150000X-0.825000X0*%
%ADD27R,2.000000X1.500000*%
%ADD28R,2.000000X3.800000*%
%ADD29RoundRect,0.150000X0.150000X-0.650000X0.150000X0.650000X-0.150000X0.650000X-0.150000X-0.650000X0*%
%ADD30RoundRect,0.150000X-0.150000X0.675000X-0.150000X-0.675000X0.150000X-0.675000X0.150000X0.675000X0*%
%ADD31RoundRect,0.182500X-0.302500X-0.182500X0.302500X-0.182500X0.302500X0.182500X-0.302500X0.182500X0*%
%ADD32RoundRect,0.062500X-0.387500X-0.062500X0.387500X-0.062500X0.387500X0.062500X-0.387500X0.062500X0*%
%ADD33RoundRect,0.100000X0.637500X0.100000X-0.637500X0.100000X-0.637500X-0.100000X0.637500X-0.100000X0*%
%ADD34R,0.650000X1.560000*%
%ADD35RoundRect,0.237500X-0.287500X-0.237500X0.287500X-0.237500X0.287500X0.237500X-0.287500X0.237500X0*%
%ADD36RoundRect,0.237500X0.237500X-0.287500X0.237500X0.287500X-0.237500X0.287500X-0.237500X-0.287500X0*%
%ADD37RoundRect,0.237500X-0.237500X0.287500X-0.237500X-0.287500X0.237500X-0.287500X0.237500X0.287500X0*%
%ADD38RoundRect,0.237500X0.287500X0.237500X-0.287500X0.237500X-0.287500X-0.237500X0.287500X-0.237500X0*%
%ADD39R,0.900000X0.800000*%
%ADD40R,1.900000X0.800000*%
%ADD41R,1.500000X2.700000*%
G04 APERTURE END LIST*
D10*
X146622500Y-102997000D03*
X149922500Y-102997000D03*
D11*
X103537500Y-108585000D03*
D12*
X106237500Y-109585000D03*
X106237500Y-110235000D03*
X106237500Y-110885000D03*
X106237500Y-108285000D03*
X106237500Y-108935000D03*
D11*
X103537500Y-110585000D03*
D13*
X147701000Y-106564000D03*
X147701000Y-112014000D03*
D14*
X129095500Y-113942500D03*
X129095500Y-111442500D03*
D15*
X122331000Y-112846000D03*
X119431000Y-112846000D03*
X119431000Y-110546000D03*
X122331000Y-110546000D03*
D16*
X177927000Y-117729000D03*
X176657000Y-117729000D03*
X175387000Y-117729000D03*
X174117000Y-117729000D03*
X172847000Y-117729000D03*
X171577000Y-117729000D03*
X170307000Y-117729000D03*
X169037000Y-117729000D03*
X167767000Y-117729000D03*
X166497000Y-117729000D03*
X165227000Y-117729000D03*
X163957000Y-117729000D03*
X162687000Y-117729000D03*
X161417000Y-117729000D03*
D17*
X160417000Y-114944000D03*
X160417000Y-113674000D03*
X160417000Y-112404000D03*
X160417000Y-111134000D03*
X160417000Y-109864000D03*
X160417000Y-108594000D03*
X160417000Y-107324000D03*
X160417000Y-106054000D03*
X160417000Y-104784000D03*
X160417000Y-103514000D03*
D16*
X161417000Y-100729000D03*
X162687000Y-100729000D03*
X163957000Y-100729000D03*
X165227000Y-100729000D03*
X166497000Y-100729000D03*
X167767000Y-100729000D03*
X169037000Y-100729000D03*
X170307000Y-100729000D03*
X171577000Y-100729000D03*
X172847000Y-100729000D03*
X174117000Y-100729000D03*
X175387000Y-100729000D03*
X176657000Y-100729000D03*
X177927000Y-100729000D03*
D18*
X170427000Y-108229000D03*
D19*
X156337000Y-107599500D03*
D20*
X157837000Y-107687000D03*
X154837000Y-107687000D03*
D21*
X148686500Y-117475000D03*
D22*
X148599000Y-118975000D03*
X148599000Y-115975000D03*
D23*
X142113000Y-101729500D03*
X142113000Y-102679500D03*
X142113000Y-100779500D03*
X144813000Y-100779500D03*
X144813000Y-101729500D03*
X144813000Y-102679500D03*
D24*
X134990000Y-105166000D03*
X134340000Y-105166000D03*
X133690000Y-105166000D03*
X133040000Y-105166000D03*
X132390000Y-105166000D03*
X131740000Y-105166000D03*
X131090000Y-105166000D03*
X130440000Y-105166000D03*
X130440000Y-99441000D03*
X131090000Y-99441000D03*
X131740000Y-99441000D03*
X132390000Y-99441000D03*
X133040000Y-99441000D03*
X133690000Y-99441000D03*
X134340000Y-99441000D03*
X134990000Y-99441000D03*
D25*
X141798000Y-111077000D03*
X140848000Y-108077000D03*
X142748000Y-108077000D03*
D26*
X131064000Y-108331000D03*
X132334000Y-108331000D03*
X133604000Y-108331000D03*
X134874000Y-108331000D03*
X134874000Y-113281000D03*
X133604000Y-113281000D03*
X132334000Y-113281000D03*
X131064000Y-113281000D03*
D27*
X114223000Y-96379000D03*
X114223000Y-100979000D03*
X114223000Y-98679000D03*
D28*
X120523000Y-98679000D03*
D29*
X108204000Y-104827000D03*
X109474000Y-104827000D03*
X110744000Y-104827000D03*
X112014000Y-104827000D03*
X113284000Y-104827000D03*
X114554000Y-104827000D03*
X115824000Y-104827000D03*
X117094000Y-104827000D03*
X117094000Y-111327000D03*
X115824000Y-111327000D03*
X114554000Y-111327000D03*
X113284000Y-111327000D03*
X112014000Y-111327000D03*
X110744000Y-111327000D03*
X109474000Y-111327000D03*
X108204000Y-111327000D03*
D30*
X125476000Y-122026500D03*
X124206000Y-122026500D03*
X122936000Y-122026500D03*
X121666000Y-122026500D03*
X121666000Y-116776500D03*
X122936000Y-116776500D03*
X124206000Y-116776500D03*
X125476000Y-116776500D03*
D31*
X126838000Y-100716500D03*
X126838000Y-99816500D03*
X125638000Y-100716500D03*
X125638000Y-99816500D03*
D32*
X128138000Y-99291500D03*
X128138000Y-99941500D03*
X128138000Y-100591500D03*
X128138000Y-101241500D03*
X124338000Y-101241500D03*
X124338000Y-100591500D03*
X124338000Y-99941500D03*
X124338000Y-99291500D03*
D33*
X112512000Y-122514000D03*
X112512000Y-121864000D03*
X112512000Y-121214000D03*
X112512000Y-120564000D03*
X118237000Y-120564000D03*
X118237000Y-121214000D03*
X118237000Y-121864000D03*
X118237000Y-122514000D03*
D34*
X116715500Y-115981500D03*
X115765500Y-115981500D03*
X117665500Y-115981500D03*
X117665500Y-118681500D03*
X116715500Y-118681500D03*
X115765500Y-118681500D03*
D35*
X113891000Y-118935500D03*
X112141000Y-118935500D03*
D36*
X140271500Y-100711000D03*
X140271500Y-102461000D03*
X148082000Y-99264000D03*
X148082000Y-101014000D03*
D37*
X146621500Y-101014000D03*
X146621500Y-99264000D03*
X155575000Y-116318000D03*
X155575000Y-114568000D03*
D36*
X139509500Y-113933000D03*
X139509500Y-115683000D03*
D35*
X139178000Y-108585000D03*
X137428000Y-108585000D03*
X139178000Y-107061000D03*
X137428000Y-107061000D03*
D37*
X127063500Y-118667500D03*
X127063500Y-116917500D03*
D36*
X118808500Y-104549000D03*
X118808500Y-106299000D03*
D37*
X120332500Y-106299000D03*
X120332500Y-104549000D03*
D38*
X132108000Y-116014500D03*
X133858000Y-116014500D03*
D37*
X127063500Y-122336500D03*
X127063500Y-120586500D03*
D35*
X125476000Y-114935000D03*
X123726000Y-114935000D03*
D38*
X126111000Y-96266000D03*
X127861000Y-96266000D03*
X126111000Y-97740000D03*
X127861000Y-97740000D03*
D37*
X120015000Y-122047000D03*
X120015000Y-120297000D03*
D39*
X139827000Y-118237000D03*
X141827000Y-117287000D03*
X141827000Y-119187000D03*
D40*
X144478000Y-114683500D03*
X141478000Y-115633500D03*
X141478000Y-113733500D03*
D25*
X153032500Y-110728500D03*
X153982500Y-113728500D03*
X152082500Y-113728500D03*
D40*
X125301000Y-107632500D03*
X122301000Y-108582500D03*
X122301000Y-106682500D03*
X125301000Y-104079000D03*
X122301000Y-105029000D03*
X122301000Y-103129000D03*
D39*
X128619500Y-116647000D03*
X130619500Y-115697000D03*
X130619500Y-117597000D03*
X138811000Y-100711000D03*
X136811000Y-101661000D03*
X136811000Y-99761000D03*
D38*
X122710000Y-97740000D03*
X124460000Y-97740000D03*
D41*
X137134000Y-118491000D03*
X132334000Y-118491000D03*
D36*
X127063500Y-113552000D03*
X127063500Y-115302000D03*
X112141000Y-99441000D03*
X112141000Y-101191000D03*
D38*
X176657000Y-98742500D03*
X178407000Y-98742500D03*
D35*
X124460000Y-96266000D03*
X122710000Y-96266000D03*
D38*
X156111000Y-112903000D03*
X157861000Y-112903000D03*
X149606000Y-99187000D03*
X151356000Y-99187000D03*
D36*
X143319500Y-117439500D03*
X143319500Y-119189500D03*
D35*
X157847000Y-109932000D03*
X156097000Y-109932000D03*
D37*
X146431000Y-117602000D03*
X146431000Y-115852000D03*
D35*
X143926500Y-99187000D03*
X142176500Y-99187000D03*
D38*
X149606000Y-100661000D03*
X151356000Y-100661000D03*
X156111000Y-111442500D03*
X157861000Y-111442500D03*
D36*
X144907000Y-117439500D03*
X144907000Y-119189500D03*
D38*
X140970000Y-106045000D03*
X142720000Y-106045000D03*
D36*
X129413000Y-108077000D03*
X129413000Y-109827000D03*
D38*
X112268000Y-114617500D03*
X114018000Y-114617500D03*
X112268000Y-113157000D03*
X114018000Y-113157000D03*
D37*
X112141000Y-97889000D03*
X112141000Y-96139000D03*
D35*
X130429000Y-119189500D03*
X128679000Y-119189500D03*
D37*
X120078500Y-118667500D03*
X120078500Y-116917500D03*
X122809000Y-101064000D03*
X122809000Y-99314000D03*
D35*
X113919000Y-117348000D03*
X112169000Y-117348000D03*
M02*
