G04 #@! TF.GenerationSoftware,KiCad,Pcbnew,9.0.0*
G04 #@! TF.CreationDate,2025-03-02T20:38:03-08:00*
G04 #@! TF.ProjectId,SuperPower-uC-KiCad,53757065-7250-46f7-9765-722d75432d4b,rev?*
G04 #@! TF.SameCoordinates,Original*
G04 #@! TF.FileFunction,Other,User*
%FSLAX46Y46*%
G04 Gerber Fmt 4.6, Leading zero omitted, Abs format (unit mm)*
G04 Created by KiCad (PCBNEW 9.0.0) date 2025-03-02 20:38:03*
%MOMM*%
%LPD*%
G01*
G04 APERTURE LIST*
%ADD10C,0.050000*%
G04 APERTURE END LIST*
D10*
X131356000Y-114796000D02*
X133856000Y-114796000D01*
X131356000Y-114796000D02*
X131356000Y-112296000D01*
X133856000Y-112296000D02*
X133856000Y-114796000D01*
X133856000Y-112296000D02*
X131356000Y-112296000D01*
X123083000Y-123297000D02*
X125583000Y-123297000D01*
X123083000Y-123297000D02*
X123083000Y-120797000D01*
X125583000Y-120797000D02*
X125583000Y-123297000D01*
X125583000Y-120797000D02*
X123083000Y-120797000D01*
X154285000Y-115717000D02*
X151785000Y-115717000D01*
X154285000Y-115717000D02*
X154285000Y-118217000D01*
X151785000Y-118217000D02*
X151785000Y-115717000D01*
X151785000Y-118217000D02*
X154285000Y-118217000D01*
X151237000Y-104033000D02*
X148737000Y-104033000D01*
X151237000Y-104033000D02*
X151237000Y-106533000D01*
X148737000Y-106533000D02*
X148737000Y-104033000D01*
X148737000Y-106533000D02*
X151237000Y-106533000D01*
X114153000Y-103588500D02*
X111653000Y-103588500D01*
X114153000Y-103588500D02*
X114153000Y-106088500D01*
X111653000Y-106088500D02*
X111653000Y-103588500D01*
X111653000Y-106088500D02*
X114153000Y-106088500D01*
X111613000Y-103588500D02*
X109113000Y-103588500D01*
X111613000Y-103588500D02*
X111613000Y-106088500D01*
X109113000Y-106088500D02*
X109113000Y-103588500D01*
X109113000Y-106088500D02*
X111613000Y-106088500D01*
X129266000Y-119654000D02*
X126766000Y-119654000D01*
X129266000Y-119654000D02*
X129266000Y-122154000D01*
X126766000Y-122154000D02*
X126766000Y-119654000D01*
X126766000Y-122154000D02*
X129266000Y-122154000D01*
X118725000Y-97429000D02*
X116225000Y-97429000D01*
X118725000Y-97429000D02*
X118725000Y-99929000D01*
X116225000Y-99929000D02*
X116225000Y-97429000D01*
X116225000Y-99929000D02*
X118725000Y-99929000D01*
X140823000Y-112917000D02*
X140823000Y-109617000D01*
X140823000Y-112917000D02*
X138323000Y-112917000D01*
X138323000Y-109617000D02*
X140823000Y-109617000D01*
X138323000Y-109617000D02*
X138323000Y-112917000D01*
X151400000Y-113137000D02*
X154700000Y-113137000D01*
X151400000Y-113137000D02*
X151400000Y-110637000D01*
X154700000Y-110637000D02*
X154700000Y-113137000D01*
X154700000Y-110637000D02*
X151400000Y-110637000D01*
X104507000Y-106088500D02*
X109107000Y-106088500D01*
X104507000Y-106088500D02*
X104507000Y-103588500D01*
X109107000Y-103588500D02*
X109107000Y-106088500D01*
X109107000Y-103588500D02*
X104507000Y-103588500D01*
M02*
