G04 #@! TF.GenerationSoftware,KiCad,Pcbnew,9.0.0*
G04 #@! TF.CreationDate,2025-03-02T20:38:03-08:00*
G04 #@! TF.ProjectId,SuperPower-uC-KiCad,53757065-7250-46f7-9765-722d75432d4b,rev?*
G04 #@! TF.SameCoordinates,Original*
G04 #@! TF.FileFunction,AssemblyDrawing,Bot*
%FSLAX46Y46*%
G04 Gerber Fmt 4.6, Leading zero omitted, Abs format (unit mm)*
G04 Created by KiCad (PCBNEW 9.0.0) date 2025-03-02 20:38:03*
%MOMM*%
%LPD*%
G01*
G04 APERTURE LIST*
%ADD10C,0.150000*%
G04 APERTURE END LIST*
D10*
X135939333Y-111250819D02*
X135367905Y-111250819D01*
X135653619Y-112250819D02*
X135653619Y-111250819D01*
X134653619Y-112203200D02*
X134748857Y-112250819D01*
X134748857Y-112250819D02*
X134939333Y-112250819D01*
X134939333Y-112250819D02*
X135034571Y-112203200D01*
X135034571Y-112203200D02*
X135082190Y-112107961D01*
X135082190Y-112107961D02*
X135082190Y-111727009D01*
X135082190Y-111727009D02*
X135034571Y-111631771D01*
X135034571Y-111631771D02*
X134939333Y-111584152D01*
X134939333Y-111584152D02*
X134748857Y-111584152D01*
X134748857Y-111584152D02*
X134653619Y-111631771D01*
X134653619Y-111631771D02*
X134606000Y-111727009D01*
X134606000Y-111727009D02*
X134606000Y-111822247D01*
X134606000Y-111822247D02*
X135082190Y-111917485D01*
X134225047Y-112203200D02*
X134129809Y-112250819D01*
X134129809Y-112250819D02*
X133939333Y-112250819D01*
X133939333Y-112250819D02*
X133844095Y-112203200D01*
X133844095Y-112203200D02*
X133796476Y-112107961D01*
X133796476Y-112107961D02*
X133796476Y-112060342D01*
X133796476Y-112060342D02*
X133844095Y-111965104D01*
X133844095Y-111965104D02*
X133939333Y-111917485D01*
X133939333Y-111917485D02*
X134082190Y-111917485D01*
X134082190Y-111917485D02*
X134177428Y-111869866D01*
X134177428Y-111869866D02*
X134225047Y-111774628D01*
X134225047Y-111774628D02*
X134225047Y-111727009D01*
X134225047Y-111727009D02*
X134177428Y-111631771D01*
X134177428Y-111631771D02*
X134082190Y-111584152D01*
X134082190Y-111584152D02*
X133939333Y-111584152D01*
X133939333Y-111584152D02*
X133844095Y-111631771D01*
X133510761Y-111584152D02*
X133129809Y-111584152D01*
X133367904Y-111250819D02*
X133367904Y-112107961D01*
X133367904Y-112107961D02*
X133320285Y-112203200D01*
X133320285Y-112203200D02*
X133225047Y-112250819D01*
X133225047Y-112250819D02*
X133129809Y-112250819D01*
X132796475Y-112250819D02*
X132796475Y-111250819D01*
X132796475Y-111250819D02*
X132415523Y-111250819D01*
X132415523Y-111250819D02*
X132320285Y-111298438D01*
X132320285Y-111298438D02*
X132272666Y-111346057D01*
X132272666Y-111346057D02*
X132225047Y-111441295D01*
X132225047Y-111441295D02*
X132225047Y-111584152D01*
X132225047Y-111584152D02*
X132272666Y-111679390D01*
X132272666Y-111679390D02*
X132320285Y-111727009D01*
X132320285Y-111727009D02*
X132415523Y-111774628D01*
X132415523Y-111774628D02*
X132796475Y-111774628D01*
X131653618Y-112250819D02*
X131748856Y-112203200D01*
X131748856Y-112203200D02*
X131796475Y-112155580D01*
X131796475Y-112155580D02*
X131844094Y-112060342D01*
X131844094Y-112060342D02*
X131844094Y-111774628D01*
X131844094Y-111774628D02*
X131796475Y-111679390D01*
X131796475Y-111679390D02*
X131748856Y-111631771D01*
X131748856Y-111631771D02*
X131653618Y-111584152D01*
X131653618Y-111584152D02*
X131510761Y-111584152D01*
X131510761Y-111584152D02*
X131415523Y-111631771D01*
X131415523Y-111631771D02*
X131367904Y-111679390D01*
X131367904Y-111679390D02*
X131320285Y-111774628D01*
X131320285Y-111774628D02*
X131320285Y-112060342D01*
X131320285Y-112060342D02*
X131367904Y-112155580D01*
X131367904Y-112155580D02*
X131415523Y-112203200D01*
X131415523Y-112203200D02*
X131510761Y-112250819D01*
X131510761Y-112250819D02*
X131653618Y-112250819D01*
X130891713Y-112250819D02*
X130891713Y-111584152D01*
X130891713Y-111250819D02*
X130939332Y-111298438D01*
X130939332Y-111298438D02*
X130891713Y-111346057D01*
X130891713Y-111346057D02*
X130844094Y-111298438D01*
X130844094Y-111298438D02*
X130891713Y-111250819D01*
X130891713Y-111250819D02*
X130891713Y-111346057D01*
X130415523Y-111584152D02*
X130415523Y-112250819D01*
X130415523Y-111679390D02*
X130367904Y-111631771D01*
X130367904Y-111631771D02*
X130272666Y-111584152D01*
X130272666Y-111584152D02*
X130129809Y-111584152D01*
X130129809Y-111584152D02*
X130034571Y-111631771D01*
X130034571Y-111631771D02*
X129986952Y-111727009D01*
X129986952Y-111727009D02*
X129986952Y-112250819D01*
X129653618Y-111584152D02*
X129272666Y-111584152D01*
X129510761Y-111250819D02*
X129510761Y-112107961D01*
X129510761Y-112107961D02*
X129463142Y-112203200D01*
X129463142Y-112203200D02*
X129367904Y-112250819D01*
X129367904Y-112250819D02*
X129272666Y-112250819D01*
X133867904Y-114650819D02*
X133296476Y-114650819D01*
X133582190Y-115650819D02*
X133582190Y-114650819D01*
X132963142Y-115650819D02*
X132963142Y-114650819D01*
X132963142Y-114650819D02*
X132582190Y-114650819D01*
X132582190Y-114650819D02*
X132486952Y-114698438D01*
X132486952Y-114698438D02*
X132439333Y-114746057D01*
X132439333Y-114746057D02*
X132391714Y-114841295D01*
X132391714Y-114841295D02*
X132391714Y-114984152D01*
X132391714Y-114984152D02*
X132439333Y-115079390D01*
X132439333Y-115079390D02*
X132486952Y-115127009D01*
X132486952Y-115127009D02*
X132582190Y-115174628D01*
X132582190Y-115174628D02*
X132963142Y-115174628D01*
X132010761Y-114746057D02*
X131963142Y-114698438D01*
X131963142Y-114698438D02*
X131867904Y-114650819D01*
X131867904Y-114650819D02*
X131629809Y-114650819D01*
X131629809Y-114650819D02*
X131534571Y-114698438D01*
X131534571Y-114698438D02*
X131486952Y-114746057D01*
X131486952Y-114746057D02*
X131439333Y-114841295D01*
X131439333Y-114841295D02*
X131439333Y-114936533D01*
X131439333Y-114936533D02*
X131486952Y-115079390D01*
X131486952Y-115079390D02*
X132058380Y-115650819D01*
X132058380Y-115650819D02*
X131439333Y-115650819D01*
X127666333Y-119751819D02*
X127094905Y-119751819D01*
X127380619Y-120751819D02*
X127380619Y-119751819D01*
X126380619Y-120704200D02*
X126475857Y-120751819D01*
X126475857Y-120751819D02*
X126666333Y-120751819D01*
X126666333Y-120751819D02*
X126761571Y-120704200D01*
X126761571Y-120704200D02*
X126809190Y-120608961D01*
X126809190Y-120608961D02*
X126809190Y-120228009D01*
X126809190Y-120228009D02*
X126761571Y-120132771D01*
X126761571Y-120132771D02*
X126666333Y-120085152D01*
X126666333Y-120085152D02*
X126475857Y-120085152D01*
X126475857Y-120085152D02*
X126380619Y-120132771D01*
X126380619Y-120132771D02*
X126333000Y-120228009D01*
X126333000Y-120228009D02*
X126333000Y-120323247D01*
X126333000Y-120323247D02*
X126809190Y-120418485D01*
X125952047Y-120704200D02*
X125856809Y-120751819D01*
X125856809Y-120751819D02*
X125666333Y-120751819D01*
X125666333Y-120751819D02*
X125571095Y-120704200D01*
X125571095Y-120704200D02*
X125523476Y-120608961D01*
X125523476Y-120608961D02*
X125523476Y-120561342D01*
X125523476Y-120561342D02*
X125571095Y-120466104D01*
X125571095Y-120466104D02*
X125666333Y-120418485D01*
X125666333Y-120418485D02*
X125809190Y-120418485D01*
X125809190Y-120418485D02*
X125904428Y-120370866D01*
X125904428Y-120370866D02*
X125952047Y-120275628D01*
X125952047Y-120275628D02*
X125952047Y-120228009D01*
X125952047Y-120228009D02*
X125904428Y-120132771D01*
X125904428Y-120132771D02*
X125809190Y-120085152D01*
X125809190Y-120085152D02*
X125666333Y-120085152D01*
X125666333Y-120085152D02*
X125571095Y-120132771D01*
X125237761Y-120085152D02*
X124856809Y-120085152D01*
X125094904Y-119751819D02*
X125094904Y-120608961D01*
X125094904Y-120608961D02*
X125047285Y-120704200D01*
X125047285Y-120704200D02*
X124952047Y-120751819D01*
X124952047Y-120751819D02*
X124856809Y-120751819D01*
X124523475Y-120751819D02*
X124523475Y-119751819D01*
X124523475Y-119751819D02*
X124142523Y-119751819D01*
X124142523Y-119751819D02*
X124047285Y-119799438D01*
X124047285Y-119799438D02*
X123999666Y-119847057D01*
X123999666Y-119847057D02*
X123952047Y-119942295D01*
X123952047Y-119942295D02*
X123952047Y-120085152D01*
X123952047Y-120085152D02*
X123999666Y-120180390D01*
X123999666Y-120180390D02*
X124047285Y-120228009D01*
X124047285Y-120228009D02*
X124142523Y-120275628D01*
X124142523Y-120275628D02*
X124523475Y-120275628D01*
X123380618Y-120751819D02*
X123475856Y-120704200D01*
X123475856Y-120704200D02*
X123523475Y-120656580D01*
X123523475Y-120656580D02*
X123571094Y-120561342D01*
X123571094Y-120561342D02*
X123571094Y-120275628D01*
X123571094Y-120275628D02*
X123523475Y-120180390D01*
X123523475Y-120180390D02*
X123475856Y-120132771D01*
X123475856Y-120132771D02*
X123380618Y-120085152D01*
X123380618Y-120085152D02*
X123237761Y-120085152D01*
X123237761Y-120085152D02*
X123142523Y-120132771D01*
X123142523Y-120132771D02*
X123094904Y-120180390D01*
X123094904Y-120180390D02*
X123047285Y-120275628D01*
X123047285Y-120275628D02*
X123047285Y-120561342D01*
X123047285Y-120561342D02*
X123094904Y-120656580D01*
X123094904Y-120656580D02*
X123142523Y-120704200D01*
X123142523Y-120704200D02*
X123237761Y-120751819D01*
X123237761Y-120751819D02*
X123380618Y-120751819D01*
X122618713Y-120751819D02*
X122618713Y-120085152D01*
X122618713Y-119751819D02*
X122666332Y-119799438D01*
X122666332Y-119799438D02*
X122618713Y-119847057D01*
X122618713Y-119847057D02*
X122571094Y-119799438D01*
X122571094Y-119799438D02*
X122618713Y-119751819D01*
X122618713Y-119751819D02*
X122618713Y-119847057D01*
X122142523Y-120085152D02*
X122142523Y-120751819D01*
X122142523Y-120180390D02*
X122094904Y-120132771D01*
X122094904Y-120132771D02*
X121999666Y-120085152D01*
X121999666Y-120085152D02*
X121856809Y-120085152D01*
X121856809Y-120085152D02*
X121761571Y-120132771D01*
X121761571Y-120132771D02*
X121713952Y-120228009D01*
X121713952Y-120228009D02*
X121713952Y-120751819D01*
X121380618Y-120085152D02*
X120999666Y-120085152D01*
X121237761Y-119751819D02*
X121237761Y-120608961D01*
X121237761Y-120608961D02*
X121190142Y-120704200D01*
X121190142Y-120704200D02*
X121094904Y-120751819D01*
X121094904Y-120751819D02*
X120999666Y-120751819D01*
X125594904Y-123151819D02*
X125023476Y-123151819D01*
X125309190Y-124151819D02*
X125309190Y-123151819D01*
X124690142Y-124151819D02*
X124690142Y-123151819D01*
X124690142Y-123151819D02*
X124309190Y-123151819D01*
X124309190Y-123151819D02*
X124213952Y-123199438D01*
X124213952Y-123199438D02*
X124166333Y-123247057D01*
X124166333Y-123247057D02*
X124118714Y-123342295D01*
X124118714Y-123342295D02*
X124118714Y-123485152D01*
X124118714Y-123485152D02*
X124166333Y-123580390D01*
X124166333Y-123580390D02*
X124213952Y-123628009D01*
X124213952Y-123628009D02*
X124309190Y-123675628D01*
X124309190Y-123675628D02*
X124690142Y-123675628D01*
X123261571Y-123485152D02*
X123261571Y-124151819D01*
X123499666Y-123104200D02*
X123737761Y-123818485D01*
X123737761Y-123818485D02*
X123118714Y-123818485D01*
X156368333Y-114671819D02*
X155796905Y-114671819D01*
X156082619Y-115671819D02*
X156082619Y-114671819D01*
X155082619Y-115624200D02*
X155177857Y-115671819D01*
X155177857Y-115671819D02*
X155368333Y-115671819D01*
X155368333Y-115671819D02*
X155463571Y-115624200D01*
X155463571Y-115624200D02*
X155511190Y-115528961D01*
X155511190Y-115528961D02*
X155511190Y-115148009D01*
X155511190Y-115148009D02*
X155463571Y-115052771D01*
X155463571Y-115052771D02*
X155368333Y-115005152D01*
X155368333Y-115005152D02*
X155177857Y-115005152D01*
X155177857Y-115005152D02*
X155082619Y-115052771D01*
X155082619Y-115052771D02*
X155035000Y-115148009D01*
X155035000Y-115148009D02*
X155035000Y-115243247D01*
X155035000Y-115243247D02*
X155511190Y-115338485D01*
X154654047Y-115624200D02*
X154558809Y-115671819D01*
X154558809Y-115671819D02*
X154368333Y-115671819D01*
X154368333Y-115671819D02*
X154273095Y-115624200D01*
X154273095Y-115624200D02*
X154225476Y-115528961D01*
X154225476Y-115528961D02*
X154225476Y-115481342D01*
X154225476Y-115481342D02*
X154273095Y-115386104D01*
X154273095Y-115386104D02*
X154368333Y-115338485D01*
X154368333Y-115338485D02*
X154511190Y-115338485D01*
X154511190Y-115338485D02*
X154606428Y-115290866D01*
X154606428Y-115290866D02*
X154654047Y-115195628D01*
X154654047Y-115195628D02*
X154654047Y-115148009D01*
X154654047Y-115148009D02*
X154606428Y-115052771D01*
X154606428Y-115052771D02*
X154511190Y-115005152D01*
X154511190Y-115005152D02*
X154368333Y-115005152D01*
X154368333Y-115005152D02*
X154273095Y-115052771D01*
X153939761Y-115005152D02*
X153558809Y-115005152D01*
X153796904Y-114671819D02*
X153796904Y-115528961D01*
X153796904Y-115528961D02*
X153749285Y-115624200D01*
X153749285Y-115624200D02*
X153654047Y-115671819D01*
X153654047Y-115671819D02*
X153558809Y-115671819D01*
X153225475Y-115671819D02*
X153225475Y-114671819D01*
X153225475Y-114671819D02*
X152844523Y-114671819D01*
X152844523Y-114671819D02*
X152749285Y-114719438D01*
X152749285Y-114719438D02*
X152701666Y-114767057D01*
X152701666Y-114767057D02*
X152654047Y-114862295D01*
X152654047Y-114862295D02*
X152654047Y-115005152D01*
X152654047Y-115005152D02*
X152701666Y-115100390D01*
X152701666Y-115100390D02*
X152749285Y-115148009D01*
X152749285Y-115148009D02*
X152844523Y-115195628D01*
X152844523Y-115195628D02*
X153225475Y-115195628D01*
X152082618Y-115671819D02*
X152177856Y-115624200D01*
X152177856Y-115624200D02*
X152225475Y-115576580D01*
X152225475Y-115576580D02*
X152273094Y-115481342D01*
X152273094Y-115481342D02*
X152273094Y-115195628D01*
X152273094Y-115195628D02*
X152225475Y-115100390D01*
X152225475Y-115100390D02*
X152177856Y-115052771D01*
X152177856Y-115052771D02*
X152082618Y-115005152D01*
X152082618Y-115005152D02*
X151939761Y-115005152D01*
X151939761Y-115005152D02*
X151844523Y-115052771D01*
X151844523Y-115052771D02*
X151796904Y-115100390D01*
X151796904Y-115100390D02*
X151749285Y-115195628D01*
X151749285Y-115195628D02*
X151749285Y-115481342D01*
X151749285Y-115481342D02*
X151796904Y-115576580D01*
X151796904Y-115576580D02*
X151844523Y-115624200D01*
X151844523Y-115624200D02*
X151939761Y-115671819D01*
X151939761Y-115671819D02*
X152082618Y-115671819D01*
X151320713Y-115671819D02*
X151320713Y-115005152D01*
X151320713Y-114671819D02*
X151368332Y-114719438D01*
X151368332Y-114719438D02*
X151320713Y-114767057D01*
X151320713Y-114767057D02*
X151273094Y-114719438D01*
X151273094Y-114719438D02*
X151320713Y-114671819D01*
X151320713Y-114671819D02*
X151320713Y-114767057D01*
X150844523Y-115005152D02*
X150844523Y-115671819D01*
X150844523Y-115100390D02*
X150796904Y-115052771D01*
X150796904Y-115052771D02*
X150701666Y-115005152D01*
X150701666Y-115005152D02*
X150558809Y-115005152D01*
X150558809Y-115005152D02*
X150463571Y-115052771D01*
X150463571Y-115052771D02*
X150415952Y-115148009D01*
X150415952Y-115148009D02*
X150415952Y-115671819D01*
X150082618Y-115005152D02*
X149701666Y-115005152D01*
X149939761Y-114671819D02*
X149939761Y-115528961D01*
X149939761Y-115528961D02*
X149892142Y-115624200D01*
X149892142Y-115624200D02*
X149796904Y-115671819D01*
X149796904Y-115671819D02*
X149701666Y-115671819D01*
X154296904Y-118071819D02*
X153725476Y-118071819D01*
X154011190Y-119071819D02*
X154011190Y-118071819D01*
X153392142Y-119071819D02*
X153392142Y-118071819D01*
X153392142Y-118071819D02*
X153011190Y-118071819D01*
X153011190Y-118071819D02*
X152915952Y-118119438D01*
X152915952Y-118119438D02*
X152868333Y-118167057D01*
X152868333Y-118167057D02*
X152820714Y-118262295D01*
X152820714Y-118262295D02*
X152820714Y-118405152D01*
X152820714Y-118405152D02*
X152868333Y-118500390D01*
X152868333Y-118500390D02*
X152915952Y-118548009D01*
X152915952Y-118548009D02*
X153011190Y-118595628D01*
X153011190Y-118595628D02*
X153392142Y-118595628D01*
X152249285Y-118500390D02*
X152344523Y-118452771D01*
X152344523Y-118452771D02*
X152392142Y-118405152D01*
X152392142Y-118405152D02*
X152439761Y-118309914D01*
X152439761Y-118309914D02*
X152439761Y-118262295D01*
X152439761Y-118262295D02*
X152392142Y-118167057D01*
X152392142Y-118167057D02*
X152344523Y-118119438D01*
X152344523Y-118119438D02*
X152249285Y-118071819D01*
X152249285Y-118071819D02*
X152058809Y-118071819D01*
X152058809Y-118071819D02*
X151963571Y-118119438D01*
X151963571Y-118119438D02*
X151915952Y-118167057D01*
X151915952Y-118167057D02*
X151868333Y-118262295D01*
X151868333Y-118262295D02*
X151868333Y-118309914D01*
X151868333Y-118309914D02*
X151915952Y-118405152D01*
X151915952Y-118405152D02*
X151963571Y-118452771D01*
X151963571Y-118452771D02*
X152058809Y-118500390D01*
X152058809Y-118500390D02*
X152249285Y-118500390D01*
X152249285Y-118500390D02*
X152344523Y-118548009D01*
X152344523Y-118548009D02*
X152392142Y-118595628D01*
X152392142Y-118595628D02*
X152439761Y-118690866D01*
X152439761Y-118690866D02*
X152439761Y-118881342D01*
X152439761Y-118881342D02*
X152392142Y-118976580D01*
X152392142Y-118976580D02*
X152344523Y-119024200D01*
X152344523Y-119024200D02*
X152249285Y-119071819D01*
X152249285Y-119071819D02*
X152058809Y-119071819D01*
X152058809Y-119071819D02*
X151963571Y-119024200D01*
X151963571Y-119024200D02*
X151915952Y-118976580D01*
X151915952Y-118976580D02*
X151868333Y-118881342D01*
X151868333Y-118881342D02*
X151868333Y-118690866D01*
X151868333Y-118690866D02*
X151915952Y-118595628D01*
X151915952Y-118595628D02*
X151963571Y-118548009D01*
X151963571Y-118548009D02*
X152058809Y-118500390D01*
X153320333Y-102987819D02*
X152748905Y-102987819D01*
X153034619Y-103987819D02*
X153034619Y-102987819D01*
X152034619Y-103940200D02*
X152129857Y-103987819D01*
X152129857Y-103987819D02*
X152320333Y-103987819D01*
X152320333Y-103987819D02*
X152415571Y-103940200D01*
X152415571Y-103940200D02*
X152463190Y-103844961D01*
X152463190Y-103844961D02*
X152463190Y-103464009D01*
X152463190Y-103464009D02*
X152415571Y-103368771D01*
X152415571Y-103368771D02*
X152320333Y-103321152D01*
X152320333Y-103321152D02*
X152129857Y-103321152D01*
X152129857Y-103321152D02*
X152034619Y-103368771D01*
X152034619Y-103368771D02*
X151987000Y-103464009D01*
X151987000Y-103464009D02*
X151987000Y-103559247D01*
X151987000Y-103559247D02*
X152463190Y-103654485D01*
X151606047Y-103940200D02*
X151510809Y-103987819D01*
X151510809Y-103987819D02*
X151320333Y-103987819D01*
X151320333Y-103987819D02*
X151225095Y-103940200D01*
X151225095Y-103940200D02*
X151177476Y-103844961D01*
X151177476Y-103844961D02*
X151177476Y-103797342D01*
X151177476Y-103797342D02*
X151225095Y-103702104D01*
X151225095Y-103702104D02*
X151320333Y-103654485D01*
X151320333Y-103654485D02*
X151463190Y-103654485D01*
X151463190Y-103654485D02*
X151558428Y-103606866D01*
X151558428Y-103606866D02*
X151606047Y-103511628D01*
X151606047Y-103511628D02*
X151606047Y-103464009D01*
X151606047Y-103464009D02*
X151558428Y-103368771D01*
X151558428Y-103368771D02*
X151463190Y-103321152D01*
X151463190Y-103321152D02*
X151320333Y-103321152D01*
X151320333Y-103321152D02*
X151225095Y-103368771D01*
X150891761Y-103321152D02*
X150510809Y-103321152D01*
X150748904Y-102987819D02*
X150748904Y-103844961D01*
X150748904Y-103844961D02*
X150701285Y-103940200D01*
X150701285Y-103940200D02*
X150606047Y-103987819D01*
X150606047Y-103987819D02*
X150510809Y-103987819D01*
X150177475Y-103987819D02*
X150177475Y-102987819D01*
X150177475Y-102987819D02*
X149796523Y-102987819D01*
X149796523Y-102987819D02*
X149701285Y-103035438D01*
X149701285Y-103035438D02*
X149653666Y-103083057D01*
X149653666Y-103083057D02*
X149606047Y-103178295D01*
X149606047Y-103178295D02*
X149606047Y-103321152D01*
X149606047Y-103321152D02*
X149653666Y-103416390D01*
X149653666Y-103416390D02*
X149701285Y-103464009D01*
X149701285Y-103464009D02*
X149796523Y-103511628D01*
X149796523Y-103511628D02*
X150177475Y-103511628D01*
X149034618Y-103987819D02*
X149129856Y-103940200D01*
X149129856Y-103940200D02*
X149177475Y-103892580D01*
X149177475Y-103892580D02*
X149225094Y-103797342D01*
X149225094Y-103797342D02*
X149225094Y-103511628D01*
X149225094Y-103511628D02*
X149177475Y-103416390D01*
X149177475Y-103416390D02*
X149129856Y-103368771D01*
X149129856Y-103368771D02*
X149034618Y-103321152D01*
X149034618Y-103321152D02*
X148891761Y-103321152D01*
X148891761Y-103321152D02*
X148796523Y-103368771D01*
X148796523Y-103368771D02*
X148748904Y-103416390D01*
X148748904Y-103416390D02*
X148701285Y-103511628D01*
X148701285Y-103511628D02*
X148701285Y-103797342D01*
X148701285Y-103797342D02*
X148748904Y-103892580D01*
X148748904Y-103892580D02*
X148796523Y-103940200D01*
X148796523Y-103940200D02*
X148891761Y-103987819D01*
X148891761Y-103987819D02*
X149034618Y-103987819D01*
X148272713Y-103987819D02*
X148272713Y-103321152D01*
X148272713Y-102987819D02*
X148320332Y-103035438D01*
X148320332Y-103035438D02*
X148272713Y-103083057D01*
X148272713Y-103083057D02*
X148225094Y-103035438D01*
X148225094Y-103035438D02*
X148272713Y-102987819D01*
X148272713Y-102987819D02*
X148272713Y-103083057D01*
X147796523Y-103321152D02*
X147796523Y-103987819D01*
X147796523Y-103416390D02*
X147748904Y-103368771D01*
X147748904Y-103368771D02*
X147653666Y-103321152D01*
X147653666Y-103321152D02*
X147510809Y-103321152D01*
X147510809Y-103321152D02*
X147415571Y-103368771D01*
X147415571Y-103368771D02*
X147367952Y-103464009D01*
X147367952Y-103464009D02*
X147367952Y-103987819D01*
X147034618Y-103321152D02*
X146653666Y-103321152D01*
X146891761Y-102987819D02*
X146891761Y-103844961D01*
X146891761Y-103844961D02*
X146844142Y-103940200D01*
X146844142Y-103940200D02*
X146748904Y-103987819D01*
X146748904Y-103987819D02*
X146653666Y-103987819D01*
X151248904Y-106387819D02*
X150677476Y-106387819D01*
X150963190Y-107387819D02*
X150963190Y-106387819D01*
X150344142Y-107387819D02*
X150344142Y-106387819D01*
X150344142Y-106387819D02*
X149963190Y-106387819D01*
X149963190Y-106387819D02*
X149867952Y-106435438D01*
X149867952Y-106435438D02*
X149820333Y-106483057D01*
X149820333Y-106483057D02*
X149772714Y-106578295D01*
X149772714Y-106578295D02*
X149772714Y-106721152D01*
X149772714Y-106721152D02*
X149820333Y-106816390D01*
X149820333Y-106816390D02*
X149867952Y-106864009D01*
X149867952Y-106864009D02*
X149963190Y-106911628D01*
X149963190Y-106911628D02*
X150344142Y-106911628D01*
X148867952Y-106387819D02*
X149344142Y-106387819D01*
X149344142Y-106387819D02*
X149391761Y-106864009D01*
X149391761Y-106864009D02*
X149344142Y-106816390D01*
X149344142Y-106816390D02*
X149248904Y-106768771D01*
X149248904Y-106768771D02*
X149010809Y-106768771D01*
X149010809Y-106768771D02*
X148915571Y-106816390D01*
X148915571Y-106816390D02*
X148867952Y-106864009D01*
X148867952Y-106864009D02*
X148820333Y-106959247D01*
X148820333Y-106959247D02*
X148820333Y-107197342D01*
X148820333Y-107197342D02*
X148867952Y-107292580D01*
X148867952Y-107292580D02*
X148915571Y-107340200D01*
X148915571Y-107340200D02*
X149010809Y-107387819D01*
X149010809Y-107387819D02*
X149248904Y-107387819D01*
X149248904Y-107387819D02*
X149344142Y-107340200D01*
X149344142Y-107340200D02*
X149391761Y-107292580D01*
X116236333Y-102543319D02*
X115664905Y-102543319D01*
X115950619Y-103543319D02*
X115950619Y-102543319D01*
X114950619Y-103495700D02*
X115045857Y-103543319D01*
X115045857Y-103543319D02*
X115236333Y-103543319D01*
X115236333Y-103543319D02*
X115331571Y-103495700D01*
X115331571Y-103495700D02*
X115379190Y-103400461D01*
X115379190Y-103400461D02*
X115379190Y-103019509D01*
X115379190Y-103019509D02*
X115331571Y-102924271D01*
X115331571Y-102924271D02*
X115236333Y-102876652D01*
X115236333Y-102876652D02*
X115045857Y-102876652D01*
X115045857Y-102876652D02*
X114950619Y-102924271D01*
X114950619Y-102924271D02*
X114903000Y-103019509D01*
X114903000Y-103019509D02*
X114903000Y-103114747D01*
X114903000Y-103114747D02*
X115379190Y-103209985D01*
X114522047Y-103495700D02*
X114426809Y-103543319D01*
X114426809Y-103543319D02*
X114236333Y-103543319D01*
X114236333Y-103543319D02*
X114141095Y-103495700D01*
X114141095Y-103495700D02*
X114093476Y-103400461D01*
X114093476Y-103400461D02*
X114093476Y-103352842D01*
X114093476Y-103352842D02*
X114141095Y-103257604D01*
X114141095Y-103257604D02*
X114236333Y-103209985D01*
X114236333Y-103209985D02*
X114379190Y-103209985D01*
X114379190Y-103209985D02*
X114474428Y-103162366D01*
X114474428Y-103162366D02*
X114522047Y-103067128D01*
X114522047Y-103067128D02*
X114522047Y-103019509D01*
X114522047Y-103019509D02*
X114474428Y-102924271D01*
X114474428Y-102924271D02*
X114379190Y-102876652D01*
X114379190Y-102876652D02*
X114236333Y-102876652D01*
X114236333Y-102876652D02*
X114141095Y-102924271D01*
X113807761Y-102876652D02*
X113426809Y-102876652D01*
X113664904Y-102543319D02*
X113664904Y-103400461D01*
X113664904Y-103400461D02*
X113617285Y-103495700D01*
X113617285Y-103495700D02*
X113522047Y-103543319D01*
X113522047Y-103543319D02*
X113426809Y-103543319D01*
X113093475Y-103543319D02*
X113093475Y-102543319D01*
X113093475Y-102543319D02*
X112712523Y-102543319D01*
X112712523Y-102543319D02*
X112617285Y-102590938D01*
X112617285Y-102590938D02*
X112569666Y-102638557D01*
X112569666Y-102638557D02*
X112522047Y-102733795D01*
X112522047Y-102733795D02*
X112522047Y-102876652D01*
X112522047Y-102876652D02*
X112569666Y-102971890D01*
X112569666Y-102971890D02*
X112617285Y-103019509D01*
X112617285Y-103019509D02*
X112712523Y-103067128D01*
X112712523Y-103067128D02*
X113093475Y-103067128D01*
X111950618Y-103543319D02*
X112045856Y-103495700D01*
X112045856Y-103495700D02*
X112093475Y-103448080D01*
X112093475Y-103448080D02*
X112141094Y-103352842D01*
X112141094Y-103352842D02*
X112141094Y-103067128D01*
X112141094Y-103067128D02*
X112093475Y-102971890D01*
X112093475Y-102971890D02*
X112045856Y-102924271D01*
X112045856Y-102924271D02*
X111950618Y-102876652D01*
X111950618Y-102876652D02*
X111807761Y-102876652D01*
X111807761Y-102876652D02*
X111712523Y-102924271D01*
X111712523Y-102924271D02*
X111664904Y-102971890D01*
X111664904Y-102971890D02*
X111617285Y-103067128D01*
X111617285Y-103067128D02*
X111617285Y-103352842D01*
X111617285Y-103352842D02*
X111664904Y-103448080D01*
X111664904Y-103448080D02*
X111712523Y-103495700D01*
X111712523Y-103495700D02*
X111807761Y-103543319D01*
X111807761Y-103543319D02*
X111950618Y-103543319D01*
X111188713Y-103543319D02*
X111188713Y-102876652D01*
X111188713Y-102543319D02*
X111236332Y-102590938D01*
X111236332Y-102590938D02*
X111188713Y-102638557D01*
X111188713Y-102638557D02*
X111141094Y-102590938D01*
X111141094Y-102590938D02*
X111188713Y-102543319D01*
X111188713Y-102543319D02*
X111188713Y-102638557D01*
X110712523Y-102876652D02*
X110712523Y-103543319D01*
X110712523Y-102971890D02*
X110664904Y-102924271D01*
X110664904Y-102924271D02*
X110569666Y-102876652D01*
X110569666Y-102876652D02*
X110426809Y-102876652D01*
X110426809Y-102876652D02*
X110331571Y-102924271D01*
X110331571Y-102924271D02*
X110283952Y-103019509D01*
X110283952Y-103019509D02*
X110283952Y-103543319D01*
X109950618Y-102876652D02*
X109569666Y-102876652D01*
X109807761Y-102543319D02*
X109807761Y-103400461D01*
X109807761Y-103400461D02*
X109760142Y-103495700D01*
X109760142Y-103495700D02*
X109664904Y-103543319D01*
X109664904Y-103543319D02*
X109569666Y-103543319D01*
X114164904Y-105943319D02*
X113593476Y-105943319D01*
X113879190Y-106943319D02*
X113879190Y-105943319D01*
X113260142Y-106943319D02*
X113260142Y-105943319D01*
X113260142Y-105943319D02*
X112879190Y-105943319D01*
X112879190Y-105943319D02*
X112783952Y-105990938D01*
X112783952Y-105990938D02*
X112736333Y-106038557D01*
X112736333Y-106038557D02*
X112688714Y-106133795D01*
X112688714Y-106133795D02*
X112688714Y-106276652D01*
X112688714Y-106276652D02*
X112736333Y-106371890D01*
X112736333Y-106371890D02*
X112783952Y-106419509D01*
X112783952Y-106419509D02*
X112879190Y-106467128D01*
X112879190Y-106467128D02*
X113260142Y-106467128D01*
X112355380Y-105943319D02*
X111688714Y-105943319D01*
X111688714Y-105943319D02*
X112117285Y-106943319D01*
X113696333Y-102543319D02*
X113124905Y-102543319D01*
X113410619Y-103543319D02*
X113410619Y-102543319D01*
X112410619Y-103495700D02*
X112505857Y-103543319D01*
X112505857Y-103543319D02*
X112696333Y-103543319D01*
X112696333Y-103543319D02*
X112791571Y-103495700D01*
X112791571Y-103495700D02*
X112839190Y-103400461D01*
X112839190Y-103400461D02*
X112839190Y-103019509D01*
X112839190Y-103019509D02*
X112791571Y-102924271D01*
X112791571Y-102924271D02*
X112696333Y-102876652D01*
X112696333Y-102876652D02*
X112505857Y-102876652D01*
X112505857Y-102876652D02*
X112410619Y-102924271D01*
X112410619Y-102924271D02*
X112363000Y-103019509D01*
X112363000Y-103019509D02*
X112363000Y-103114747D01*
X112363000Y-103114747D02*
X112839190Y-103209985D01*
X111982047Y-103495700D02*
X111886809Y-103543319D01*
X111886809Y-103543319D02*
X111696333Y-103543319D01*
X111696333Y-103543319D02*
X111601095Y-103495700D01*
X111601095Y-103495700D02*
X111553476Y-103400461D01*
X111553476Y-103400461D02*
X111553476Y-103352842D01*
X111553476Y-103352842D02*
X111601095Y-103257604D01*
X111601095Y-103257604D02*
X111696333Y-103209985D01*
X111696333Y-103209985D02*
X111839190Y-103209985D01*
X111839190Y-103209985D02*
X111934428Y-103162366D01*
X111934428Y-103162366D02*
X111982047Y-103067128D01*
X111982047Y-103067128D02*
X111982047Y-103019509D01*
X111982047Y-103019509D02*
X111934428Y-102924271D01*
X111934428Y-102924271D02*
X111839190Y-102876652D01*
X111839190Y-102876652D02*
X111696333Y-102876652D01*
X111696333Y-102876652D02*
X111601095Y-102924271D01*
X111267761Y-102876652D02*
X110886809Y-102876652D01*
X111124904Y-102543319D02*
X111124904Y-103400461D01*
X111124904Y-103400461D02*
X111077285Y-103495700D01*
X111077285Y-103495700D02*
X110982047Y-103543319D01*
X110982047Y-103543319D02*
X110886809Y-103543319D01*
X110553475Y-103543319D02*
X110553475Y-102543319D01*
X110553475Y-102543319D02*
X110172523Y-102543319D01*
X110172523Y-102543319D02*
X110077285Y-102590938D01*
X110077285Y-102590938D02*
X110029666Y-102638557D01*
X110029666Y-102638557D02*
X109982047Y-102733795D01*
X109982047Y-102733795D02*
X109982047Y-102876652D01*
X109982047Y-102876652D02*
X110029666Y-102971890D01*
X110029666Y-102971890D02*
X110077285Y-103019509D01*
X110077285Y-103019509D02*
X110172523Y-103067128D01*
X110172523Y-103067128D02*
X110553475Y-103067128D01*
X109410618Y-103543319D02*
X109505856Y-103495700D01*
X109505856Y-103495700D02*
X109553475Y-103448080D01*
X109553475Y-103448080D02*
X109601094Y-103352842D01*
X109601094Y-103352842D02*
X109601094Y-103067128D01*
X109601094Y-103067128D02*
X109553475Y-102971890D01*
X109553475Y-102971890D02*
X109505856Y-102924271D01*
X109505856Y-102924271D02*
X109410618Y-102876652D01*
X109410618Y-102876652D02*
X109267761Y-102876652D01*
X109267761Y-102876652D02*
X109172523Y-102924271D01*
X109172523Y-102924271D02*
X109124904Y-102971890D01*
X109124904Y-102971890D02*
X109077285Y-103067128D01*
X109077285Y-103067128D02*
X109077285Y-103352842D01*
X109077285Y-103352842D02*
X109124904Y-103448080D01*
X109124904Y-103448080D02*
X109172523Y-103495700D01*
X109172523Y-103495700D02*
X109267761Y-103543319D01*
X109267761Y-103543319D02*
X109410618Y-103543319D01*
X108648713Y-103543319D02*
X108648713Y-102876652D01*
X108648713Y-102543319D02*
X108696332Y-102590938D01*
X108696332Y-102590938D02*
X108648713Y-102638557D01*
X108648713Y-102638557D02*
X108601094Y-102590938D01*
X108601094Y-102590938D02*
X108648713Y-102543319D01*
X108648713Y-102543319D02*
X108648713Y-102638557D01*
X108172523Y-102876652D02*
X108172523Y-103543319D01*
X108172523Y-102971890D02*
X108124904Y-102924271D01*
X108124904Y-102924271D02*
X108029666Y-102876652D01*
X108029666Y-102876652D02*
X107886809Y-102876652D01*
X107886809Y-102876652D02*
X107791571Y-102924271D01*
X107791571Y-102924271D02*
X107743952Y-103019509D01*
X107743952Y-103019509D02*
X107743952Y-103543319D01*
X107410618Y-102876652D02*
X107029666Y-102876652D01*
X107267761Y-102543319D02*
X107267761Y-103400461D01*
X107267761Y-103400461D02*
X107220142Y-103495700D01*
X107220142Y-103495700D02*
X107124904Y-103543319D01*
X107124904Y-103543319D02*
X107029666Y-103543319D01*
X111624904Y-105943319D02*
X111053476Y-105943319D01*
X111339190Y-106943319D02*
X111339190Y-105943319D01*
X110720142Y-106943319D02*
X110720142Y-105943319D01*
X110720142Y-105943319D02*
X110339190Y-105943319D01*
X110339190Y-105943319D02*
X110243952Y-105990938D01*
X110243952Y-105990938D02*
X110196333Y-106038557D01*
X110196333Y-106038557D02*
X110148714Y-106133795D01*
X110148714Y-106133795D02*
X110148714Y-106276652D01*
X110148714Y-106276652D02*
X110196333Y-106371890D01*
X110196333Y-106371890D02*
X110243952Y-106419509D01*
X110243952Y-106419509D02*
X110339190Y-106467128D01*
X110339190Y-106467128D02*
X110720142Y-106467128D01*
X109291571Y-105943319D02*
X109482047Y-105943319D01*
X109482047Y-105943319D02*
X109577285Y-105990938D01*
X109577285Y-105990938D02*
X109624904Y-106038557D01*
X109624904Y-106038557D02*
X109720142Y-106181414D01*
X109720142Y-106181414D02*
X109767761Y-106371890D01*
X109767761Y-106371890D02*
X109767761Y-106752842D01*
X109767761Y-106752842D02*
X109720142Y-106848080D01*
X109720142Y-106848080D02*
X109672523Y-106895700D01*
X109672523Y-106895700D02*
X109577285Y-106943319D01*
X109577285Y-106943319D02*
X109386809Y-106943319D01*
X109386809Y-106943319D02*
X109291571Y-106895700D01*
X109291571Y-106895700D02*
X109243952Y-106848080D01*
X109243952Y-106848080D02*
X109196333Y-106752842D01*
X109196333Y-106752842D02*
X109196333Y-106514747D01*
X109196333Y-106514747D02*
X109243952Y-106419509D01*
X109243952Y-106419509D02*
X109291571Y-106371890D01*
X109291571Y-106371890D02*
X109386809Y-106324271D01*
X109386809Y-106324271D02*
X109577285Y-106324271D01*
X109577285Y-106324271D02*
X109672523Y-106371890D01*
X109672523Y-106371890D02*
X109720142Y-106419509D01*
X109720142Y-106419509D02*
X109767761Y-106514747D01*
X131349333Y-118608819D02*
X130777905Y-118608819D01*
X131063619Y-119608819D02*
X131063619Y-118608819D01*
X130063619Y-119561200D02*
X130158857Y-119608819D01*
X130158857Y-119608819D02*
X130349333Y-119608819D01*
X130349333Y-119608819D02*
X130444571Y-119561200D01*
X130444571Y-119561200D02*
X130492190Y-119465961D01*
X130492190Y-119465961D02*
X130492190Y-119085009D01*
X130492190Y-119085009D02*
X130444571Y-118989771D01*
X130444571Y-118989771D02*
X130349333Y-118942152D01*
X130349333Y-118942152D02*
X130158857Y-118942152D01*
X130158857Y-118942152D02*
X130063619Y-118989771D01*
X130063619Y-118989771D02*
X130016000Y-119085009D01*
X130016000Y-119085009D02*
X130016000Y-119180247D01*
X130016000Y-119180247D02*
X130492190Y-119275485D01*
X129635047Y-119561200D02*
X129539809Y-119608819D01*
X129539809Y-119608819D02*
X129349333Y-119608819D01*
X129349333Y-119608819D02*
X129254095Y-119561200D01*
X129254095Y-119561200D02*
X129206476Y-119465961D01*
X129206476Y-119465961D02*
X129206476Y-119418342D01*
X129206476Y-119418342D02*
X129254095Y-119323104D01*
X129254095Y-119323104D02*
X129349333Y-119275485D01*
X129349333Y-119275485D02*
X129492190Y-119275485D01*
X129492190Y-119275485D02*
X129587428Y-119227866D01*
X129587428Y-119227866D02*
X129635047Y-119132628D01*
X129635047Y-119132628D02*
X129635047Y-119085009D01*
X129635047Y-119085009D02*
X129587428Y-118989771D01*
X129587428Y-118989771D02*
X129492190Y-118942152D01*
X129492190Y-118942152D02*
X129349333Y-118942152D01*
X129349333Y-118942152D02*
X129254095Y-118989771D01*
X128920761Y-118942152D02*
X128539809Y-118942152D01*
X128777904Y-118608819D02*
X128777904Y-119465961D01*
X128777904Y-119465961D02*
X128730285Y-119561200D01*
X128730285Y-119561200D02*
X128635047Y-119608819D01*
X128635047Y-119608819D02*
X128539809Y-119608819D01*
X128206475Y-119608819D02*
X128206475Y-118608819D01*
X128206475Y-118608819D02*
X127825523Y-118608819D01*
X127825523Y-118608819D02*
X127730285Y-118656438D01*
X127730285Y-118656438D02*
X127682666Y-118704057D01*
X127682666Y-118704057D02*
X127635047Y-118799295D01*
X127635047Y-118799295D02*
X127635047Y-118942152D01*
X127635047Y-118942152D02*
X127682666Y-119037390D01*
X127682666Y-119037390D02*
X127730285Y-119085009D01*
X127730285Y-119085009D02*
X127825523Y-119132628D01*
X127825523Y-119132628D02*
X128206475Y-119132628D01*
X127063618Y-119608819D02*
X127158856Y-119561200D01*
X127158856Y-119561200D02*
X127206475Y-119513580D01*
X127206475Y-119513580D02*
X127254094Y-119418342D01*
X127254094Y-119418342D02*
X127254094Y-119132628D01*
X127254094Y-119132628D02*
X127206475Y-119037390D01*
X127206475Y-119037390D02*
X127158856Y-118989771D01*
X127158856Y-118989771D02*
X127063618Y-118942152D01*
X127063618Y-118942152D02*
X126920761Y-118942152D01*
X126920761Y-118942152D02*
X126825523Y-118989771D01*
X126825523Y-118989771D02*
X126777904Y-119037390D01*
X126777904Y-119037390D02*
X126730285Y-119132628D01*
X126730285Y-119132628D02*
X126730285Y-119418342D01*
X126730285Y-119418342D02*
X126777904Y-119513580D01*
X126777904Y-119513580D02*
X126825523Y-119561200D01*
X126825523Y-119561200D02*
X126920761Y-119608819D01*
X126920761Y-119608819D02*
X127063618Y-119608819D01*
X126301713Y-119608819D02*
X126301713Y-118942152D01*
X126301713Y-118608819D02*
X126349332Y-118656438D01*
X126349332Y-118656438D02*
X126301713Y-118704057D01*
X126301713Y-118704057D02*
X126254094Y-118656438D01*
X126254094Y-118656438D02*
X126301713Y-118608819D01*
X126301713Y-118608819D02*
X126301713Y-118704057D01*
X125825523Y-118942152D02*
X125825523Y-119608819D01*
X125825523Y-119037390D02*
X125777904Y-118989771D01*
X125777904Y-118989771D02*
X125682666Y-118942152D01*
X125682666Y-118942152D02*
X125539809Y-118942152D01*
X125539809Y-118942152D02*
X125444571Y-118989771D01*
X125444571Y-118989771D02*
X125396952Y-119085009D01*
X125396952Y-119085009D02*
X125396952Y-119608819D01*
X125063618Y-118942152D02*
X124682666Y-118942152D01*
X124920761Y-118608819D02*
X124920761Y-119465961D01*
X124920761Y-119465961D02*
X124873142Y-119561200D01*
X124873142Y-119561200D02*
X124777904Y-119608819D01*
X124777904Y-119608819D02*
X124682666Y-119608819D01*
X129277904Y-122008819D02*
X128706476Y-122008819D01*
X128992190Y-123008819D02*
X128992190Y-122008819D01*
X128373142Y-123008819D02*
X128373142Y-122008819D01*
X128373142Y-122008819D02*
X127992190Y-122008819D01*
X127992190Y-122008819D02*
X127896952Y-122056438D01*
X127896952Y-122056438D02*
X127849333Y-122104057D01*
X127849333Y-122104057D02*
X127801714Y-122199295D01*
X127801714Y-122199295D02*
X127801714Y-122342152D01*
X127801714Y-122342152D02*
X127849333Y-122437390D01*
X127849333Y-122437390D02*
X127896952Y-122485009D01*
X127896952Y-122485009D02*
X127992190Y-122532628D01*
X127992190Y-122532628D02*
X128373142Y-122532628D01*
X127468380Y-122008819D02*
X126849333Y-122008819D01*
X126849333Y-122008819D02*
X127182666Y-122389771D01*
X127182666Y-122389771D02*
X127039809Y-122389771D01*
X127039809Y-122389771D02*
X126944571Y-122437390D01*
X126944571Y-122437390D02*
X126896952Y-122485009D01*
X126896952Y-122485009D02*
X126849333Y-122580247D01*
X126849333Y-122580247D02*
X126849333Y-122818342D01*
X126849333Y-122818342D02*
X126896952Y-122913580D01*
X126896952Y-122913580D02*
X126944571Y-122961200D01*
X126944571Y-122961200D02*
X127039809Y-123008819D01*
X127039809Y-123008819D02*
X127325523Y-123008819D01*
X127325523Y-123008819D02*
X127420761Y-122961200D01*
X127420761Y-122961200D02*
X127468380Y-122913580D01*
X120808333Y-96383819D02*
X120236905Y-96383819D01*
X120522619Y-97383819D02*
X120522619Y-96383819D01*
X119522619Y-97336200D02*
X119617857Y-97383819D01*
X119617857Y-97383819D02*
X119808333Y-97383819D01*
X119808333Y-97383819D02*
X119903571Y-97336200D01*
X119903571Y-97336200D02*
X119951190Y-97240961D01*
X119951190Y-97240961D02*
X119951190Y-96860009D01*
X119951190Y-96860009D02*
X119903571Y-96764771D01*
X119903571Y-96764771D02*
X119808333Y-96717152D01*
X119808333Y-96717152D02*
X119617857Y-96717152D01*
X119617857Y-96717152D02*
X119522619Y-96764771D01*
X119522619Y-96764771D02*
X119475000Y-96860009D01*
X119475000Y-96860009D02*
X119475000Y-96955247D01*
X119475000Y-96955247D02*
X119951190Y-97050485D01*
X119094047Y-97336200D02*
X118998809Y-97383819D01*
X118998809Y-97383819D02*
X118808333Y-97383819D01*
X118808333Y-97383819D02*
X118713095Y-97336200D01*
X118713095Y-97336200D02*
X118665476Y-97240961D01*
X118665476Y-97240961D02*
X118665476Y-97193342D01*
X118665476Y-97193342D02*
X118713095Y-97098104D01*
X118713095Y-97098104D02*
X118808333Y-97050485D01*
X118808333Y-97050485D02*
X118951190Y-97050485D01*
X118951190Y-97050485D02*
X119046428Y-97002866D01*
X119046428Y-97002866D02*
X119094047Y-96907628D01*
X119094047Y-96907628D02*
X119094047Y-96860009D01*
X119094047Y-96860009D02*
X119046428Y-96764771D01*
X119046428Y-96764771D02*
X118951190Y-96717152D01*
X118951190Y-96717152D02*
X118808333Y-96717152D01*
X118808333Y-96717152D02*
X118713095Y-96764771D01*
X118379761Y-96717152D02*
X117998809Y-96717152D01*
X118236904Y-96383819D02*
X118236904Y-97240961D01*
X118236904Y-97240961D02*
X118189285Y-97336200D01*
X118189285Y-97336200D02*
X118094047Y-97383819D01*
X118094047Y-97383819D02*
X117998809Y-97383819D01*
X117665475Y-97383819D02*
X117665475Y-96383819D01*
X117665475Y-96383819D02*
X117284523Y-96383819D01*
X117284523Y-96383819D02*
X117189285Y-96431438D01*
X117189285Y-96431438D02*
X117141666Y-96479057D01*
X117141666Y-96479057D02*
X117094047Y-96574295D01*
X117094047Y-96574295D02*
X117094047Y-96717152D01*
X117094047Y-96717152D02*
X117141666Y-96812390D01*
X117141666Y-96812390D02*
X117189285Y-96860009D01*
X117189285Y-96860009D02*
X117284523Y-96907628D01*
X117284523Y-96907628D02*
X117665475Y-96907628D01*
X116522618Y-97383819D02*
X116617856Y-97336200D01*
X116617856Y-97336200D02*
X116665475Y-97288580D01*
X116665475Y-97288580D02*
X116713094Y-97193342D01*
X116713094Y-97193342D02*
X116713094Y-96907628D01*
X116713094Y-96907628D02*
X116665475Y-96812390D01*
X116665475Y-96812390D02*
X116617856Y-96764771D01*
X116617856Y-96764771D02*
X116522618Y-96717152D01*
X116522618Y-96717152D02*
X116379761Y-96717152D01*
X116379761Y-96717152D02*
X116284523Y-96764771D01*
X116284523Y-96764771D02*
X116236904Y-96812390D01*
X116236904Y-96812390D02*
X116189285Y-96907628D01*
X116189285Y-96907628D02*
X116189285Y-97193342D01*
X116189285Y-97193342D02*
X116236904Y-97288580D01*
X116236904Y-97288580D02*
X116284523Y-97336200D01*
X116284523Y-97336200D02*
X116379761Y-97383819D01*
X116379761Y-97383819D02*
X116522618Y-97383819D01*
X115760713Y-97383819D02*
X115760713Y-96717152D01*
X115760713Y-96383819D02*
X115808332Y-96431438D01*
X115808332Y-96431438D02*
X115760713Y-96479057D01*
X115760713Y-96479057D02*
X115713094Y-96431438D01*
X115713094Y-96431438D02*
X115760713Y-96383819D01*
X115760713Y-96383819D02*
X115760713Y-96479057D01*
X115284523Y-96717152D02*
X115284523Y-97383819D01*
X115284523Y-96812390D02*
X115236904Y-96764771D01*
X115236904Y-96764771D02*
X115141666Y-96717152D01*
X115141666Y-96717152D02*
X114998809Y-96717152D01*
X114998809Y-96717152D02*
X114903571Y-96764771D01*
X114903571Y-96764771D02*
X114855952Y-96860009D01*
X114855952Y-96860009D02*
X114855952Y-97383819D01*
X114522618Y-96717152D02*
X114141666Y-96717152D01*
X114379761Y-96383819D02*
X114379761Y-97240961D01*
X114379761Y-97240961D02*
X114332142Y-97336200D01*
X114332142Y-97336200D02*
X114236904Y-97383819D01*
X114236904Y-97383819D02*
X114141666Y-97383819D01*
X118736904Y-99783819D02*
X118165476Y-99783819D01*
X118451190Y-100783819D02*
X118451190Y-99783819D01*
X117832142Y-100783819D02*
X117832142Y-99783819D01*
X117832142Y-99783819D02*
X117451190Y-99783819D01*
X117451190Y-99783819D02*
X117355952Y-99831438D01*
X117355952Y-99831438D02*
X117308333Y-99879057D01*
X117308333Y-99879057D02*
X117260714Y-99974295D01*
X117260714Y-99974295D02*
X117260714Y-100117152D01*
X117260714Y-100117152D02*
X117308333Y-100212390D01*
X117308333Y-100212390D02*
X117355952Y-100260009D01*
X117355952Y-100260009D02*
X117451190Y-100307628D01*
X117451190Y-100307628D02*
X117832142Y-100307628D01*
X116308333Y-100783819D02*
X116879761Y-100783819D01*
X116594047Y-100783819D02*
X116594047Y-99783819D01*
X116594047Y-99783819D02*
X116689285Y-99926676D01*
X116689285Y-99926676D02*
X116784523Y-100021914D01*
X116784523Y-100021914D02*
X116879761Y-100069533D01*
X136995819Y-106505095D02*
X136995819Y-107124142D01*
X136995819Y-107124142D02*
X137376771Y-106790809D01*
X137376771Y-106790809D02*
X137376771Y-106933666D01*
X137376771Y-106933666D02*
X137424390Y-107028904D01*
X137424390Y-107028904D02*
X137472009Y-107076523D01*
X137472009Y-107076523D02*
X137567247Y-107124142D01*
X137567247Y-107124142D02*
X137805342Y-107124142D01*
X137805342Y-107124142D02*
X137900580Y-107076523D01*
X137900580Y-107076523D02*
X137948200Y-107028904D01*
X137948200Y-107028904D02*
X137995819Y-106933666D01*
X137995819Y-106933666D02*
X137995819Y-106647952D01*
X137995819Y-106647952D02*
X137948200Y-106552714D01*
X137948200Y-106552714D02*
X137900580Y-106505095D01*
X137329152Y-107457476D02*
X137995819Y-107695571D01*
X137995819Y-107695571D02*
X137329152Y-107933666D01*
X136995819Y-108219381D02*
X136995819Y-108838428D01*
X136995819Y-108838428D02*
X137376771Y-108505095D01*
X137376771Y-108505095D02*
X137376771Y-108647952D01*
X137376771Y-108647952D02*
X137424390Y-108743190D01*
X137424390Y-108743190D02*
X137472009Y-108790809D01*
X137472009Y-108790809D02*
X137567247Y-108838428D01*
X137567247Y-108838428D02*
X137805342Y-108838428D01*
X137805342Y-108838428D02*
X137900580Y-108790809D01*
X137900580Y-108790809D02*
X137948200Y-108743190D01*
X137948200Y-108743190D02*
X137995819Y-108647952D01*
X137995819Y-108647952D02*
X137995819Y-108362238D01*
X137995819Y-108362238D02*
X137948200Y-108267000D01*
X137948200Y-108267000D02*
X137900580Y-108219381D01*
X138091057Y-109028905D02*
X138091057Y-109790809D01*
X137995819Y-110028905D02*
X136995819Y-110028905D01*
X136995819Y-110028905D02*
X137710104Y-110362238D01*
X137710104Y-110362238D02*
X136995819Y-110695571D01*
X136995819Y-110695571D02*
X137995819Y-110695571D01*
X137900580Y-111743190D02*
X137948200Y-111695571D01*
X137948200Y-111695571D02*
X137995819Y-111552714D01*
X137995819Y-111552714D02*
X137995819Y-111457476D01*
X137995819Y-111457476D02*
X137948200Y-111314619D01*
X137948200Y-111314619D02*
X137852961Y-111219381D01*
X137852961Y-111219381D02*
X137757723Y-111171762D01*
X137757723Y-111171762D02*
X137567247Y-111124143D01*
X137567247Y-111124143D02*
X137424390Y-111124143D01*
X137424390Y-111124143D02*
X137233914Y-111171762D01*
X137233914Y-111171762D02*
X137138676Y-111219381D01*
X137138676Y-111219381D02*
X137043438Y-111314619D01*
X137043438Y-111314619D02*
X136995819Y-111457476D01*
X136995819Y-111457476D02*
X136995819Y-111552714D01*
X136995819Y-111552714D02*
X137043438Y-111695571D01*
X137043438Y-111695571D02*
X137091057Y-111743190D01*
X136995819Y-112171762D02*
X137805342Y-112171762D01*
X137805342Y-112171762D02*
X137900580Y-112219381D01*
X137900580Y-112219381D02*
X137948200Y-112267000D01*
X137948200Y-112267000D02*
X137995819Y-112362238D01*
X137995819Y-112362238D02*
X137995819Y-112552714D01*
X137995819Y-112552714D02*
X137948200Y-112647952D01*
X137948200Y-112647952D02*
X137900580Y-112695571D01*
X137900580Y-112695571D02*
X137805342Y-112743190D01*
X137805342Y-112743190D02*
X136995819Y-112743190D01*
X138091057Y-112981286D02*
X138091057Y-113743190D01*
X137995819Y-113981286D02*
X136995819Y-113981286D01*
X137091057Y-114409857D02*
X137043438Y-114457476D01*
X137043438Y-114457476D02*
X136995819Y-114552714D01*
X136995819Y-114552714D02*
X136995819Y-114790809D01*
X136995819Y-114790809D02*
X137043438Y-114886047D01*
X137043438Y-114886047D02*
X137091057Y-114933666D01*
X137091057Y-114933666D02*
X137186295Y-114981285D01*
X137186295Y-114981285D02*
X137281533Y-114981285D01*
X137281533Y-114981285D02*
X137424390Y-114933666D01*
X137424390Y-114933666D02*
X137995819Y-114362238D01*
X137995819Y-114362238D02*
X137995819Y-114981285D01*
X137900580Y-115981285D02*
X137948200Y-115933666D01*
X137948200Y-115933666D02*
X137995819Y-115790809D01*
X137995819Y-115790809D02*
X137995819Y-115695571D01*
X137995819Y-115695571D02*
X137948200Y-115552714D01*
X137948200Y-115552714D02*
X137852961Y-115457476D01*
X137852961Y-115457476D02*
X137757723Y-115409857D01*
X137757723Y-115409857D02*
X137567247Y-115362238D01*
X137567247Y-115362238D02*
X137424390Y-115362238D01*
X137424390Y-115362238D02*
X137233914Y-115409857D01*
X137233914Y-115409857D02*
X137138676Y-115457476D01*
X137138676Y-115457476D02*
X137043438Y-115552714D01*
X137043438Y-115552714D02*
X136995819Y-115695571D01*
X136995819Y-115695571D02*
X136995819Y-115790809D01*
X136995819Y-115790809D02*
X137043438Y-115933666D01*
X137043438Y-115933666D02*
X137091057Y-115981285D01*
X155764285Y-110441819D02*
X155764285Y-109441819D01*
X155764285Y-109441819D02*
X155430952Y-110156104D01*
X155430952Y-110156104D02*
X155097619Y-109441819D01*
X155097619Y-109441819D02*
X155097619Y-110441819D01*
X154050000Y-110346580D02*
X154097619Y-110394200D01*
X154097619Y-110394200D02*
X154240476Y-110441819D01*
X154240476Y-110441819D02*
X154335714Y-110441819D01*
X154335714Y-110441819D02*
X154478571Y-110394200D01*
X154478571Y-110394200D02*
X154573809Y-110298961D01*
X154573809Y-110298961D02*
X154621428Y-110203723D01*
X154621428Y-110203723D02*
X154669047Y-110013247D01*
X154669047Y-110013247D02*
X154669047Y-109870390D01*
X154669047Y-109870390D02*
X154621428Y-109679914D01*
X154621428Y-109679914D02*
X154573809Y-109584676D01*
X154573809Y-109584676D02*
X154478571Y-109489438D01*
X154478571Y-109489438D02*
X154335714Y-109441819D01*
X154335714Y-109441819D02*
X154240476Y-109441819D01*
X154240476Y-109441819D02*
X154097619Y-109489438D01*
X154097619Y-109489438D02*
X154050000Y-109537057D01*
X153621428Y-109441819D02*
X153621428Y-110251342D01*
X153621428Y-110251342D02*
X153573809Y-110346580D01*
X153573809Y-110346580D02*
X153526190Y-110394200D01*
X153526190Y-110394200D02*
X153430952Y-110441819D01*
X153430952Y-110441819D02*
X153240476Y-110441819D01*
X153240476Y-110441819D02*
X153145238Y-110394200D01*
X153145238Y-110394200D02*
X153097619Y-110346580D01*
X153097619Y-110346580D02*
X153050000Y-110251342D01*
X153050000Y-110251342D02*
X153050000Y-109441819D01*
X152811905Y-110537057D02*
X152050000Y-110537057D01*
X151811904Y-109918009D02*
X151478571Y-109918009D01*
X151335714Y-110441819D02*
X151811904Y-110441819D01*
X151811904Y-110441819D02*
X151811904Y-109441819D01*
X151811904Y-109441819D02*
X151335714Y-109441819D01*
X150907142Y-110441819D02*
X150907142Y-109441819D01*
X150907142Y-109441819D02*
X150335714Y-110441819D01*
X150335714Y-110441819D02*
X150335714Y-109441819D01*
X111092714Y-103198080D02*
X111140333Y-103245700D01*
X111140333Y-103245700D02*
X111283190Y-103293319D01*
X111283190Y-103293319D02*
X111378428Y-103293319D01*
X111378428Y-103293319D02*
X111521285Y-103245700D01*
X111521285Y-103245700D02*
X111616523Y-103150461D01*
X111616523Y-103150461D02*
X111664142Y-103055223D01*
X111664142Y-103055223D02*
X111711761Y-102864747D01*
X111711761Y-102864747D02*
X111711761Y-102721890D01*
X111711761Y-102721890D02*
X111664142Y-102531414D01*
X111664142Y-102531414D02*
X111616523Y-102436176D01*
X111616523Y-102436176D02*
X111521285Y-102340938D01*
X111521285Y-102340938D02*
X111378428Y-102293319D01*
X111378428Y-102293319D02*
X111283190Y-102293319D01*
X111283190Y-102293319D02*
X111140333Y-102340938D01*
X111140333Y-102340938D02*
X111092714Y-102388557D01*
X110664142Y-103293319D02*
X110664142Y-102293319D01*
X110664142Y-102769509D02*
X110092714Y-102769509D01*
X110092714Y-103293319D02*
X110092714Y-102293319D01*
X109045095Y-103293319D02*
X109378428Y-102817128D01*
X109616523Y-103293319D02*
X109616523Y-102293319D01*
X109616523Y-102293319D02*
X109235571Y-102293319D01*
X109235571Y-102293319D02*
X109140333Y-102340938D01*
X109140333Y-102340938D02*
X109092714Y-102388557D01*
X109092714Y-102388557D02*
X109045095Y-102483795D01*
X109045095Y-102483795D02*
X109045095Y-102626652D01*
X109045095Y-102626652D02*
X109092714Y-102721890D01*
X109092714Y-102721890D02*
X109140333Y-102769509D01*
X109140333Y-102769509D02*
X109235571Y-102817128D01*
X109235571Y-102817128D02*
X109616523Y-102817128D01*
X108092714Y-102340938D02*
X108187952Y-102293319D01*
X108187952Y-102293319D02*
X108330809Y-102293319D01*
X108330809Y-102293319D02*
X108473666Y-102340938D01*
X108473666Y-102340938D02*
X108568904Y-102436176D01*
X108568904Y-102436176D02*
X108616523Y-102531414D01*
X108616523Y-102531414D02*
X108664142Y-102721890D01*
X108664142Y-102721890D02*
X108664142Y-102864747D01*
X108664142Y-102864747D02*
X108616523Y-103055223D01*
X108616523Y-103055223D02*
X108568904Y-103150461D01*
X108568904Y-103150461D02*
X108473666Y-103245700D01*
X108473666Y-103245700D02*
X108330809Y-103293319D01*
X108330809Y-103293319D02*
X108235571Y-103293319D01*
X108235571Y-103293319D02*
X108092714Y-103245700D01*
X108092714Y-103245700D02*
X108045095Y-103198080D01*
X108045095Y-103198080D02*
X108045095Y-102864747D01*
X108045095Y-102864747D02*
X108235571Y-102864747D01*
X107854619Y-103388557D02*
X107092714Y-103388557D01*
X106568904Y-102293319D02*
X106568904Y-103007604D01*
X106568904Y-103007604D02*
X106616523Y-103150461D01*
X106616523Y-103150461D02*
X106711761Y-103245700D01*
X106711761Y-103245700D02*
X106854618Y-103293319D01*
X106854618Y-103293319D02*
X106949856Y-103293319D01*
X105664142Y-102626652D02*
X105664142Y-103293319D01*
X106092713Y-102626652D02*
X106092713Y-103150461D01*
X106092713Y-103150461D02*
X106045094Y-103245700D01*
X106045094Y-103245700D02*
X105949856Y-103293319D01*
X105949856Y-103293319D02*
X105806999Y-103293319D01*
X105806999Y-103293319D02*
X105711761Y-103245700D01*
X105711761Y-103245700D02*
X105664142Y-103198080D01*
X105187951Y-103293319D02*
X105187951Y-102626652D01*
X105187951Y-102721890D02*
X105140332Y-102674271D01*
X105140332Y-102674271D02*
X105045094Y-102626652D01*
X105045094Y-102626652D02*
X104902237Y-102626652D01*
X104902237Y-102626652D02*
X104806999Y-102674271D01*
X104806999Y-102674271D02*
X104759380Y-102769509D01*
X104759380Y-102769509D02*
X104759380Y-103293319D01*
X104759380Y-102769509D02*
X104711761Y-102674271D01*
X104711761Y-102674271D02*
X104616523Y-102626652D01*
X104616523Y-102626652D02*
X104473666Y-102626652D01*
X104473666Y-102626652D02*
X104378427Y-102674271D01*
X104378427Y-102674271D02*
X104330808Y-102769509D01*
X104330808Y-102769509D02*
X104330808Y-103293319D01*
X103854618Y-102626652D02*
X103854618Y-103626652D01*
X103854618Y-102674271D02*
X103759380Y-102626652D01*
X103759380Y-102626652D02*
X103568904Y-102626652D01*
X103568904Y-102626652D02*
X103473666Y-102674271D01*
X103473666Y-102674271D02*
X103426047Y-102721890D01*
X103426047Y-102721890D02*
X103378428Y-102817128D01*
X103378428Y-102817128D02*
X103378428Y-103102842D01*
X103378428Y-103102842D02*
X103426047Y-103198080D01*
X103426047Y-103198080D02*
X103473666Y-103245700D01*
X103473666Y-103245700D02*
X103568904Y-103293319D01*
X103568904Y-103293319D02*
X103759380Y-103293319D01*
X103759380Y-103293319D02*
X103854618Y-103245700D01*
X102568904Y-103245700D02*
X102664142Y-103293319D01*
X102664142Y-103293319D02*
X102854618Y-103293319D01*
X102854618Y-103293319D02*
X102949856Y-103245700D01*
X102949856Y-103245700D02*
X102997475Y-103150461D01*
X102997475Y-103150461D02*
X102997475Y-102769509D01*
X102997475Y-102769509D02*
X102949856Y-102674271D01*
X102949856Y-102674271D02*
X102854618Y-102626652D01*
X102854618Y-102626652D02*
X102664142Y-102626652D01*
X102664142Y-102626652D02*
X102568904Y-102674271D01*
X102568904Y-102674271D02*
X102521285Y-102769509D01*
X102521285Y-102769509D02*
X102521285Y-102864747D01*
X102521285Y-102864747D02*
X102997475Y-102959985D01*
X102092713Y-103293319D02*
X102092713Y-102626652D01*
X102092713Y-102817128D02*
X102045094Y-102721890D01*
X102045094Y-102721890D02*
X101997475Y-102674271D01*
X101997475Y-102674271D02*
X101902237Y-102626652D01*
X101902237Y-102626652D02*
X101806999Y-102626652D01*
M02*
